<?xml version="1.0" encoding="UTF-8" standalone="no"?>
<!-- Created with Inkscape (http://www.inkscape.org/) -->

<svg
   xmlns:dc="http://purl.org/dc/elements/1.1/"
   xmlns:cc="http://creativecommons.org/ns#"
   xmlns:rdf="http://www.w3.org/1999/02/22-rdf-syntax-ns#"
   xmlns:svg="http://www.w3.org/2000/svg"
   xmlns="http://www.w3.org/2000/svg"
   xmlns:sodipodi="http://sodipodi.sourceforge.net/DTD/sodipodi-0.dtd"
   xmlns:inkscape="http://www.inkscape.org/namespaces/inkscape"
   width="200mm"
   height="140mm"
   viewBox="0 0 200 140"
   version="1.1"
   id="svg916"
   inkscape:version="0.92.5 (2060ec1f9f, 2020-04-08)"
   sodipodi:docname="the-snooze-paper-logo.svg">
  <defs
     id="defs910" />
  <sodipodi:namedview
     id="base"
     pagecolor="#ffffff"
     bordercolor="#666666"
     borderopacity="1.0"
     inkscape:pageopacity="0.0"
     inkscape:pageshadow="2"
     inkscape:zoom="0.35"
     inkscape:cx="-107.14286"
     inkscape:cy="560"
     inkscape:document-units="mm"
     inkscape:current-layer="layer1"
     showgrid="false"
     inkscape:window-width="1375"
     inkscape:window-height="876"
     inkscape:window-x="65"
     inkscape:window-y="24"
     inkscape:window-maximized="1" />
  <metadata
     id="metadata913">
    <rdf:RDF>
      <cc:Work
         rdf:about="">
        <dc:format>image/svg+xml</dc:format>
        <dc:type
           rdf:resource="http://purl.org/dc/dcmitype/StillImage" />
        <dc:title></dc:title>
      </cc:Work>
    </rdf:RDF>
  </metadata>
  <g
     inkscape:label="Layer 1"
     inkscape:groupmode="layer"
     id="layer1"
     transform="translate(0,-157)">
    <path
       style="fill:#000000;fill-opacity:1;stroke:#000000;stroke-width:0.26458332px;stroke-linecap:butt;stroke-linejoin:miter;stroke-opacity:1"
       d="m 96.209643,163.57075 c 19.985977,-0.12054 44.193967,-1.02151 62.447087,5.5491 34.79389,12.52482 53.51349,41.07192 19.15758,75.82392 -6.26444,6.33666 -13.471,9.8762 -10.17377,16.60537 15.9227,32.49591 -21.56903,36.43906 -44.78236,27.24751 -18.20145,-7.20705 -35.952931,-4.30705 -57.03414,10e-6 -28.92044,5.90867 -49.970571,-4.16447 -45.204831,-21.96872 2.46201,-9.1978 -5.35621,-16.79766 -10.8293807,-30.75588 C -18.603892,163.65953 54.25779,163.82376 96.209643,163.57075 Z"
       id="path1660-3"
       inkscape:connector-curvature="0"
       sodipodi:nodetypes="sssssssss" />
    <path
       style="fill:#ffffff;fill-opacity:1;stroke:none;stroke-width:0.25383353px;stroke-linecap:butt;stroke-linejoin:miter;stroke-opacity:1"
       d="m 58.907149,171.60189 28.396811,-0.29892 v 8.66851 l -11.30186,-0.29892 -0.597821,22.41853 -7.771759,-0.29891 0.29891,-22.11962 -9.92102,-0.29891 z"
       id="path832-9-6"
       inkscape:connector-curvature="0"
       sodipodi:nodetypes="ccccccccc" />
    <path
       style="fill:#ffffff;fill-opacity:1;stroke:none;stroke-width:0.2484735px;stroke-linecap:butt;stroke-linejoin:miter;stroke-opacity:1"
       d="m 89.334629,171.2655 -0.896739,30.93371 h 8.369583 l -0.29891,-13.46189 h 8.369577 v 12.60261 l 8.07067,-0.28642 v -30.64728 h -7.77176 l -0.59782,12.60262 h -8.668497 l 0.29891,-12.02977 z"
       id="path834-1-7"
       inkscape:connector-curvature="0" />
    <path
       style="fill:#ffffff;fill-opacity:1;stroke:none;stroke-width:0.25383353px;stroke-linecap:butt;stroke-linejoin:miter;stroke-opacity:1"
       d="m 117.51783,170.40623 v 30.64728 l 18.89328,0.14084 0.29892,-7.44441 -12.25547,-0.2989 v -4.78262 l 10.46198,-0.29893 -0.29892,-5.74109 -9.56524,0.29891 -0.2989,-4.87278 12.25545,-0.0901 v -7.91878 z"
       id="path836-2-5"
       inkscape:connector-curvature="0"
       sodipodi:nodetypes="ccccccccccccc" />
    <ellipse
       style="fill:#ffffff;fill-opacity:1;stroke:none;stroke-width:0.20903265;stroke-miterlimit:4;stroke-dasharray:none;stroke-opacity:1"
       id="path844-3-6-7-3"
       cx="81.362373"
       cy="221.16156"
       rx="14.60968"
       ry="17.000992" />
    <path
       style="fill:#ffffff;fill-opacity:1;stroke:#000000;stroke-width:0.26247418px;stroke-linecap:butt;stroke-linejoin:miter;stroke-opacity:1"
       d="m 158.59366,205.69496 v 31.69055 l 19.53643,0.14564 0.30909,-7.69783 -12.67265,-0.3091 v -4.94542 l 10.81813,-0.30908 -0.3091,-5.93654 -9.89084,0.30909 -0.30909,-5.03864 12.67266,-0.0933 v -8.18835 z"
       id="path836-7-0-5"
       inkscape:connector-curvature="0"
       sodipodi:nodetypes="ccccccccccccc" />
    <circle
       style="fill:#000000;fill-opacity:1;stroke:none;stroke-width:0.30412057;stroke-miterlimit:4;stroke-dasharray:none;stroke-opacity:1"
       id="path844-3-5-9-6"
       cx="81.480957"
       cy="220.26485"
       r="4.035336" />
    <path
       style="fill:#ffffff;fill-opacity:1;stroke:#000000;stroke-width:0.25383353px;stroke-linecap:butt;stroke-linejoin:miter;stroke-opacity:1"
       d="m 40.587438,237.461 7.861922,0.29892 -0.29891,-17.33701 5.978268,17.03809 10.98722,-0.42855 v -30.64731 l -8.296989,0.28774 0.29891,17.33699 -8.369591,-17.03808 h -7.861909 z"
       id="path939-3-2"
       inkscape:connector-curvature="0"
       sodipodi:nodetypes="ccccccccccc" />
    <path
       style="fill:#ffffff;fill-opacity:1;stroke:none;stroke-width:0.2687307px;stroke-linecap:butt;stroke-linejoin:miter;stroke-opacity:1"
       d="m 35.59469,206.97179 -0.668271,6.53725 c -5.99245,-4.70257 -12.69486,0.0673 -6.97646,5.72333 4.402151,4.35412 13.75967,10.33712 5.949101,17.44898 -5.417901,4.93322 -11.531251,2.80343 -17.759231,-0.60929 l 0.39805,-7.97392 c 4.33918,1.09014 6.44198,3.88904 9.95101,3.00115 5.483639,-1.38752 -3.87596,-5.74901 -7.61702,-9.9543 -8.26712,-9.29298 9.22126,-20.94072 16.722821,-14.1732 z"
       id="path1463-6-9"
       inkscape:connector-curvature="0"
       sodipodi:nodetypes="ccssccssc" />
    <ellipse
       style="fill:#ffffff;fill-opacity:1;stroke:none;stroke-width:0.20903265;stroke-miterlimit:4;stroke-dasharray:none;stroke-opacity:1"
       id="path844-3-6-3-0-1"
       cx="113.17396"
       cy="221.19662"
       rx="14.60968"
       ry="17.000992" />
    <circle
       style="fill:#000000;fill-opacity:1;stroke:none;stroke-width:0.30412057;stroke-miterlimit:4;stroke-dasharray:none;stroke-opacity:1"
       id="path844-3-5-6-6-2"
       cx="113.29252"
       cy="220.29988"
       r="4.035336" />
    <path
       style="fill:#ffffff;fill-opacity:1;stroke:#000000;stroke-width:0.26458332px;stroke-linecap:butt;stroke-linejoin:miter;stroke-opacity:1"
       d="m 129.49887,205.42769 v 7.75081 h 15.50163 l -16.57071,18.17433 v 6.41447 h 26.99422 l -0.26727,-8.28536 h -15.23437 l 14.9671,-16.03617 v -7.75081 z"
       id="path1483-2-7"
       inkscape:connector-curvature="0" />
    <path
       style="fill:#ffffff;fill-opacity:1;stroke:#000000;stroke-width:0.26458332px;stroke-linecap:butt;stroke-linejoin:miter;stroke-opacity:1"
       d="m 31.551859,243.92556 -0.84496,32.10804 8.02703,-0.42248 v -16.05404 c 14.436479,13.5812 30.19117,-26.94343 -7.18207,-15.63152 z"
       id="path1504-6-0"
       inkscape:connector-curvature="0"
       sodipodi:nodetypes="ccccc" />
    <circle
       style="fill:#000000;fill-opacity:1;stroke:none;stroke-width:0.30412057;stroke-miterlimit:4;stroke-dasharray:none;stroke-opacity:1"
       id="path844-3-5-7-1-9"
       cx="42.958687"
       cy="251.95273"
       r="4.035336" />
    <path
       style="fill:#ffffff;fill-opacity:1;stroke:#000000;stroke-width:0.26458332px;stroke-linecap:butt;stroke-linejoin:miter;stroke-opacity:1"
       d="m 85.463248,244.93195 -0.844949,32.10805 8.027029,-0.42248 v -16.05405 c 14.436482,13.58121 30.191172,-26.94341 -7.18208,-15.63152 z"
       id="path1504-5-8-3"
       inkscape:connector-curvature="0"
       sodipodi:nodetypes="ccccc" />
    <circle
       style="fill:#000000;fill-opacity:1;stroke:none;stroke-width:0.30412057;stroke-miterlimit:4;stroke-dasharray:none;stroke-opacity:1"
       id="path844-3-5-7-3-7-6"
       cx="96.870094"
       cy="252.95914"
       r="4.035336" />
    <path
       style="fill:#ffffff;fill-opacity:1;stroke:#000000;stroke-width:0.26930335px;stroke-linecap:butt;stroke-linejoin:miter;stroke-opacity:1"
       d="m 112.3101,244.26193 v 32.51502 l 20.04476,0.14942 0.31711,-7.8981 -13.00236,-0.31715 v -5.07408 l 11.09959,-0.31713 -0.31714,-6.091 -10.14817,0.31714 -0.31714,-5.16972 13.00239,-0.0957 v -8.40134 z"
       id="path836-7-5-9-0"
       inkscape:connector-curvature="0"
       sodipodi:nodetypes="ccccccccccccc" />
    <path
       style="fill:#ffffff;fill-opacity:1;stroke:#000000;stroke-width:0.26458332px;stroke-linecap:butt;stroke-linejoin:miter;stroke-opacity:1"
       d="m 135.53011,278.09054 h 9.525 l -0.65302,-12.67426 13.09673,12.67426 6.7596,-5.91465 -12.25178,-13.09673 c 5.74543,-1.79519 12.45126,-22.29231 -16.47653,-14.78656 z"
       id="path1554-2-6"
       inkscape:connector-curvature="0"
       sodipodi:nodetypes="cccccccc" />
    <circle
       style="fill:#000000;fill-opacity:1;stroke:none;stroke-width:0.30412057;stroke-miterlimit:4;stroke-dasharray:none;stroke-opacity:1"
       id="path844-3-5-7-3-6-0-2"
       cx="144.82468"
       cy="251.89725"
       r="4.035336" />
    <path
       style="fill:#ffffff;fill-opacity:1;stroke:#000000;stroke-width:0.26458332px;stroke-linecap:butt;stroke-linejoin:miter;stroke-opacity:1"
       d="m 50.709309,275.45249 h 10.250379 l 2.743941,-10.98435 h 5.59458 l 2.95733,10.98435 H 81.97246 L 72.255539,244.18941 60.42623,243.76693 Z"
       id="path1571-2-6"
       inkscape:connector-curvature="0"
       sodipodi:nodetypes="ccccccccc" />
    <circle
       style="fill:#000000;fill-opacity:1;stroke:none;stroke-width:0.30412057;stroke-miterlimit:4;stroke-dasharray:none;stroke-opacity:1"
       id="path844-3-5-7-3-2-3-1"
       cx="66.617317"
       cy="255.33249"
       r="4.035336" />
    <path
       style="fill:#ffffff;fill-opacity:1;stroke:#000000;stroke-width:0.26458332px;stroke-linecap:butt;stroke-linejoin:miter;stroke-opacity:1"
       d="m 31.677118,172.42261 2.11237,11.8293 -9.716929,5.49218 h 10.98436 l -4.224761,11.40683 9.716932,-10.13941 13.519208,2.53485 -8.87199,-9.29445 4.647221,-9.71692 -10.984341,5.49217 z"
       id="path936"
       inkscape:connector-curvature="0" />
    <path
       style="fill:#ffffff;fill-opacity:1;stroke:#000000;stroke-width:0.26458332px;stroke-linecap:butt;stroke-linejoin:miter;stroke-opacity:1"
       d="m 157.75353,171.985 c 21.498,12.86519 8.90015,37.69987 -13.63512,23.35245 13.54739,0.16616 18.99925,-13.2231 13.63512,-23.35245 z"
       id="path938"
       inkscape:connector-curvature="0"
       sodipodi:nodetypes="ccc" />
  </g>
</svg>
