<?xml version="1.0" encoding="UTF-8" standalone="no"?>
<!-- Created with Inkscape (http://www.inkscape.org/) -->

<svg
   xmlns:dc="http://purl.org/dc/elements/1.1/"
   xmlns:cc="http://creativecommons.org/ns#"
   xmlns:rdf="http://www.w3.org/1999/02/22-rdf-syntax-ns#"
   xmlns:svg="http://www.w3.org/2000/svg"
   xmlns="http://www.w3.org/2000/svg"
   xmlns:sodipodi="http://sodipodi.sourceforge.net/DTD/sodipodi-0.dtd"
   xmlns:inkscape="http://www.inkscape.org/namespaces/inkscape"
   width="148mm"
   height="210mm"
   viewBox="0 0 148 210"
   version="1.1"
   id="svg8"
   inkscape:version="0.92.3 (2405546, 2018-03-11)"
   sodipodi:docname="1st-birthday.svg">
  <defs
     id="defs2" />
  <sodipodi:namedview
     id="base"
     pagecolor="#ffffff"
     bordercolor="#666666"
     borderopacity="1.0"
     inkscape:pageopacity="0.0"
     inkscape:pageshadow="2"
     inkscape:zoom="0.84918651"
     inkscape:cx="64.174346"
     inkscape:cy="396.85039"
     inkscape:document-units="mm"
     inkscape:current-layer="layer1"
     showgrid="false"
     inkscape:window-width="1375"
     inkscape:window-height="876"
     inkscape:window-x="65"
     inkscape:window-y="24"
     inkscape:window-maximized="1"
     gridtolerance="1"
     objecttolerance="1"
     guidetolerance="1"
     showguides="false">
    <sodipodi:guide
       position="64.183979,213.11572"
       orientation="0,1"
       id="guide2372"
       inkscape:locked="false" />
  </sodipodi:namedview>
  <metadata
     id="metadata5">
    <rdf:RDF>
      <cc:Work
         rdf:about="">
        <dc:format>image/svg+xml</dc:format>
        <dc:type
           rdf:resource="http://purl.org/dc/dcmitype/StillImage" />
        <dc:title />
      </cc:Work>
    </rdf:RDF>
  </metadata>
  <g
     inkscape:label="Layer 1"
     inkscape:groupmode="layer"
     id="layer1"
     transform="translate(0,-87)">
    <flowRoot
       xml:space="preserve"
       id="flowRoot936"
       style="font-style:normal;font-variant:normal;font-weight:normal;font-stretch:normal;font-size:25px;line-height:125%;font-family:'Vtks Rash';-inkscape-font-specification:'Vtks Rash';letter-spacing:0px;word-spacing:0px;fill:#000000;fill-opacity:1;stroke:none;stroke-width:1px;stroke-linecap:butt;stroke-linejoin:miter;stroke-opacity:1"><flowRegion
         id="flowRegion938"><rect
           id="rect940"
           width="583.87811"
           height="309.8559"
           x="-4.2157269"
           y="-89.493927" /></flowRegion><flowPara
         id="flowPara942" /></flowRoot>    <flowRoot
       xml:space="preserve"
       id="flowRoot903"
       style="font-style:normal;font-variant:normal;font-weight:normal;font-stretch:normal;font-size:25px;line-height:125%;font-family:'Vtks Rash';-inkscape-font-specification:'Vtks Rash';letter-spacing:0px;word-spacing:0px;fill:#000000;fill-opacity:1;stroke:none;stroke-width:1px;stroke-linecap:butt;stroke-linejoin:miter;stroke-opacity:1"><flowRegion
         id="flowRegion905"><rect
           id="rect907"
           width="11.775976"
           height="31.795135"
           x="202.54678"
           y="594.68677" /></flowRegion><flowPara
         id="flowPara909" /></flowRoot>    <flowRoot
       xml:space="preserve"
       id="flowRoot916"
       style="font-style:normal;font-variant:normal;font-weight:normal;font-stretch:normal;font-size:25px;line-height:125%;font-family:'Vtks Rash';-inkscape-font-specification:'Vtks Rash';letter-spacing:0px;word-spacing:0px;fill:#000000;fill-opacity:1;stroke:none;stroke-width:1px;stroke-linecap:butt;stroke-linejoin:miter;stroke-opacity:1"><flowRegion
         id="flowRegion918"><rect
           id="rect920"
           width="1.1229856"
           height="77.325577"
           x="164.5575"
           y="427.17969" /></flowRegion><flowPara
         id="flowPara922" /></flowRoot>    <text
       xml:space="preserve"
       style="font-style:normal;font-variant:normal;font-weight:normal;font-stretch:normal;font-size:6.61458302px;line-height:125%;font-family:'Vtks Rash';-inkscape-font-specification:'Vtks Rash';letter-spacing:0px;word-spacing:0px;fill:#000000;fill-opacity:1;stroke:none;stroke-width:0.26458332px;stroke-linecap:butt;stroke-linejoin:miter;stroke-opacity:1"
       x="32.715134"
       y="234.37389"
       id="text863"><tspan
         sodipodi:role="line"
         id="tspan861"
         x="32.715134"
         y="240.16165"
         style="stroke-width:0.26458332px" /></text>
    <path
       style="color:#000000;clip-rule:nonzero;display:inline;overflow:visible;visibility:visible;opacity:1;isolation:auto;mix-blend-mode:normal;color-interpolation:sRGB;color-interpolation-filters:linearRGB;solid-color:#000000;solid-opacity:1;fill:#000000;fill-opacity:1;fill-rule:evenodd;stroke:#000000;stroke-width:0.02290714;stroke-linecap:butt;stroke-linejoin:miter;stroke-miterlimit:4;stroke-dasharray:none;stroke-dashoffset:0;stroke-opacity:1;color-rendering:auto;image-rendering:auto;shape-rendering:auto;text-rendering:auto;enable-background:accumulate"
       d="m 78.874348,156.57587 -2.69754,50.98347 16.99449,3.50681 -0.269752,-26.97539 14.836444,26.16612 14.5667,-0.26975 -2.96728,-59.0761 -13.48771,1.34879 1.88829,32.37045 -17.53398,-31.0217 z"
       id="path1609"
       inkscape:connector-curvature="0" />
    <path
       style="color:#000000;clip-rule:nonzero;display:inline;overflow:visible;visibility:visible;opacity:1;isolation:auto;mix-blend-mode:normal;color-interpolation:sRGB;color-interpolation-filters:linearRGB;solid-color:#000000;solid-opacity:1;fill:#000000;fill-opacity:1;fill-rule:evenodd;stroke:#000000;stroke-width:0.02475148;stroke-linecap:butt;stroke-linejoin:miter;stroke-miterlimit:4;stroke-dasharray:none;stroke-dashoffset:0;stroke-opacity:1;color-rendering:auto;image-rendering:auto;shape-rendering:auto;text-rendering:auto;enable-background:accumulate"
       d="m 76.392597,210.63171 -47.079078,-0.30497 -0.278575,56.11419 47.357653,2.74473 -0.557151,-12.80869 -29.250313,-1.52484 0.278574,-10.06395 18.943062,1.21987 0.278575,-11.28384 -19.221637,-0.60994 v -9.14904 l 29.250315,0.91491 z"
       id="path1611"
       inkscape:connector-curvature="0"
       sodipodi:nodetypes="ccccccccccccc" />
    <circle
       style="opacity:1;fill:#000000;fill-opacity:1;fill-rule:nonzero;stroke:none;stroke-width:0.7792033;stroke-linecap:round;stroke-linejoin:round;stroke-miterlimit:4;stroke-dasharray:none;stroke-dashoffset:0;stroke-opacity:1"
       id="path1613"
       cx="49.376431"
       cy="146.64096"
       r="28.45903" />
    <circle
       style="opacity:1;fill:#ffffff;fill-opacity:1;fill-rule:nonzero;stroke:none;stroke-width:0.7792033;stroke-linecap:round;stroke-linejoin:round;stroke-miterlimit:4;stroke-dasharray:none;stroke-dashoffset:0;stroke-opacity:1"
       id="path1615"
       cx="49.915947"
       cy="146.37119"
       r="9.0367537" />
    <circle
       style="opacity:1;fill:#000000;fill-opacity:1;fill-rule:nonzero;stroke:none;stroke-width:0.46213084;stroke-linecap:round;stroke-linejoin:round;stroke-miterlimit:4;stroke-dasharray:none;stroke-dashoffset:0;stroke-opacity:1"
       id="path1615-3"
       cx="186.61664"
       cy="70.427628"
       r="5.3595285"
       transform="rotate(55.115997)" />
    <path
       style="opacity:1;fill:#000000;fill-opacity:1;fill-rule:evenodd;stroke:#000000;stroke-width:0.44057029;stroke-linecap:round;stroke-linejoin:miter;stroke-miterlimit:4;stroke-dasharray:none;stroke-dashoffset:0;stroke-opacity:1"
       id="path884"
       d="m 51.879237,191.48668 c 0.220117,-0.0343 0.443604,-0.0511 0.666,-0.0726 0.345785,-0.0286 0.690369,-0.0638 1.033346,-0.10901 0.437087,-0.0542 0.853421,-0.18438 1.264997,-0.3235 0.554337,-0.19716 1.102535,-0.4092 1.64683,-0.63019 0.560526,-0.22677 1.11004,-0.47693 1.649301,-0.7475 0.514272,-0.26473 0.985123,-0.59954 1.4473,-0.94402 0.419311,-0.31397 0.791783,-0.68226 1.139124,-1.07563 0.296067,-0.34766 0.564542,-0.71906 0.81356,-1.10459 0.218913,-0.35146 0.379807,-0.73594 0.475974,-1.14713 0.0795,-0.44238 0.02116,-0.89962 -0.08546,-1.34473 -0.129797,-0.47156 -0.337125,-0.91956 -0.54883,-1.36225 -0.09081,-0.20652 -0.872429,-1.49364 -0.20397,-0.42204 0.04682,0.0745 -0.105452,-0.14097 -0.158452,-0.21126 -0.331665,-0.43544 -0.727326,-0.81144 -1.132946,-1.17253 -0.410522,-0.36266 -0.842747,-0.69467 -1.308593,-0.97328 -0.488091,-0.27004 -1.016008,-0.41846 -1.547273,-0.52599 -0.476176,-0.0843 -0.954214,-0.12412 -1.430921,-0.11934 -0.381707,0.0112 -0.752272,0.0858 -1.107086,0.20672 -0.286753,0.102 -0.536701,0.27397 -0.778895,0.45233 -0.229052,0.16046 -0.422781,0.36165 -0.607609,0.57138 -0.196768,0.22526 -0.312776,0.50588 -0.422261,0.78638 -0.120642,0.31202 -0.206428,0.63879 -0.283662,0.96725 -0.07936,0.33652 -0.142028,0.67768 -0.201051,1.01982 -0.06473,0.41213 -0.12011,0.82632 -0.169356,1.24177 -0.05452,0.43285 -0.08774,0.86951 -0.121325,1.30596 -0.02595,0.41501 -0.05596,0.8294 -0.08905,1.24338 -0.02389,0.37911 -0.06028,0.75634 -0.0956,1.13364 -0.03533,0.32314 -0.0546,0.64899 -0.08807,0.9724 -0.07808,0.59919 -0.243053,0.12097 -0.587186,-0.41309 -0.0143,-0.262 -0.008,-0.52348 -0.01274,-0.78518 -0.0077,-0.40496 -0.02867,-0.81012 -0.07126,-1.21535 -0.04211,-0.40962 -0.102406,-0.81823 -0.158722,-1.22698 -0.04762,-0.3867 -0.109832,-0.77231 -0.16597,-1.15836 -0.05685,-0.35864 -0.116763,-0.71712 -0.184218,-1.07461 -0.07114,-0.33952 -0.14167,-0.6792 -0.217358,-1.01803 -0.0764,-0.33817 -0.179481,-0.671 -0.284943,-1.00258 -0.103513,-0.30945 -0.226485,-0.61236 -0.360848,-0.91082 0.212329,0.21724 -0.477132,-0.77828 -0.293521,-0.51522 0.416947,0.59724 0.468284,0.66433 0.268723,0.39574 -0.163863,-0.21447 -0.345864,-0.41379 -0.532007,-0.60817 -0.175634,-0.18606 -0.364641,-0.3578 -0.558867,-0.52266 -0.195232,-0.16626 -0.411644,-0.29901 -0.630809,-0.42574 -0.219693,-0.12925 -0.454309,-0.22013 -0.690271,-0.3049 -0.245353,-0.0933 -0.498329,-0.13449 -0.753142,-0.14906 -0.285196,-0.008 -0.567626,0.0174 -0.84564,0.0616 -0.313946,0.0549 -0.608919,0.16905 -0.902313,0.28274 -0.304464,0.11456 -0.59598,0.25697 -0.886051,0.40148 -0.341716,0.17079 -0.653369,0.38965 -0.954903,0.62182 -0.372114,0.29537 -0.720666,0.61917 -1.065851,0.94606 -0.371102,0.36034 -0.736114,0.72713 -1.092538,1.10275 -0.348999,0.35382 -0.673141,0.72966 -0.947738,1.14856 -0.238589,0.38084 -0.400401,0.80559 -0.541158,1.2376 -0.141207,0.39025 -0.167513,0.79923 -0.109747,1.22162 0.05895,0.41396 0.239909,0.79439 0.440191,1.16281 0.194082,0.35672 0.425605,0.69115 0.65709,1.0245 -0.800087,-1.09482 0.09349,0.0796 0.268522,0.28843 0.267428,0.30907 0.540077,0.61347 0.823722,0.90709 0.340338,0.34264 0.699646,0.66457 1.062829,0.98086 0.401591,0.33848 0.805425,0.67404 1.206724,1.01294 0.329921,0.27213 0.649224,0.5579 0.94901,0.8652 0.292353,0.36613 0.788366,0.75497 0.735036,1.24203 -0.03493,0.15514 -0.139007,0.2577 -0.255453,0.35018 -0.133525,0.0944 -0.288519,0.14868 -0.446351,0.19139 -0.234002,0.0541 -0.479679,0.0322 -0.721208,0.009 -0.301949,-0.0276 -0.599249,-0.084 -0.89368,-0.17293 -0.404381,-0.13746 -0.798711,-0.30915 -1.193429,-0.47747 -0.396628,-0.16549 -0.788069,-0.34562 -1.182491,-0.51734 -0.37104,-0.16561 -0.75258,-0.29687 -1.135284,-0.42276 -0.359108,-0.12724 -0.726767,-0.2021 -1.098386,-0.23386 -0.349642,-0.0242 -0.697919,-0.0149 -1.04072,0.0296 -0.301039,0.041 -0.583556,0.14494 -0.857114,0.26478 -0.264068,0.10791 -0.493232,0.25406 -0.670646,0.47871 -0.172589,0.25179 -0.29559,0.53486 -0.404253,0.82346 -0.118317,0.29749 -0.201057,0.60663 -0.259841,0.92534 -0.06449,0.37206 -0.105104,0.74912 -0.132242,1.12845 -0.02728,0.38907 -0.03665,0.78049 -0.04541,1.17171 -0.009,0.36831 0.01484,0.73827 0.05215,1.10769 0.03618,0.37016 0.112924,0.7365 0.201169,1.10045 0.09853,0.38514 0.221765,0.76456 0.350844,1.14193 0.129615,0.36791 0.265883,0.73401 0.417242,1.0945 0.07995,0.31177 0.824258,1.38961 0.08071,0.29994 0.241812,0.31082 0.578006,0.50218 0.911527,0.68406 0.33963,0.17962 0.684527,0.34726 1.041928,0.47881 0.346591,0.12286 0.703729,0.12772 1.056822,0.11742 0.335797,-0.009 0.665985,-0.0568 0.98645,-0.14051 0.345944,-0.107 0.663873,-0.2805 0.975695,-0.45775 0.309975,-0.17668 0.60205,-0.38169 0.884862,-0.59848 0.310758,-0.23343 0.581569,-0.51497 0.855166,-0.79089 0.278411,-0.29273 0.55623,-0.58599 0.838578,-0.87473 0.274512,-0.27982 0.555809,-0.55249 0.838478,-0.82362 0.280536,-0.2755 0.58847,-0.51899 0.897922,-0.75964 0.295789,-0.23091 0.604672,-0.44418 0.911726,-0.65958 0.258537,-0.18444 0.526605,-0.35497 0.801254,-0.5146 0.200962,-0.12287 0.422553,-0.19458 0.656173,-0.23456 0.161727,-0.0247 0.316547,0.002 0.463159,0.0904 0.29873,0.25924 0.550164,0.61189 0.612415,1.00097 0.03445,0.17655 0.0025,0.34018 -0.0433,0.50473 -0.08058,0.27882 -0.227553,0.52602 -0.370041,0.77151 -0.181973,0.30231 -0.376842,0.59545 -0.566818,0.89208 -0.192642,0.29113 -0.379469,0.58635 -0.564169,0.88314 -0.18071,0.29697 -0.360526,0.59463 -0.53324,0.89693 -0.167434,0.2831 -0.32785,0.57034 -0.458154,0.87536 -0.126242,0.31056 -0.20954,0.64054 -0.283141,0.97115 -0.08148,0.3396 -0.116847,0.68984 -0.115009,1.04477 0.0052,0.36821 0.05917,0.73538 0.146562,1.0978 0.08168,0.33884 0.211594,0.66372 0.358644,0.98167 0.126716,0.28757 0.838622,1.29427 0.06536,0.18089 0.166206,0.25677 0.395551,0.44008 0.646655,0.6 0.26265,0.15929 0.542629,0.277 0.830029,0.36776 0.305326,0.0905 0.616967,0.13179 0.928507,0.15223 0.356987,0.0165 0.708742,-0.0259 1.055247,-0.0844 0.43696,-0.0737 0.862637,-0.18902 1.28567,-0.3106 0.436135,-0.12461 0.864628,-0.26933 1.283936,-0.43742 0.44827,-0.18432 0.878553,-0.40633 1.309298,-0.62574 0.383816,-0.18599 0.756548,-0.38894 1.103143,-0.63646 0.301206,-0.22286 0.548366,-0.50388 0.770819,-0.80647 0.222873,-0.30402 0.386318,-0.64831 0.539947,-0.99586 0.17144,-0.3911 0.319655,-0.79332 0.442862,-1.2059 0.106996,-0.36328 0.1775,-0.73767 0.214008,-1.11977 0.04021,-0.3376 -0.0066,-0.67366 -0.08962,-1.00883 -0.07884,-0.30134 -0.194901,-0.58998 -0.330104,-0.87227 -0.142917,-0.27935 -0.311636,-0.54517 -0.489326,-0.80398 0.774874,1.08701 0.0772,0.11806 -0.115385,-0.12244 -0.220626,-0.27044 -0.452092,-0.53175 -0.684507,-0.79173 -0.263609,-0.29549 -0.535485,-0.58312 -0.799036,-0.87867 -0.362687,-0.41468 -0.722355,-0.84957 -0.973597,-1.34222 -0.06455,-0.12183 -0.09965,-0.24627 -0.101324,-0.38001 0.0033,-0.088 0.04545,-0.15939 0.104317,-0.21676 0.07443,-0.0742 0.16588,-0.10241 0.269802,-0.11313 0.219941,1.6e-4 0.439233,0.0454 0.655326,0.10034 0.360253,0.10076 0.714623,0.22655 1.066941,0.35865 0.401217,0.15095 0.801296,0.30564 1.201218,0.46092 0.38257,0.14629 0.763026,0.29936 1.142892,0.4542 0.383317,0.15703 0.773622,0.29028 1.1692,0.39999 0.414866,0.11331 0.835578,0.17581 1.257525,0.19401 0.367704,0.0176 0.708907,-0.0568 1.01658,-0.23835 0.275966,-0.19517 0.44214,-0.49453 0.583991,-0.80087 0.156003,-0.37012 0.192963,-0.78049 0.213009,-1.18768 0.02206,-0.4506 0.0075,-0.90426 -0.02104,-1.35779 -0.02668,-0.41033 -0.08756,-0.81934 -0.162631,-1.22644 -0.06604,-0.33119 -0.157088,-0.65888 -0.296879,-0.97041 -0.128892,-0.23381 -0.473577,-0.75113 0.202991,0.26191 0.0248,0.0371 -0.05369,-0.0711 -0.08184,-0.10562 -0.06112,-0.0745 -0.102756,-0.1158 -0.168624,-0.18514 -0.164703,-0.17949 -0.354202,-0.30065 -0.580567,-0.36371 -0.277059,-0.0497 -0.555944,-0.037 -0.830032,-0.0147 -0.291139,0.0234 -0.573189,0.0865 -0.850955,0.16392 -0.340753,0.10338 -0.672027,0.2319 -1.001673,0.36311 -0.343322,0.13655 -0.680082,0.28736 -1.014025,0.44387 -0.369376,0.17464 -0.731399,0.36342 -1.092129,0.55435 -0.355915,0.18172 -0.711633,0.36387 -1.075632,0.52987 -0.408982,0.17878 -0.828984,0.33301 -1.247275,0.49043 0,0 -0.425179,-0.6385 -0.425179,-0.6385 v 0 c 0.416654,-0.1571 0.834647,-0.31186 1.241974,-0.49031 0.362842,-0.16545 0.717796,-0.34634 1.072851,-0.52697 0.361589,-0.19146 0.724204,-0.38125 1.094038,-0.5572 0.334867,-0.15751 0.672316,-0.30986 1.01689,-0.44675 0.331553,-0.13229 0.664849,-0.26135 1.006647,-0.36823 0.280927,-0.0805 0.565963,-0.14748 0.860988,-0.17236 0.280438,-0.0247 0.564881,-0.0369 0.849127,0.002 0.238225,0.0505 0.441643,0.15916 0.617729,0.34333 0.371052,0.37719 0.68425,0.81728 0.922562,1.29033 0.130297,0.31695 0.220523,0.64643 0.282384,0.98004 0.07265,0.40861 0.129829,0.81914 0.154565,1.23059 0.02633,0.4554 0.03833,0.91078 0.01453,1.36303 -0.02436,0.41507 -0.06697,0.83242 -0.232174,1.20728 -0.151248,0.31653 -0.328241,0.62334 -0.615939,0.825 -0.317952,0.18857 -0.669591,0.27281 -1.050607,0.25714 -0.426421,-0.0148 -0.851639,-0.0747 -1.271629,-0.18624 -0.398163,-0.10642 -0.790855,-0.23831 -1.176392,-0.3948 -0.379758,-0.15479 -0.759648,-0.30927 -1.142163,-0.45532 -0.399637,-0.15557 -0.799401,-0.31063 -1.200505,-0.46132 -0.349384,-0.13174 -0.700785,-0.25703 -1.05799,-0.35835 -0.20874,-0.0559 -0.419702,-0.099 -0.632789,-0.10775 -0.08981,0.002 -0.164998,0.0226 -0.227699,0.0878 -0.04532,0.0491 -0.0656,0.10846 -0.05882,0.17947 0.01308,0.12548 0.06337,0.24248 0.123905,0.35486 0.401112,0.70143 -0.579917,-0.73713 -0.149642,-0.20288 0.03841,0.0477 0.07763,0.0948 0.117308,0.14137 0.04199,0.05 0.0857,0.0985 0.128539,0.14776 0.261242,0.29696 0.534348,0.58264 0.797813,0.87756 0.233814,0.25849 0.464104,0.52076 0.6875,0.78858 0.358187,0.43792 0.670892,0.9101 0.993581,1.37456 0.174587,0.26216 0.343791,0.52896 0.480802,0.81248 0.132121,0.28549 0.242939,0.57871 0.317755,0.88238 0.07655,0.34127 0.113611,0.68282 0.07021,1.02414 -0.04207,0.38437 -0.115487,0.76128 -0.2259,1.12672 -0.127037,0.41371 -0.27694,0.8177 -0.449808,1.2108 -0.156044,0.35202 -0.322534,0.7002 -0.550543,1.00669 -0.228405,0.30652 -0.481544,0.59129 -0.788656,0.8175 -0.350149,0.24833 -0.725134,0.45376 -1.112798,0.63975 -0.432782,0.21964 -0.864643,0.4426 -1.313928,0.62925 -0.420726,0.17042 -0.851036,0.31649 -1.289376,0.4416 -0.424915,0.12258 -0.85219,0.23992 -1.290642,0.31636 -0.350241,0.0623 -0.70597,0.10753 -1.067299,0.0954 -0.316059,-0.0177 -0.632148,-0.056 -0.94283,-0.14345 -0.292918,-0.086 -0.577577,-0.20185 -0.846668,-0.35805 -0.257308,-0.15539 -0.50086,-0.32865 -0.674473,-0.58583 -0.3262,-0.46887 -0.676489,-0.92974 -0.929069,-1.44413 -0.144203,-0.32119 -0.268234,-0.65033 -0.346889,-0.9914 -0.08166,-0.36671 -0.132339,-0.73754 -0.133269,-1.10874 0.0043,-0.35872 0.04245,-0.71254 0.126465,-1.05573 0.07693,-0.3336 0.162285,-0.66675 0.293245,-0.97935 0.134165,-0.30559 0.295688,-0.59477 0.464516,-0.8797 0.174146,-0.30226 0.353836,-0.60087 0.535315,-0.8982 0.184842,-0.29706 0.372835,-0.59176 0.565012,-0.88357 0.189853,-0.29555 0.384157,-0.58799 0.56369,-0.89082 0.138336,-0.24226 0.28081,-0.48651 0.352526,-0.76351 0.03782,-0.15965 0.05664,-0.31766 0.01673,-0.48531 -0.02273,-0.0969 -0.103869,-0.25157 -0.0631,-0.19677 0.744271,1.00035 0.488683,0.69064 0.333121,0.46898 -0.126384,-0.10034 -0.262879,-0.13886 -0.416489,-0.12018 -0.226942,0.035 -0.442568,0.0994 -0.637593,0.21828 -0.273534,0.15782 -0.540844,0.3261 -0.798043,0.50924 -0.306483,0.21424 -0.614715,0.42653 -0.909771,0.65655 -0.307677,0.23926 -0.613531,0.48172 -0.892048,0.7561 -0.282312,0.27042 -0.563294,0.54235 -0.837129,0.82181 -0.282434,0.28884 -0.560251,0.58232 -0.839195,0.87471 -0.276009,0.27783 -0.548182,0.56239 -0.861245,0.79786 -0.28537,0.21836 -0.580098,0.42489 -0.892507,0.60334 -0.316588,0.18024 -0.63971,0.35545 -0.989436,0.4681 -0.32438,0.0878 -0.659044,0.13799 -0.999842,0.14841 -0.359906,0.0128 -0.724833,0.0132 -1.080126,-0.10389 -0.361517,-0.12768 -0.709314,-0.29476 -1.052082,-0.47453 -0.338477,-0.18008 -0.682977,-0.36577 -0.940488,-0.66713 -0.356473,-0.50689 -0.724944,-0.98189 -0.942923,-1.56176 -0.148218,-0.36208 -0.285405,-0.72826 -0.412978,-1.09726 -0.12793,-0.37898 -0.250122,-0.76002 -0.345884,-1.14699 -0.08628,-0.36649 -0.15983,-0.7354 -0.193842,-1.10771 -0.03485,-0.37138 -0.05589,-0.74314 -0.04506,-1.11311 0.01,-0.39187 0.01976,-0.78395 0.04859,-1.17357 0.02921,-0.38135 0.07081,-0.76065 0.137595,-1.13452 0.06126,-0.32192 0.149046,-0.63374 0.268712,-0.93445 0.113429,-0.29373 0.241175,-0.58199 0.420909,-0.83671 0.187032,-0.23007 0.422549,-0.38558 0.696808,-0.49728 0.279007,-0.12277 0.566843,-0.23019 0.873678,-0.27405 0.3468,-0.048 0.69974,-0.0582 1.053954,-0.0361 0.376327,0.0268 0.749503,0.0978 1.113509,0.22577 0.384286,0.12644 0.768589,0.25414 1.141435,0.42001 0.395023,0.1708 0.786015,0.35281 1.182741,0.51876 0.392387,0.16694 0.783767,0.33847 1.18492,0.47777 0.289738,0.0916 0.58199,0.15109 0.880133,0.1785 0.233308,0.0236 0.471001,0.0485 0.698245,8.4e-4 0.149137,-0.0393 0.296494,-0.088 0.422673,-0.1769 0.101664,-0.0815 0.19387,-0.17116 0.208172,-0.31325 -0.0071,-0.13261 -0.09398,-0.2781 -0.06717,-0.24334 0.77431,1.00258 0.356226,0.49919 0.183849,0.28574 -0.294778,-0.3133 -0.614861,-0.60003 -0.944346,-0.87361 -0.400974,-0.33935 -0.803927,-0.67606 -1.207396,-1.01215 -0.364406,-0.31483 -0.723982,-0.63634 -1.067324,-0.97578 -0.286741,-0.29076 -0.558128,-0.5965 -0.828219,-0.90337 -0.412541,-0.48825 -0.793171,-1.00053 -1.145769,-1.53523 -0.230915,-0.33414 -0.458861,-0.67138 -0.650022,-1.02993 -0.196689,-0.37545 -0.368958,-0.76294 -0.419775,-1.18197 -0.04635,-0.43006 -0.0103,-0.84537 0.134914,-1.24088 0.145288,-0.43588 0.312302,-0.86402 0.556663,-1.24721 0.279613,-0.41967 0.606198,-0.79828 0.957847,-1.15459 0.357647,-0.37599 0.723822,-0.7432 1.095278,-1.10481 0.346402,-0.32902 0.696171,-0.65486 1.069806,-0.95206 0.304277,-0.23562 0.618226,-0.45869 0.963096,-0.6327 0.291834,-0.14552 0.585214,-0.28879 0.891308,-0.40467 0.297336,-0.11569 0.59589,-0.23243 0.913248,-0.29173 0.281791,-0.0473 0.568341,-0.074 0.857655,-0.0697 0.260117,0.009 0.519405,0.0452 0.771027,0.13765 0.238984,0.0844 0.478083,0.17069 0.701857,0.29834 0.221923,0.12638 0.443167,0.25504 0.642708,0.41962 0.197317,0.16264 0.388664,0.3337 0.566384,0.51917 0.187956,0.19404 0.37311,0.39171 0.540429,0.6048 0.336648,0.43333 0.665116,0.88255 0.891653,1.38312 0.13228,0.30012 0.252893,0.60493 0.353708,0.91587 0.104314,0.33311 0.205939,0.66745 0.280118,1.0072 0.07445,0.3393 0.146771,0.679 0.215045,1.01921 0.06597,0.35806 0.126752,0.71686 0.181545,1.07611 0.05612,0.38594 0.117133,0.77153 0.16499,1.1581 0.05613,0.40917 0.115373,0.81824 0.156367,1.2283 0.03981,0.40709 0.05951,0.81404 0.06783,1.22079 0.0046,0.26003 -0.0066,0.52231 0.02998,0.78235 -0.141377,-0.19837 -0.267238,-0.40888 -0.423436,-0.59559 -0.01335,-0.0163 -0.02414,0.0309 -0.03622,0.0464 -0.04611,0.0589 0.09682,-0.28013 0.04459,-0.22689 0.03321,-0.32235 0.05578,-0.64656 0.09018,-0.96873 0.03536,-0.37696 0.06988,-0.75411 0.09517,-1.13267 0.03344,-0.41351 0.06258,-0.82763 0.08985,-1.24205 0.03389,-0.43717 0.06892,-0.8743 0.123684,-1.30785 0.05031,-0.41683 0.105365,-0.83273 0.170431,-1.24638 0.05955,-0.34332 0.124066,-0.68532 0.204328,-1.02284 0.07979,-0.3308 0.167406,-0.65991 0.291033,-0.97387 0.113882,-0.2871 0.236944,-0.57239 0.440261,-0.80202 0.188625,-0.21254 0.386531,-0.41622 0.619414,-0.57923 0.247852,-0.18202 0.50392,-0.35726 0.796664,-0.46229 0.361195,-0.12418 0.738464,-0.20164 1.127238,-0.21523 0.481297,-0.007 0.963775,0.0317 1.444953,0.11435 0.537481,0.10433 1.071454,0.25063 1.5687,0.51412 0.471669,0.2734 0.907639,0.60345 1.321444,0.96666 0.408801,0.35925 0.808773,0.73249 1.146169,1.16499 0.454616,0.59548 0.896854,1.20877 1.223113,1.88426 0.210277,0.44565 0.414515,0.89755 0.536299,1.37312 0.09942,0.45484 0.152517,0.92009 0.06105,1.36817 -0.104212,0.41555 -0.270294,0.80519 -0.494936,1.16063 -0.252291,0.3869 -0.523446,0.76008 -0.822959,1.10869 -0.35175,0.39523 -0.728357,0.76556 -1.151529,1.08162 -0.465885,0.34589 -0.939829,0.68293 -1.457456,0.94951 -0.540904,0.27113 -1.091902,0.52214 -1.653768,0.75017 -0.545044,0.22183 -1.094355,0.43377 -1.648294,0.63464 -0.413787,0.1437 -0.832606,0.27829 -1.272977,0.33555 -0.343133,0.0469 -0.688044,0.0827 -1.034168,0.11223 -0.217649,0.0216 -0.43586,0.0408 -0.651331,0.0744 0,0 -0.428334,-0.65523 -0.428334,-0.65523 z"
       inkscape:connector-curvature="0" />
    <circle
       style="opacity:1;fill:#000000;fill-opacity:1;fill-rule:nonzero;stroke:none;stroke-width:0.56639618;stroke-linecap:round;stroke-linejoin:round;stroke-miterlimit:4;stroke-dasharray:none;stroke-dashoffset:0;stroke-opacity:1"
       id="path1615-3-3"
       cx="-95.486076"
       cy="135.32861"
       r="6.568738"
       transform="scale(-1,1)" />
    <path
       style="opacity:1;fill:#000000;fill-opacity:1;fill-rule:evenodd;stroke:#000000;stroke-width:0.53997117;stroke-linecap:round;stroke-linejoin:miter;stroke-miterlimit:4;stroke-dasharray:none;stroke-dashoffset:0;stroke-opacity:1"
       id="path884-6"
       d="m 95.323376,131.07531 c -0.119858,-0.24531 -0.259599,-0.48179 -0.393849,-0.72048 -0.213557,-0.36774 -0.419779,-0.7388 -0.614731,-1.11532 -0.251831,-0.47747 -0.412836,-0.98726 -0.561457,-1.49857 -0.190347,-0.69552 -0.361417,-1.39531 -0.520774,-2.09743 -0.16491,-0.72251 -0.298573,-1.45034 -0.404553,-2.18216 -0.09427,-0.70261 -0.08778,-1.41068 -0.06542,-2.11681 0.02174,-0.64165 0.130943,-1.27429 0.282965,-1.89923 0.142007,-0.54136 0.327213,-1.07161 0.540265,-1.59221 0.199907,-0.46645 0.473692,-0.89771 0.819676,-1.28262 0.389048,-0.39002 0.889649,-0.65188 1.411886,-0.85668 0.565084,-0.20004 1.160817,-0.30562 1.754295,-0.40308 0.271281,-0.0535 2.113231,-0.16984 0.567288,-0.0908 -0.107731,0.005 0.215639,0.007 0.323453,0.0112 0.67027,0.0282 1.32565,0.16245 1.973,0.31715 0.65238,0.15853 1.28913,0.36037 1.89579,0.63342 0.61363,0.30144 1.13288,0.72817 1.61338,1.18693 0.4185,0.41967 0.79365,0.87235 1.123,1.35497 0.2562,0.39169 0.441,0.81651 0.56817,1.25796 0.0985,0.35977 0.10076,0.73163 0.0912,1.10016 -7.6e-4,0.34276 -0.0673,0.67855 -0.14854,1.01138 -0.0886,0.35573 -0.28937,0.66907 -0.49464,0.97576 -0.22914,0.34001 -0.49754,0.6553 -0.77363,0.96318 -0.28271,0.31567 -0.58177,0.61782 -0.8844,0.91699 -0.36897,0.35395 -0.74657,0.69996 -1.12973,1.04068 -0.39697,0.35822 -0.81271,0.6977 -1.22797,1.0374 -0.39906,0.317 -0.79464,0.63765 -1.18765,0.96108 -0.36441,0.28976 -0.71816,0.59077 -1.07275,0.89075 -0.30011,0.26202 -0.614204,0.50981 -0.915898,0.77015 -0.547684,0.4985 0.04873,0.32916 0.826908,0.3008 0.27343,-0.16928 0.53189,-0.35891 0.79835,-0.53757 0.41253,-0.27612 0.83457,-0.53902 1.27185,-0.78024 0.44134,-0.24479 0.89442,-0.47058 1.34486,-0.70048 0.42216,-0.22319 0.85344,-0.43093 1.28094,-0.64509 0.40042,-0.19423 0.80283,-0.38528 1.20951,-0.56803 0.39123,-0.16648 0.78218,-0.33367 1.17589,-0.49507 0.39354,-0.16024 0.80042,-0.28989 1.20771,-0.41628 0.38368,-0.11284 0.77442,-0.20154 1.16867,-0.27565 -0.36725,-0.0612 1.11691,-0.0658 0.72373,-0.066 -0.89271,-5.8e-4 -0.99615,-0.005 -0.58622,0.007 0.33047,0.0144 0.65844,0.0577 0.98434,0.10859 0.31018,0.0461 0.61534,0.1158 0.91722,0.19552 0.30401,0.0797 0.58916,0.20427 0.8702,0.33578 0.28394,0.13029 0.53977,0.30246 0.79041,0.48027 0.26579,0.18127 0.4845,0.40674 0.67776,0.65272 0.20814,0.28099 0.3804,0.58287 0.53078,0.8934 0.16489,0.35411 0.25687,0.7307 0.34822,1.10536 0.0983,0.38641 0.15939,0.77932 0.21744,1.17225 0.0678,0.46327 0.0662,0.93001 0.0442,1.39591 -0.0362,0.58116 -0.11736,1.15856 -0.20406,1.73474 -0.1022,0.62569 -0.21507,1.24977 -0.34286,1.8714 -0.1111,0.59889 -0.26176,1.18823 -0.49043,1.75793 -0.21566,0.50683 -0.52927,0.96723 -0.86495,1.41157 -0.29338,0.41552 -0.68612,0.72865 -1.15126,0.96663 -0.45752,0.23091 -0.96685,0.31564 -1.47765,0.37253 -0.49468,0.0549 -0.9932,0.0566 -1.49061,0.0575 1.66155,0.037 -0.14553,-0.0382 -0.4782,-0.0678 -0.49818,-0.0522 -0.99534,-0.11297 -1.48937,-0.19233 -0.58305,-0.102 -1.15857,-0.23758 -1.73114,-0.38102 -0.62179,-0.1665 -1.24224,-0.33729 -1.86425,-0.50321 -0.50485,-0.14095 -1.01598,-0.26166 -1.53508,-0.34766 -0.57303,-0.0373 -1.31164,-0.26342 -1.76395,0.13161 -0.13147,0.14386 -0.16165,0.32039 -0.17301,0.50229 -10e-4,0.20036 0.0527,0.39429 0.12046,0.58291 0.10969,0.27314 0.30387,0.50482 0.49641,0.73145 0.23936,0.28425 0.50443,0.54365 0.80028,0.77728 0.42166,0.31021 0.87068,0.58632 1.3166,0.86517 0.44439,0.28277 0.89986,0.55007 1.34899,0.82624 0.42658,0.25695 0.826,0.54854 1.22081,0.84507 0.37965,0.27185 0.71263,0.58902 1.00504,0.94038 0.26942,0.33456 0.50423,0.69121 0.69975,1.06707 0.16976,0.33142 0.26331,0.6883 0.33457,1.04734 0.0767,0.34113 0.0904,0.67397 -0.0112,1.0098 -0.13217,0.35001 -0.33057,0.67211 -0.54456,0.98365 -0.21615,0.32748 -0.46895,0.62735 -0.74817,0.90985 -0.32885,0.32564 -0.6795,0.63077 -1.04184,0.92395 -0.37205,0.30014 -0.75901,0.58392 -1.1462,0.86697 -0.36399,0.2672 -0.75264,0.50257 -1.15021,0.724 -0.39752,0.22309 -0.81963,0.40272 -1.24739,0.56911 -0.45629,0.17091 -0.92413,0.31296 -1.39402,0.4477 -0.460738,0.12757 -0.924333,0.24719 -1.392864,0.3477 -0.369493,0.13816 -1.974858,0.14535 -0.35812,0.1291 -0.481995,-0.0252 -0.910048,-0.22911 -1.326685,-0.43694 -0.418657,-0.21556 -0.828958,-0.4448 -1.211742,-0.71191 -0.366455,-0.26235 -0.621685,-0.618 -0.858835,-0.98022 -0.225776,-0.34429 -0.409694,-0.7094 -0.550166,-1.09027 -0.13492,-0.42281 -0.183351,-0.86406 -0.223716,-1.3018 -0.03966,-0.43549 -0.03822,-0.87285 -0.01854,-1.30914 0.0169,-0.47605 0.11008,-0.94567 0.195724,-1.41416 0.09911,-0.48509 0.199258,-0.96997 0.291639,-1.45623 0.08891,-0.47213 0.165878,-0.94608 0.240323,-1.42032 0.08036,-0.47516 0.109298,-0.95543 0.134332,-1.43523 0.02483,-0.45924 0.02277,-0.91928 0.02411,-1.37897 0.0041,-0.38922 -0.01226,-0.77827 -0.0443,-1.16629 -0.01731,-0.28816 -0.100551,-0.56122 -0.224118,-0.82412 -0.0885,-0.17994 -0.224694,-0.31629 -0.415452,-0.40235 -0.470025,-0.11863 -1.000822,-0.12423 -1.435654,0.0859 -0.201627,0.0891 -0.343779,0.23587 -0.477081,0.39731 -0.223839,0.27647 -0.36936,0.59751 -0.516292,0.91283 -0.176376,0.39486 -0.334518,0.79626 -0.499572,1.19518 -0.157667,0.39775 -0.323524,0.79252 -0.492452,1.18625 -0.171895,0.38984 -0.345118,0.77927 -0.527985,1.16482 -0.167259,0.36677 -0.343604,0.72939 -0.558923,1.0742 -0.223757,0.34462 -0.49712,0.65966 -0.777931,0.9654 -0.284314,0.31996 -0.61164,0.60102 -0.969781,0.84797 -0.373811,0.2529 -0.780805,0.45597 -1.206447,0.62215 -0.397918,0.15539 -0.815616,0.2525 -1.238342,0.32752 -0.377953,0.0742 -1.889081,0.0641 -0.227693,0.0611 -0.374645,0.0129 -0.719701,-0.0892 -1.056496,-0.22957 -0.344263,-0.15241 -0.658856,-0.35139 -0.951556,-0.57672 -0.30498,-0.24356 -0.564971,-0.52791 -0.803892,-0.8268 -0.266811,-0.34736 -0.470746,-0.73073 -0.654838,-1.12009 -0.232246,-0.49093 -0.414629,-0.99978 -0.588924,-1.51031 -0.180436,-0.52582 -0.33528,-1.05807 -0.460196,-1.59746 -0.128903,-0.57989 -0.207304,-1.16811 -0.288641,-1.75498 -0.08201,-0.51625 -0.139277,-1.03324 -0.133364,-1.55521 0.01288,-0.45904 0.122217,-0.90451 0.270499,-1.34026 0.149446,-0.43718 0.381022,-0.84284 0.622756,-1.24091 0.273044,-0.44652 0.573532,-0.87746 0.901971,-1.29053 0.290248,-0.36222 0.617235,-0.69553 0.975798,-1.00007 0.311234,-0.27707 0.681933,-0.46556 1.07708,-0.61703 0.358233,-0.13196 0.729777,-0.2176 1.108358,-0.27954 0.381043,-0.0521 0.766546,-0.0688 1.151329,-0.0716 -1.636034,-0.0171 -0.172822,0.005 0.203966,0.0302 0.426558,0.0322 0.85151,0.0818 1.275792,0.13324 0.481872,0.0579 0.961621,0.12962 1.443503,0.18743 0.671137,0.074 1.360488,0.13073 2.031892,0.038 0.167743,-0.0205 0.317446,-0.0724 0.453087,-0.16449 0.08613,-0.065 0.128388,-0.15742 0.1448,-0.25682 0.02246,-0.12686 -0.01339,-0.23853 -0.07541,-0.35056 -0.15434,-0.22101 -0.353495,-0.4098 -0.560222,-0.58853 -0.353834,-0.29156 -0.728685,-0.55968 -1.10845,-0.82129 -0.432998,-0.29758 -0.868963,-0.59138 -1.305411,-0.88461 -0.415237,-0.28209 -0.83582,-0.5573 -1.257763,-0.83067 -0.426569,-0.27531 -0.834109,-0.57433 -1.221694,-0.89513 -0.404718,-0.33768 -0.762457,-0.71685 -1.076514,-1.12832 -0.275474,-0.35733 -0.439828,-0.75252 -0.47295,-1.18913 0.0031,-0.41425 0.187287,-0.79117 0.395848,-1.14851 0.262761,-0.41628 0.649429,-0.74108 1.044761,-1.04666 0.437582,-0.33803 0.903815,-0.64148 1.379856,-0.93059 0.431246,-0.26081 0.885137,-0.48629 1.347053,-0.69617 0.37925,-0.16576 0.772543,-0.30391 1.18373,-0.38174 0.325431,-0.0343 1.087135,-0.0504 -0.405604,-0.0205 -0.0546,0.001 0.109154,0.004 0.163561,0.008 0.117694,0.009 0.18844,0.0222 0.304321,0.0398 0.295914,0.0398 0.550557,0.14537 0.772625,0.32875 0.244165,0.24372 0.426878,0.53301 0.59663,0.82418 0.18062,0.30906 0.314726,0.63696 0.431668,0.97044 0.13492,0.41505 0.237912,0.8382 0.337072,1.26158 0.103343,0.4409 0.187792,0.88518 0.264503,1.33063 0.08335,0.49378 0.147303,0.99008 0.2082,1.48659 0.06676,0.48521 0.132983,0.97053 0.221243,1.45284 0.106928,0.53651 0.246268,1.06688 0.381198,1.59777 0,0 0.939976,-0.0201 0.939976,-0.0201 v 0 c -0.134106,-0.52902 -0.271508,-1.05774 -0.377612,-1.59235 -0.08798,-0.48077 -0.154927,-0.96443 -0.222201,-1.44802 -0.06099,-0.49773 -0.124339,-0.99534 -0.206676,-1.4905 -0.07634,-0.44708 -0.159727,-0.89313 -0.263627,-1.33552 -0.09942,-0.42607 -0.203265,-0.85163 -0.335403,-1.27018 -0.116056,-0.33882 -0.248431,-0.67239 -0.430226,-0.98644 -0.17173,-0.29927 -0.358893,-0.59377 -0.597341,-0.85221 -0.217678,-0.20416 -0.469592,-0.33246 -0.778168,-0.38041 -0.639312,-0.10866 -1.301321,-0.11505 -1.94395,-0.0231 -0.410003,0.0912 -0.804501,0.23141 -1.183267,0.40306 -0.461741,0.21337 -0.91456,0.44365 -1.34558,0.70719 -0.476308,0.29273 -0.942552,0.59986 -1.380546,0.9408 -0.400226,0.31545 -0.789953,0.65083 -1.051046,1.07968 -0.212218,0.37393 -0.396609,0.76693 -0.397701,1.19754 0.03328,0.45184 0.195075,0.86442 0.477905,1.23651 0.313768,0.41835 0.672033,0.80388 1.078584,1.14794 0.386091,0.32571 0.793961,0.62806 1.221519,0.906 0.42182,0.2733 0.843423,0.54695 1.258381,0.82915 0.436542,0.29275 0.87264,0.58598 1.305308,0.88362 0.377355,0.25891 0.74962,0.5244 1.101878,0.8125 0.202626,0.17061 0.393735,0.35257 0.551887,0.56068 0.06016,0.0922 0.09293,0.18175 0.07139,0.29045 -0.01751,0.0799 -0.06305,0.14199 -0.139216,0.18494 -0.135321,0.0748 -0.288208,0.10625 -0.443619,0.12416 -0.986368,0.0884 1.147599,0.0663 0.308864,0.008 -0.0749,-0.005 -0.149662,-0.0116 -0.224354,-0.0189 -0.07964,-0.007 -0.159109,-0.0171 -0.238664,-0.0256 -0.481666,-0.0545 -0.960334,-0.12882 -1.441505,-0.18699 -0.423788,-0.0539 -0.848883,-0.10158 -1.274741,-0.13844 -0.69135,-0.0532 -1.385265,-0.0366 -2.078417,-0.0354 -0.385957,0.008 -0.7728,0.0251 -1.153895,0.0861 -0.379631,0.0673 -0.752102,0.16139 -1.109852,0.29903 -0.396764,0.16225 -0.766144,0.3644 -1.078862,0.64728 -0.356966,0.31171 -0.684447,0.64973 -0.974469,1.0169 -0.326883,0.41771 -0.627979,0.85161 -0.902022,1.30095 -0.244537,0.40363 -0.477895,0.81508 -0.626208,1.25914 -0.148086,0.4445 -0.256941,0.89862 -0.269108,1.36594 -0.0041,0.5261 0.05213,1.0471 0.136826,1.56724 0.08252,0.58905 0.161088,1.17953 0.288363,1.76207 0.123566,0.54245 0.278349,1.07746 0.459814,1.60586 0.174594,0.51314 0.356132,1.02496 0.586606,1.51937 0.182826,0.39581 0.38675,0.78514 0.652252,1.13989 0.239344,0.30534 0.499448,0.59627 0.805098,0.84735 0.291794,0.23421 0.607798,0.4392 0.953452,0.60027 0.336588,0.14976 0.681511,0.27317 1.06176,0.26747 0.700055,-8.3e-4 1.40894,0.0284 2.103153,-0.0782 0.423994,-0.0802 0.841847,-0.18616 1.239889,-0.34616 0.42593,-0.17495 0.834294,-0.38394 1.208125,-0.64318 0.357688,-0.25574 0.686632,-0.54215 0.97279,-0.86717 0.28147,-0.31119 0.556584,-0.63052 0.779074,-0.9813 0.213197,-0.34909 0.390717,-0.71418 0.558841,-1.08366 0.181816,-0.38694 0.35608,-0.77691 0.52781,-1.16779 0.169082,-0.39405 0.3336,-0.78963 0.492287,-1.1874 0.164065,-0.39804 0.321867,-0.79837 0.500499,-1.19114 0.146592,-0.3089 0.292298,-0.62335 0.520516,-0.88961 0.133992,-0.14993 0.279678,-0.27961 0.476185,-0.35701 0.113429,-0.0451 0.32574,-0.0719 0.242064,-0.0745 -1.527437,-0.0471 -1.036901,-0.007 -0.70501,-0.006 0.189419,0.0568 0.323875,0.16696 0.412784,0.33449 0.123814,0.25275 0.210302,0.51461 0.227445,0.79404 0.03307,0.38563 0.05131,0.77234 0.04739,1.1593 -5.46e-4,0.4583 0.0021,0.917 -0.02236,1.37488 -0.02493,0.47705 -0.05429,0.95451 -0.134889,1.42684 -0.07397,0.4734 -0.150445,0.9465 -0.239447,1.4177 -0.09241,0.48641 -0.192757,0.97144 -0.291186,1.45684 -0.08582,0.47225 -0.181187,0.94535 -0.198485,1.42515 -0.01947,0.43998 -0.0205,0.88105 0.01906,1.32022 0.04069,0.44465 0.09107,0.89232 0.222923,1.32289 0.139112,0.38766 0.323226,0.75932 0.551629,1.10927 0.239395,0.37081 0.49476,0.73801 0.861565,1.01313 0.381784,0.27396 0.793539,0.50652 1.214565,0.72512 0.418286,0.21408 0.846462,0.43027 1.329951,0.47792 0.759489,0.003 1.495335,0.0406 2.231108,-0.14669 0.467945,-0.10481 0.932245,-0.22355 1.392655,-0.35393 0.4707,-0.13704 0.93945,-0.28129 1.39563,-0.45625 0.42894,-0.17014 0.85139,-0.35478 1.24955,-0.58156 0.39781,-0.22529 0.78632,-0.46471 1.15069,-0.73493 0.38701,-0.28467 0.77433,-0.56939 1.14584,-0.87147 0.36294,-0.29669 0.71511,-0.60437 1.04419,-0.93359 0.28071,-0.28724 0.53268,-0.59407 0.75113,-0.92515 0.2158,-0.31994 0.41608,-0.65042 0.54619,-1.00967 0.10024,-0.34932 0.0915,-0.69511 0.0115,-1.04914 -0.0721,-0.36657 -0.16589,-0.73125 -0.33687,-1.07049 -0.19484,-0.3823 -0.43205,-0.74425 -0.70251,-1.08491 -0.29078,-0.35953 -0.62365,-0.68502 -1.0075,-0.96126 -0.39648,-0.29774 -0.79425,-0.5946 -1.22236,-0.85319 -0.44861,-0.27743 -0.90566,-0.54296 -1.3506,-0.82549 -0.44288,-0.27749 -0.88967,-0.55074 -1.31091,-0.85641 -0.29519,-0.2271 -0.55986,-0.47921 -0.7964,-0.75976 -0.18722,-0.21805 -0.3789,-0.43955 -0.49056,-0.70122 -0.065,-0.17753 -0.11936,-0.35978 -0.11843,-0.54895 0.0107,-0.15937 0.0362,-0.31489 0.16902,-0.42886 0.1383,-0.0858 0.34547,-0.10045 0.29173,-0.10304 -1.55073,-0.0757 -0.75156,-0.008 -0.41615,0.0155 0.52163,0.0768 1.03426,0.19757 1.54027,0.33707 0.62224,0.16527 1.24322,0.33437 1.86393,0.50443 0.57196,0.14569 1.14725,0.28184 1.72919,0.3891 0.49331,0.0845 0.99093,0.14302 1.48878,0.19946 0.78004,0.0725 1.5619,0.0961 2.34663,0.0758 0.4978,-0.002 0.99663,-0.009 1.49111,-0.0684 0.51533,-0.0654 1.02567,-0.16384 1.48258,-0.40647 0.46487,-0.25485 0.85712,-0.58224 1.153,-1.00543 0.33639,-0.45161 0.64977,-0.91962 0.86375,-1.43391 0.22593,-0.57528 0.37766,-1.16901 0.4894,-1.77231 0.12732,-0.62313 0.23983,-1.24867 0.34303,-1.8756 0.088,-0.57889 0.1704,-1.15895 0.20731,-1.74293 0.0236,-0.47106 0.0278,-0.94307 -0.0389,-1.41177 -0.0582,-0.39541 -0.11986,-0.7908 -0.21792,-1.17976 -0.0921,-0.38003 -0.18401,-0.76203 -0.34684,-1.12267 -0.14997,-0.31647 -0.324,-0.62326 -0.53105,-0.91117 -0.1921,-0.25471 -0.40956,-0.4905 -0.67883,-0.6787 -0.25236,-0.18112 -0.50672,-0.36101 -0.79194,-0.49651 -0.2826,-0.13454 -0.56704,-0.26679 -0.87238,-0.35204 -0.30183,-0.0844 -0.60793,-0.15686 -0.91898,-0.20552 -0.32683,-0.053 -0.65534,-0.10055 -0.98687,-0.11941 -0.67164,-0.0347 -1.35352,-0.0501 -2.01558,0.0731 -0.39445,0.0774 -0.78545,0.16977 -1.16873,0.28636 -0.40803,0.12861 -0.81541,0.2608 -1.20898,0.42437 -0.39331,0.16299 -0.78554,0.32838 -1.17544,0.49822 -0.40623,0.18467 -0.80957,0.37504 -1.20916,0.57177 -0.42736,0.21411 -0.85779,0.42304 -1.28,0.6459 -0.45072,0.23037 -0.90352,0.45756 -1.34452,0.70378 -0.43719,0.24533 -0.86014,0.51078 -1.27492,0.78752 -0.264646,0.17764 -0.520474,0.37278 -0.80757,0.51825 0.298531,0.003 0.598402,-0.0179 0.89559,0.008 0.0257,0.002 -0.0142,0.046 -0.0212,0.0689 -0.0269,0.0877 0.21379,-0.2937 0.19687,-0.20386 0.3008,-0.25934 0.61095,-0.50929 0.91074,-0.7697 0.3542,-0.29978 0.70919,-0.59884 1.07206,-0.88965 0.39229,-0.32347 0.78821,-0.64304 1.18577,-0.96094 0.41577,-0.34051 0.83069,-0.68214 1.2282,-1.04109 0.3838,-0.34275 0.76337,-0.68964 1.13363,-1.045 0.30343,-0.30052 0.60205,-0.60511 0.88512,-0.92239 0.27666,-0.31209 0.54613,-0.63088 0.77513,-0.97524 0.20882,-0.31574 0.40939,-0.63944 0.49774,-1.00481 0.0815,-0.33862 0.14753,-0.68037 0.14817,-1.02877 0.009,-0.37677 0.006,-0.75706 -0.0936,-1.12499 -0.12833,-0.45019 -0.31488,-0.8838 -0.57374,-1.28419 -0.33005,-0.48899 -0.7075,-0.94669 -1.12781,-1.37258 -0.48163,-0.46726 -1.00302,-0.90155 -1.61648,-1.21678 -0.60549,-0.28257 -1.24292,-0.48954 -1.89813,-0.65099 -0.64775,-0.15918 -1.30335,-0.29969 -1.97468,-0.33574 -0.91735,-0.0397 -1.843945,-0.0544 -2.751768,0.0911 -0.595434,0.10097 -1.19294,0.2124 -1.756437,0.42331 -0.526966,0.21886 -1.031956,0.49159 -1.418336,0.89763 -0.344737,0.39605 -0.620057,0.83615 -0.819954,1.31115 -0.212146,0.52485 -0.397269,1.05905 -0.537823,1.60454 -0.150796,0.63068 -0.259136,1.2689 -0.280276,1.9159 -0.02122,0.71084 -0.02782,1.42359 0.06697,2.13086 0.106558,0.73387 0.240406,1.46379 0.405006,2.18851 0.159017,0.70348 0.330984,1.4043 0.517292,2.10204 0.145582,0.51675 0.303847,1.03216 0.554957,1.51504 0.193447,0.3778 0.399092,0.74976 0.612062,1.11842 0.130758,0.23402 0.264451,0.46684 0.381754,0.70699 0,0 0.958994,-0.0286 0.958994,-0.0286 z"
       inkscape:connector-curvature="0" />
    <circle
       style="opacity:1;fill:#000000;fill-opacity:1;fill-rule:nonzero;stroke:none;stroke-width:0.74667823;stroke-linecap:round;stroke-linejoin:round;stroke-miterlimit:4;stroke-dasharray:none;stroke-dashoffset:0;stroke-opacity:1"
       id="path1615-3-7"
       cx="103.8713"
       cy="241.78542"
       r="8.6595459" />
    <path
       style="opacity:1;fill:#000000;fill-opacity:1;fill-rule:evenodd;stroke:#000000;stroke-width:0.71184224;stroke-linecap:round;stroke-linejoin:miter;stroke-miterlimit:4;stroke-dasharray:none;stroke-dashoffset:0;stroke-opacity:1"
       id="path884-5"
       d="m 104.0858,236.17835 c 0.158,-0.32339 0.34222,-0.63514 0.5192,-0.9498 0.28153,-0.48479 0.55339,-0.97396 0.8104,-1.47033 0.33198,-0.62945 0.54423,-1.3015 0.74017,-1.97555 0.25093,-0.91691 0.47645,-1.83944 0.68653,-2.76504 0.21739,-0.95249 0.39361,-1.91197 0.53331,-2.87673 0.12434,-0.92625 0.11569,-1.8597 0.0862,-2.79059 -0.0286,-0.84588 -0.17262,-1.67989 -0.37302,-2.50375 -0.1872,-0.71367 -0.43137,-1.4127 -0.71224,-2.099 -0.26353,-0.61491 -0.62446,-1.18346 -1.08057,-1.69087 -0.51287,-0.51418 -1.17282,-0.85938 -1.86129,-1.12937 -0.74494,-0.2637 -1.5303,-0.40289 -2.31267,-0.53137 -0.35763,-0.0705 -2.785863,-0.22391 -0.74786,-0.11966 0.14202,0.007 -0.28428,0.009 -0.42641,0.0148 -0.88362,0.0372 -1.747594,0.21418 -2.600997,0.41811 -0.86003,0.20899 -1.699456,0.47508 -2.499219,0.83504 -0.808934,0.39738 -1.493468,0.95994 -2.126912,1.56472 -0.5517,0.55326 -1.046268,1.15001 -1.480444,1.78625 -0.337744,0.51637 -0.581362,1.0764 -0.749019,1.65837 -0.12984,0.47428 -0.132828,0.96451 -0.120225,1.45034 0.001,0.45185 0.08865,0.89453 0.195815,1.3333 0.116747,0.46895 0.381485,0.88202 0.652086,1.28633 0.30208,0.44823 0.655902,0.86388 1.019876,1.26976 0.372686,0.41615 0.766949,0.81447 1.16589,1.20886 0.486427,0.46663 0.984208,0.92276 1.489334,1.37193 0.523329,0.47224 1.07139,0.91979 1.61883,1.36761 0.526071,0.41789 1.047571,0.8406 1.56567,1.26698 0.480405,0.382 0.946755,0.77881 1.414195,1.17428 0.39563,0.34541 0.80972,0.67208 1.20743,1.01528 0.72202,0.65718 -0.0643,0.43394 -1.0901,0.39655 -0.36048,-0.22316 -0.7012,-0.47315 -1.05246,-0.70868 -0.543848,-0.36401 -1.100229,-0.71059 -1.676686,-1.02859 -0.581815,-0.3227 -1.179105,-0.62037 -1.772913,-0.92345 -0.556541,-0.29422 -1.125104,-0.56808 -1.688662,-0.85041 -0.527875,-0.25606 -1.058373,-0.50792 -1.594501,-0.74884 -0.515748,-0.21946 -1.031143,-0.43986 -1.550165,-0.65264 -0.518803,-0.21124 -1.055191,-0.38216 -1.592121,-0.54878 -0.505801,-0.14876 -1.020917,-0.26569 -1.54065,-0.36339 0.484144,-0.0807 -1.47243,-0.0867 -0.954098,-0.0871 1.176852,-7.4e-4 1.313216,-0.007 0.772811,0.009 -0.43566,0.019 -0.868017,0.076 -1.29766,0.14315 -0.408911,0.0609 -0.811191,0.15265 -1.209162,0.25775 -0.400773,0.10512 -0.776685,0.2693 -1.147183,0.44267 -0.374313,0.17175 -0.711574,0.39872 -1.041983,0.63313 -0.350395,0.23896 -0.63873,0.53621 -0.893497,0.86048 -0.274403,0.37043 -0.501488,0.7684 -0.699733,1.17777 -0.217377,0.46681 -0.338627,0.96327 -0.459057,1.4572 -0.1295,0.5094 -0.210126,1.02737 -0.286647,1.54536 -0.08939,0.61073 -0.08731,1.22603 -0.05823,1.84023 0.04762,0.76614 0.154715,1.52733 0.269,2.2869 0.134675,0.82484 0.283535,1.64756 0.451998,2.46705 0.146466,0.78952 0.345078,1.56645 0.646534,2.31748 0.284311,0.66816 0.697731,1.2751 1.140262,1.86088 0.386753,0.54777 0.904521,0.96056 1.517711,1.2743 0.603146,0.3044 1.274585,0.4161 1.947975,0.49109 0.652133,0.0724 1.309328,0.0746 1.965053,0.0758 -2.190401,0.0487 0.191854,-0.0504 0.630423,-0.0893 0.656749,-0.0688 1.312155,-0.14893 1.963431,-0.25355 0.768638,-0.13445 1.527346,-0.31321 2.282152,-0.5023 0.819719,-0.21949 1.637648,-0.44465 2.457635,-0.66338 0.665551,-0.18581 1.339369,-0.34494 2.023695,-0.45831 0.755414,-0.0491 1.729128,-0.34726 2.325398,0.17349 0.17333,0.18966 0.21311,0.42238 0.22808,0.66218 0.002,0.26413 -0.0695,0.51978 -0.1588,0.76844 -0.14459,0.36009 -0.40058,0.66551 -0.65441,0.96428 -0.31556,0.37473 -0.664986,0.71668 -1.055013,1.02468 -0.555869,0.40894 -1.147803,0.77295 -1.735651,1.14055 -0.585844,0.37277 -1.186293,0.72515 -1.778372,1.08923 -0.56237,0.33874 -1.088914,0.72313 -1.609396,1.11406 -0.500492,0.35837 -0.939451,0.77649 -1.324939,1.23969 -0.355174,0.44105 -0.664727,0.91122 -0.922479,1.40671 -0.22379,0.43692 -0.347131,0.90738 -0.441076,1.3807 -0.100994,0.44972 -0.119056,0.8885 0.01475,1.33123 0.174238,0.46141 0.435781,0.88603 0.717878,1.29674 0.284963,0.43172 0.618227,0.82703 0.986324,1.19945 0.433526,0.42929 0.895767,0.83154 1.373454,1.21804 0.490465,0.39567 1.000606,0.76979 1.511033,1.14293 0.479843,0.35225 0.992195,0.66253 1.516316,0.95444 0.524048,0.29409 1.080507,0.5309 1.644434,0.75026 0.601511,0.2253 1.218267,0.41257 1.837717,0.5902 0.6074,0.16817 1.21856,0.32587 1.83621,0.45838 0.48711,0.18213 2.60345,0.1916 0.47212,0.17019 0.63541,-0.0333 1.19971,-0.30204 1.74897,-0.57602 0.5519,-0.28417 1.0928,-0.58639 1.59744,-0.93851 0.48308,-0.34586 0.81956,-0.81471 1.13218,-1.29223 0.29765,-0.45388 0.5401,-0.93519 0.72529,-1.43729 0.17786,-0.55739 0.2417,-1.13909 0.29491,-1.71616 0.0522,-0.57411 0.0505,-1.15067 0.0244,-1.72584 -0.0222,-0.62758 -0.14512,-1.24667 -0.25802,-1.86428 -0.13071,-0.63949 -0.26268,-1.27871 -0.38446,-1.91975 -0.1172,-0.6224 -0.21868,-1.24721 -0.31682,-1.87239 -0.10592,-0.62641 -0.14409,-1.25954 -0.17709,-1.89206 -0.0328,-0.60541 -0.03,-1.21188 -0.0317,-1.8179 -0.005,-0.5131 0.0162,-1.02599 0.0583,-1.53751 0.0229,-0.37989 0.13257,-0.73985 0.29546,-1.08644 0.11666,-0.23722 0.29621,-0.41697 0.5477,-0.53041 0.61962,-0.1564 1.31937,-0.16377 1.8926,0.11326 0.26581,0.11749 0.45321,0.31096 0.62894,0.52378 0.29509,0.36446 0.48693,0.78769 0.68062,1.20338 0.23253,0.52054 0.44099,1.04971 0.65858,1.57559 0.20786,0.52436 0.42651,1.04478 0.6492,1.56384 0.22661,0.51393 0.45496,1.02731 0.69604,1.53557 0.2205,0.48352 0.45297,0.96156 0.73683,1.41612 0.29497,0.45431 0.65536,0.86964 1.02554,1.27269 0.37482,0.4218 0.80634,0.79232 1.27846,1.11787 0.4928,0.33341 1.02934,0.60111 1.59046,0.82018 0.52457,0.20485 1.07522,0.33287 1.63251,0.43177 0.49825,0.0978 2.49037,0.0845 0.30016,0.0806 0.49389,0.017 0.94878,-0.11761 1.39277,-0.30265 0.45384,-0.20091 0.86857,-0.46323 1.25444,-0.76029 0.40206,-0.32108 0.7448,-0.69594 1.05977,-1.08996 0.35172,-0.45792 0.62058,-0.96332 0.86327,-1.47661 0.30617,-0.6472 0.54661,-1.31801 0.77636,-1.99104 0.23788,-0.69319 0.44201,-1.39486 0.60668,-2.10593 0.16994,-0.76446 0.2733,-1.53992 0.38052,-2.31358 0.10812,-0.68057 0.18361,-1.36212 0.17582,-2.05023 -0.017,-0.60516 -0.16112,-1.19242 -0.3566,-1.76686 -0.19702,-0.57633 -0.5023,-1.11111 -0.82098,-1.63589 -0.35995,-0.58863 -0.75609,-1.15676 -1.18906,-1.70129 -0.38263,-0.47751 -0.8137,-0.91692 -1.2864,-1.31839 -0.41029,-0.36526 -0.89898,-0.61375 -1.41992,-0.81344 -0.47226,-0.17396 -0.96205,-0.28686 -1.46113,-0.36851 -0.50233,-0.0687 -1.01054,-0.0908 -1.51779,-0.0944 2.15677,-0.0226 0.22782,0.007 -0.26889,0.0398 -0.56233,0.0425 -1.12254,0.10783 -1.68187,0.17565 -0.63526,0.0763 -1.26771,0.17089 -1.90296,0.24709 -0.88477,0.0976 -1.79354,0.17235 -2.67864,0.0502 -0.22114,-0.027 -0.4185,-0.0955 -0.5973,-0.21686 -0.11358,-0.0857 -0.16926,-0.20753 -0.19091,-0.33856 -0.0296,-0.16724 0.0176,-0.31445 0.0993,-0.46214 0.20347,-0.29136 0.46601,-0.54023 0.73853,-0.77586 0.46647,-0.38436 0.96062,-0.73782 1.46128,-1.08271 0.57082,-0.39228 1.14555,-0.77961 1.72092,-1.16616 0.5474,-0.3719 1.10186,-0.7347 1.65811,-1.09508 0.56234,-0.36294 1.0996,-0.75713 1.61055,-1.18006 0.53354,-0.44516 1.00514,-0.94501 1.41916,-1.48745 0.36316,-0.47105 0.57983,-0.99204 0.62349,-1.56761 -0.004,-0.54612 -0.2469,-1.043 -0.52185,-1.51409 -0.34639,-0.54879 -0.85613,-0.97697 -1.3773,-1.37981 -0.57687,-0.44562 -1.19149,-0.84565 -1.81906,-1.2268 -0.56851,-0.34381 -1.16687,-0.64107 -1.77581,-0.91775 -0.49997,-0.21852 -1.01844,-0.40065 -1.56052,-0.50324 -0.42901,-0.0452 -1.43317,-0.0665 0.53471,-0.027 0.072,0.001 -0.1439,0.005 -0.21561,0.0108 -0.15517,0.0123 -0.24843,0.0293 -0.4012,0.0524 -0.39011,0.0524 -0.72579,0.19164 -1.01854,0.43339 -0.32187,0.3213 -0.56275,0.70266 -0.78653,1.08651 -0.23811,0.40744 -0.41492,0.8397 -0.56908,1.27932 -0.17786,0.54717 -0.31364,1.105 -0.44435,1.66315 -0.13625,0.58124 -0.24757,1.16693 -0.34871,1.75416 -0.10987,0.65095 -0.19419,1.30522 -0.27445,1.95977 -0.0881,0.63965 -0.17533,1.27944 -0.29167,1.91527 -0.14097,0.70728 -0.32465,1.40647 -0.50254,2.10634 0,0 -1.23916,-0.0265 -1.23916,-0.0265 v 0 c 0.17678,-0.69742 0.35793,-1.39443 0.4978,-2.0992 0.11601,-0.63379 0.20425,-1.27141 0.29293,-1.90891 0.0804,-0.65617 0.16391,-1.31216 0.27246,-1.96493 0.10065,-0.58939 0.21058,-1.17741 0.34753,-1.76062 0.13105,-0.56167 0.26797,-1.12269 0.44216,-1.67447 0.153,-0.44665 0.32751,-0.88641 0.56718,-1.30041 0.22638,-0.39453 0.47312,-0.78277 0.78747,-1.12348 0.28696,-0.26914 0.61906,-0.43827 1.02585,-0.50147 0.84281,-0.14326 1.71553,-0.15169 2.5627,-0.0304 0.54052,0.12019 1.06058,0.30507 1.5599,0.53135 0.60872,0.28129 1.20567,0.58486 1.77387,0.93229 0.62791,0.38591 1.24257,0.79081 1.81996,1.24026 0.52763,0.41585 1.04141,0.85799 1.38561,1.42333 0.27976,0.49296 0.52284,1.01105 0.52429,1.57872 -0.0439,0.59566 -0.25718,1.13957 -0.63002,1.63009 -0.41364,0.55151 -0.88594,1.05975 -1.4219,1.51332 -0.50899,0.42939 -1.04667,0.82797 -1.61032,1.19438 -0.55608,0.36029 -1.11188,0.72105 -1.65894,1.09307 -0.57548,0.38592 -1.15039,0.77249 -1.72076,1.16486 -0.49747,0.34133 -0.98823,0.69132 -1.45261,1.07113 -0.26712,0.22491 -0.51905,0.46479 -0.72754,0.73913 -0.0793,0.12156 -0.12247,0.23961 -0.0941,0.38291 0.0232,0.10539 0.0831,0.18718 0.18352,0.2438 0.1784,0.0986 0.37994,0.14006 0.58483,0.16369 1.30032,0.11653 -1.51288,0.0875 -0.40718,0.0108 0.0988,-0.007 0.19731,-0.0153 0.29576,-0.0248 0.10501,-0.009 0.20976,-0.0226 0.31463,-0.0338 0.63499,-0.0718 1.26602,-0.16982 1.90034,-0.2465 0.55868,-0.071 1.11907,-0.13391 1.68048,-0.18251 0.91141,-0.0701 1.82619,-0.0482 2.73997,-0.0468 0.50881,0.0108 1.01878,0.0332 1.52119,0.11354 0.50045,0.0887 0.99148,0.21276 1.4631,0.39421 0.52306,0.21389 1.01,0.48039 1.42227,0.8533 0.47059,0.41093 0.9023,0.85655 1.28462,1.34058 0.43094,0.55067 0.82788,1.12268 1.18915,1.71504 0.32237,0.5321 0.63,1.07451 0.82552,1.65992 0.19522,0.58598 0.33873,1.18464 0.35476,1.80071 0.005,0.69356 -0.0687,1.38039 -0.18037,2.06609 -0.10878,0.77655 -0.21236,1.55497 -0.38015,2.32293 -0.1629,0.71511 -0.36695,1.42042 -0.60618,2.117 -0.23015,0.67647 -0.46947,1.3512 -0.77331,2.00298 -0.24101,0.52181 -0.50985,1.03505 -0.85986,1.50271 -0.31553,0.40254 -0.65843,0.78606 -1.06138,1.11707 -0.38464,0.30876 -0.80124,0.57899 -1.25691,0.79132 -0.44373,0.19744 -0.89843,0.36013 -1.39971,0.35261 -0.92289,-10e-4 -1.8574,0.0375 -2.77258,-0.10309 -0.55896,-0.10567 -1.10981,-0.24542 -1.63454,-0.45634 -0.56151,-0.23064 -1.09985,-0.50614 -1.59268,-0.84791 -0.47153,-0.33714 -0.90518,-0.7147 -1.28242,-1.14318 -0.37106,-0.41023 -0.73373,-0.83121 -1.02705,-1.29365 -0.28106,-0.46019 -0.51508,-0.9415 -0.73672,-1.42857 -0.23969,-0.51011 -0.46942,-1.0242 -0.6958,-1.53951 -0.22291,-0.51947 -0.43979,-1.04097 -0.64899,-1.56533 -0.21628,-0.52474 -0.42431,-1.05249 -0.6598,-1.57029 -0.19326,-0.40722 -0.38534,-0.82176 -0.6862,-1.17277 -0.17665,-0.19765 -0.36869,-0.36861 -0.62775,-0.47064 -0.14953,-0.0594 -0.42943,-0.0948 -0.31912,-0.0982 2.01363,-0.062 1.36695,-0.009 0.92941,-0.008 -0.24971,0.0748 -0.42696,0.2201 -0.54416,0.44095 -0.16322,0.3332 -0.27724,0.67841 -0.29984,1.04678 -0.0436,0.50838 -0.0676,1.01817 -0.0625,1.52829 7.2e-4,0.60418 -0.003,1.20889 0.0295,1.8125 0.0329,0.6289 0.0715,1.25833 0.17781,1.88101 0.0976,0.62408 0.19834,1.24777 0.31567,1.86895 0.12185,0.64124 0.25411,1.28064 0.38386,1.92055 0.11321,0.62256 0.23886,1.24625 0.26166,1.87876 0.0258,0.58003 0.0271,1.1615 -0.025,1.74045 -0.0537,0.58618 -0.12,1.17634 -0.29388,1.74396 -0.18338,0.51106 -0.42609,1.00101 -0.7272,1.46235 -0.3156,0.48884 -0.65224,0.97291 -1.1358,1.33559 -0.50331,0.36116 -1.04612,0.66776 -1.60115,0.95593 -0.55143,0.28222 -1.1159,0.56723 -1.75328,0.63005 -1.00123,0.004 -1.97129,0.0535 -2.94126,-0.19339 -0.61689,-0.13816 -1.22898,-0.29471 -1.835938,-0.46658 -0.620525,-0.18066 -1.238474,-0.37081 -1.839846,-0.60147 -0.565473,-0.22431 -1.1224,-0.46771 -1.647288,-0.76667 -0.524431,-0.297 -1.036599,-0.61262 -1.516952,-0.96886 -0.510191,-0.37528 -1.020798,-0.75062 -1.510546,-1.14885 -0.478462,-0.39113 -0.942737,-0.79675 -1.376562,-1.23075 -0.370062,-0.37867 -0.702224,-0.78316 -0.990212,-1.21963 -0.28449,-0.42177 -0.548505,-0.85744 -0.72003,-1.33104 -0.132094,-0.4605 -0.12059,-0.91636 -0.0152,-1.38308 0.0951,-0.48325 0.218706,-0.96401 0.444103,-1.41122 0.25685,-0.50399 0.569566,-0.98115 0.926103,-1.43023 0.383342,-0.47397 0.822171,-0.90307 1.328181,-1.26723 0.522689,-0.39251 1.047063,-0.78387 1.611441,-1.12476 0.591399,-0.36573 1.193928,-0.71578 1.780496,-1.08824 0.583835,-0.36581 1.172852,-0.72604 1.728173,-1.129 0.389141,-0.29938 0.738062,-0.63175 1.04988,-1.00159 0.24682,-0.28745 0.499501,-0.57945 0.646714,-0.92442 0.08564,-0.23403 0.157343,-0.47429 0.156113,-0.72367 -0.0141,-0.2101 -0.04771,-0.41513 -0.222819,-0.56538 -0.182316,-0.11313 -0.455431,-0.13241 -0.384591,-0.13582 2.04433,-0.0998 0.99079,-0.0108 0.548617,0.0204 -0.687654,0.10116 -1.36346,0.26047 -2.030527,0.44436 -0.820296,0.21787 -1.638933,0.4408 -2.457218,0.66499 -0.754015,0.19206 -1.512407,0.37156 -2.279578,0.51296 -0.650335,0.11137 -1.306347,0.18853 -1.962654,0.26294 -1.028332,0.0956 -2.059045,0.12672 -3.09355,0.0999 -0.656256,-0.003 -1.313866,-0.0123 -1.965732,-0.0901 -0.679371,-0.0862 -1.352141,-0.21599 -1.954489,-0.53584 -0.612835,-0.33598 -1.129939,-0.76758 -1.519993,-1.32546 -0.443465,-0.59536 -0.856581,-1.21233 -1.138673,-1.89032 -0.297841,-0.75839 -0.497872,-1.54111 -0.645171,-2.33643 -0.167852,-0.82147 -0.31617,-1.64611 -0.452221,-2.47261 -0.115974,-0.76314 -0.224636,-1.52782 -0.273295,-2.29768 -0.0311,-0.621 -0.03667,-1.24326 0.05139,-1.86114 0.07679,-0.52127 0.158006,-1.0425 0.287276,-1.55527 0.12142,-0.50101 0.242577,-1.00459 0.457239,-1.48 0.197696,-0.4172 0.427129,-0.82164 0.700077,-1.2012 0.253252,-0.33577 0.539922,-0.64662 0.894915,-0.89472 0.332672,-0.23878 0.668009,-0.47593 1.043992,-0.65455 0.372562,-0.17736 0.747534,-0.35171 1.150057,-0.4641 0.397903,-0.11123 0.801434,-0.20678 1.211488,-0.27094 0.430867,-0.0698 0.863946,-0.13255 1.300997,-0.15741 0.885418,-0.0457 1.784351,-0.066 2.657135,0.0963 0.520004,0.10199 1.035464,0.22381 1.540739,0.37751 0.537891,0.16955 1.074943,0.34382 1.593796,0.55946 0.518486,0.21485 1.035561,0.43289 1.549574,0.65678 0.535533,0.24346 1.067249,0.49443 1.594022,0.75376 0.563394,0.28228 1.130835,0.55771 1.687433,0.8515 0.594168,0.30369 1.1911,0.60318 1.772472,0.92777 0.576342,0.32342 1.133912,0.67336 1.680712,1.03819 0.34889,0.23419 0.68614,0.49143 1.06463,0.68321 -0.39356,0.004 -0.78888,-0.0236 -1.18068,0.0108 -0.0338,0.003 0.0187,0.0606 0.028,0.0909 0.0355,0.11558 -0.28183,-0.38718 -0.25953,-0.26875 -0.39655,-0.34189 -0.80541,-0.67139 -1.200621,-1.01469 -0.466949,-0.3952 -0.934923,-0.78946 -1.4133,-1.17281 -0.517149,-0.42644 -1.039094,-0.84772 -1.563186,-1.26681 -0.548111,-0.44889 -1.095096,-0.89926 -1.619136,-1.37247 -0.505965,-0.45184 -1.006344,-0.90915 -1.494457,-1.37762 -0.400017,-0.39617 -0.793677,-0.79771 -1.166863,-1.21598 -0.364719,-0.41143 -0.719956,-0.83168 -1.021843,-1.28566 -0.275284,-0.41623 -0.539692,-0.84297 -0.656166,-1.32463 -0.10739,-0.4464 -0.194486,-0.89693 -0.195332,-1.35621 -0.01223,-0.49671 -0.0078,-0.99805 0.123457,-1.48309 0.169166,-0.59349 0.415109,-1.1651 0.756354,-1.69293 0.435107,-0.64464 0.932709,-1.24803 1.486793,-1.80948 0.634938,-0.61598 1.322279,-1.18851 2.130997,-1.60407 0.798213,-0.37252 1.638535,-0.64536 2.502303,-0.8582 0.853922,-0.20985 1.718197,-0.39509 2.60321,-0.44261 1.20935,-0.0522 2.43086,-0.0717 3.62764,0.12006 0.78496,0.1331 1.57266,0.28 2.31551,0.55804 0.6947,0.28853 1.36043,0.64807 1.86979,1.18335 0.45446,0.52211 0.81743,1.10229 1.08094,1.72849 0.27968,0.69191 0.52373,1.39614 0.70901,2.11525 0.19879,0.83143 0.34162,1.67279 0.36949,2.52573 0.0279,0.9371 0.0367,1.87671 -0.0883,2.80911 -0.14047,0.96745 -0.31693,1.92971 -0.53392,2.8851 -0.20964,0.92739 -0.43634,1.85129 -0.68195,2.77112 -0.19193,0.68121 -0.40056,1.36068 -0.73159,1.99726 -0.25503,0.49805 -0.52612,0.9884 -0.80688,1.4744 -0.17238,0.30851 -0.34863,0.61544 -0.50327,0.93202 0,0 -1.26425,-0.0378 -1.26425,-0.0378 z"
       inkscape:connector-curvature="0" />
  </g>
</svg>
