<?xml version="1.0" encoding="UTF-8" standalone="no"?>
<!-- Created with Inkscape (http://www.inkscape.org/) -->

<svg
   xmlns:dc="http://purl.org/dc/elements/1.1/"
   xmlns:cc="http://creativecommons.org/ns#"
   xmlns:rdf="http://www.w3.org/1999/02/22-rdf-syntax-ns#"
   xmlns:svg="http://www.w3.org/2000/svg"
   xmlns="http://www.w3.org/2000/svg"
   xmlns:sodipodi="http://sodipodi.sourceforge.net/DTD/sodipodi-0.dtd"
   xmlns:inkscape="http://www.inkscape.org/namespaces/inkscape"
   width="148mm"
   height="210mm"
   viewBox="0 0 148 210"
   version="1.1"
   id="svg8"
   inkscape:version="0.92.3 (2405546, 2018-03-11)"
   sodipodi:docname="2nd-birthday-2.svg">
  <defs
     id="defs2">
    <pattern
       inkscape:stockid="Polka dots, medium"
       id="Polkadots-med"
       patternTransform="translate(0,0) scale(10,10)"
       height="10"
       width="10"
       patternUnits="userSpaceOnUse"
       inkscape:collect="always">
      <circle
         id="circle1871"
         r="0.15"
         cy="0.810"
         cx="2.567"
         style="fill:black;stroke:none" />
      <circle
         id="circle1873"
         r="0.15"
         cy="2.33"
         cx="3.048"
         style="fill:black;stroke:none" />
      <circle
         id="circle1875"
         r="0.15"
         cy="2.415"
         cx="4.418"
         style="fill:black;stroke:none" />
      <circle
         id="circle1877"
         r="0.15"
         cy="3.029"
         cx="1.844"
         style="fill:black;stroke:none" />
      <circle
         id="circle1879"
         r="0.15"
         cy="1.363"
         cx="6.08"
         style="fill:black;stroke:none" />
      <circle
         id="circle1881"
         r="0.15"
         cy="4.413"
         cx="5.819"
         style="fill:black;stroke:none" />
      <circle
         id="circle1883"
         r="0.15"
         cy="4.048"
         cx="4.305"
         style="fill:black;stroke:none" />
      <circle
         id="circle1885"
         r="0.15"
         cy="3.045"
         cx="5.541"
         style="fill:black;stroke:none" />
      <circle
         id="circle1887"
         r="0.15"
         cy="5.527"
         cx="4.785"
         style="fill:black;stroke:none" />
      <circle
         id="circle1889"
         r="0.15"
         cy="5.184"
         cx="2.667"
         style="fill:black;stroke:none" />
      <circle
         id="circle1891"
         r="0.15"
         cy="1.448"
         cx="7.965"
         style="fill:black;stroke:none" />
      <circle
         id="circle1893"
         r="0.15"
         cy="5.049"
         cx="7.047"
         style="fill:black;stroke:none" />
      <circle
         id="circle1895"
         r="0.15"
         cy="0.895"
         cx="4.340"
         style="fill:black;stroke:none" />
      <circle
         id="circle1897"
         r="0.15"
         cy="0.340"
         cx="7.125"
         style="fill:black;stroke:none" />
      <circle
         id="circle1899"
         r="0.15"
         cy="1.049"
         cx="9.553"
         style="fill:black;stroke:none" />
      <circle
         id="circle1901"
         r="0.15"
         cy="2.689"
         cx="7.006"
         style="fill:black;stroke:none" />
      <circle
         id="circle1903"
         r="0.15"
         cy="2.689"
         cx="8.909"
         style="fill:black;stroke:none" />
      <circle
         id="circle1905"
         r="0.15"
         cy="4.407"
         cx="9.315"
         style="fill:black;stroke:none" />
      <circle
         id="circle1907"
         r="0.15"
         cy="3.870"
         cx="7.820"
         style="fill:black;stroke:none" />
      <circle
         id="circle1909"
         r="0.15"
         cy="5.948"
         cx="8.270"
         style="fill:black;stroke:none" />
      <circle
         id="circle1911"
         r="0.15"
         cy="7.428"
         cx="7.973"
         style="fill:black;stroke:none" />
      <circle
         id="circle1913"
         r="0.15"
         cy="8.072"
         cx="9.342"
         style="fill:black;stroke:none" />
      <circle
         id="circle1915"
         r="0.15"
         cy="9.315"
         cx="8.206"
         style="fill:black;stroke:none" />
      <circle
         id="circle1917"
         r="0.15"
         cy="9.475"
         cx="9.682"
         style="fill:black;stroke:none" />
      <circle
         id="circle1919"
         r="0.15"
         cy="6.186"
         cx="9.688"
         style="fill:black;stroke:none" />
      <circle
         id="circle1921"
         r="0.15"
         cy="6.296"
         cx="3.379"
         style="fill:black;stroke:none" />
      <circle
         id="circle1923"
         r="0.15"
         cy="8.204"
         cx="2.871"
         style="fill:black;stroke:none" />
      <circle
         id="circle1925"
         r="0.15"
         cy="8.719"
         cx="4.59"
         style="fill:black;stroke:none" />
      <circle
         id="circle1927"
         r="0.15"
         cy="9.671"
         cx="3.181"
         style="fill:black;stroke:none" />
      <circle
         id="circle1929"
         r="0.15"
         cy="7.315"
         cx="5.734"
         style="fill:black;stroke:none" />
      <circle
         id="circle1931"
         r="0.15"
         cy="6.513"
         cx="6.707"
         style="fill:black;stroke:none" />
      <circle
         id="circle1933"
         r="0.15"
         cy="9.670"
         cx="5.730"
         style="fill:black;stroke:none" />
      <circle
         id="circle1935"
         r="0.15"
         cy="8.373"
         cx="6.535"
         style="fill:black;stroke:none" />
      <circle
         id="circle1937"
         r="0.15"
         cy="7.154"
         cx="4.37"
         style="fill:black;stroke:none" />
      <circle
         id="circle1939"
         r="0.15"
         cy="7.25"
         cx="0.622"
         style="fill:black;stroke:none" />
      <circle
         id="circle1941"
         r="0.15"
         cy="5.679"
         cx="0.831"
         style="fill:black;stroke:none" />
      <circle
         id="circle1943"
         r="0.15"
         cy="8.519"
         cx="1.257"
         style="fill:black;stroke:none" />
      <circle
         id="circle1945"
         r="0.15"
         cy="6.877"
         cx="1.989"
         style="fill:black;stroke:none" />
      <circle
         id="circle1947"
         r="0.15"
         cy="3.181"
         cx="0.374"
         style="fill:black;stroke:none" />
      <circle
         id="circle1949"
         r="0.15"
         cy="1.664"
         cx="1.166"
         style="fill:black;stroke:none" />
      <circle
         id="circle1951"
         r="0.15"
         cy="0.093"
         cx="1.151"
         style="fill:black;stroke:none" />
      <circle
         id="circle1953"
         r="0.15"
         cy="10.093"
         cx="1.151"
         style="fill:black;stroke:none" />
      <circle
         id="circle1955"
         r="0.15"
         cy="4.451"
         cx="1.302"
         style="fill:black;stroke:none" />
      <circle
         id="circle1957"
         r="0.15"
         cy="3.763"
         cx="3.047"
         style="fill:black;stroke:none" />
    </pattern>
    <filter
       inkscape:label="Dots Transparency"
       inkscape:menu="Overlays"
       inkscape:menu-tooltip="Gives a pointillist HSL sensitive transparency"
       style="color-interpolation-filters:sRGB;"
       id="filter911">
      <feTurbulence
         result="result1"
         numOctaves="3"
         baseFrequency="1"
         type="fractalNoise"
         seed="50"
         id="feTurbulence899" />
      <feColorMatrix
         result="result0"
         in="SourceGraphic"
         type="luminanceToAlpha"
         id="feColorMatrix901" />
      <feColorMatrix
         values="1 0 0 0 0 0 1 0 0 0 0 0 1 0 0 0 0 0 0.7 0 "
         result="result2"
         id="feColorMatrix903" />
      <feComposite
         in="result1"
         operator="over"
         in2="result2"
         result="result3"
         id="feComposite905" />
      <feColorMatrix
         values="1 0 0 0 0 0 1 0 0 0 0 0 1 0 0 0 0 0 5 -3.2 "
         result="result91"
         id="feColorMatrix907" />
      <feComposite
         operator="out"
         in="SourceGraphic"
         result="result4"
         in2="result91"
         id="feComposite909" />
    </filter>
  </defs>
  <sodipodi:namedview
     id="base"
     pagecolor="#ffffff"
     bordercolor="#666666"
     borderopacity="1.0"
     inkscape:pageopacity="0.0"
     inkscape:pageshadow="2"
     inkscape:zoom="0.84918651"
     inkscape:cx="63.59588"
     inkscape:cy="396.85039"
     inkscape:document-units="mm"
     inkscape:current-layer="layer1"
     showgrid="false"
     inkscape:window-width="1375"
     inkscape:window-height="876"
     inkscape:window-x="65"
     inkscape:window-y="24"
     inkscape:window-maximized="1"
     gridtolerance="1"
     objecttolerance="1"
     guidetolerance="1" />
  <metadata
     id="metadata5">
    <rdf:RDF>
      <cc:Work
         rdf:about="">
        <dc:format>image/svg+xml</dc:format>
        <dc:type
           rdf:resource="http://purl.org/dc/dcmitype/StillImage" />
        <dc:title />
      </cc:Work>
    </rdf:RDF>
  </metadata>
  <g
     inkscape:label="Layer 1"
     inkscape:groupmode="layer"
     id="layer1"
     transform="translate(0,-87)">
    <flowRoot
       xml:space="preserve"
       id="flowRoot936"
       style="font-style:normal;font-variant:normal;font-weight:normal;font-stretch:normal;font-size:25px;line-height:125%;font-family:'Vtks Rash';-inkscape-font-specification:'Vtks Rash';letter-spacing:0px;word-spacing:0px;fill:#000000;fill-opacity:1;stroke:none;stroke-width:1px;stroke-linecap:butt;stroke-linejoin:miter;stroke-opacity:1"><flowRegion
         id="flowRegion938"><rect
           id="rect940"
           width="583.87811"
           height="309.8559"
           x="-4.2157269"
           y="-89.493927" /></flowRegion><flowPara
         id="flowPara942" /></flowRoot>    <flowRoot
       xml:space="preserve"
       id="flowRoot903"
       style="font-style:normal;font-variant:normal;font-weight:normal;font-stretch:normal;font-size:25px;line-height:125%;font-family:'Vtks Rash';-inkscape-font-specification:'Vtks Rash';letter-spacing:0px;word-spacing:0px;fill:#000000;fill-opacity:1;stroke:none;stroke-width:1px;stroke-linecap:butt;stroke-linejoin:miter;stroke-opacity:1"><flowRegion
         id="flowRegion905"><rect
           id="rect907"
           width="11.775976"
           height="31.795135"
           x="202.54678"
           y="594.68677" /></flowRegion><flowPara
         id="flowPara909" /></flowRoot>    <flowRoot
       xml:space="preserve"
       id="flowRoot916"
       style="font-style:normal;font-variant:normal;font-weight:normal;font-stretch:normal;font-size:25px;line-height:125%;font-family:'Vtks Rash';-inkscape-font-specification:'Vtks Rash';letter-spacing:0px;word-spacing:0px;fill:#000000;fill-opacity:1;stroke:none;stroke-width:1px;stroke-linecap:butt;stroke-linejoin:miter;stroke-opacity:1"><flowRegion
         id="flowRegion918"><rect
           id="rect920"
           width="1.1229856"
           height="77.325577"
           x="164.5575"
           y="427.17969" /></flowRegion><flowPara
         id="flowPara922" /></flowRoot>    <text
       xml:space="preserve"
       style="font-style:normal;font-variant:normal;font-weight:normal;font-stretch:normal;font-size:6.61458302px;line-height:125%;font-family:'Vtks Rash';-inkscape-font-specification:'Vtks Rash';letter-spacing:0px;word-spacing:0px;fill:#000000;fill-opacity:1;stroke:none;stroke-width:0.26458332px;stroke-linecap:butt;stroke-linejoin:miter;stroke-opacity:1"
       x="32.715134"
       y="234.37389"
       id="text863"><tspan
         sodipodi:role="line"
         id="tspan861"
         x="32.715134"
         y="240.16165"
         style="stroke-width:0.26458332px" /></text>
    <g
       aria-label="2"
       style="font-style:normal;font-variant:normal;font-weight:normal;font-stretch:normal;font-size:11.74856281px;line-height:125%;font-family:'Vtks Rash';-inkscape-font-specification:'Vtks Rash';letter-spacing:0px;word-spacing:0px;fill:url(#Polkadots-med);fill-opacity:1;stroke:#000000;stroke-width:2.18220925;stroke-linecap:butt;stroke-linejoin:miter;stroke-miterlimit:4;stroke-dasharray:none;stroke-opacity:1"
       id="text879"
       transform="translate(-4.5850781e-4,9.7606075)" />
    <path
       style="color:#000000;clip-rule:nonzero;display:inline;overflow:visible;visibility:visible;opacity:1;isolation:auto;mix-blend-mode:normal;color-interpolation:sRGB;color-interpolation-filters:linearRGB;solid-color:#000000;solid-opacity:1;fill:#000000;fill-opacity:1;fill-rule:evenodd;stroke:#000000;stroke-width:0.04685513;stroke-linecap:butt;stroke-linejoin:miter;stroke-miterlimit:4;stroke-dasharray:none;stroke-dashoffset:0;stroke-opacity:1;color-rendering:auto;image-rendering:auto;shape-rendering:auto;text-rendering:auto;enable-background:accumulate"
       d="m 49.725281,118.7539 50.720469,-1.56066 -1.560634,16.38659 H 79.377175 l 1.560636,30.43221 -16.386572,-1.56063 2.340916,-28.09127 h -16.38656 z"
       id="path1193"
       inkscape:connector-curvature="0" />
    <circle
       style="opacity:1;fill:#000000;fill-opacity:1;fill-rule:evenodd;stroke:none;stroke-width:1.36606908;stroke-linecap:round;stroke-linejoin:miter;stroke-miterlimit:4;stroke-dasharray:none;stroke-dashoffset:0;stroke-opacity:1"
       id="path1197"
       cx="76.651199"
       cy="242.60231"
       r="24.228689" />
    <circle
       style="opacity:1;fill:#ffffff;fill-opacity:1;fill-rule:evenodd;stroke:none;stroke-width:0.80952245;stroke-linecap:round;stroke-linejoin:miter;stroke-miterlimit:4;stroke-dasharray:none;stroke-dashoffset:0;stroke-opacity:1"
       id="path1199-3-6-7-3"
       cx="77.192123"
       cy="241.70496"
       r="6.2815127" />
    <path
       style="color:#000000;clip-rule:nonzero;display:inline;overflow:visible;visibility:visible;opacity:1;isolation:auto;mix-blend-mode:normal;color-interpolation:sRGB;color-interpolation-filters:linearRGB;solid-color:#000000;solid-opacity:1;fill:#000000;fill-opacity:1;fill-rule:evenodd;stroke:#000000;stroke-width:0.03136067;stroke-linecap:butt;stroke-linejoin:miter;stroke-miterlimit:4;stroke-dasharray:none;stroke-dashoffset:0;stroke-opacity:1;color-rendering:auto;image-rendering:auto;shape-rendering:auto;text-rendering:auto;enable-background:accumulate"
       d="m 43.729239,170.8308 h 13.584944 l 12.191623,26.2329 5.921638,-12.13762 6.9666,12.52915 8.011646,-27.79904 14.40388,0.26241 -14.40388,41.2404 H 80.304061 l -4.179959,-9.00534 -4.17997,10.17993 -10.798295,-0.39153 z"
       id="path907"
       inkscape:connector-curvature="0"
       sodipodi:nodetypes="ccccccccccccc" />
    <circle
       style="opacity:1;fill:#000000;fill-opacity:1;fill-rule:evenodd;stroke:none;stroke-width:0.80952245;stroke-linecap:round;stroke-linejoin:miter;stroke-miterlimit:4;stroke-dasharray:none;stroke-dashoffset:0;stroke-opacity:1"
       id="path1199-3-6-7-3-3"
       cx="40.785732"
       cy="214.8549"
       r="6.2815127" />
    <circle
       style="opacity:1;fill:#000000;fill-opacity:1;fill-rule:evenodd;stroke:none;stroke-width:0.80952245;stroke-linecap:round;stroke-linejoin:miter;stroke-miterlimit:4;stroke-dasharray:none;stroke-dashoffset:0;stroke-opacity:1"
       id="path1199-3-6-7-3-3-6"
       cx="110.29106"
       cy="212.66791"
       r="6.2815127" />
    <circle
       style="opacity:1;fill:#000000;fill-opacity:1;fill-rule:evenodd;stroke:none;stroke-width:0.80952245;stroke-linecap:round;stroke-linejoin:miter;stroke-miterlimit:4;stroke-dasharray:none;stroke-dashoffset:0;stroke-opacity:1"
       id="path1199-3-6-7-3-3-7"
       cx="45.667385"
       cy="150.54901"
       r="6.2815127" />
    <path
       style="opacity:1;fill:#000000;fill-opacity:1;fill-rule:evenodd;stroke:#000000;stroke-width:0.70704144;stroke-linecap:round;stroke-linejoin:miter;stroke-miterlimit:4;stroke-dasharray:none;stroke-dashoffset:0;stroke-opacity:1"
       id="path945"
       d="m 36.895842,210.21505 c 0.187983,0.004 0.375364,-0.0173 0.559963,-0.0511 0.383796,-0.10488 0.680491,-0.39408 0.968764,-0.65371 0.395388,-0.3418 0.732882,-0.73605 1.039438,-1.15741 0.378292,-0.54223 0.620018,-1.15989 0.857884,-1.77222 0.275473,-0.70852 0.489317,-1.43849 0.67376,-2.1753 0.156036,-0.62873 0.221479,-1.27313 0.255897,-1.9184 0.04882,-0.59055 -0.07401,-1.1345 -0.339001,-1.65801 -0.305214,-0.54877 -0.747694,-0.99374 -1.203711,-1.41707 -0.437306,-0.40578 -0.938488,-0.73148 -1.438222,-1.05356 -0.410239,-0.2797 -0.853332,-0.46552 -1.345576,-0.52465 -0.0708,-5.1e-4 -0.283332,-0.003 -0.212502,-9.7e-4 1.671983,0.0272 0.819312,-0.005 0.173318,0.20237 -0.371591,0.11968 -0.7156,0.30448 -1.048367,0.50561 -0.347452,0.22155 -0.646627,0.50544 -0.94268,0.78943 -0.310223,0.2908 -0.571954,0.62418 -0.81405,0.97213 -0.272985,0.38161 -0.427824,0.80824 -0.521966,1.26349 -0.09366,0.59393 -0.116453,1.19624 -0.126091,1.79653 -0.01576,0.56978 0.01537,1.13817 0.07275,1.70479 0.06419,0.55575 0.232749,1.08812 0.426627,1.61013 0.174688,0.49315 0.413692,0.95735 0.669812,1.41206 0.265291,0.44764 0.553223,0.88155 0.875428,1.29019 0.341705,0.40521 0.70992,0.78706 1.071173,1.17472 0.340129,0.36463 0.681337,0.72826 1.022419,1.09201 0.256169,0.26627 0.498722,0.54544 0.712653,0.84685 0.12683,0.17095 0.245519,0.35022 0.318986,0.55089 0.125303,0.63153 -1.021457,0.27021 -1.497995,0.14016 -0.236241,-0.0816 -0.475186,-0.15426 -0.71383,-0.22833 -0.422493,-0.1465 -0.837897,-0.31108 -1.24908,-0.48656 -0.494005,-0.21779 -0.985025,-0.4418 -1.470277,-0.67844 -0.548526,-0.26899 -1.091382,-0.54919 -1.640891,-0.81621 -0.613871,-0.29152 -1.259059,-0.50624 -1.90836,-0.70263 -0.732999,-0.21066 -1.474216,-0.39264 -2.220431,-0.54986 -0.12117,-0.0239 -0.242057,-0.0492 -0.363499,-0.0717 -0.244703,-0.0451 -0.451515,-0.0804 -0.699038,-0.10289 -0.112202,-0.0102 -0.450036,-0.0173 -0.337405,-0.0199 1.397929,-0.0326 0.959718,-0.003 0.525496,0.0383 -0.610371,0.0945 -1.195095,0.30224 -1.765659,0.53256 -0.53529,0.20917 -1.023887,0.50111 -1.469508,0.86131 -0.461124,0.40287 -0.795281,0.9185 -1.092258,1.44785 -0.283701,0.5084 -0.447556,1.05747 -0.529026,1.63055 -0.07265,0.50352 -0.01293,0.99736 0.120819,1.48376 0.14418,0.47235 0.414976,0.87684 0.728447,1.25173 0.340839,0.39816 0.763031,0.70928 1.200814,0.99156 0.507805,0.33874 1.067321,0.5673 1.647202,0.74771 0.739116,0.22087 1.506329,0.31622 2.270342,0.40289 0.528969,0.0512 1.059512,0.0859 1.590766,0.10117 0.132091,0.004 0.528492,0.009 0.396371,0.007 -0.257161,-0.004 -0.514312,-0.009 -0.771463,-0.0126 0.896649,-0.0358 1.737698,-0.34254 2.560891,-0.67311 0.877811,-0.36484 1.733555,-0.77966 2.590514,-1.19035 0.664113,-0.32815 1.336756,-0.63738 2.02672,-0.9071 0.572538,-0.18704 1.823904,-0.71867 2.136208,-0.0523 0.04824,0.34549 -0.186622,0.6311 -0.377572,0.8944 -0.297677,0.38931 -0.622196,0.75705 -0.949293,1.12164 -0.380684,0.41754 -0.788696,0.80875 -1.193947,1.20208 -0.406301,0.39871 -0.822794,0.78676 -1.234794,1.17952 -0.418526,0.3856 -0.779214,0.82144 -1.087443,1.29853 -0.265039,0.40735 -0.459237,0.85229 -0.633887,1.30396 -0.165702,0.40261 -0.234004,0.80501 -0.202085,1.237 0.07926,0.57842 0.32309,1.10432 0.604418,1.60864 0.315912,0.53613 0.752187,0.97249 1.212883,1.38305 0.455404,0.40919 0.980064,0.72631 1.518612,1.0122 0.555363,0.29337 1.161746,0.4616 1.767467,0.61414 0.570954,0.13161 1.148063,0.23295 1.730395,0.29701 0.399376,0.0235 1.465637,0.1148 -0.372204,0.0277 -0.08947,-0.004 0.179017,-0.0109 0.26784,-0.0228 0.239304,-0.0318 0.300575,-0.0574 0.532673,-0.12166 0.503828,-0.15737 0.98448,-0.37803 1.443697,-0.63653 0.444211,-0.24492 0.798335,-0.60324 1.125616,-0.98401 0.318733,-0.38701 0.546853,-0.83033 0.738202,-1.29054 0.177208,-0.44299 0.259446,-0.91172 0.315786,-1.38285 0.05349,-0.4898 0.01984,-0.98213 -0.02227,-1.47116 -0.04357,-0.45968 -0.135369,-0.91195 -0.234374,-1.36223 -0.109149,-0.42565 -0.218833,-0.8512 -0.331668,-1.2759 -0.07878,-0.27428 -0.12046,-0.55446 -0.05767,-0.83487 0.0532,-0.17167 0.146349,-0.32318 0.290441,-0.43124 0.527626,-0.22326 1.157146,-0.12157 1.705711,0.0165 0.217724,0.0686 0.427746,0.15618 0.631728,0.25817 0.340634,0.1538 0.668042,0.33514 0.993903,0.5177 0.406681,0.23118 0.810297,0.46781 1.217668,0.69778 0.424857,0.24349 0.889044,0.40416 1.354252,0.55059 0.573929,0.1744 1.159927,0.3029 1.748357,0.41688 0.646442,0.1197 1.298719,0.20954 1.952601,0.27718 0.430761,0.0898 2.72495,0.10343 0.57603,0.0833 0.524631,-0.0194 1.017128,-0.16389 1.480537,-0.40321 0.401905,-0.24197 0.746897,-0.56142 1.05569,-0.91177 0.271798,-0.33037 0.451903,-0.72132 0.611284,-1.11497 0.162591,-0.44418 0.177617,-0.91015 0.130672,-1.37529 -0.103849,-0.5894 -0.342745,-1.14267 -0.588449,-1.68455 -0.252016,-0.53409 -0.540172,-1.04949 -0.850181,-1.55177 -0.289197,-0.48171 -0.674948,-0.88468 -1.10103,-1.24562 -0.548497,-0.4146 -1.217016,-0.6034 -1.86869,-0.78795 -0.673752,-0.18592 -1.36034,-0.31973 -2.049254,-0.4348 -0.420636,-0.12873 -2.786443,-0.14061 -0.647191,-0.13103 -0.58769,0.0193 -1.148782,0.21056 -1.704709,0.38491 -0.415695,0.13946 -0.83179,0.27674 -1.255198,0.39101 -0.521149,0.10117 -1.500095,0.39343 -1.801536,-0.0287 -0.06088,-0.13289 -0.02684,-0.26353 0.0355,-0.38785 0.116093,-0.16748 0.277487,-0.29952 0.433902,-0.42815 0.210984,-0.17558 0.449219,-0.3124 0.680316,-0.45883 0.247961,-0.15705 0.49701,-0.31223 0.746789,-0.46637 0.317518,-0.2038 0.621915,-0.42773 0.920331,-0.65836 0.44,-0.35188 0.87537,-0.70872 1.283003,-1.09791 0.480915,-0.46812 0.79993,-1.05303 1.074548,-1.65736 0.271564,-0.6016 0.402829,-1.24117 0.468456,-1.89373 0.0459,-0.51461 -0.106824,-0.99022 -0.310699,-1.45382 -0.191573,-0.44384 -0.519817,-0.78099 -0.885135,-1.08515 -0.409208,-0.31376 -0.878112,-0.52838 -1.356868,-0.71154 -0.460277,-0.17889 -0.936757,-0.30416 -1.424732,-0.37592 -0.418195,0.002 -1.347104,-0.095 0.543313,7.8e-4 0.06633,0.003 -0.131887,0.0157 -0.197281,0.0269 -0.164205,0.0284 -0.212929,0.0466 -0.372164,0.0915 -0.398239,0.11936 -0.70676,0.37724 -0.994741,0.66549 -0.330909,0.34554 -0.606995,0.73669 -0.866335,1.13719 -0.273849,0.42421 -0.496339,0.87647 -0.687639,1.34284 -0.237953,0.60441 -0.403889,1.23349 -0.572567,1.85976 -0.139006,0.51428 -0.257326,1.0337 -0.373439,1.5535 0,0 -1.183978,-0.026 -1.183978,-0.026 v 0 c 0.115947,-0.52134 0.233479,-1.04242 0.371172,-1.55855 0.167522,-0.63083 0.330238,-1.26502 0.566363,-1.8746 0.189199,-0.47436 0.41128,-0.93399 0.686482,-1.36524 0.260107,-0.40781 0.537264,-0.80591 0.866996,-1.1614 0.289235,-0.30289 0.595627,-0.58338 0.998378,-0.72573 0.773408,-0.2496 1.5966,-0.21099 2.399885,-0.13489 0.48818,0.0843 0.965078,0.21807 1.425676,0.40186 0.482626,0.19507 0.955663,0.41972 1.362198,0.75059 0.370336,0.32142 0.696722,0.6812 0.889452,1.13975 0.2058,0.48392 0.355631,0.98117 0.307208,1.51463 -0.06769,0.66498 -0.200179,1.31729 -0.47292,1.93201 -0.275737,0.61686 -0.592875,1.21749 -1.0734,1.70267 -0.404764,0.39527 -0.841321,0.75335 -1.279833,1.11035 -0.295586,0.23651 -0.601588,0.46057 -0.915905,0.6716 -0.247261,0.15747 -0.500065,0.30641 -0.746284,0.46558 -0.22778,0.14576 -0.465656,0.27705 -0.677262,0.44646 -0.151504,0.1163 -0.294167,0.24413 -0.427269,0.38109 -0.04133,0.0664 -0.102594,0.15948 -0.03744,0.22999 0.376793,0.17422 0.05096,0.0166 -1.073342,0.0314 -0.227702,0.003 0.682426,-0.0139 0.480701,-0.0636 0.427113,-0.10586 0.845367,-0.24178 1.261636,-0.38391 0.559234,-0.17698 1.121755,-0.37557 1.710535,-0.41988 1.005448,-5.2e-4 2.009194,-0.0284 3.002796,0.15031 0.689089,0.11898 1.37559,0.25753 2.048835,0.44831 0.660856,0.19344 1.334286,0.399 1.879145,0.83832 0.427756,0.37413 0.813468,0.79052 1.10423,1.28248 0.309056,0.50778 0.598029,1.02761 0.849024,1.56685 0.248972,0.55432 0.489619,1.12054 0.592582,1.72303 0.04863,0.48399 0.03472,0.96877 -0.127958,1.43293 -0.160986,0.40571 -0.343688,0.80864 -0.614153,1.15462 -0.309737,0.36445 -0.660068,0.69213 -1.061467,0.95488 -0.462787,0.25967 -0.955819,0.42399 -1.489368,0.45769 -0.980123,0.006 -1.958709,0.0336 -2.932997,-0.0927 -0.654037,-0.0733 -1.306918,-0.16259 -1.953272,-0.2875 -0.590754,-0.11768 -1.179223,-0.24949 -1.754436,-0.43007 -0.468408,-0.15302 -0.933372,-0.32326 -1.359474,-0.57475 -0.406243,-0.23178 -0.810647,-0.46679 -1.21796,-0.69673 -0.327456,-0.18096 -0.658433,-0.35588 -0.999661,-0.50975 -0.203758,-0.0936 -0.412476,-0.17822 -0.630667,-0.23204 -1.143287,-0.24941 1.469985,-0.0101 0.689292,-0.0495 -0.149898,0.0531 -0.228607,0.18922 -0.285617,0.332 -0.06944,0.25859 -0.01906,0.52075 0.05028,0.77516 0.111231,0.42664 0.22283,0.85322 0.33017,1.28085 0.09988,0.45534 0.190619,0.91303 0.233518,1.37788 0.0424,0.49708 0.07518,0.99757 0.02208,1.49538 -0.05582,0.48194 -0.138782,0.96131 -0.316243,1.41558 -0.192778,0.47185 -0.42225,0.9267 -0.741323,1.32781 -0.328468,0.39194 -0.681522,0.76727 -1.129293,1.02519 -0.459538,0.26866 -0.942368,0.49576 -1.44817,0.66403 -0.901668,0.2841 -1.858352,0.23695 -2.792318,0.13688 -0.582108,-0.0719 -1.159986,-0.17465 -1.730122,-0.31328 -0.609125,-0.15904 -1.216277,-0.3394 -1.771776,-0.64287 -0.539987,-0.29621 -1.065522,-0.62209 -1.521092,-1.04046 -0.464265,-0.4224 -0.900326,-0.87411 -1.215489,-1.42266 -0.284937,-0.52122 -0.529756,-1.06502 -0.61037,-1.6597 -0.03472,-0.44987 0.02966,-0.87002 0.201346,-1.29011 0.177071,-0.45901 0.371454,-0.91255 0.638876,-1.32762 0.307383,-0.48699 0.666953,-0.93399 1.089612,-1.32708 0.411056,-0.39368 0.829358,-0.77974 1.235533,-1.17852 0.403441,-0.39143 0.810267,-0.77999 1.190757,-1.19412 0.325025,-0.36156 0.648232,-0.72546 0.946064,-1.11002 0.155121,-0.20889 0.39783,-0.46897 0.367924,-0.74798 -0.232195,-0.17771 -1.810668,-0.10823 0.924853,-0.0604 0.300926,0.005 -0.926477,0.0859 -0.673955,0.18503 -0.693961,0.263 -1.370221,0.5674 -2.035297,0.89667 -0.858827,0.41072 -1.715894,0.82647 -2.592995,1.19724 -0.823008,0.33871 -1.663482,0.66003 -2.561522,0.71508 -1.187733,0.0108 -2.376788,0.0376 -3.558841,-0.10498 -0.767446,-0.0906 -1.537431,-0.19408 -2.277588,-0.4252 -0.583109,-0.19193 -1.144784,-0.43284 -1.655119,-0.77921 -0.441273,-0.29371 -0.865459,-0.61667 -1.205685,-1.02751 -0.316156,-0.3921 -0.588002,-0.81391 -0.731064,-1.30222 -0.133764,-0.50261 -0.193439,-1.01303 -0.119185,-1.53207 0.08218,-0.58726 0.245762,-1.15133 0.532722,-1.67421 0.298475,-0.5421 0.635238,-1.07009 1.094028,-1.49234 0.444084,-0.37431 0.931758,-0.68122 1.473437,-0.89695 0.572762,-0.23889 1.160861,-0.44935 1.772194,-0.56516 1.07978,-0.13871 2.169567,-0.0701 3.227387,0.16838 0.746517,0.1625 1.4893,0.34398 2.222328,0.55988 0.652014,0.20158 1.299653,0.42181 1.914623,0.72071 0.549013,0.26908 1.092618,0.54899 1.642797,0.8157 0.485748,0.23424 0.976622,0.4575 1.471385,0.67208 0.412214,0.17247 0.828474,0.33594 1.253749,0.47376 0.23949,0.073 0.477005,0.1525 0.717429,0.22237 0.76413,0.18695 -0.985754,0.306 -0.903341,0.0623 -0.07596,-0.18858 -0.193575,-0.35624 -0.312294,-0.52013 -0.214719,-0.29432 -0.453966,-0.56908 -0.706215,-0.83185 -0.340022,-0.36413 -0.680053,-0.72825 -1.019968,-1.09248 -0.362828,-0.38997 -0.734078,-0.77312 -1.072116,-1.18515 -0.320843,-0.41612 -0.611849,-0.85416 -0.876469,-1.30821 -0.257151,-0.4607 -0.494598,-0.93204 -0.669803,-1.43098 -0.19412,-0.53227 -0.362789,-1.07475 -0.426996,-1.64024 -0.05728,-0.57132 -0.08763,-1.1443 -0.07119,-1.71874 0.01041,-0.60746 0.03384,-1.21661 0.124399,-1.81817 0.09171,-0.47117 0.241619,-0.9151 0.519991,-1.31221 0.24339,-0.35482 0.502136,-0.69868 0.815432,-0.99602 0.299155,-0.28907 0.598398,-0.58034 0.943691,-0.81517 0.333817,-0.20917 0.678955,-0.40339 1.052364,-0.5335 0.784087,-0.26269 1.567201,-0.35392 2.412986,-0.22083 0.491856,0.088 0.93557,0.29223 1.347376,0.57577 0.501775,0.32712 1.001898,0.66173 1.438464,1.07484 0.460462,0.43578 0.903924,0.89596 1.206805,1.45948 0.265057,0.54444 0.390448,1.11009 0.340537,1.71935 -0.03608,0.65288 -0.102818,1.30482 -0.26039,1.94109 -0.185941,0.7414 -0.40101,1.47601 -0.676075,2.1898 -0.238177,0.62094 -0.476033,1.24882 -0.851018,1.80307 -0.306362,0.4294 -0.640898,0.83464 -1.040411,1.18203 -0.293057,0.2715 -0.591376,0.5641 -0.966342,0.71751 -0.182702,0.0458 -0.370375,0.0725 -0.558699,0.0773 0,0 -1.194462,-0.18919 -1.194462,-0.18919 z"
       inkscape:connector-curvature="0" />
    <path
       style="opacity:1;fill:#000000;fill-opacity:1;fill-rule:evenodd;stroke:#000000;stroke-width:0.70704144;stroke-linecap:round;stroke-linejoin:miter;stroke-miterlimit:4;stroke-dasharray:none;stroke-dashoffset:0;stroke-opacity:1"
       id="path947"
       d="m 45.131734,146.51401 c 0.196533,-0.0447 0.343148,-0.15453 0.465306,-0.31033 0.202598,-0.33363 0.302219,-0.71722 0.422019,-1.08572 0.163174,-0.48033 0.276406,-0.97475 0.380102,-1.47063 0.122505,-0.57069 0.205954,-1.1478 0.276422,-1.72683 0.07228,-0.60205 0.126404,-1.20601 0.17792,-1.81012 0.05505,-0.56926 0.09037,-1.13976 0.08265,-1.71172 -0.01209,-0.53173 -0.175741,-1.03396 -0.358794,-1.52716 -0.169331,-0.50885 -0.452872,-0.92846 -0.829708,-1.30342 -0.484361,-0.44171 -1.100708,-0.66098 -1.710003,-0.86839 -0.59861,-0.21724 -1.219067,-0.29466 -1.851757,-0.28692 1.794226,-0.0157 0.776994,-0.006 0.38204,0.0768 -0.260946,0.0544 -0.489144,0.15535 -0.726817,0.2721 -0.473633,0.25453 -0.863663,0.62066 -1.226662,1.01116 -0.310739,0.34973 -0.602928,0.71875 -0.739153,1.17101 -0.07914,0.50286 0.06551,0.98886 0.288162,1.43488 0.413351,0.66152 0.982449,1.20949 1.53081,1.75829 0.616973,0.61235 1.254357,1.20364 1.895883,1.79004 0.610298,0.5375 1.210923,1.08528 1.785682,1.66069 0.500822,0.51006 0.964239,1.0546 1.42602,1.59968 0.353498,0.41055 0.680996,0.84329 0.976934,1.29701 0.157555,0.24694 0.291651,0.50811 0.410252,0.77573 0.05689,0.1307 0.08769,0.25414 -0.0025,0.37331 -1.07131,0.10468 -1.346781,0.0105 -2.108839,-0.45807 -0.605125,-0.37373 -1.198304,-0.76647 -1.792089,-1.15787 -0.773873,-0.50366 -1.549581,-1.00439 -2.330169,-1.49759 -0.733463,-0.45676 -1.444937,-0.94731 -2.142623,-1.45669 -0.616531,-0.45275 -1.2176,-0.92612 -1.818828,-1.39888 -0.571551,-0.43815 -1.134896,-0.88663 -1.693621,-1.34096 -0.512268,-0.42048 -1.079526,-0.75255 -1.682333,-1.02299 -0.560339,-0.24932 -1.153129,-0.4098 -1.753507,-0.5267 -0.46612,-0.15574 -2.551531,-0.14319 -0.49583,-0.12896 -0.50055,0.0205 -0.997281,0.0901 -1.4764,0.2369 -0.467902,0.14927 -0.865492,0.43251 -1.233886,0.74885 -0.359494,0.31686 -0.653291,0.69201 -0.913089,1.09221 -0.230496,0.38335 -0.404506,0.79758 -0.559417,1.21622 -0.170583,0.43765 -0.163671,0.88788 -0.10024,1.34485 0.112282,0.6198 0.381313,1.19414 0.65202,1.75778 0.285502,0.59373 0.645736,1.14506 1.030218,1.67833 0.382807,0.4995 0.819988,0.95427 1.261896,1.4012 0.418772,0.43546 0.891751,0.80326 1.415227,1.10247 0.58083,0.32016 1.209394,0.53691 1.838127,0.74072 0.67086,0.1992 1.351391,0.36489 2.038301,0.49803 0.668668,0.12104 1.34353,0.20933 2.019666,0.27641 -0.949213,0.0581 1.903342,0.0373 0.94493,0.0438 -1.797499,0.0122 -0.54127,-0.0125 -0.163687,-0.0311 0.660125,-0.0451 1.318985,-0.10758 1.9773,-0.17369 0.548673,-0.0301 1.821484,-0.31611 2.119378,0.01 0.055,0.24713 -0.239991,0.3627 -0.416773,0.4577 -0.440616,0.22048 -0.900706,0.3966 -1.364983,0.55973 -0.594813,0.21697 -1.211312,0.35481 -1.833521,0.46398 -0.682057,0.0947 -1.366524,0.16801 -2.046044,0.28053 -0.625837,0.10214 -1.232367,0.28727 -1.831585,0.49028 -0.53029,0.1819 -1.050822,0.38883 -1.545133,0.65375 -0.483007,0.27338 -0.90145,0.63628 -1.280322,1.03838 -0.332411,0.36652 -0.608518,0.7765 -0.821995,1.22202 -0.183289,0.45805 -0.2401,0.95218 -0.270906,1.44083 -0.02254,0.49383 0.02986,0.98359 0.172435,1.45636 0.183708,0.54991 0.545648,0.99639 0.934415,1.41456 0.444924,0.46724 0.929236,0.89475 1.426405,1.30513 0.490588,0.41562 1.058506,0.71843 1.641296,0.98189 0.610844,0.276 1.250432,0.47415 1.895282,0.65191 0.57581,0.1565 1.156578,0.29832 1.749898,0.3671 0.08687,0.003 0.347533,0.0101 0.260608,0.01 -1.707632,-0.011 -0.643256,-0.009 -0.02393,-0.23251 0.406603,-0.15633 0.774662,-0.38767 1.11497,-0.65664 0.37216,-0.30148 0.588977,-0.72325 0.784573,-1.14988 0.1935,-0.46389 0.331768,-0.94799 0.46414,-1.43207 0.134023,-0.52446 0.284154,-1.04456 0.419342,-1.5687 0.16156,-0.61716 0.312331,-1.23707 0.467184,-1.85594 0.12312,-0.49574 0.254124,-0.98957 0.414172,-1.47476 0.08007,-0.21152 0.116025,-0.459 0.273715,-0.6309 1.185645,-0.88296 1.350687,0.20401 1.437532,0.78934 0.06736,0.48312 0.10933,0.96906 0.173812,1.45254 0.07557,0.59108 0.171774,1.17868 0.346088,1.74906 0.191818,0.53827 0.464361,1.04218 0.779662,1.51711 0.345349,0.49032 0.77902,0.90416 1.243799,1.27893 0.575781,0.44377 1.239231,0.74527 1.906252,1.02281 0.684583,0.26583 1.391935,0.46534 2.108415,0.62319 0.442097,0.19866 2.803447,0.21017 0.631771,0.17618 0.447014,-0.0353 0.852807,-0.18355 1.22185,-0.43228 0.296198,-0.21008 0.548742,-0.47189 0.777717,-0.75191 0.27518,-0.32125 0.360001,-0.71546 0.407294,-1.12411 0.03561,-0.69568 -0.0858,-1.38638 -0.197962,-2.07014 -0.126889,-0.71656 -0.272879,-1.4293 -0.48338,-2.1262 -0.210129,-0.66214 -0.557529,-1.26224 -0.958124,-1.82507 -0.400745,-0.54077 -0.895289,-0.99746 -1.393844,-1.44525 -0.442114,-0.39381 -0.920716,-0.74332 -1.395604,-1.0959 -0.271585,-0.20555 -0.560352,-0.38585 -0.83273,-0.59016 -0.08775,-0.0745 -0.163432,-0.13869 -0.152921,-0.25814 0.343127,-0.42185 1.141265,-0.11538 1.6875,-0.0926 0.444422,0.0377 0.889354,0.0683 1.334555,0.095 -0.374058,0.0427 1.505148,0.0413 1.128661,0.0426 -1.195646,0.004 -1.14209,0.006 -0.627778,-0.0122 0.56773,-0.0268 1.129037,-0.11549 1.687531,-0.21616 0.574016,-0.10169 1.130506,-0.27215 1.672418,-0.48419 0.462141,-0.18631 0.861267,-0.47402 1.229818,-0.8036 0.287571,-0.26253 0.519451,-0.56226 0.672866,-0.91963 0.13702,-0.38381 0.100216,-0.7842 0.05539,-1.18008 -0.05568,-0.40181 -0.162402,-0.7941 -0.286257,-1.17961 -0.106969,-0.37956 -0.286673,-0.71898 -0.520756,-1.03351 -0.266147,-0.34691 -0.569006,-0.66236 -0.891439,-0.95677 -0.326332,-0.29133 -0.666602,-0.56413 -1.025616,-0.81394 -0.396982,-0.26508 -0.82957,-0.46875 -1.270907,-0.64752 -0.436923,-0.17283 -0.880854,-0.32726 -1.337921,-0.43685 0.542157,-0.093 -1.452824,-0.0955 -0.907522,-0.0974 1.202323,-0.004 1.230335,-0.0114 0.724952,0.0209 -0.510623,0.0376 -0.993319,0.2096 -1.465102,0.39704 -0.531735,0.20119 -1.012205,0.47841 -1.448138,0.84101 -0.480776,0.43592 -0.889256,0.94245 -1.292036,1.44908 -0.06524,0.087 -0.130476,0.17416 -0.195714,0.26125 0,0 -1.187343,-0.0761 -1.187343,-0.0761 v 0 c 0.06526,-0.0883 0.130523,-0.17656 0.195785,-0.26485 0.404779,-0.51268 0.816225,-1.02359 1.292838,-1.47231 0.433738,-0.37834 0.908696,-0.67391 1.449149,-0.87927 0.472,-0.19567 0.955521,-0.3796 1.467454,-0.43376 0.844247,-0.0788 1.719564,-0.0865 2.551983,0.0964 0.456225,0.12017 0.901751,0.27657 1.338656,0.4545 0.443113,0.18855 0.879069,0.39745 1.275459,0.67354 0.358774,0.25613 0.700275,0.53383 1.027163,0.82974 0.322986,0.30282 0.627375,0.62555 0.893798,0.97995 0.234292,0.32812 0.413288,0.68222 0.523167,1.07202 0.123691,0.39354 0.231489,0.79335 0.286104,1.20305 0.04657,0.41587 0.0802,0.83577 -0.05477,1.24063 -0.151198,0.37694 -0.381051,0.69435 -0.678601,0.97235 -0.372004,0.34061 -0.769753,0.64589 -1.237838,0.84551 -0.542199,0.22086 -1.099694,0.39993 -1.676352,0.50742 -0.558794,0.10552 -1.120514,0.19764 -1.688807,0.23295 -0.952858,0.0466 -1.90879,0.0244 -2.860719,-0.0325 -0.447564,-0.0275 -0.894571,-0.0624 -1.342035,-0.0911 -1.04095,-0.0373 1.365223,0.19021 0.710676,-0.0595 0.04917,0.0368 0.09753,0.0748 0.143628,0.11533 0.268719,0.20337 0.553785,0.38401 0.820199,0.59066 0.475192,0.35502 0.952538,0.70893 1.392809,1.10741 0.50128,0.45481 0.995858,0.92132 1.394825,1.47178 0.401307,0.57627 0.74909,1.18909 0.95868,1.86335 0.209368,0.70228 0.35579,1.41995 0.482335,2.14152 0.113908,0.6946 0.2364,1.39577 0.205575,2.10244 -0.0443,0.42785 -0.124001,0.84936 -0.403448,1.19229 -0.229774,0.29072 -0.484199,0.5632 -0.782396,0.78536 -0.370175,0.27081 -0.773647,0.44504 -1.234344,0.49694 -1.017682,0.0136 -2.00136,0.0718 -2.989846,-0.1957 -0.716857,-0.16602 -1.425611,-0.36963 -2.109209,-0.64421 -0.671622,-0.2863 -1.337782,-0.59942 -1.913192,-1.05632 -0.467508,-0.38712 -0.905232,-0.81138 -1.249276,-1.31501 -0.315322,-0.48708 -0.591135,-1.00109 -0.780199,-1.55138 -0.171885,-0.5775 -0.269565,-1.17093 -0.347626,-1.76792 -0.06623,-0.48275 -0.109662,-0.96808 -0.178814,-1.45046 -0.144245,-0.92078 -0.46106,-0.57857 0.997088,-0.65199 0.01585,-7.7e-4 -0.02264,-0.0223 -0.03397,-0.0335 -0.189462,0.0261 -0.204046,0.42014 -0.278473,0.5477 -0.164767,0.48123 -0.298512,0.97193 -0.422303,1.46517 -0.155762,0.61869 -0.305269,1.23892 -0.465175,1.85654 -0.133359,0.52505 -0.282957,1.04572 -0.416933,1.57061 -0.133034,0.49021 -0.27256,0.98006 -0.464387,1.45115 -0.197817,0.44106 -0.413935,0.88257 -0.785942,1.20524 -0.339142,0.28323 -0.710424,0.52453 -1.119816,0.69484 -0.834851,0.32828 -1.700994,0.36796 -2.605552,0.25022 -0.592005,-0.0833 -1.173206,-0.22436 -1.74884,-0.38465 -0.646086,-0.18263 -1.285566,-0.38964 -1.896598,-0.67086 -0.585394,-0.2747 -1.154335,-0.5875 -1.64614,-1.01268 -0.497428,-0.41606 -0.98264,-0.84827 -1.427216,-1.32114 -0.395119,-0.43534 -0.759135,-0.90047 -0.941847,-1.46857 -0.141325,-0.48735 -0.19651,-0.99045 -0.173036,-1.49815 0.03108,-0.5034 0.09086,-1.01142 0.271268,-1.48593 0.2118,-0.45885 0.490665,-0.87989 0.826194,-1.25873 0.379213,-0.41423 0.799714,-0.78819 1.284388,-1.07644 0.492991,-0.27663 1.01491,-0.48951 1.549134,-0.67381 0.600422,-0.20891 1.208751,-0.39985 1.836354,-0.5092 0.678797,-0.11783 1.362889,-0.19467 2.046291,-0.28026 0.619579,-0.10381 1.235059,-0.23113 1.827582,-0.44502 0.460458,-0.15793 0.915628,-0.33004 1.35388,-0.54314 0.115956,-0.0592 0.324012,-0.19421 0.4087,-0.20771 -0.406632,-0.0532 -0.02899,-0.002 1.063278,-0.0112 0.04514,-2.6e-4 -0.09025,-0.004 -0.135372,-0.002 -0.222765,0.006 -0.444039,0.0374 -0.665419,0.0593 -0.659899,0.0667 -1.320436,0.12782 -1.981745,0.17883 -1.043418,0.0572 -2.091682,0.0716 -3.133551,-0.0183 -0.675899,-0.0726 -1.351037,-0.1601 -2.018961,-0.28768 -0.687494,-0.13951 -1.370171,-0.30479 -2.040602,-0.51218 -0.632226,-0.20908 -1.263233,-0.43376 -1.843404,-0.76565 -0.522948,-0.31364 -0.99723,-0.69132 -1.418567,-1.13372 -0.442916,-0.4525 -0.882138,-0.91185 -1.261881,-1.41978 -0.384618,-0.54059 -0.745313,-1.09878 -1.030855,-1.69919 -0.274118,-0.57552 -0.544695,-1.16244 -0.657742,-1.79445 -0.0653,-0.47554 -0.07602,-0.94655 0.09737,-1.40342 0.156063,-0.42706 0.333261,-0.84869 0.562505,-1.24221 0.260575,-0.41069 0.553377,-0.79771 0.915616,-1.12568 0.368587,-0.32939 0.767736,-0.63011 1.238659,-0.79695 0.478697,-0.16562 0.97815,-0.24073 1.483366,-0.27103 0.957916,-0.005 1.914708,-0.059 2.855811,0.15005 0.601793,0.12728 1.195504,0.29572 1.755681,0.554 0.602788,0.28279 1.169693,0.62678 1.683413,1.05307 0.557996,0.4538 1.12193,0.90009 1.691618,1.33914 0.600416,0.47131 1.200162,0.94385 1.816136,1.3948 0.696868,0.50632 1.406993,0.99424 2.138591,1.44934 0.780628,0.49495 1.556918,0.99663 2.332595,1.49931 0.596861,0.39022 1.192554,0.78277 1.802718,1.15203 0.660526,0.38767 1.550925,0.51376 -0.279653,0.43168 0.10906,0.0943 0.01433,-0.14219 -0.0011,-0.17377 -0.116378,-0.26118 -0.247202,-0.51619 -0.402033,-0.75689 -0.293113,-0.4489 -0.618144,-0.8763 -0.967834,-1.28274 -0.459104,-0.54295 -0.921261,-1.08424 -1.421685,-1.59001 -0.574969,-0.57229 -1.17502,-1.11769 -1.781991,-1.65583 -0.641932,-0.58802 -1.279463,-1.18123 -1.896513,-1.79548 -0.555437,-0.55923 -1.13469,-1.11653 -1.542927,-1.79674 -0.227821,-0.47699 -0.373106,-0.98962 -0.293218,-1.52267 0.131663,-0.47334 0.421597,-0.86091 0.744269,-1.22614 0.365887,-0.40125 0.756731,-0.7803 1.23119,-1.05304 0.864596,-0.46246 1.711553,-0.45424 2.709179,-0.40475 0.634705,0.008 1.255648,0.10568 1.853821,0.32673 0.61884,0.21816 1.238376,0.45832 1.719343,0.92262 0.377308,0.39311 0.661749,0.8327 0.834295,1.35379 0.184889,0.50654 0.347075,1.02302 0.358541,1.56769 0.0074,0.57594 -0.02882,1.15035 -0.08508,1.72348 -0.05209,0.60543 -0.104158,1.21097 -0.176894,1.81435 -0.07055,0.58229 -0.153851,1.16267 -0.275842,1.73678 -0.10258,0.50011 -0.213202,0.99937 -0.376523,1.48384 -0.122976,0.37912 -0.225281,0.77071 -0.41744,1.12218 -0.117582,0.18245 -0.25912,0.32166 -0.468679,0.39339 0,0 -1.19737,-0.15709 -1.19737,-0.15709 z"
       inkscape:connector-curvature="0" />
    <path
       style="opacity:1;fill:#000000;fill-opacity:1;fill-rule:evenodd;stroke:#000000;stroke-width:0.70704144;stroke-linecap:round;stroke-linejoin:miter;stroke-miterlimit:4;stroke-dasharray:none;stroke-dashoffset:0;stroke-opacity:1"
       id="path949"
       d="m 109.41407,207.41994 c 0.12482,-0.33311 0.17958,-0.68762 0.24109,-1.03654 0.076,-0.51506 0.11252,-1.03481 0.15056,-1.55372 0.0354,-0.55934 0.0321,-1.12019 0.0124,-1.68002 -0.0233,-0.54082 -0.0442,-1.08146 -0.13485,-1.61577 -0.10048,-0.5103 -0.27131,-1.0025 -0.47298,-1.48065 -0.20118,-0.49821 -0.52854,-0.91381 -0.90004,-1.2945 -0.42239,-0.41461 -0.88964,-0.7777 -1.38319,-1.1028 -0.50397,-0.30599 -1.05098,-0.53109 -1.60744,-0.72128 -0.51881,-0.16707 -1.05153,-0.27176 -1.59554,-0.29811 2.03114,-0.10608 0.12253,0.0793 -0.35217,0.23113 -0.50813,0.17249 -0.88878,0.53495 -1.2456,0.91968 -0.37297,0.41586 -0.6925,0.87402 -0.98042,1.35157 -0.35743,0.59547 -0.51859,1.25942 -0.60671,1.94055 -0.0619,0.78364 0.0577,1.56392 0.18046,2.33556 0.11497,0.71844 0.29758,1.42154 0.55029,2.10321 0.2763,0.65649 0.63665,1.27289 1.01257,1.8763 0.32315,0.5223 0.67885,1.0222 1.08583,1.48221 0.38189,0.44201 0.85625,0.77254 1.35732,1.06338 0.4344,0.24493 0.88002,0.46869 1.31945,0.70424 0.15903,0.12292 0.45644,0.18871 0.51576,0.40153 -0.0114,0.19307 -0.18616,0.23696 -0.34337,0.28303 -0.2522,0.0663 -0.50871,0.11299 -0.76446,0.16295 -0.37144,0.0749 -0.74213,0.15336 -1.11174,0.23682 -0.4468,0.11127 -0.89893,0.19763 -1.35085,0.28471 -0.52696,0.096 -1.04772,0.2212 -1.56801,0.34758 -0.59161,0.15165 -1.17574,0.32969 -1.760924,0.50388 -0.58569,0.17948 -1.17017,0.36206 -1.741224,0.58425 -0.499344,0.18934 -0.952136,0.45629 -1.350287,0.81034 -0.314317,0.30781 -0.5615,0.67439 -0.789095,1.04856 -0.18774,0.31459 -0.327233,0.6446 -0.384769,1.00642 -0.05077,0.36273 0.01566,0.69858 0.162999,1.02866 0.193858,0.37354 0.473251,0.68563 0.776336,0.97284 0.409549,0.35047 0.921011,0.51383 1.428888,0.66261 0.686702,0.20428 1.387092,0.35548 2.090622,0.48804 0.703444,0.13783 1.416104,0.21145 2.132234,0.22473 -0.28034,-0.002 -0.56087,0.006 -0.84102,-0.005 -0.10943,-0.004 0.21891,-0.008 0.32822,-0.0141 0.43706,-0.0266 0.86274,-0.10117 1.29195,-0.1841 0.6103,-0.11519 1.2034,-0.29064 1.78232,-0.51338 0.5399,-0.20965 1.05308,-0.47626 1.55766,-0.75861 0.43417,-0.24784 0.83552,-0.54699 1.21014,-0.87691 0.20855,-0.20032 0.43641,-0.38765 0.6077,-0.62275 0.24542,-0.42063 -0.488,-0.13734 1.18263,-0.0268 -0.11531,0.0926 -0.17224,0.229 -0.22574,0.36256 -0.0803,0.20468 -0.1206,0.4209 -0.15565,0.63697 -0.0674,0.40577 -0.13847,0.8106 -0.22201,1.21339 -0.12286,0.58399 -0.25406,1.16603 -0.36916,1.75165 -0.1248,0.6522 -0.23183,1.30749 -0.29949,1.96812 -0.0593,0.5754 -0.006,1.13581 0.16082,1.68706 0.1541,0.45103 0.42745,0.82852 0.75636,1.16638 0.34196,0.33611 0.75445,0.57262 1.17898,0.78652 0.46476,0.21508 0.95623,0.35804 1.45725,0.45763 -0.57746,0.0745 1.5451,0.10607 0.9916,0.10776 -1.14963,0.004 -1.20195,0.0156 -0.6776,-0.0282 0.52976,-0.0577 1.03077,-0.24204 1.52395,-0.43367 0.54665,-0.18803 0.98307,-0.53766 1.38591,-0.94023 0.46208,-0.47428 0.81389,-1.0302 1.10959,-1.61869 0.26419,-0.55927 0.45516,-1.14762 0.6282,-1.74011 0.14924,-0.46053 0.2471,-0.92631 0.18841,-1.40952 -0.0647,-0.4047 -0.24801,-0.76179 -0.4703,-1.09991 -0.24155,-0.34318 -0.55122,-0.63019 -0.85209,-0.92009 -0.31468,-0.28613 -0.64063,-0.55956 -0.95151,-0.84994 -0.24962,-0.23415 -0.50677,-0.48069 -0.60313,-0.81744 -0.0317,-0.23713 0.0817,-0.43262 0.24923,-0.58921 0.50768,-0.29602 1.19674,-0.21412 1.74665,-0.11703 0.22121,0.0409 0.43669,0.10944 0.64745,0.18735 0.36283,0.17541 0.73312,0.33043 1.1149,0.45938 0.73697,0.21797 1.4956,0.35239 2.2507,0.49037 0.81632,0.13412 1.63619,0.24692 2.46051,0.31738 0.36684,-0.0459 1.71989,0.18226 -0.0494,0.0201 -0.11554,-0.0106 0.23155,-0.0166 0.3467,-0.0308 0.33052,-0.0408 0.33063,-0.0522 0.64778,-0.13661 0.56077,-0.17403 1.02575,-0.52732 1.47009,-0.8979 0.35496,-0.29483 0.64215,-0.65116 0.88894,-1.03838 0.17459,-0.29596 0.32527,-0.60568 0.39191,-0.94412 0.0605,-0.30175 0.0126,-0.58356 -0.0995,-0.86504 -0.14859,-0.3512 -0.3994,-0.6417 -0.64079,-0.93165 -0.26893,-0.32834 -0.59807,-0.59288 -0.95223,-0.82285 -0.43586,-0.27094 -0.87766,-0.53354 -1.33038,-0.77545 -0.50525,-0.25974 -1.03085,-0.47508 -1.57124,-0.64907 -0.63413,-0.21077 -1.2981,-0.28036 -1.96006,-0.33622 -0.11637,-0.007 -0.2327,-0.0134 -0.34911,-0.019 -0.13196,-0.006 -0.5645,-0.0232 -0.69688,-0.0262 -0.11547,-0.003 -0.46198,-0.004 -0.34648,-0.004 1.01629,0.003 1.08487,-0.006 0.50628,0.0181 -0.59553,0.0369 -1.17863,0.16961 -1.75743,0.30701 -0.72359,0.22023 -1.32756,0.15895 -2.11271,0.14566 -0.12757,-0.16241 0.0367,-0.35579 0.1297,-0.49243 0.17987,-0.26024 0.39675,-0.49131 0.61108,-0.72288 0.28189,-0.29754 0.56345,-0.59535 0.85094,-0.88748 0.33252,-0.33836 0.65921,-0.68196 0.97781,-1.03345 0.39522,-0.43141 0.7352,-0.90802 1.07451,-1.38337 0.37859,-0.5344 0.71639,-1.09543 0.99843,-1.68635 0.25252,-0.55449 0.25644,-1.14743 0.21534,-1.74232 -0.0376,-0.50887 -0.10934,-1.00893 -0.32362,-1.47453 -0.21698,-0.38254 -0.55478,-0.65958 -0.896,-0.92546 -0.36311,-0.28276 -0.77982,-0.40886 -1.22555,-0.48639 -0.086,-0.01 -0.17164,-0.0213 -0.25777,-0.0287 -0.11608,-0.01 -0.40757,-0.0238 -0.52359,-0.0262 -0.0864,-0.002 -0.34539,-9.7e-4 -0.25904,-2.1e-4 0.97319,0.01 1.23864,-0.0134 0.66408,0.0234 -0.56327,0.0314 -1.04752,0.25941 -1.49046,0.59384 -0.49725,0.41857 -0.81938,0.98492 -1.12682,1.54711 -0.32538,0.61047 -0.60099,1.24509 -0.85025,1.88984 -0.25925,0.69994 -0.46879,1.41689 -0.66745,2.13593 -0.1329,0.4921 -0.24888,0.98849 -0.36312,1.48518 0,0 -1.18587,-0.0268 -1.18587,-0.0268 v 0 c 0.11456,-0.49829 0.23096,-0.99623 0.36302,-1.49024 0.19848,-0.72283 0.40962,-1.44298 0.66637,-2.14758 0.24793,-0.65034 0.52493,-1.28944 0.85003,-1.90539 0.30974,-0.57515 0.63397,-1.15465 1.12651,-1.59597 0.43894,-0.35599 0.92329,-0.61538 1.49694,-0.66409 0.90814,-0.0754 1.83569,-0.0681 2.7412,0.0452 0.45183,0.0944 0.87154,0.24787 1.23465,0.54308 0.34974,0.28006 0.68817,0.57899 0.8982,0.98322 0.20829,0.48196 0.28492,0.99446 0.32103,1.51664 0.0405,0.61446 0.0354,1.2282 -0.21854,1.80299 -0.28107,0.59844 -0.6207,1.16568 -1.00002,1.7073 -0.33986,0.47847 -0.67628,0.96147 -1.07075,1.39749 -0.31795,0.35306 -0.64272,0.69943 -0.97518,1.03886 -0.28702,0.2907 -0.56775,0.58731 -0.84912,0.88346 -0.2091,0.22876 -0.42574,0.45256 -0.60502,0.70637 -0.0282,0.0405 -0.22058,0.2653 -0.13627,0.25175 -2.23088,0.007 -0.80704,0.0521 -0.26612,-0.13658 0.58177,-0.14058 1.16722,-0.2782 1.76501,-0.3287 1.07797,-0.0554 2.16037,-0.0323 3.2373,0.0357 0.66569,0.061 1.33144,0.14448 1.96705,0.36304 0.54148,0.18339 1.07029,0.40221 1.5762,0.66966 0.45277,0.24724 0.8981,0.50901 1.33316,0.78627 0.35615,0.24327 0.68736,0.51878 0.95794,0.85741 0.24727,0.30062 0.49798,0.60514 0.6448,0.97025 0.11356,0.30357 0.16386,0.60894 0.10119,0.93178 -0.065,0.35413 -0.21731,0.6782 -0.39722,0.98864 -0.24694,0.39988 -0.53644,0.76872 -0.89558,1.07528 -0.44935,0.38058 -0.91614,0.75088 -1.47968,0.94735 -1.06633,0.32429 -2.19533,0.23461 -3.29678,0.16882 -0.82421,-0.0766 -1.64471,-0.18943 -2.46073,-0.32845 -0.75978,-0.14054 -1.52394,-0.27658 -2.26275,-0.50689 -0.38271,-0.13538 -0.75206,-0.29938 -1.12496,-0.45883 -0.2103,-0.0704 -0.42463,-0.13536 -0.64581,-0.1602 -0.58688,-0.0294 1.8309,-0.13719 0.6467,0.051 -0.15393,0.0973 -0.27091,0.25467 -0.24673,0.44437 0.10363,0.31134 0.36402,0.53314 0.59404,0.75473 0.31339,0.28816 0.63911,0.5625 0.95072,0.85255 0.3053,0.29628 0.61759,0.59172 0.85511,0.94746 0.22523,0.35626 0.4081,0.73292 0.47113,1.15465 0.0554,0.49956 -0.0359,0.98156 -0.19339,1.45729 -0.17562,0.59909 -0.36854,1.19401 -0.6325,1.76109 -0.29612,0.6 -0.64695,1.16859 -1.11026,1.65631 -0.40271,0.41517 -0.83327,0.79226 -1.38778,0.99026 -0.49535,0.19623 -0.99632,0.392 -1.52743,0.466 -0.88817,0.10677 -1.8011,0.0794 -2.67942,-0.0921 -0.50314,-0.11127 -0.9979,-0.2613 -1.46181,-0.48922 -0.42918,-0.22426 -0.84307,-0.4766 -1.18349,-0.82654 -0.33151,-0.35715 -0.60581,-0.75452 -0.75786,-1.22271 -0.16501,-0.56724 -0.21683,-1.14375 -0.15624,-1.7337 0.0684,-0.66407 0.17459,-1.32299 0.29856,-1.97892 0.11379,-0.586 0.24484,-1.1682 0.36538,-1.75279 0.0809,-0.40099 0.14892,-0.80401 0.2145,-1.20777 0.0333,-0.22477 0.0724,-0.44954 0.1517,-0.66347 0.0581,-0.15174 0.11839,-0.30548 0.23019,-0.42691 0.63915,-0.016 1.50909,-0.3919 1.22283,0.20822 -0.16264,0.25359 -0.40708,0.4421 -0.6196,0.6514 -0.37568,0.33869 -0.77918,0.64591 -1.21608,0.90227 -0.50654,0.28587 -1.01917,0.56057 -1.5611,0.77484 -0.57961,0.23113 -1.17295,0.41636 -1.78675,0.53438 -1.03897,0.20709 -2.06373,0.30202 -3.13229,0.22277 -0.71678,-0.0231 -1.429554,-0.10401 -2.133334,-0.24417 -0.705436,-0.1364 -1.407394,-0.29274 -2.095909,-0.4998 -0.518192,-0.16026 -1.035023,-0.34327 -1.441265,-0.71834 -0.307296,-0.30185 -0.589568,-0.63001 -0.780654,-1.01982 -0.149033,-0.35271 -0.216324,-0.71215 -0.165236,-1.09612 0.0568,-0.37802 0.193916,-0.72347 0.38826,-1.05317 0.230893,-0.38403 0.481119,-0.75999 0.794425,-1.08272 0.397363,-0.37098 0.848693,-0.65644 1.357821,-0.8531 0.570866,-0.22896 1.156789,-0.41308 1.744308,-0.59437 0.58513,-0.17341 1.16828,-0.35332 1.758144,-0.51032 0.52062,-0.12629 1.04055,-0.25664 1.56777,-0.35313 0.45007,-0.0887 0.90219,-0.16818 1.34717,-0.28098 0.36807,-0.0872 0.73868,-0.16373 1.10908,-0.24039 0.2526,-0.0536 0.50787,-0.094 0.75844,-0.1569 0.11023,-0.0258 0.22006,-0.0614 0.3312,-0.0791 -0.15258,-0.12615 -0.32911,-0.21947 -0.50002,-0.31874 -0.43719,-0.23724 -0.88212,-0.46011 -1.31261,-0.70961 -0.50437,-0.30265 -0.97751,-0.65 -1.36118,-1.10127 -0.40426,-0.46855 -0.75986,-0.97443 -1.08343,-1.50194 -0.3758,-0.61183 -0.73904,-1.23485 -1.01283,-1.90026 -0.251724,-0.68978 -0.434324,-1.40056 -0.548604,-2.12648 -0.12302,-0.78301 -0.24202,-1.57429 -0.18132,-2.36922 0.0876,-0.69602 0.24549,-1.37662 0.60226,-1.98961 0.287124,-0.48601 0.607904,-0.95121 0.981324,-1.37577 0.35892,-0.39775 0.73875,-0.78355 1.24975,-0.97965 0.88036,-0.31482 1.784,-0.30398 2.71843,-0.26209 0.54528,0.0433 1.08024,0.15402 1.59869,0.33059 0.55805,0.20043 1.10792,0.43157 1.60961,0.75123 0.49439,0.33469 0.96457,0.70485 1.38668,1.1284 0.37444,0.39555 0.70085,0.82769 0.90392,1.33839 0.20257,0.48735 0.37415,0.98876 0.4737,1.50824 0.0886,0.53974 0.1116,1.08535 0.13391,1.63133 0.0198,0.56412 0.0229,1.12922 -0.0126,1.69287 -0.0377,0.52279 -0.0727,1.0465 -0.14664,1.56572 -0.0615,0.35608 -0.11643,0.71676 -0.23192,1.06017 0,0 -1.20583,-0.0443 -1.20583,-0.0443 z"
       inkscape:connector-curvature="0" />
    <circle
       style="opacity:1;fill:#000000;fill-opacity:1;fill-rule:evenodd;stroke:none;stroke-width:0.80952245;stroke-linecap:round;stroke-linejoin:miter;stroke-miterlimit:4;stroke-dasharray:none;stroke-dashoffset:0;stroke-opacity:1"
       id="path1199-3-6-7-3-3-3"
       cx="103.04185"
       cy="-149.81886"
       r="6.2815127"
       transform="rotate(111.54334)" />
    <path
       style="opacity:1;fill:#000000;fill-opacity:1;fill-rule:evenodd;stroke:#000000;stroke-width:0.70704144;stroke-linecap:round;stroke-linejoin:miter;stroke-miterlimit:4;stroke-dasharray:none;stroke-dashoffset:0;stroke-opacity:1"
       id="path945-6"
       d="m 107.25913,148.94323 c -0.0727,0.17338 -0.12174,0.35549 -0.15809,0.5396 -0.0434,0.3955 0.11667,0.77766 0.25231,1.14113 0.17273,0.49328 0.41551,0.95197 0.69487,1.39183 0.36544,0.55097 0.85118,1.00262 1.33339,1.44873 0.55787,0.5164 1.15832,0.98335 1.77592,1.42547 0.52752,0.376 1.10287,0.6735 1.69042,0.94246 0.53138,0.26224 1.08242,0.34776 1.66666,0.29351 0.62251,-0.0824 1.19888,-0.33055 1.76009,-0.59926 0.53801,-0.25776 1.02499,-0.60433 1.50808,-0.95088 0.4108,-0.27887 0.74634,-0.62277 0.9821,-1.05892 0.0265,-0.0657 0.10683,-0.26243 0.0789,-0.1973 -0.63926,1.54519 -0.2962,0.76391 -0.25187,0.0869 0.0251,-0.38958 -0.0204,-0.77741 -0.0853,-1.16079 -0.0785,-0.40453 -0.23268,-0.78706 -0.38812,-1.16671 -0.15657,-0.39533 -0.37055,-0.76119 -0.60529,-1.11415 -0.25471,-0.39404 -0.59468,-0.69472 -0.98356,-0.94946 -0.51803,-0.30524 -1.06991,-0.54758 -1.62472,-0.77698 -0.52417,-0.22392 -1.06431,-0.40362 -1.61239,-0.55839 -0.5405,-0.14436 -1.09757,-0.18307 -1.65431,-0.19442 -0.52284,-0.0186 -1.04238,0.0333 -1.55937,0.1045 -0.51378,0.0824 -1.02311,0.19087 -1.52152,0.34051 -0.50238,0.16904 -0.99276,0.37131 -1.48599,0.56498 -0.46405,0.18247 -0.92758,0.36632 -1.39116,0.55 -0.34174,0.1405 -0.69047,0.2636 -1.04938,0.3519 -0.20558,0.0552 -0.41591,0.0998 -0.62954,0.0944 -0.63342,-0.11534 0.12375,-1.04931 0.4197,-1.44481 0.16265,-0.18977 0.31798,-0.38534 0.4745,-0.58011 0.29141,-0.33919 0.59703,-0.66514 0.91124,-0.98316 0.38398,-0.37952 0.77265,-0.75398 1.17094,-1.11844 0.45162,-0.41143 0.91158,-0.81347 1.36173,-1.22654 0.49657,-0.46394 0.93321,-0.98521 1.35431,-1.51703 0.4651,-0.60444 0.90655,-1.22705 1.3268,-1.8634 0.0667,-0.10393 0.13464,-0.20708 0.20017,-0.31178 0.1318,-0.21104 0.24058,-0.39045 0.35239,-0.61242 0.0507,-0.10062 0.18134,-0.41224 0.1424,-0.30652 -0.483,1.31224 -0.34962,0.89376 -0.22858,0.47471 0.13623,-0.60243 0.15771,-1.22258 0.153,-1.83787 0.002,-0.5747 -0.0901,-1.13636 -0.26153,-1.68312 -0.2054,-0.57685 -0.5623,-1.077 -0.94562,-1.54761 -0.36871,-0.45057 -0.81925,-0.8046 -1.32238,-1.09082 -0.44165,-0.25251 -0.92295,-0.37823 -1.42447,-0.43246 -0.49229,-0.0393 -0.96797,0.064 -1.43177,0.21792 -0.49551,0.17082 -0.93992,0.44927 -1.36324,0.75281 -0.50154,0.34795 -0.91959,0.78445 -1.30033,1.25757 -0.47685,0.60638 -0.84726,1.28498 -1.20843,1.9638 -0.24186,0.4732 -0.46896,0.95395 -0.67824,1.44248 -0.0522,0.12139 -0.20243,0.48826 -0.15206,0.36611 0.0982,-0.23773 0.19723,-0.47508 0.29501,-0.71294 -0.29596,0.84715 -0.31948,1.74208 -0.31429,2.62915 0.017,0.95046 0.0886,1.89875 0.15595,2.84664 0.0613,0.73823 0.10198,1.47743 0.0995,2.21823 -0.0363,0.60122 -0.001,1.96039 -0.73578,2.00618 -0.33905,-0.082 -0.51848,-0.40533 -0.69327,-0.67962 -0.2528,-0.41984 -0.475694,-0.85673 -0.694704,-1.29485 -0.24858,-0.50742 -0.46263,-1.03058 -0.67967,-1.55195 -0.22166,-0.52432 -0.42967,-1.05421 -0.6437,-1.58165 -0.20498,-0.53089 -0.477922,-1.02642 -0.808502,-1.48831 -0.28157,-0.3961 -0.62412,-0.74011 -0.9801,-1.06842 -0.31364,-0.30197 -0.66284,-0.51326 -1.07638,-0.6422 -0.56713,-0.13864 -1.14581,-0.10499 -1.7182,-0.0285 -0.61468,0.097 -1.18076,0.34254 -1.73181,0.62029 -0.54783,0.27334 -1.03545,0.6449 -1.49913,1.04083 -0.47681,0.40885 -0.85595,0.91109 -1.22026,1.41848 -0.33207,0.48275 -0.63825,0.98232 -0.91167,1.50045 -0.16851,0.36285 -0.64497,1.32109 0.11091,-0.35637 0.0366,-0.0818 -0.0556,0.17051 -0.0771,0.2575 -0.0583,0.23427 -0.057,0.30066 -0.0824,0.54014 -0.0386,0.52641 -0.01,1.05452 0.0619,1.57657 0.0647,0.50311 0.26794,0.96408 0.50193,1.40832 0.24294,0.43857 0.57152,0.81354 0.92931,1.16052 0.34697,0.3275 0.75276,0.57611 1.17029,0.80152 0.43594,0.22962 0.90625,0.37906 1.37657,0.51947 0.44358,0.12824 0.89795,0.20896 1.35313,0.28221 0.436,0.0548 0.87209,0.10903 1.30856,0.16002 0.28405,0.0274 0.55996,0.0916 0.79773,0.2529 0.14014,0.11252 0.24686,0.2548 0.29446,0.42851 0.0139,0.57274 -0.31183,1.12095 -0.64169,1.58049 -0.14376,0.17732 -0.30234,0.34051 -0.47211,0.49279 -0.26814,0.26037 -0.55703,0.49831 -0.8465,0.73437 -0.36436,0.29338 -0.73267,0.58191 -1.09617,0.87638 -0.38248,0.30576 -0.70238,0.67852 -1.00941,1.05746 -0.37297,0.4698 -0.70767,0.96766 -1.02976,1.47313 -0.34872,0.55734 -0.6718,1.13105 -0.97482,1.71442 -0.24171,0.36769 -1.09682,2.4966 -0.289,0.50519 -0.17461,0.49511 -0.22106,1.00626 -0.16862,1.52517 0.0775,0.46269 0.24793,0.90088 0.46042,1.31675 0.20748,0.37412 0.50499,0.6852 0.81261,0.978 0.35344,0.31434 0.78135,0.49942 1.23123,0.62656 0.58636,0.11984 1.1887,0.10079 1.78295,0.0712 0.58932,-0.0383 1.17452,-0.11705 1.75555,-0.22097 0.55425,-0.0921 1.07072,-0.30293 1.56291,-0.56671 0.58704,-0.35794 1.008142,-0.91043 1.419092,-1.4488 0.42034,-0.55841 0.79692,-1.1479 1.15692,-1.74644 0.274204,-0.34398 1.153994,-2.54015 0.359534,-0.55386 0.19785,-0.55373 0.22599,-1.14585 0.26796,-1.72696 0.0229,-0.43786 0.048,-0.87531 0.0972,-1.31109 0.0973,-0.52189 0.1849,-1.53977 0.68823,-1.66514 0.14597,-0.008 0.25496,0.0718 0.34772,0.17544 0.11315,0.16948 0.1767,0.36809 0.23891,0.5608 0.0858,0.26073 0.12562,0.53256 0.17696,0.80128 0.055,0.28831 0.10791,0.57694 0.15956,0.86587 0.073,0.37018 0.16948,0.73553 0.27442,1.09779 0.16572,0.53848 0.33777,1.07447 0.55007,1.59653 0.25882,0.61922 0.68573,1.13072 1.147,1.60807 0.45985,0.4735 1.00654,0.83045 1.58941,1.13112 0.46181,0.23166 0.96028,0.26425 1.46635,0.24486 0.48318,-0.0152 0.91731,-0.19673 1.33437,-0.42484 0.4421,-0.2654 0.81391,-0.62274 1.16008,-1.00079 0.33541,-0.36243 0.62689,-0.75962 0.87283,-1.18716 0.1517,-0.38971 0.58302,-1.21811 -0.20022,0.50508 -0.0271,0.0606 0.0338,-0.12844 0.0474,-0.19338 0.0339,-0.16316 0.0348,-0.21517 0.0515,-0.37976 0.0352,-0.41425 -0.0914,-0.79591 -0.25373,-1.16962 -0.19989,-0.43468 -0.46233,-0.83511 -0.73962,-1.2234 -0.29402,-0.41049 -0.63298,-0.78351 -0.99652,-1.1327 -0.47481,-0.44327 -0.99902,-0.82861 -1.5196,-1.21547 -0.4273,-0.31815 -0.86699,-0.61894 -1.30784,-0.91781 0,0 0.45895,-1.09172 0.45895,-1.09172 v 0 c 0.44234,0.29929 0.88386,0.59995 1.31337,0.91755 0.52525,0.38746 1.05538,0.77169 1.53567,1.21516 0.37175,0.35016 0.71772,0.72552 1.01778,1.13985 0.28382,0.39168 0.55233,0.79566 0.76191,1.23289 0.17552,0.38026 0.3239,0.76824 0.30842,1.19513 -0.0518,0.81103 -0.39003,1.56254 -0.75579,2.28176 -0.25767,0.42312 -0.55721,0.81758 -0.8973,1.17851 -0.35866,0.37728 -0.74132,0.73479 -1.19836,0.99142 -0.43495,0.22644 -0.88945,0.39791 -1.38674,0.40879 -0.52568,0.0137 -1.04321,-0.0295 -1.52162,-0.27043 -0.59367,-0.30716 -1.15176,-0.66991 -1.62338,-1.14933 -0.47252,-0.48299 -0.91473,-0.99852 -1.18957,-1.62364 -0.21902,-0.52163 -0.39178,-1.05918 -0.56282,-1.59815 -0.11144,-0.36178 -0.20749,-0.72868 -0.28835,-1.09853 -0.0557,-0.28781 -0.10138,-0.57765 -0.15902,-0.86511 -0.0519,-0.26539 -0.0867,-0.53487 -0.16658,-0.79389 -0.0525,-0.18363 -0.11905,-0.36327 -0.19757,-0.53736 -0.0466,-0.0628 -0.11066,-0.154 -0.20019,-0.11924 -0.30041,0.28649 -0.0342,0.0413 0.36493,-1.00989 0.0808,-0.2129 -0.23766,0.63985 -0.11736,0.47047 -0.0584,0.43615 -0.0855,0.87509 -0.10618,1.31447 -0.0407,0.58516 -0.0626,1.18131 -0.23758,1.74522 -0.36871,0.9354 -0.71136,1.87926 -1.242444,2.73782 -0.36371,0.59726 -0.74467,1.18493 -1.16934,1.74109 -0.422602,0.54366 -0.861082,1.09455 -1.469782,1.44003 -0.50507,0.26049 -1.03401,0.46636 -1.59837,0.55615 -0.58579,0.10101 -1.17542,0.17891 -1.76916,0.21437 -0.60702,0.028 -1.22205,0.0439 -1.82025,-0.0815 -0.46803,-0.13251 -0.91384,-0.32346 -1.28584,-0.6452 -0.31826,-0.29871 -0.62595,-0.61661 -0.84844,-0.99522 -0.22525,-0.42193 -0.4014,-0.86811 -0.4984,-1.33796 -0.0716,-0.52581 -0.0434,-1.04473 0.12119,-1.55338 0.35433,-0.91386 0.688,-1.83422 1.16323,-2.69406 0.30835,-0.58143 0.63114,-1.15591 0.98467,-1.71125 0.32639,-0.50627 0.66508,-1.00522 1.04426,-1.47394 0.31434,-0.3795 0.64342,-0.74946 1.03381,-1.05346 0.36476,-0.29275 0.73185,-0.5826 1.0953,-0.87703 0.28856,-0.23812 0.57279,-0.48175 0.84122,-0.74264 0.16187,-0.15514 0.31723,-0.31821 0.44741,-0.50139 0.6518,-0.97184 -0.53039,1.37099 -0.20707,0.65931 0.006,-0.15893 -0.0921,-0.28212 -0.20393,-0.38758 -0.21504,-0.15951 -0.47735,-0.20899 -0.73948,-0.23786 -0.43767,-0.0532 -0.87543,-0.10604 -1.3126,-0.16323 -0.46022,-0.0743 -0.91925,-0.15796 -1.36738,-0.28875 -0.47792,-0.1431 -0.95549,-0.29637 -1.39902,-0.52856 -0.42779,-0.22887 -0.8432,-0.48208 -1.20057,-0.81395 -0.36809,-0.35258 -0.70691,-0.73305 -0.96283,-1.17712 -0.24394,-0.44944 -0.46341,-0.91566 -0.53889,-1.42686 -0.0811,-0.52609 -0.11508,-1.05858 -0.0859,-1.59083 0.0668,-0.94301 0.462,-1.81554 0.89804,-2.64751 0.28063,-0.51505 0.58839,-1.01482 0.9267,-1.49422 0.3716,-0.50817 0.76231,-1.00668 1.24856,-1.41194 0.4738,-0.39349 0.9699,-0.76265 1.52633,-1.03276 0.56337,-0.27672 1.14365,-0.51645 1.76961,-0.60817 0.58943,-0.0736 1.18514,-0.10166 1.76788,0.0417 0.43118,0.13292 0.79833,0.3471 1.12605,0.66102 0.36192,0.33325 0.7124,0.68059 1.00027,1.08175 0.340102,0.46474 0.623832,0.96333 0.834262,1.5008 0.21524,0.5269 0.42072,1.05775 0.64249,1.58198 0.21594,0.51899 0.42797,1.04008 0.673454,1.54606 0.21695,0.43508 0.43675,0.86934 0.68508,1.28757 0.13733,0.22099 0.29012,0.54225 0.56062,0.61689 0.25056,-0.15072 0.76555,-1.64443 -0.28343,0.88242 -0.11515,0.27806 0.26031,-0.8933 0.0754,-0.69482 0.0102,-0.74206 -0.0246,-1.48285 -0.0867,-2.22237 -0.0667,-0.94965 -0.13865,-1.89951 -0.16144,-2.85148 -0.0128,-0.88989 -0.003,-1.78964 0.27548,-2.64516 0.42609,-1.10872 0.83779,-2.22455 1.40447,-3.27167 0.36608,-0.68056 0.74505,-1.35876 1.23181,-1.96235 0.39265,-0.47189 0.82298,-0.90586 1.33255,-1.25336 0.43523,-0.30259 0.89139,-0.57856 1.39846,-0.74414 0.4808,-0.1501 0.97296,-0.24806 1.4797,-0.20182 0.51661,0.0601 1.01329,0.19206 1.4688,0.45173 0.51605,0.2921 0.98065,0.65136 1.36163,1.11028 0.39463,0.47669 0.76207,0.98381 0.98635,1.5656 0.1851,0.5505 0.29149,1.11681 0.29324,1.69987 0.0119,0.62047 -0.008,1.24476 -0.12508,1.85591 -0.26748,1.05528 -0.73147,2.04375 -1.34173,2.9401 -0.42527,0.63468 -0.86683,1.25894 -1.33681,1.86147 -0.42693,0.53245 -0.86959,1.05398 -1.37343,1.51623 -0.45188,0.41185 -0.91185,0.8147 -1.36195,1.2285 -0.39625,0.3658 -0.78417,0.7404 -1.16543,1.1218 -0.31179,0.32008 -0.61669,0.64724 -0.90105,0.9922 -0.15584,0.19595 -0.317,0.38768 -0.47028,0.58565 -0.45448,0.6421 0.0773,-1.02926 0.27376,-0.86311 0.20332,-0.001 0.40244,-0.0492 0.59848,-0.0995 0.3526,-0.0916 0.69602,-0.21328 1.03306,-0.35142 0.46355,-0.18255 0.92709,-0.36513 1.39069,-0.54755 0.49596,-0.19428 0.98867,-0.3989 1.49605,-0.56203 0.50486,-0.14562 1.01916,-0.25545 1.53866,-0.33486 0.52294,-0.07 1.04854,-0.11778 1.57697,-0.0975 0.56636,0.0149 1.13288,0.0572 1.68244,0.20514 0.55245,0.1565 1.09653,0.33871 1.62482,0.56491 0.5612,0.23273 1.1192,0.47818 1.64547,0.78334 0.40458,0.25831 0.76245,0.56077 1.02959,0.96552 0.24066,0.35668 0.46549,0.72361 0.62701,1.12421 0.15903,0.3844 0.32006,0.7697 0.4117,1.1771 0.072,0.3873 0.12589,0.77964 0.1098,1.17474 -0.0436,0.82578 -0.24629,1.58768 -0.68066,2.32551 -0.26247,0.42518 -0.61536,0.7629 -1.03031,1.04182 -0.48853,0.3466 -0.98341,0.68891 -1.52797,0.94329 -0.57442,0.26827 -1.16529,0.51177 -1.80066,0.58656 -0.60374,0.0466 -1.17591,-0.0444 -1.72428,-0.3146 -0.59402,-0.27332 -1.17591,-0.57477 -1.70987,-0.95498 -0.62133,-0.44519 -1.22565,-0.91499 -1.78857,-1.43294 -0.4901,-0.44955 -0.98677,-0.90136 -1.36461,-1.45367 -0.2869,-0.44263 -0.54099,-0.90261 -0.71741,-1.40177 -0.14492,-0.37228 -0.30753,-0.75721 -0.31253,-1.16231 0.0245,-0.18676 0.0686,-0.37112 0.13325,-0.54805 0,0 0.61459,-1.04155 0.61459,-1.04155 z"
       inkscape:connector-curvature="0" />
  </g>
</svg>
