<?xml version="1.0" encoding="UTF-8" standalone="no"?>
<!-- Created with Inkscape (http://www.inkscape.org/) -->

<svg
   xmlns:dc="http://purl.org/dc/elements/1.1/"
   xmlns:cc="http://creativecommons.org/ns#"
   xmlns:rdf="http://www.w3.org/1999/02/22-rdf-syntax-ns#"
   xmlns:svg="http://www.w3.org/2000/svg"
   xmlns="http://www.w3.org/2000/svg"
   xmlns:sodipodi="http://sodipodi.sourceforge.net/DTD/sodipodi-0.dtd"
   xmlns:inkscape="http://www.inkscape.org/namespaces/inkscape"
   width="148mm"
   height="210mm"
   viewBox="0 0 148 210"
   version="1.1"
   id="svg8"
   inkscape:version="0.92.3 (2405546, 2018-03-11)"
   sodipodi:docname="3rd-birthday-2.svg">
  <defs
     id="defs2">
    <filter
       inkscape:label="People"
       inkscape:menu="Overlays"
       inkscape:menu-tooltip="Colorized blotches, like a crowd of people"
       style="color-interpolation-filters:sRGB;"
       id="filter1636">
      <feTurbulence
         result="result7"
         type="fractalNoise"
         numOctaves="3"
         baseFrequency="0.2 0.09"
         id="feTurbulence1622" />
      <feColorMatrix
         result="result5"
         values="1 0 0 0 0 0 1 0 0 0 0 0 1 0 0 0 0 0 5.5 -2 "
         id="feColorMatrix1624" />
      <feComposite
         result="result6"
         in="SourceGraphic"
         operator="in"
         in2="result7"
         id="feComposite1626" />
      <feDisplacementMap
         in="result5"
         xChannelSelector="R"
         yChannelSelector="A"
         scale="9"
         result="result4"
         in2="result6"
         id="feDisplacementMap1628" />
      <feComposite
         result="result2"
         operator="in"
         in2="result4"
         in="SourceGraphic"
         id="feComposite1630" />
      <feComposite
         in="result2"
         operator="in"
         in2="SourceGraphic"
         result="result91"
         id="feComposite1632" />
      <feBlend
         mode="multiply"
         in2="result91"
         id="feBlend1634" />
    </filter>
    <filter
       inkscape:label="Tartan"
       inkscape:menu="Overlays"
       inkscape:menu-tooltip="Checkered tartan pattern"
       style="color-interpolation-filters:sRGB;"
       id="filter1744">
      <feTurbulence
         type="turbulence"
         result="result0"
         seed="5"
         numOctaves="1"
         baseFrequency="0 0.184"
         id="feTurbulence1730" />
      <feTurbulence
         result="result3"
         type="turbulence"
         seed="57"
         numOctaves="1"
         baseFrequency="0.285 0"
         id="feTurbulence1732" />
      <feComposite
         result="result1"
         operator="over"
         in2="result0"
         id="feComposite1734" />
      <feMerge
         result="result2"
         id="feMerge1740">
        <feMergeNode
           in="result1"
           id="feMergeNode1736" />
        <feMergeNode
           in="result0"
           id="feMergeNode1738" />
      </feMerge>
      <feComposite
         result="result4"
         in="SourceGraphic"
         operator="in"
         in2="result2"
         id="feComposite1742" />
    </filter>
    <filter
       inkscape:label="Dots Transparency"
       inkscape:menu="Overlays"
       inkscape:menu-tooltip="Gives a pointillist HSL sensitive transparency"
       style="color-interpolation-filters:sRGB;"
       id="filter1814">
      <feTurbulence
         result="result1"
         numOctaves="3"
         baseFrequency="1"
         type="fractalNoise"
         seed="50"
         id="feTurbulence1802" />
      <feColorMatrix
         result="result0"
         in="SourceGraphic"
         type="luminanceToAlpha"
         id="feColorMatrix1804" />
      <feColorMatrix
         values="1 0 0 0 0 0 1 0 0 0 0 0 1 0 0 0 0 0 0.7 0 "
         result="result2"
         id="feColorMatrix1806" />
      <feComposite
         in="result1"
         operator="over"
         in2="result2"
         result="result3"
         id="feComposite1808" />
      <feColorMatrix
         values="1 0 0 0 0 0 1 0 0 0 0 0 1 0 0 0 0 0 5 -3.2 "
         result="result91"
         id="feColorMatrix1810" />
      <feComposite
         operator="out"
         in="SourceGraphic"
         result="result4"
         in2="result91"
         id="feComposite1812" />
    </filter>
    <filter
       inkscape:label="People"
       inkscape:menu="Overlays"
       inkscape:menu-tooltip="Colorized blotches, like a crowd of people"
       style="color-interpolation-filters:sRGB;"
       id="filter880">
      <feTurbulence
         result="result7"
         type="fractalNoise"
         numOctaves="3"
         baseFrequency="0.2 0.09"
         id="feTurbulence866" />
      <feColorMatrix
         result="result5"
         values="1 0 0 0 0 0 1 0 0 0 0 0 1 0 0 0 0 0 5.5 -2 "
         id="feColorMatrix868" />
      <feComposite
         result="result6"
         in="SourceGraphic"
         operator="in"
         in2="result7"
         id="feComposite870" />
      <feDisplacementMap
         in="result5"
         xChannelSelector="R"
         yChannelSelector="A"
         scale="9"
         result="result4"
         in2="result6"
         id="feDisplacementMap872" />
      <feComposite
         result="result2"
         operator="in"
         in2="result4"
         in="SourceGraphic"
         id="feComposite874" />
      <feComposite
         in="result2"
         operator="in"
         in2="SourceGraphic"
         result="result91"
         id="feComposite876" />
      <feBlend
         mode="multiply"
         in2="result91"
         id="feBlend878" />
    </filter>
  </defs>
  <sodipodi:namedview
     id="base"
     pagecolor="#ffffff"
     bordercolor="#666666"
     borderopacity="1.0"
     inkscape:pageopacity="0.0"
     inkscape:pageshadow="2"
     inkscape:zoom="0.84918651"
     inkscape:cx="63.59588"
     inkscape:cy="396.85039"
     inkscape:document-units="mm"
     inkscape:current-layer="layer1"
     showgrid="false"
     inkscape:window-width="1375"
     inkscape:window-height="876"
     inkscape:window-x="65"
     inkscape:window-y="24"
     inkscape:window-maximized="1"
     gridtolerance="1"
     objecttolerance="1"
     guidetolerance="1" />
  <metadata
     id="metadata5">
    <rdf:RDF>
      <cc:Work
         rdf:about="">
        <dc:format>image/svg+xml</dc:format>
        <dc:type
           rdf:resource="http://purl.org/dc/dcmitype/StillImage" />
        <dc:title />
      </cc:Work>
    </rdf:RDF>
  </metadata>
  <g
     inkscape:label="Layer 1"
     inkscape:groupmode="layer"
     id="layer1"
     transform="translate(0,-87)">
    <flowRoot
       xml:space="preserve"
       id="flowRoot936"
       style="font-style:normal;font-variant:normal;font-weight:normal;font-stretch:normal;font-size:25px;line-height:125%;font-family:'Vtks Rash';-inkscape-font-specification:'Vtks Rash';letter-spacing:0px;word-spacing:0px;fill:#000000;fill-opacity:1;stroke:none;stroke-width:1px;stroke-linecap:butt;stroke-linejoin:miter;stroke-opacity:1"><flowRegion
         id="flowRegion938"><rect
           id="rect940"
           width="583.87811"
           height="309.8559"
           x="-4.2157269"
           y="-89.493927" /></flowRegion><flowPara
         id="flowPara942" /></flowRoot>    <flowRoot
       xml:space="preserve"
       id="flowRoot903"
       style="font-style:normal;font-variant:normal;font-weight:normal;font-stretch:normal;font-size:25px;line-height:125%;font-family:'Vtks Rash';-inkscape-font-specification:'Vtks Rash';letter-spacing:0px;word-spacing:0px;fill:#000000;fill-opacity:1;stroke:none;stroke-width:1px;stroke-linecap:butt;stroke-linejoin:miter;stroke-opacity:1"><flowRegion
         id="flowRegion905"><rect
           id="rect907"
           width="11.775976"
           height="31.795135"
           x="202.54678"
           y="594.68677" /></flowRegion><flowPara
         id="flowPara909" /></flowRoot>    <flowRoot
       xml:space="preserve"
       id="flowRoot916"
       style="font-style:normal;font-variant:normal;font-weight:normal;font-stretch:normal;font-size:25px;line-height:125%;font-family:'Vtks Rash';-inkscape-font-specification:'Vtks Rash';letter-spacing:0px;word-spacing:0px;fill:#000000;fill-opacity:1;stroke:none;stroke-width:1px;stroke-linecap:butt;stroke-linejoin:miter;stroke-opacity:1"><flowRegion
         id="flowRegion918"><rect
           id="rect920"
           width="1.1229856"
           height="77.325577"
           x="164.5575"
           y="427.17969" /></flowRegion><flowPara
         id="flowPara922" /></flowRoot>    <text
       xml:space="preserve"
       style="font-style:normal;font-variant:normal;font-weight:normal;font-stretch:normal;font-size:6.61458302px;line-height:125%;font-family:'Vtks Rash';-inkscape-font-specification:'Vtks Rash';letter-spacing:0px;word-spacing:0px;fill:#000000;fill-opacity:1;stroke:none;stroke-width:0.26458332px;stroke-linecap:butt;stroke-linejoin:miter;stroke-opacity:1"
       x="32.715134"
       y="234.37389"
       id="text863"><tspan
         sodipodi:role="line"
         id="tspan861"
         x="32.715134"
         y="240.16165"
         style="stroke-width:0.26458332px" /></text>
    <flowRoot
       xml:space="preserve"
       id="flowRoot888"
       style="font-style:normal;font-variant:normal;font-weight:normal;font-stretch:normal;font-size:25px;line-height:125%;font-family:'Vtks Rash';-inkscape-font-specification:'Vtks Rash';letter-spacing:0px;word-spacing:0px;fill:#000000;fill-opacity:1;stroke:none;stroke-width:1px;stroke-linecap:butt;stroke-linejoin:miter;stroke-opacity:1"><flowRegion
         id="flowRegion890"><rect
           id="rect892"
           width="432.17831"
           height="679.47382"
           x="118.93736"
           y="55.347088" /></flowRegion><flowPara
         id="flowPara894" /></flowRoot>    <g
       style="font-style:normal;font-variant:normal;font-weight:normal;font-stretch:normal;font-size:6.61458302px;line-height:125%;font-family:'Vtks Rash';-inkscape-font-specification:'Vtks Rash';letter-spacing:0px;word-spacing:0px;fill:#000000;fill-opacity:1;stroke:none;stroke-width:0.26458332px;stroke-linecap:butt;stroke-linejoin:miter;stroke-opacity:1"
       id="text2525" />
    <path
       style="color:#000000;clip-rule:nonzero;display:inline;overflow:visible;visibility:visible;opacity:1;isolation:auto;mix-blend-mode:normal;color-interpolation:sRGB;color-interpolation-filters:linearRGB;solid-color:#000000;solid-opacity:1;fill:#000000;fill-opacity:1;fill-rule:evenodd;stroke:#000000;stroke-width:0.03887011;stroke-linecap:butt;stroke-linejoin:miter;stroke-miterlimit:4;stroke-dasharray:none;stroke-dashoffset:0;stroke-opacity:1;color-rendering:auto;image-rendering:auto;shape-rendering:auto;text-rendering:auto;enable-background:accumulate"
       d="m 38.278681,109.99274 42.07663,-1.29469 -1.294669,13.59398 H 62.877328 l 1.294661,25.24596 -13.593982,-1.29466 1.941992,-23.30395 H 38.926016 Z"
       id="path1193"
       inkscape:connector-curvature="0" />
    <path
       style="color:#000000;clip-rule:nonzero;display:inline;overflow:visible;visibility:visible;opacity:1;isolation:auto;mix-blend-mode:normal;color-interpolation:sRGB;color-interpolation-filters:linearRGB;solid-color:#000000;solid-opacity:1;fill:#000000;fill-opacity:1;fill-rule:evenodd;stroke:#000000;stroke-width:0.03199046;stroke-linecap:butt;stroke-linejoin:miter;stroke-miterlimit:4;stroke-dasharray:none;stroke-dashoffset:0;stroke-opacity:1;color-rendering:auto;image-rendering:auto;shape-rendering:auto;text-rendering:auto;enable-background:accumulate"
       d="m 79.588075,133.57115 -2.260314,40.30892 12.055006,-0.75343 0.376721,-15.82219 h 10.924852 l -0.753438,15.44547 h 9.417968 l 0.37671,-39.17877 -9.04124,-0.75345 -0.37672,16.57564 -11.301569,-0.75345 -1.130158,-15.44547 z"
       id="path893"
       inkscape:connector-curvature="0" />
    <path
       style="color:#000000;clip-rule:nonzero;display:inline;overflow:visible;visibility:visible;opacity:1;isolation:auto;mix-blend-mode:normal;color-interpolation:sRGB;color-interpolation-filters:linearRGB;solid-color:#000000;solid-opacity:1;fill:#000000;fill-opacity:1;fill-rule:evenodd;stroke:#000000;stroke-width:0.03126031;stroke-linecap:butt;stroke-linejoin:miter;stroke-miterlimit:4;stroke-dasharray:none;stroke-dashoffset:0;stroke-opacity:1;color-rendering:auto;image-rendering:auto;shape-rendering:auto;text-rendering:auto;enable-background:accumulate"
       d="m 47.580788,170.27234 -2.208726,36.44397 8.834897,0.73622 1.104365,-13.98857 6.626175,14.35669 10.675505,0.36813 -10.307388,-19.87852 C 77.711438,199.3573 90.721452,159.81153 47.580788,170.27234 Z"
       id="path895"
       inkscape:connector-curvature="0"
       sodipodi:nodetypes="cccccccc" />
    <ellipse
       style="opacity:1;fill:#ffffff;fill-opacity:1;fill-rule:evenodd;stroke:none;stroke-width:0.85894489;stroke-linecap:round;stroke-linejoin:miter;stroke-miterlimit:4;stroke-dasharray:none;stroke-dashoffset:0;stroke-opacity:1"
       id="path897"
       cx="61.9375"
       cy="179.47534"
       rx="3.6812077"
       ry="4.0493279" />
    <path
       style="color:#000000;clip-rule:nonzero;display:inline;overflow:visible;visibility:visible;opacity:1;isolation:auto;mix-blend-mode:normal;color-interpolation:sRGB;color-interpolation-filters:linearRGB;solid-color:#000000;solid-opacity:1;fill:#000000;fill-opacity:1;fill-rule:evenodd;stroke:#000000;stroke-width:0.03306745;stroke-linecap:butt;stroke-linejoin:miter;stroke-miterlimit:4;stroke-dasharray:none;stroke-dashoffset:0;stroke-opacity:1;color-rendering:auto;image-rendering:auto;shape-rendering:auto;text-rendering:auto;enable-background:accumulate"
       d="m 78.244254,200.84555 -1.947003,39.71895 26.868699,0.7788 v -11.29264 l -16.354862,-0.77879 v -8.95624 l 8.956233,0.3894 0.389398,-8.56683 h -8.956233 l 0.389399,-5.84103 12.460845,0.3894 v -7.39863 z"
       id="path899"
       inkscape:connector-curvature="0" />
    <path
       style="color:#000000;clip-rule:nonzero;display:inline;overflow:visible;visibility:visible;opacity:1;isolation:auto;mix-blend-mode:normal;color-interpolation:sRGB;color-interpolation-filters:linearRGB;solid-color:#000000;solid-opacity:1;fill:#000000;fill-opacity:1;fill-rule:evenodd;stroke:#000000;stroke-width:0.0350257;stroke-linecap:butt;stroke-linejoin:miter;stroke-miterlimit:4;stroke-dasharray:none;stroke-dashoffset:0;stroke-opacity:1;color-rendering:auto;image-rendering:auto;shape-rendering:auto;text-rendering:auto;enable-background:accumulate"
       d="m 48.390473,232.40799 -2.062304,42.0711 28.459863,0.82493 v -11.96139 l -17.323396,-0.82492 v -9.48662 l 9.486621,0.41246 0.412459,-9.07417 h -9.486621 l 0.412458,-6.18692 13.198786,0.41246 v -7.83678 z"
       id="path899-3"
       inkscape:connector-curvature="0" />
    <ellipse
       style="opacity:1;fill:#030303;fill-opacity:1;fill-rule:evenodd;stroke:none;stroke-width:0.727;stroke-linecap:round;stroke-linejoin:miter;stroke-miterlimit:4;stroke-dasharray:none;stroke-dashoffset:0;stroke-opacity:1"
       id="path897-6"
       cx="91.459419"
       cy="185.37784"
       rx="3.1157269"
       ry="3.4272995" />
    <ellipse
       style="opacity:1;fill:#030303;fill-opacity:1;fill-rule:evenodd;stroke:none;stroke-width:0.72700006;stroke-linecap:round;stroke-linejoin:miter;stroke-miterlimit:4;stroke-dasharray:none;stroke-dashoffset:0;stroke-opacity:1"
       id="path897-6-7"
       cx="93.858025"
       cy="118.82487"
       rx="3.1157269"
       ry="3.4272995" />
    <ellipse
       style="opacity:1;fill:#030303;fill-opacity:1;fill-rule:evenodd;stroke:none;stroke-width:0.72700006;stroke-linecap:round;stroke-linejoin:miter;stroke-miterlimit:4;stroke-dasharray:none;stroke-dashoffset:0;stroke-opacity:1"
       id="path897-6-5"
       cx="57.40403"
       cy="158.39461"
       rx="3.1157269"
       ry="3.4272995" />
    <ellipse
       style="opacity:1;fill:#030303;fill-opacity:1;fill-rule:evenodd;stroke:none;stroke-width:0.72700006;stroke-linecap:round;stroke-linejoin:miter;stroke-miterlimit:4;stroke-dasharray:none;stroke-dashoffset:0;stroke-opacity:1"
       id="path897-6-3"
       cx="58.650314"
       cy="220.086"
       rx="3.1157269"
       ry="3.4272995" />
    <ellipse
       style="opacity:1;fill:#030303;fill-opacity:1;fill-rule:evenodd;stroke:none;stroke-width:0.72700006;stroke-linecap:round;stroke-linejoin:miter;stroke-miterlimit:4;stroke-dasharray:none;stroke-dashoffset:0;stroke-opacity:1"
       id="path897-6-56"
       cx="89.090462"
       cy="257.78131"
       rx="3.1157269"
       ry="3.4272995" />
    <path
       style="opacity:1;fill:#030303;fill-opacity:1;fill-rule:evenodd;stroke:none;stroke-width:0.72699994;stroke-linecap:round;stroke-linejoin:miter;stroke-miterlimit:4;stroke-dasharray:none;stroke-dashoffset:0;stroke-opacity:1"
       id="path968"
       d="m 93.891267,117.1878 c 0.249261,-0.17064 0.457512,-0.38733 0.655253,-0.61371 0.343271,-0.39423 0.611836,-0.84061 0.78272,-1.3339 0.140666,-0.48569 0.071,-0.98008 -0.04041,-1.46265 -0.106979,-0.48933 -0.363471,-0.9095 -0.656383,-1.3073 -0.321332,-0.40107 -0.703697,-0.74643 -1.087009,-1.08648 -0.338402,-0.29911 -0.729353,-0.52065 -1.174771,-0.60197 -0.667711,0.004 0.526732,-0.005 0.857863,0.021 0.05882,0.005 -0.114937,0.0278 -0.170349,0.0481 -0.173646,0.0635 -0.32421,0.16731 -0.475107,0.2712 -0.306607,0.22115 -0.555815,0.503 -0.781584,0.80327 -0.225566,0.29241 -0.375584,0.61465 -0.413081,0.98203 0.02664,0.50176 0.303919,0.93333 0.569997,1.34301 0.392621,0.56825 0.910836,1.02859 1.420273,1.48833 0.44827,0.40789 0.914924,0.79479 1.370076,1.19477 0.05607,0.05 0.112138,0.1 0.168206,0.14999 0,0 -1.226648,0.10356 -1.226648,0.10356 v 0 c -0.05568,-0.0497 -0.111361,-0.0994 -0.167039,-0.14916 -0.453906,-0.39901 -0.914366,-0.79061 -1.361475,-1.19734 -0.514839,-0.46818 -1.03687,-0.93906 -1.428358,-1.5201 -0.27735,-0.43595 -0.556641,-0.89408 -0.578028,-1.42489 0.03536,-0.38909 0.178261,-0.73624 0.414986,-1.04899 0.228277,-0.31071 0.47597,-0.60629 0.784712,-0.84149 0.668644,-0.49595 1.345494,-0.57409 2.237314,-0.38905 0.445294,0.12025 0.837491,0.35264 1.178028,0.66427 0.386202,0.34675 0.770361,0.70043 1.088324,1.11282 0.296291,0.41431 0.551545,0.85257 0.659442,1.35694 0.112575,0.50503 0.180261,1.02224 0.03891,1.53022 -0.168613,0.50819 -0.436007,0.97136 -0.783069,1.38031 -0.192325,0.23294 -0.394832,0.46422 -0.644054,0.63846 0,0 -1.238736,-0.1113 -1.238736,-0.1113 z"
       inkscape:connector-curvature="0" />
    <path
       style="opacity:1;fill:#030303;fill-opacity:1;fill-rule:evenodd;stroke:none;stroke-width:0.72699994;stroke-linecap:round;stroke-linejoin:miter;stroke-miterlimit:4;stroke-dasharray:none;stroke-dashoffset:0;stroke-opacity:1"
       id="path970"
       d="m 92.558121,117.59684 c -0.210701,-0.13095 -0.444061,-0.21774 -0.671309,-0.31472 -0.339595,-0.12792 -0.668117,-0.28292 -1.00888,-0.40759 -0.349988,-0.12353 -0.710197,-0.21391 -1.071324,-0.29785 -0.456446,-0.0875 -0.919866,-0.12959 -1.382231,-0.17148 -0.09331,-0.008 -0.18651,-0.0172 -0.279924,-0.0237 -0.407514,-0.0283 -1.533416,-0.0946 0.370687,-0.0121 0.175056,0.008 -0.349113,0.0323 -0.522502,0.0575 -0.452422,0.0728 -0.871532,0.24734 -1.269857,0.46739 -0.324591,0.16233 -0.565245,0.40658 -0.762228,0.70537 -0.162623,0.25969 -0.255947,0.55118 -0.318873,0.84884 -0.06384,0.39109 0.122013,0.72513 0.308991,1.05283 0.273373,0.43099 0.607745,0.81651 0.970516,1.17364 0.323463,0.322 0.683596,0.60182 1.081436,0.8249 0.354164,0.17085 0.74426,0.2193 1.132007,0.24264 0.687281,2e-4 -0.567812,5.3e-4 -0.833996,-0.0106 -0.06562,-0.003 0.130786,-0.0132 0.195585,-0.0239 0.210421,-0.0349 0.398648,-0.10346 0.594757,-0.18452 0.26247,-0.13161 0.131895,-0.0622 0.39157,-0.20856 0,0 1.224132,0.12871 1.224132,0.12871 v 0 c -0.260366,0.15363 -0.129529,0.0797 -0.392411,0.22194 -0.75783,0.35338 -1.554398,0.34007 -2.398951,0.26048 -0.394298,-0.0372 -0.787622,-0.10112 -1.13815,-0.29783 -0.395296,-0.23917 -0.756388,-0.52742 -1.081135,-0.85666 -0.364183,-0.36849 -0.701723,-0.76444 -0.973654,-1.20707 -0.198183,-0.35578 -0.381367,-0.72107 -0.316489,-1.14106 0.06282,-0.31235 0.158255,-0.61876 0.321985,-0.8943 0.198427,-0.31531 0.43036,-0.59151 0.769308,-0.76466 0.400595,-0.23207 0.820382,-0.42456 1.279091,-0.51014 0.942774,-0.16873 1.911818,-0.10318 2.862439,-0.0301 0.465381,0.0439 0.932575,0.0872 1.389857,0.18787 0.362778,0.0877 0.724654,0.18211 1.074512,0.31348 0.338744,0.13242 0.671526,0.27971 1.010216,0.41236 0.233559,0.0985 0.471578,0.19367 0.680509,0.33981 0,0 -1.235684,0.119 -1.235684,0.119 z"
       inkscape:connector-curvature="0" />
    <path
       style="opacity:1;fill:#030303;fill-opacity:1;fill-rule:evenodd;stroke:none;stroke-width:0.72699994;stroke-linecap:round;stroke-linejoin:miter;stroke-miterlimit:4;stroke-dasharray:none;stroke-dashoffset:0;stroke-opacity:1"
       id="path972"
       d="m 94.097229,118.61174 c -0.166156,0.0356 -0.315865,0.1124 -0.457875,0.20321 -0.18946,0.12827 -0.337672,0.30292 -0.481507,0.47826 -0.166648,0.21639 -0.327742,0.43686 -0.487757,0.65817 -0.20593,0.26765 -0.376198,0.55865 -0.531394,0.8578 -0.191334,0.37147 -0.31772,0.77041 -0.435616,1.1698 -0.130902,0.46514 -0.244408,0.93531 -0.335777,1.40979 -0.08793,0.45841 -0.14128,0.9215 -0.183235,1.38599 -0.03752,0.39273 -0.05984,0.78785 -2.11e-4,1.17895 0.07605,0.3899 0.349948,0.63666 0.66095,0.8536 0.362511,0.234 0.756804,0.38119 1.183616,0.43353 0.661784,-0.0184 -0.291555,0.0113 -0.799219,-0.0236 -0.06968,-0.005 0.138002,-0.0222 0.206198,-0.0373 0.197977,-0.0438 0.38109,-0.11431 0.566984,-0.19326 0.346294,-0.15548 0.644109,-0.3881 0.921125,-0.64364 0.271757,-0.25407 0.48582,-0.55713 0.686655,-0.86788 0.174924,-0.29503 0.324144,-0.60514 0.446802,-0.92529 0.127929,-0.36949 0.149339,-0.7596 0.170331,-1.14638 0.02368,-0.43406 -0.0181,-0.86455 -0.09006,-1.29195 -0.09228,-0.48479 -0.224184,-0.96025 -0.36598,-1.43247 -0.02344,-0.0764 -0.04686,-0.15271 -0.0703,-0.22906 0,0 1.229434,-0.0365 1.229434,-0.0365 v 0 c 0.02328,0.0766 0.04658,0.15321 0.06987,0.22981 0.142009,0.47737 0.274269,0.95797 0.367067,1.44773 0.07301,0.43641 0.116043,0.87591 0.09222,1.31908 -0.02164,0.39903 -0.04327,0.80107 -0.168756,1.18404 -0.121354,0.32947 -0.274958,0.64628 -0.44872,0.95134 -0.203447,0.31892 -0.416351,0.63292 -0.689306,0.89787 -0.277956,0.26773 -0.57685,0.51364 -0.925584,0.68486 -0.763379,0.35706 -1.56206,0.39197 -2.418149,0.28668 -0.429662,-0.0791 -0.830654,-0.24144 -1.190903,-0.49197 -0.324538,-0.2473 -0.594182,-0.5341 -0.668054,-0.95129 -0.05682,-0.40125 -0.03729,-0.80566 0.0031,-1.2081 0.04282,-0.46848 0.09623,-0.93561 0.184528,-1.39809 0.09099,-0.4784 0.205709,-0.9522 0.335439,-1.42156 0.117883,-0.40659 0.242792,-0.81345 0.433017,-1.19318 0.154491,-0.30532 0.322885,-0.60377 0.529868,-0.87723 0.162626,-0.22134 0.321546,-0.44522 0.487029,-0.66452 0.146601,-0.18341 0.294177,-0.36946 0.482256,-0.51281 0.138385,-0.10555 0.291918,-0.19932 0.460769,-0.246 0,0 1.23117,0.16153 1.23117,0.16153 z"
       inkscape:connector-curvature="0" />
    <path
       style="opacity:1;fill:#030303;fill-opacity:1;fill-rule:evenodd;stroke:none;stroke-width:0.72699994;stroke-linecap:round;stroke-linejoin:miter;stroke-miterlimit:4;stroke-dasharray:none;stroke-dashoffset:0;stroke-opacity:1"
       id="path974"
       d="m 93.317359,116.83988 c 0.464227,-0.29019 0.970568,-0.50848 1.46581,-0.73984 0.744318,-0.34949 1.491636,-0.69245 2.238312,-1.03685 0.686006,-0.31148 1.365152,-0.6384 2.059251,-0.93165 0.86058,-0.33292 1.840758,-0.39201 2.742378,-0.17419 0.42775,0.12287 0.6803,0.42873 0.83717,0.82893 0.12638,0.48238 0.0659,0.98304 -0.009,1.46832 -0.0934,0.52086 -0.30975,1.00096 -0.5848,1.44884 -0.28508,0.43786 -0.72215,0.71782 -1.1662,0.9722 -0.41129,0.23814 -0.85042,0.40677 -1.307628,0.53053 -0.44184,0.105 -0.89613,0.14683 -1.34819,0.17992 -0.06964,0.004 -0.139279,0.007 -0.20892,0.0109 0,0 -1.217785,-0.18701 -1.217785,-0.18701 v 0 c 0.0697,-0.003 0.139404,-0.006 0.209106,-0.009 0.450712,-0.0248 0.902742,-0.0689 1.345792,-0.15652 0.455437,-0.11408 0.895497,-0.26464 1.305087,-0.49923 0.434988,-0.2375 0.872148,-0.49628 1.161698,-0.91077 0.27482,-0.43011 0.48945,-0.89385 0.58297,-1.39926 0.0735,-0.46231 0.13642,-0.9426 0.007,-1.40088 -0.16218,-0.37102 -0.42009,-0.62078 -0.82592,-0.71011 -0.54161,-0.0997 -0.2284,-0.0278 0.78126,-0.0573 0.0817,-0.002 -0.16371,-0.008 -0.24533,-0.003 -0.29164,0.0186 -0.57167,0.1086 -0.84318,0.21055 -0.698048,0.28594 -1.376488,0.6167 -2.064105,0.92648 -0.745929,0.34331 -1.49199,0.68623 -2.234673,1.03654 -0.486444,0.22798 -0.977051,0.44995 -1.444789,0.71503 0,0 -1.234533,-0.11329 -1.234533,-0.11329 z"
       inkscape:connector-curvature="0" />
    <path
       style="opacity:1;fill:#030303;fill-opacity:1;fill-rule:evenodd;stroke:none;stroke-width:0.72699994;stroke-linecap:round;stroke-linejoin:miter;stroke-miterlimit:4;stroke-dasharray:none;stroke-dashoffset:0;stroke-opacity:1"
       id="path976"
       d="m 95.777767,119.9739 c 0.703736,-0.0614 1.38322,-0.006 2.071444,0.0956 0.400053,0.0571 0.799201,0.11796 1.192761,0.21047 0.40966,0.0771 0.77592,0.2643 1.128698,0.47766 0.36794,0.23043 0.69792,0.51265 1.03099,0.78921 0.31347,0.26469 0.61466,0.54157 0.89039,0.84545 0.27054,0.30175 0.4877,0.64331 0.69111,0.99217 0.18318,0.31807 0.28996,0.6326 0.1825,0.99118 -0.13259,0.31361 -0.37091,0.54999 -0.62911,0.76245 -0.26303,0.21118 -0.56538,0.36025 -0.87002,0.50033 -0.27339,0.12784 -0.56574,0.19955 -0.86263,0.24535 -0.664208,0.0421 -1.341438,0.0733 -1.998048,-0.0485 -0.274343,-0.0509 -0.540424,-0.13131 -0.790764,-0.25438 -0.30285,-0.16968 -0.5382,-0.42394 -0.778603,-0.66852 -0.259265,-0.26856 -0.480174,-0.5704 -0.69887,-0.87195 -0.226523,-0.32173 -0.444344,-0.64858 -0.640903,-0.9895 -0.208113,-0.36846 -0.376346,-0.75704 -0.525656,-1.15241 -0.136139,-0.37885 -0.245533,-0.76658 -0.365292,-1.1508 0,0 1.228916,-0.0371 1.228916,-0.0371 v 0 c 0.118721,0.38207 0.228431,0.76735 0.366768,1.14295 0.150344,0.38856 0.317693,0.77102 0.526291,1.13239 0.197593,0.33602 0.41475,0.6593 0.640744,0.97689 0.21709,0.2969 0.438959,0.59198 0.698606,0.85364 0.23392,0.23717 0.470923,0.47753 0.775803,0.62333 0.25288,0.10566 0.51715,0.17916 0.78823,0.22139 1.361888,0.18557 -1.568939,0.001 -0.45133,0.0445 0.2948,-0.0296 0.58605,-0.093 0.859928,-0.20849 0.30051,-0.13399 0.6025,-0.27059 0.86675,-0.46989 0.24911,-0.19221 0.48352,-0.40329 0.62382,-0.69128 0.11812,-0.3179 -0.0194,-0.60486 -0.17861,-0.88628 -0.20121,-0.3415 -0.41933,-0.6735 -0.68898,-0.96588 -0.27699,-0.29644 -0.57727,-0.56848 -0.888078,-0.82915 -0.32948,-0.27408 -0.66066,-0.5484 -1.02914,-0.76965 -0.35223,-0.20338 -0.722142,-0.36576 -1.125119,-0.43923 -0.394208,-0.0843 -0.792474,-0.1447 -1.191643,-0.20039 -0.174395,-0.023 -0.349017,-0.0463 -0.524105,-0.0636 -0.04611,-0.005 -0.184881,-0.0107 -0.138547,-0.0113 0.346591,-0.005 1.54509,-0.003 1.039876,-0.002 0,0 -1.228177,-0.19452 -1.228177,-0.19452 z"
       inkscape:connector-curvature="0" />
    <path
       style="opacity:1;fill:#030303;fill-opacity:1;fill-rule:evenodd;stroke:none;stroke-width:0.74620497;stroke-linecap:round;stroke-linejoin:miter;stroke-miterlimit:4;stroke-dasharray:none;stroke-dashoffset:0;stroke-opacity:1"
       id="path980"
       d="m 57.789976,157.05183 c 0.116814,-0.28374 0.183187,-0.58382 0.236852,-0.88483 0.08749,-0.43698 0.102303,-0.8743 0.05322,-1.31593 -0.09182,-0.5884 -0.232439,-1.16828 -0.3859,-1.74329 -0.14347,-0.53624 -0.297046,-1.06869 -0.503616,-1.58425 -0.183267,-0.44925 -0.445056,-0.85622 -0.737726,-1.24065 -0.254527,-0.36491 -0.574657,-0.62275 -0.991996,-0.76871 0.396708,-0.0983 -1.238823,-0.10286 -0.807835,-0.10192 1.158239,0.002 1.38037,-0.023 0.833704,0.0239 -0.410151,0.0547 -0.802573,0.18862 -1.184872,0.34198 -0.324189,0.13769 -0.639896,0.30116 -0.893053,0.549 -0.208243,0.24246 -0.230052,0.54028 -0.210944,0.84523 0.110459,0.51579 0.422401,0.9607 0.700693,1.3996 0.362,0.5623 0.78963,1.07639 1.218531,1.58785 0.47731,0.54363 0.946602,1.09434 1.409213,1.65051 0.07979,0.0964 0.159592,0.19282 0.239388,0.28923 0,0 -1.25069,0.0866 -1.25069,0.0866 v 0 c -0.07982,-0.0963 -0.159642,-0.19256 -0.239465,-0.28884 -0.464015,-0.55558 -0.935234,-1.10509 -1.411576,-1.65014 -0.430762,-0.51639 -0.858833,-1.03657 -1.221431,-1.60439 -0.288418,-0.45757 -0.608678,-0.92243 -0.711949,-1.46258 -0.02097,-0.33735 0.0044,-0.66821 0.213154,-0.9496 0.24576,-0.27501 0.567055,-0.45229 0.901399,-0.60185 0.384993,-0.16035 0.777744,-0.30426 1.190208,-0.3766 0.811194,-0.11162 1.687399,-0.12137 2.481839,0.1106 0.415637,0.1784 0.736788,0.4675 0.996194,0.83882 0.293269,0.39611 0.555022,0.8146 0.737935,1.27439 0.203944,0.52124 0.357232,1.05842 0.500744,1.59915 0.153525,0.58152 0.296454,1.16732 0.389656,1.76192 0.05081,0.45343 0.03991,0.90272 -0.0496,1.35174 -0.05258,0.30981 -0.117849,0.61853 -0.22921,0.91331 0,0 -1.272872,-0.0503 -1.272872,-0.0503 z"
       inkscape:connector-curvature="0" />
    <path
       style="opacity:1;fill:#030303;fill-opacity:1;fill-rule:evenodd;stroke:none;stroke-width:0.72699994;stroke-linecap:round;stroke-linejoin:miter;stroke-miterlimit:4;stroke-dasharray:none;stroke-dashoffset:0;stroke-opacity:1"
       id="path982"
       d="m 57.968836,158.43602 c -0.197517,-0.0806 -0.374997,-0.20089 -0.553411,-0.31602 -0.283284,-0.18634 -0.547116,-0.40003 -0.810599,-0.61288 -0.323842,-0.27883 -0.644009,-0.56236 -0.953169,-0.85744 -0.305374,-0.28946 -0.62965,-0.55964 -0.978961,-0.79437 -0.307956,-0.21594 -0.663503,-0.27759 -1.03092,-0.28916 2.129631,-0.0853 0.722072,0.0175 0.222753,0.13261 -0.333563,0.0901 -0.659572,0.20526 -0.981184,0.33094 -0.428519,0.163 -0.772771,0.45895 -1.108678,0.76108 -0.377211,0.3471 -0.730051,0.71792 -1.035873,1.12945 -0.242154,0.32608 -0.288149,0.66345 -0.213092,1.05066 0.07438,0.33426 0.28735,0.59627 0.513072,0.84262 0.303286,0.32288 0.707025,0.47489 1.118497,0.60743 0.602993,0.16542 1.229021,0.21987 1.851416,0.24875 0.903817,0.005 -0.383027,0.004 -0.57432,-0.004 -0.103431,-0.004 0.206854,-0.009 0.310094,-0.0165 0.267568,-0.0194 0.327644,-0.0314 0.591331,-0.0667 0,0 1.21377,0.17478 1.21377,0.17478 v 0 c -0.910965,0.13631 -1.830334,0.1378 -2.751235,0.0974 -0.626369,-0.0374 -1.256964,-0.097 -1.859788,-0.28114 -0.422693,-0.14773 -0.828111,-0.32679 -1.130763,-0.6703 -0.233154,-0.26781 -0.444577,-0.55383 -0.51657,-0.90981 -0.0745,-0.41767 -0.03247,-0.79476 0.220565,-1.15099 0.304136,-0.42158 0.658487,-0.79964 1.038648,-1.15402 0.337944,-0.31044 0.678542,-0.62444 1.107371,-0.80539 0.321948,-0.132 0.650095,-0.24685 0.982983,-0.34825 0.737997,-0.19091 1.438584,-0.2182 2.221479,-0.15458 0.375562,0.0332 0.728863,0.12753 1.036947,0.35606 0.3468,0.2458 0.673658,0.51857 0.980133,0.81328 0.309896,0.29098 0.626596,0.5751 0.953182,0.84727 0.263703,0.20982 0.528749,0.41916 0.814253,0.59904 0.17831,0.11203 0.359389,0.21957 0.5554,0.29829 0,0 -1.233331,0.14173 -1.233331,0.14173 z"
       inkscape:connector-curvature="0" />
    <path
       style="opacity:1;fill:#030303;fill-opacity:1;fill-rule:evenodd;stroke:none;stroke-width:0.72699994;stroke-linecap:round;stroke-linejoin:miter;stroke-miterlimit:4;stroke-dasharray:none;stroke-dashoffset:0;stroke-opacity:1"
       id="path984"
       d="m 58.311683,159.43878 c -0.136864,0.41326 -0.284245,0.82345 -0.432213,1.23296 -0.181446,0.48774 -0.348978,0.98049 -0.490831,1.4812 -0.130006,0.46396 -0.224097,0.93683 -0.296204,1.41295 -0.07576,0.41687 -0.01799,0.80305 0.154673,1.18499 0.181946,0.38307 0.504142,0.61199 0.864833,0.80962 0.383751,0.2035 0.790173,0.35356 1.200324,0.49315 0.377555,0.13203 0.771644,0.15224 1.167223,0.15245 -2.117143,0.0624 -0.638575,-0.0132 -0.14505,-0.11742 0.334285,-0.073 0.633751,-0.23238 0.919808,-0.41421 0.317614,-0.21165 0.554792,-0.50782 0.769951,-0.81787 0.201012,-0.2947 0.357492,-0.61475 0.461026,-0.95564 0.113961,-0.31248 0.07361,-0.58254 -0.05694,-0.87872 -0.159292,-0.32563 -0.371888,-0.62054 -0.598569,-0.90192 -0.237779,-0.29965 -0.506704,-0.57189 -0.779034,-0.83976 -0.300726,-0.2998 -0.628055,-0.57068 -0.951373,-0.84533 -0.05946,-0.0508 -0.11892,-0.10165 -0.178382,-0.15248 0,0 1.22573,-0.10626 1.22573,-0.10626 v 0 c 0.05962,0.0507 0.119245,0.10143 0.178869,0.15214 0.325792,0.27611 0.65288,0.55153 0.95427,0.85467 0.272986,0.27286 0.543152,0.54925 0.780629,0.8543 0.228825,0.29228 0.444614,0.59714 0.601549,0.9351 0.131908,0.32226 0.176993,0.62734 0.05777,0.96399 -0.103264,0.3536 -0.259672,0.68683 -0.464928,0.9935 -0.215937,0.3238 -0.455226,0.63425 -0.772176,0.86628 -0.286644,0.19406 -0.587282,0.36871 -0.924959,0.45772 -0.752507,0.18682 -1.522207,0.16358 -2.296594,0.14347 -0.399066,-0.009 -0.79406,-0.0524 -1.171462,-0.19183 -0.412197,-0.14434 -0.819417,-0.30381 -1.202219,-0.5162 -0.37053,-0.22146 -0.691649,-0.48326 -0.87178,-0.88806 -0.170966,-0.40547 -0.232151,-0.81627 -0.154086,-1.25421 0.07311,-0.48117 0.168431,-0.95907 0.298847,-1.42822 0.141721,-0.50369 0.30861,-0.99968 0.490966,-1.49011 0.146976,-0.40439 0.289314,-0.81107 0.421026,-1.22061 0,0 1.239309,0.0304 1.239309,0.0304 z"
       inkscape:connector-curvature="0" />
    <path
       style="opacity:1;fill:#030303;fill-opacity:1;fill-rule:evenodd;stroke:none;stroke-width:0.72699994;stroke-linecap:round;stroke-linejoin:miter;stroke-miterlimit:4;stroke-dasharray:none;stroke-dashoffset:0;stroke-opacity:1"
       id="path986"
       d="m 58.380207,156.43592 c 0.187232,-0.0616 0.372205,-0.12966 0.557181,-0.19768 0.233452,-0.0978 0.463645,-0.20006 0.704532,-0.27868 0.328801,-0.10296 0.666462,-0.16877 1.007949,-0.21065 0.818653,-0.0423 1.651151,-0.10016 2.449978,0.10345 0.463595,0.13583 0.904706,0.3399 1.321189,0.58297 0.358685,0.21371 0.668621,0.48513 0.864971,0.85605 0.114726,0.29626 0.01826,0.56713 -0.133398,0.82664 -0.162182,0.25327 -0.390022,0.44784 -0.628785,0.62553 -0.290907,0.21768 -0.631418,0.3422 -0.974053,0.45158 -0.77679,0.2573 -1.522537,0.1776 -2.350196,0.17385 -0.35483,-0.0365 -0.704411,-0.11172 -1.054372,-0.17896 0,0 1.220089,-0.16969 1.220089,-0.16969 v 0 c 0.348416,0.0662 0.697277,0.14059 1.052266,0.15996 -2.090907,0.0149 -0.584449,0.0519 -0.09124,-0.14213 0.337492,-0.0972 0.676206,-0.20907 0.967237,-0.41126 0.233344,-0.16335 0.458248,-0.34168 0.623816,-0.57692 0.139774,-0.21637 0.246205,-0.44095 0.135025,-0.69603 -0.201745,-0.34522 -0.510739,-0.59148 -0.854964,-0.78923 -0.416632,-0.23092 -0.854208,-0.42972 -1.317236,-0.54772 -0.207137,-0.0438 -0.231148,-0.055 -0.439912,-0.0752 -0.06986,-0.007 -0.280313,-0.0116 -0.210146,-0.0131 1.927278,-0.0431 1.068033,2.6e-4 0.640723,5.3e-4 -0.33977,0.0302 -0.675039,0.0909 -1.002675,0.18714 -0.242004,0.0706 -0.475031,0.16171 -0.701625,0.27256 -0.184145,0.0674 -0.367572,0.13648 -0.552286,0.20203 0,0 -1.234067,-0.15494 -1.234067,-0.15494 z"
       inkscape:connector-curvature="0" />
    <path
       style="opacity:1;fill:#030303;fill-opacity:1;fill-rule:evenodd;stroke:none;stroke-width:0.72699994;stroke-linecap:round;stroke-linejoin:miter;stroke-miterlimit:4;stroke-dasharray:none;stroke-dashoffset:0;stroke-opacity:1"
       id="path988"
       d="m 57.636966,160.0522 c -0.208441,0.0465 -0.407495,0.12486 -0.606414,0.20092 -0.355653,0.13757 -0.673741,0.35175 -0.983097,0.57107 -0.405421,0.28702 -0.7478,0.64431 -1.074962,1.01495 -0.300226,0.32998 -0.551098,0.69765 -0.754743,1.09367 -0.138472,0.27522 -0.210211,0.56879 -0.215122,0.87553 0.0066,0.235 0.08494,0.45324 0.204904,0.65264 0.128101,0.17102 0.301498,0.29788 0.503351,0.36568 0.445101,0.044 1.274443,0.0887 -0.772416,0.0101 -0.09006,-0.003 0.173641,-0.0504 0.255939,-0.0872 0.3395,-0.20396 0.626102,-0.48193 0.882452,-0.78096 0.329454,-0.41095 0.606004,-0.85986 0.868394,-1.31544 0.175019,-0.32012 0.0892,-0.15909 0.257453,-0.4831 0,0 1.226185,0.0585 1.226185,0.0585 v 0 c -0.1684,0.32749 -0.08251,0.16469 -0.257657,0.48839 -0.263004,0.46177 -0.54098,0.91592 -0.866415,1.33701 -0.254794,0.31489 -0.547037,0.59801 -0.881488,0.82851 -0.564023,0.35392 -1.318623,0.25155 -1.942915,0.0885 -0.205579,-0.10596 -0.388218,-0.24523 -0.509945,-0.44605 -0.120092,-0.22305 -0.199834,-0.46298 -0.204883,-0.71874 0.006,-0.32502 0.07632,-0.63796 0.220377,-0.93132 0.203909,-0.40646 0.455525,-0.78569 0.760796,-1.12402 0.328181,-0.37813 0.669444,-0.74543 1.07496,-1.04299 0.309779,-0.22718 0.628528,-0.44774 0.980998,-0.60411 0.200213,-0.0743 0.396428,-0.16279 0.603809,-0.21567 0,0 1.230439,0.1641 1.230439,0.1641 z"
       inkscape:connector-curvature="0" />
    <path
       style="opacity:1;fill:#030303;fill-opacity:1;fill-rule:evenodd;stroke:none;stroke-width:0.72699994;stroke-linecap:round;stroke-linejoin:miter;stroke-miterlimit:4;stroke-dasharray:none;stroke-dashoffset:0;stroke-opacity:1"
       id="path992"
       d="m 92.750695,183.10507 c 0.125148,-0.13956 0.23749,-0.28926 0.347872,-0.44054 0.160311,-0.22094 0.275674,-0.46832 0.380722,-0.71894 0.121743,-0.3051 0.228507,-0.61617 0.328533,-0.92901 0.156927,-0.4487 0.264869,-0.91025 0.336203,-1.37959 0.08312,-0.52918 0.05781,-1.04726 -0.10677,-1.55575 -0.180501,-0.42005 -0.455771,-0.78433 -0.741756,-1.13672 -0.229526,-0.28385 -0.510688,-0.51695 -0.821815,-0.70537 -0.282032,-0.16843 -0.588033,-0.28315 -0.902218,-0.37426 -0.445778,-0.0776 -1.42716,-0.11187 0.661,-0.0313 0.08686,0.003 -0.169002,0.0421 -0.250629,0.072 -0.258739,0.1124 -0.461145,0.30539 -0.646308,0.51272 -0.213119,0.24804 -0.370173,0.53419 -0.509619,0.82804 -0.18256,0.39814 -0.267589,0.8296 -0.34176,1.25844 -0.08104,0.50162 -0.141526,1.00625 -0.197739,1.51116 -0.05194,0.51867 -0.06222,1.04031 -0.05454,1.56115 0.0122,0.4846 0.07107,0.96399 0.19635,1.43214 0,0 -1.229741,0.0317 -1.229741,0.0317 v 0 c -0.124061,-0.47846 -0.183841,-0.96763 -0.195268,-1.462 -0.0077,-0.52593 0.0031,-1.05266 0.05503,-1.57643 0.05525,-0.50741 0.116231,-1.01436 0.196328,-1.51854 0.07439,-0.43914 0.158504,-0.88124 0.338543,-1.29147 0.139835,-0.30443 0.29637,-0.60153 0.509405,-0.86232 0.186912,-0.22235 0.39121,-0.43101 0.650642,-0.56892 0.626131,-0.30152 1.381487,-0.20174 2.04394,-0.0533 0.31626,0.10162 0.623248,0.22927 0.904987,0.40747 0.310258,0.20657 0.592603,0.45038 0.822414,0.74587 0.290518,0.36532 0.567127,0.74571 0.741405,1.18255 0.161605,0.52757 0.189762,1.06453 0.105474,1.61137 -0.06937,0.4755 -0.173694,0.9442 -0.330375,1.39924 -0.09905,0.31642 -0.205438,0.63089 -0.326705,0.93954 -0.105272,0.25943 -0.220384,0.51607 -0.379841,0.74758 -0.109429,0.15534 -0.221064,0.30855 -0.34494,0.45277 0,0 -1.238824,-0.0892 -1.238824,-0.0892 z"
       inkscape:connector-curvature="0" />
    <path
       style="opacity:1;fill:#030303;fill-opacity:1;fill-rule:evenodd;stroke:none;stroke-width:0.72699994;stroke-linecap:round;stroke-linejoin:miter;stroke-miterlimit:4;stroke-dasharray:none;stroke-dashoffset:0;stroke-opacity:1"
       id="path994"
       d="m 91.438555,187.25972 c -0.130418,-0.1553 -0.24593,-0.32251 -0.362228,-0.48864 -0.155718,-0.25347 -0.279529,-0.52511 -0.405749,-0.79407 -0.159549,-0.33228 -0.324154,-0.66164 -0.507114,-0.98167 -0.205007,-0.38465 -0.460004,-0.73254 -0.746715,-1.05925 -0.343648,-0.37708 -0.717097,-0.72424 -1.120902,-1.03567 -0.373623,-0.30709 -0.794054,-0.53061 -1.241488,-0.70723 -0.47217,-0.17129 -0.965615,-0.25276 -1.464553,-0.28868 -0.755359,-0.0106 0.505542,-0.005 0.758197,0.001 0.07198,0.002 -0.143872,0.007 -0.215577,0.0135 -0.199403,0.0181 -0.389376,0.0578 -0.582961,0.10681 -0.353822,0.0962 -0.636813,0.31131 -0.89856,0.55849 -0.223329,0.21211 -0.389006,0.46219 -0.491532,0.75138 -0.08348,0.24779 -0.10355,0.50714 -0.08277,0.76617 0.03169,0.25032 0.121277,0.48411 0.247549,0.70079 0.149151,0.22395 0.347954,0.41001 0.546825,0.58924 0.238554,0.21958 0.519748,0.36414 0.81783,0.48325 0.474893,0.16633 0.972521,0.25523 1.468938,0.32842 0.103976,0.0109 0.207732,0.0242 0.311927,0.0328 0.411822,0.034 0.773965,0.0285 0.696466,0.0295 -1.814706,0.0228 -0.424439,-0.01 -0.05585,-0.0241 0.513384,-0.0261 0.257995,-0.0123 0.76617,-0.0414 0,0 1.206492,0.18394 1.206492,0.18394 v 0 c -0.508852,0.0298 -0.253193,0.0154 -0.766974,0.0432 -1.122492,0.051 -2.254374,0.0837 -3.371694,-0.0508 -0.501385,-0.0807 -1.005972,-0.17166 -1.481013,-0.35703 -0.302038,-0.13211 -0.583798,-0.29731 -0.824537,-0.52572 -0.203139,-0.19086 -0.407771,-0.38622 -0.550571,-0.62829 -0.126604,-0.23565 -0.218062,-0.48713 -0.249159,-0.75442 -0.02005,-0.27549 -0.0013,-0.55169 0.0846,-0.81611 0.100759,-0.30867 0.264605,-0.58006 0.496814,-0.80969 0.263972,-0.26203 0.546867,-0.50066 0.906153,-0.61995 0.803497,-0.2369 1.647676,-0.18971 2.479503,-0.14324 0.501758,0.0488 0.998413,0.14077 1.469784,0.32563 0.44854,0.18937 0.867193,0.43014 1.243878,0.74134 0.402772,0.32195 0.779835,0.67415 1.123685,1.05893 0.287652,0.33528 0.542054,0.69306 0.750922,1.08337 0.182983,0.32368 0.349258,0.65602 0.510503,0.99101 0.124261,0.263 0.246351,0.52931 0.407119,0.77247 0.116748,0.16454 0.23499,0.32836 0.367491,0.48073 0,0 -1.240896,0.0839 -1.240896,0.0839 z"
       inkscape:connector-curvature="0" />
    <path
       style="opacity:1;fill:#030303;fill-opacity:1;fill-rule:evenodd;stroke:none;stroke-width:0.72699994;stroke-linecap:round;stroke-linejoin:miter;stroke-miterlimit:4;stroke-dasharray:none;stroke-dashoffset:0;stroke-opacity:1"
       id="path996"
       d="m 91.729533,186.40179 c -0.212466,0.0717 -0.424796,0.14371 -0.638699,0.21105 -0.307274,0.0909 -0.614201,0.18299 -0.921356,0.27433 -0.505441,0.14685 -1.01142,0.29166 -1.51012,0.46026 -0.53282,0.1855 -1.021646,0.46658 -1.48463,0.7849 -0.405495,0.27327 -0.762092,0.60301 -1.06395,0.98647 -0.282588,0.37775 -0.379135,0.82534 -0.412081,1.28602 -0.01558,0.63798 0.335204,1.15042 0.694055,1.64544 0.413544,0.55406 0.907876,1.03835 1.413288,1.5072 0.40359,0.37321 0.860327,0.6731 1.351354,0.91635 0.403196,0.17834 0.843854,0.21353 1.279001,0.22493 0.742538,0.005 -0.722963,-0.004 -0.814392,-0.008 -0.0667,-0.002 0.133217,-0.0104 0.199157,-0.0207 0.201229,-0.0315 0.381547,-0.0995 0.567669,-0.17882 0.38962,-0.17885 0.584501,-0.52487 0.752485,-0.89859 0.180406,-0.41309 0.215704,-0.85829 0.236035,-1.30241 0.02188,-0.50342 0.01146,-1.00753 -0.01476,-1.51052 -0.02771,-0.51569 -0.09103,-1.02852 -0.164478,-1.53941 -0.0492,-0.35198 -0.107823,-0.70258 -0.171085,-1.05228 0,0 1.227071,-0.022 1.227071,-0.022 v 0 c 0.06369,0.35122 0.123839,0.70317 0.172929,1.05677 0.07348,0.51458 0.135732,1.03122 0.164203,1.55049 0.02647,0.50696 0.03735,1.01501 0.01593,1.52243 -0.02008,0.45882 -0.05444,0.91922 -0.234995,1.34806 -0.170476,0.39387 -0.364521,0.77595 -0.75884,0.98787 -0.751108,0.36693 -1.557856,0.31239 -2.394879,0.2546 -0.441113,-0.0245 -0.882835,-0.0764 -1.283354,-0.27788 -0.490114,-0.25747 -0.945747,-0.56996 -1.34939,-0.95106 -0.505781,-0.47695 -1.000427,-0.96892 -1.412529,-1.53138 -0.37035,-0.52205 -0.720413,-1.0639 -0.704056,-1.72987 0.03215,-0.48262 0.129013,-0.95543 0.413454,-1.35834 0.300424,-0.3976 0.657156,-0.74211 1.070075,-1.02353 0.463645,-0.3286 0.953694,-0.62037 1.488594,-0.8188 0.496136,-0.17372 1.001149,-0.31892 1.505757,-0.46577 0.305263,-0.0924 0.61015,-0.18587 0.916757,-0.27359 0.212032,-0.0654 0.423564,-0.13308 0.631698,-0.20949 0,0 1.234067,0.15495 1.234067,0.15495 z"
       inkscape:connector-curvature="0" />
    <path
       style="opacity:1;fill:#030303;fill-opacity:1;fill-rule:evenodd;stroke:none;stroke-width:0.72699994;stroke-linecap:round;stroke-linejoin:miter;stroke-miterlimit:4;stroke-dasharray:none;stroke-dashoffset:0;stroke-opacity:1"
       id="path998"
       d="m 91.829191,184.65838 c 0.155654,-0.10633 0.320231,-0.19844 0.483804,-0.29179 0.213561,-0.12084 0.418809,-0.25528 0.625483,-0.38733 0.273219,-0.17496 0.536543,-0.36448 0.797499,-0.55705 0.326805,-0.26172 0.670846,-0.49859 1.024059,-0.72288 0.395158,-0.26049 0.823664,-0.46233 1.251149,-0.66273 0.36667,-0.17949 0.747072,-0.32039 1.151252,-0.38085 0.782325,-0.0935 1.523255,-0.17298 2.142985,0.29991 0.27775,0.24898 0.50678,0.54523 0.702248,0.86146 0.16606,0.30739 0.27854,0.63949 0.39114,0.9691 0.10519,0.30542 0.16129,0.61554 0.1379,0.93768 -0.0324,0.29122 -0.15962,0.55139 -0.31154,0.79719 -0.17101,0.26665 -0.391768,0.49448 -0.618088,0.71396 -0.24255,0.22192 -0.5185,0.40256 -0.79721,0.57511 -0.27692,0.16007 -0.572297,0.28372 -0.874923,0.38546 -0.285255,0.0999 -0.582787,0.14467 -0.88206,0.17488 -0.825654,0.11648 -1.574549,0.0646 -2.335316,-0.19895 -0.516477,-0.18705 -1.019836,-0.40493 -1.510323,-0.65169 -0.08977,-0.0464 -0.179544,-0.0927 -0.269315,-0.1391 0,0 1.218319,-0.13418 1.218319,-0.13418 v 0 c 0.08996,0.0458 0.179922,0.0916 0.269883,0.13743 0.491223,0.24073 0.99499,0.45493 1.512224,0.63384 0.20353,0.0637 0.405812,0.12671 0.618088,0.15482 0.05816,0.008 0.234071,0.0131 0.175416,0.0144 -0.300501,0.006 -1.528612,0.0114 -0.901706,0.002 0.296675,-0.0256 0.594157,-0.0536 0.878719,-0.1479 0.300823,-0.0938 0.593756,-0.20796 0.872254,-0.35683 0.27645,-0.16476 0.548173,-0.34 0.794223,-0.54832 0.222977,-0.21118 0.443977,-0.42779 0.615327,-0.68453 0.14826,-0.22519 0.27429,-0.46525 0.30944,-0.73655 0.0249,-0.30542 -0.0354,-0.59842 -0.13532,-0.88746 -0.11012,-0.3209 -0.2205,-0.64477 -0.3895,-0.94047 -0.19372,-0.30166 -0.417047,-0.58861 -0.699047,-0.81326 -0.137459,-0.0902 -0.266682,-0.1668 -0.428789,-0.20527 -0.05074,-0.012 -0.206526,-0.0233 -0.154411,-0.0253 0.296683,-0.0116 1.541747,-0.0138 0.89069,-0.008 -0.404616,0.0372 -0.78487,0.16275 -1.149677,0.34178 -0.425678,0.19731 -0.85547,0.39113 -1.250064,0.64714 -0.3517,0.22076 -0.697833,0.44976 -1.018955,0.71394 -0.260554,0.19516 -0.523746,0.3869 -0.796023,0.56553 -0.206208,0.13389 -0.411216,0.26984 -0.624015,0.39317 -0.160038,0.0947 -0.32545,0.18063 -0.479856,0.28452 0,0 -1.235964,-0.12186 -1.235964,-0.12186 z"
       inkscape:connector-curvature="0" />
    <path
       style="opacity:1;fill:#030303;fill-opacity:1;fill-rule:evenodd;stroke:none;stroke-width:0.72699994;stroke-linecap:round;stroke-linejoin:miter;stroke-miterlimit:4;stroke-dasharray:none;stroke-dashoffset:0;stroke-opacity:1"
       id="path1000"
       d="m 92.103416,186.97884 c 0.06637,0.19245 0.119488,0.38878 0.186296,0.58112 0.143301,0.40503 0.32078,0.7962 0.523565,1.17458 0.298056,0.55035 0.661924,1.05689 1.043673,1.55111 0.488664,0.61638 0.992838,1.22027 1.496861,1.82409 0.478587,0.5712 1.019056,1.08312 1.57624,1.57592 0.498094,0.44374 1.033282,0.8411 1.578884,1.22366 0.414707,0.27038 0.834387,0.55909 1.340357,0.58918 -1.940857,-0.0336 -1.07858,0.13852 -0.73747,-0.17785 0.14808,-0.13733 0.22561,-0.32036 0.30602,-0.50032 0.15881,-0.39668 0.19877,-0.81795 0.1975,-1.24096 -0.0259,-0.46346 -0.15971,-0.91177 -0.29684,-1.35252 -0.13546,-0.4317 -0.2918,-0.85799 -0.48764,-1.26607 -0.23735,-0.49165 -0.637517,-0.85412 -1.056243,-1.18991 -0.524295,-0.39742 -1.089723,-0.73517 -1.631754,-1.10712 -0.57581,-0.41037 -1.155867,-0.81461 -1.735397,-1.21969 -0.09607,-0.0657 -0.192135,-0.13146 -0.288202,-0.19719 0,0 1.216781,-0.11833 1.216781,-0.11833 v 0 c 0.09604,0.0661 0.192085,0.13216 0.288126,0.19824 0.579631,0.40479 1.157875,0.8115 1.736183,1.21818 0.546502,0.36982 1.113309,0.71106 1.634186,1.11746 0.42591,0.353 0.82876,0.73425 1.066338,1.24406 0.19306,0.41538 0.35232,0.84593 0.48732,1.28361 0.13824,0.45303 0.27412,0.91302 0.29863,1.38881 0.002,0.43967 -0.04,0.87727 -0.19827,1.29167 -0.40159,0.95941 -0.840678,0.89071 -2.018938,0.80657 -0.500887,-0.0872 -0.92548,-0.36965 -1.340905,-0.65078 -0.544943,-0.38699 -1.077468,-0.7912 -1.575604,-1.23772 -0.558099,-0.49841 -1.098002,-1.01749 -1.576747,-1.59418 -0.503915,-0.6057 -1.00796,-1.21145 -1.497825,-1.82861 -0.3858,-0.50029 -0.752499,-1.01421 -1.053378,-1.57125 -0.203316,-0.38552 -0.383108,-0.78277 -0.530656,-1.1932 -0.06716,-0.19208 -0.124137,-0.3874 -0.191937,-0.57927 0,0 1.240846,-0.0433 1.240846,-0.0433 z"
       inkscape:connector-curvature="0" />
    <path
       style="opacity:1;fill:#030303;fill-opacity:1;fill-rule:evenodd;stroke:none;stroke-width:0.72699994;stroke-linecap:round;stroke-linejoin:miter;stroke-miterlimit:4;stroke-dasharray:none;stroke-dashoffset:0;stroke-opacity:1"
       id="path1002"
       d="m 58.700512,218.44299 c -2.017099,-0.005 -1.121611,0.17931 -0.737415,-0.2163 0.22647,-0.23618 0.376105,-0.52462 0.522327,-0.81359 0.230574,-0.45234 0.396449,-0.93108 0.546597,-1.41475 0.178621,-0.57169 0.307766,-1.15677 0.413406,-1.74582 0.09992,-0.54387 0.103931,-1.09172 0.02643,-1.63751 -0.07353,-0.48173 -0.276439,-0.9218 -0.515808,-1.34093 -0.213084,-0.39791 -0.528899,-0.68374 -0.910161,-0.91315 -0.398865,-0.22394 -0.824767,-0.39379 -1.280906,-0.44178 -0.684694,0.0107 0.355581,-0.008 0.789088,0.0196 0.0707,0.004 -0.140346,0.02 -0.209807,0.034 -0.204083,0.0409 -0.393038,0.10718 -0.584705,0.18637 -0.350769,0.15323 -0.57971,0.42514 -0.753427,0.75612 -0.162076,0.37112 -0.23403,0.77037 -0.301797,1.16697 -0.05542,0.41803 -0.0929,0.83878 -0.112136,1.26002 -0.04628,0.50018 0.06811,0.98 0.217651,1.45286 0.184672,0.55889 0.424355,1.09732 0.698593,1.61746 0.329668,0.60158 0.817547,1.09082 1.292138,1.5779 0.410628,0.414 0.815192,0.83392 1.229119,1.24464 0.207018,0.20762 0.429519,0.40328 0.600128,0.64337 0.145521,0.62712 -0.993907,0.41006 -1.441463,0.19561 -0.21535,-0.0968 -0.411856,-0.22901 -0.604594,-0.36402 -0.287338,-0.20543 -0.556155,-0.43483 -0.836933,-0.64895 -0.35423,-0.27891 -0.713703,-0.5498 -1.080834,-0.81145 -0.439996,-0.30294 -0.912849,-0.55349 -1.395401,-0.7808 -0.506609,-0.32765 -2.211301,-0.28908 -0.155726,-0.26826 -0.43098,0.0301 -0.836711,0.18526 -1.241182,0.32503 -0.370541,0.12358 -0.710311,0.31611 -1.030189,0.53731 -0.278535,0.20122 -0.501952,0.45866 -0.690095,0.74369 -0.176567,0.28066 -0.144542,0.55902 -0.0457,0.85829 0.136163,0.34212 0.310984,0.66558 0.542573,0.95191 0.257429,0.27412 0.586627,0.45934 0.919753,0.62548 0.322686,0.15659 0.656712,0.28408 1.005168,0.36879 0.424103,0.0519 1.26688,0.0575 -0.680768,0.0232 -0.06116,-0.001 0.122314,-0.005 0.183259,-0.01 0.161173,-0.014 0.214217,-0.0274 0.374168,-0.0563 0.387093,-0.0883 0.752112,-0.24316 1.098476,-0.43439 0.24878,-0.14423 0.477435,-0.31879 0.703027,-0.49613 0,0 1.226235,0.11033 1.226235,0.11033 v 0 c -0.225935,0.18294 -0.455551,0.36233 -0.703659,0.51477 -0.345472,0.20701 -0.713854,0.36648 -1.102543,0.47445 -0.75837,0.16392 -1.558533,0.17398 -2.32184,0.0356 -0.348282,-0.0988 -0.684969,-0.23107 -1.007748,-0.39571 -0.339249,-0.18118 -0.673671,-0.38028 -0.924541,-0.67838 -0.229545,-0.30347 -0.410358,-0.63929 -0.545203,-0.99545 -0.103323,-0.33196 -0.134983,-0.65235 0.04589,-0.96691 0.187338,-0.3009 0.414493,-0.5723 0.695854,-0.79072 0.319656,-0.23299 0.661093,-0.43795 1.035023,-0.57198 0.408795,-0.14213 0.816123,-0.30348 1.247759,-0.3605 0.959541,-0.006 1.747084,-0.11596 2.593052,0.31786 0.483579,0.23459 0.957056,0.49238 1.397339,0.80201 0.368765,0.26297 0.728376,0.53748 1.085979,0.81541 0.278511,0.2156 0.548526,0.44273 0.839412,0.64183 0.191156,0.1275 0.386514,0.25453 0.604848,0.33069 0.465699,0.096 -0.04579,-0.0155 -1.063381,0.0313 -0.008,2.7e-4 0.117422,0.10727 0.03565,0.005 -0.173318,-0.22872 -0.389345,-0.42004 -0.588635,-0.62525 -0.409546,-0.41302 -0.812128,-0.83285 -1.220364,-1.24716 -0.480097,-0.49688 -0.969989,-0.99826 -1.298969,-1.61285 -0.273844,-0.52793 -0.514673,-1.07317 -0.69922,-1.63922 -0.151924,-0.48678 -0.270756,-0.98133 -0.223822,-1.49571 0.01892,-0.42633 0.05733,-0.85207 0.111975,-1.27529 0.0695,-0.40847 0.143071,-0.81859 0.301466,-1.20398 0.17309,-0.35348 0.399693,-0.66033 0.761272,-0.84015 0.767038,-0.36313 1.600719,-0.35506 2.448478,-0.2738 0.457407,0.0797 0.888733,0.25392 1.286659,0.49349 0.383518,0.25182 0.699076,0.56351 0.914741,0.97414 0.240686,0.4348 0.442037,0.89081 0.514847,1.38693 0.07628,0.55887 0.07343,1.11959 -0.02848,1.67625 -0.106354,0.59382 -0.23528,1.18387 -0.413654,1.76069 -0.149503,0.48983 -0.31183,0.97589 -0.54092,1.43542 -0.147928,0.29748 -0.292706,0.59889 -0.518596,0.84722 -0.457245,0.54133 -0.88958,0.342 -1.726594,0.30747 0,0 1.228844,-0.18209 1.228844,-0.18209 z"
       inkscape:connector-curvature="0" />
    <path
       style="opacity:1;fill:#030303;fill-opacity:1;fill-rule:evenodd;stroke:none;stroke-width:0.72699994;stroke-linecap:round;stroke-linejoin:miter;stroke-miterlimit:4;stroke-dasharray:none;stroke-dashoffset:0;stroke-opacity:1"
       id="path1004"
       d="m 57.949574,220.81142 c -0.203637,0.0838 -0.414658,0.14758 -0.622282,0.22052 -0.271184,0.10313 -0.531283,0.23235 -0.784071,0.37411 -0.32625,0.17078 -0.596268,0.41088 -0.845767,0.67779 -0.253752,0.27203 -0.4567,0.58466 -0.657397,0.89629 -0.173006,0.2813 -0.363715,0.55149 -0.525809,0.83933 -0.157427,0.29481 -0.203274,0.62193 -0.206899,0.95144 -0.0028,0.32601 0.105571,0.60803 0.295365,0.8674 0.274193,0.28423 0.648591,0.39718 1.030015,0.44302 0.743606,0.003 -0.551881,-8e-4 -0.764675,-0.0181 -0.07869,-0.006 0.155998,-0.0252 0.232971,-0.0428 0.230962,-0.0528 0.453157,-0.13547 0.674539,-0.21812 0.427178,-0.16443 0.833991,-0.36862 1.205873,-0.63542 0.397714,-0.3136 0.675854,-0.73631 0.936173,-1.16356 0.260704,-0.44228 0.450402,-0.91681 0.59994,-1.40632 0.107114,-0.36072 0.14715,-0.73401 0.178601,-1.10725 0,0 1.225828,0.0101 1.225828,0.0101 v 0 c -0.03063,0.38174 -0.06984,0.7636 -0.176398,1.13321 -0.149169,0.49977 -0.339455,0.98408 -0.601207,1.437 -0.263279,0.4399 -0.543256,0.87555 -0.937559,1.21148 -0.369464,0.28286 -0.777028,0.49722 -1.209805,0.66853 -0.835334,0.33069 -1.655453,0.45824 -2.583344,0.305 -0.397666,-0.0768 -0.781338,-0.21663 -1.044059,-0.54184 -0.189201,-0.28682 -0.300127,-0.59563 -0.297426,-0.94374 0.0044,-0.34854 0.05058,-0.69644 0.208513,-1.01211 0.158012,-0.29332 0.352436,-0.56421 0.527108,-0.84768 0.203536,-0.31697 0.406239,-0.6373 0.660244,-0.91713 0.249351,-0.27767 0.514829,-0.53636 0.846254,-0.71575 0.252669,-0.14936 0.514202,-0.28175 0.784897,-0.39556 0.204256,-0.0771 0.412832,-0.14076 0.617868,-0.21539 0,0 1.232509,0.14561 1.232509,0.14561 z"
       inkscape:connector-curvature="0" />
    <path
       style="opacity:1;fill:#030303;fill-opacity:1;fill-rule:evenodd;stroke:none;stroke-width:0.72699994;stroke-linecap:round;stroke-linejoin:miter;stroke-miterlimit:4;stroke-dasharray:none;stroke-dashoffset:0;stroke-opacity:1"
       id="path1006"
       d="m 59.28159,218.4577 c 0.04809,-0.27122 0.222308,-0.5023 0.371742,-0.72717 0.212749,-0.33754 0.482512,-0.62973 0.768752,-0.9052 0.38553,-0.35006 0.797391,-0.67077 1.217927,-0.97747 0.401672,-0.28847 0.848186,-0.49761 1.308039,-0.67367 0.758656,-0.23324 1.602963,-0.24714 2.370339,-0.0398 0.335119,0.11206 0.654606,0.26523 0.943861,0.46801 0.312865,0.25542 0.550921,0.58922 0.756904,0.93338 0.198763,0.36329 0.339249,0.75305 0.435176,1.1549 0.110263,0.42547 0.04221,0.79314 -0.17794,1.16585 -0.361807,0.48543 -0.868251,0.80944 -1.397193,1.08478 -0.604975,0.29219 -1.258345,0.46422 -1.903153,0.64399 -0.552696,0.15261 -1.11742,0.25347 -1.685933,0.32365 0,0 -1.215393,-0.17817 -1.215393,-0.17817 v 0 c 0.568849,-0.0615 1.133729,-0.15835 1.687391,-0.3043 0.641996,-0.17618 1.292797,-0.34319 1.900312,-0.61974 0.519877,-0.25666 1.015928,-0.56079 1.384953,-1.01841 0.220885,-0.33924 0.279178,-0.67183 0.174347,-1.06832 -0.09596,-0.38925 -0.233486,-0.76754 -0.433017,-1.11665 -0.205282,-0.32866 -0.437396,-0.65046 -0.7548,-0.87994 -0.291121,-0.18468 -0.605333,-0.33358 -0.938716,-0.42494 -0.45389,-0.0967 -1.142984,-0.0605 0.679744,-0.0696 0.293614,-0.002 -0.787339,-0.008 -0.605292,0.0945 -0.458494,0.16436 -0.904087,0.3628 -1.306661,0.6406 -0.42083,0.29853 -0.82723,0.61888 -1.213591,0.96094 -0.283525,0.26661 -0.554363,0.54776 -0.763778,0.87819 -0.138827,0.20676 -0.305099,0.41988 -0.362207,0.66578 0,0 -1.241813,-0.0113 -1.241813,-0.0113 z"
       inkscape:connector-curvature="0" />
    <path
       style="opacity:1;fill:#030303;fill-opacity:1;fill-rule:evenodd;stroke:none;stroke-width:0.72699994;stroke-linecap:round;stroke-linejoin:miter;stroke-miterlimit:4;stroke-dasharray:none;stroke-dashoffset:0;stroke-opacity:1"
       id="path1008"
       d="m 59.632898,224.11087 c 0.145743,0.11488 0.310957,0.20339 0.473369,0.29224 0.272274,0.16897 0.567817,0.29062 0.861417,0.41603 0.418679,0.17406 0.853768,0.30278 1.289701,0.42523 0.462729,0.13012 0.929896,0.24028 1.402678,0.32645 -0.594389,0.0803 1.52768,0.0955 0.929947,0.0939 -1.134489,-0.003 -1.301785,0.0182 -0.769509,-0.0273 0.393144,-0.0447 0.770908,-0.16408 1.129207,-0.32853 0.259413,-0.12495 0.458507,-0.31793 0.616918,-0.55422 0.108778,-0.1781 0.173593,-0.37272 0.180084,-0.58093 -0.0077,-0.20249 -0.07726,-0.39019 -0.160327,-0.57238 -0.09505,-0.24549 -0.27513,-0.41667 -0.477414,-0.5759 -0.348118,-0.25647 -0.728414,-0.46611 -1.113317,-0.66145 -0.49208,-0.26485 -1.005625,-0.48447 -1.5167,-0.70901 -0.557675,-0.24039 -1.114769,-0.48218 -1.674262,-0.71835 -0.36839,-0.14946 -0.733166,-0.30765 -1.099344,-0.46244 0,0 1.218123,-0.14322 1.218123,-0.14322 v 0 c 0.365755,0.15506 0.730748,0.31197 1.098365,0.46259 0.559337,0.23776 1.117613,0.47802 1.675223,0.71981 0.513395,0.22487 1.025895,0.45196 1.520634,0.71626 0.388546,0.20318 0.775301,0.41662 1.121905,0.68705 0.207288,0.17841 0.385747,0.37319 0.484515,0.63328 0.08555,0.20077 0.156845,0.40671 0.16206,0.62751 -0.0067,0.23026 -0.06929,0.44687 -0.183922,0.64788 -0.158769,0.25682 -0.356934,0.4754 -0.626039,0.62148 -0.357573,0.18186 -0.740396,0.30962 -1.137734,0.37062 -0.860364,0.10455 -1.744017,0.0771 -2.596896,-0.0767 -0.472917,-0.0912 -0.940324,-0.20646 -1.403755,-0.33771 -0.438224,-0.12633 -0.875049,-0.26035 -1.294839,-0.44025 -0.297265,-0.12682 -0.590595,-0.26139 -0.867902,-0.42851 -0.163854,-0.0935 -0.326774,-0.18846 -0.47815,-0.30152 0,0 1.235964,-0.12186 1.235964,-0.12186 z"
       inkscape:connector-curvature="0" />
    <path
       style="opacity:1;fill:#030303;fill-opacity:1;fill-rule:evenodd;stroke:none;stroke-width:0.72699994;stroke-linecap:round;stroke-linejoin:miter;stroke-miterlimit:4;stroke-dasharray:none;stroke-dashoffset:0;stroke-opacity:1"
       id="path1010"
       d="m 90.070062,256.44093 c 0.126714,-0.16591 0.241882,-0.34057 0.353639,-0.51681 0.16818,-0.27247 0.272598,-0.57352 0.363715,-0.87847 0.129016,-0.47151 0.218519,-0.95235 0.292021,-1.43521 0.07653,-0.47424 0.102973,-0.95395 0.10351,-1.43371 0.006,-0.50028 -0.05012,-0.99703 -0.169304,-1.48238 -0.125939,-0.48152 -0.436544,-0.85316 -0.779164,-1.19815 -0.300513,-0.31617 -0.673319,-0.50878 -1.08113,-0.64547 -0.168708,-0.0486 -0.340873,-0.0864 -0.516249,-0.0999 -0.05139,-0.004 -0.206068,-0.005 -0.154528,-0.005 1.205479,2.7e-4 1.409603,-0.0165 0.911138,0.0156 -0.366662,0.0291 -0.690618,0.18647 -0.999403,0.37478 -0.353353,0.22065 -0.678375,0.47734 -0.961464,0.78266 -0.312417,0.35545 -0.532982,0.77208 -0.684919,1.21751 -0.14968,0.47164 -0.131545,0.95519 -0.05195,1.43631 0.09834,0.49807 0.280956,0.97338 0.485108,1.43636 0.209045,0.43511 0.497782,0.82478 0.802947,1.19639 0.14754,0.22826 0.402206,0.38256 0.532768,0.62171 -0.01045,0.64784 -1.200542,0.17716 -1.668611,0.0236 -0.271865,-0.0957 -0.540832,-0.20024 -0.811054,-0.3009 -0.405643,-0.15452 -0.803867,-0.32785 -1.202428,-0.49962 -0.441764,-0.20264 -0.886423,-0.39862 -1.329536,-0.59824 -0.470072,-0.21024 -0.964195,-0.36015 -1.462638,-0.48601 -0.498171,-0.16185 -2.33294,-0.13031 -0.151651,-0.11302 -0.376754,0.0176 -0.685239,0.17162 -0.949794,0.43186 -0.251198,0.28838 -0.400735,0.64196 -0.525692,0.99889 -0.124085,0.36219 -0.102839,0.74005 -0.06605,1.11414 0.03972,0.37998 0.156652,0.73826 0.330013,1.07658 0.234936,0.39405 0.584612,0.68652 0.948904,0.95504 0.371655,0.28739 0.801957,0.36079 1.256482,0.39151 0.733563,0.005 -0.518636,0.003 -0.777922,-2.7e-4 -0.07042,-7.9e-4 0.140798,-0.004 0.211137,-0.008 0.205883,-0.0102 0.410806,-0.0286 0.615747,-0.0501 0.383717,-0.0383 0.759438,-0.12494 1.132863,-0.21786 0.43221,-0.0988 0.835322,-0.28003 1.231787,-0.47347 0.227951,-0.11469 0.454916,-0.23115 0.680764,-0.34992 0,0 1.221785,0.13285 1.221785,0.13285 v 0 c -0.225604,0.12071 -0.45335,0.23688 -0.681206,0.35328 -0.396203,0.19943 -0.797132,0.39371 -1.230202,0.50018 -0.374885,0.0952 -0.75089,0.19111 -1.136232,0.23378 -0.823872,0.10333 -1.657471,0.0997 -2.486175,0.0616 -0.463246,-0.0463 -0.892713,-0.1631 -1.263883,-0.46019 -0.371155,-0.28479 -0.723739,-0.59766 -0.955011,-1.01158 -0.173548,-0.3541 -0.292246,-0.7276 -0.332185,-1.12182 -0.03781,-0.39123 -0.05702,-0.78721 0.06687,-1.16699 0.126317,-0.37317 0.280932,-0.74075 0.527801,-1.05196 0.259588,-0.28845 0.567579,-0.48371 0.962152,-0.5244 0.870728,-0.008 1.738779,-0.0835 2.587874,0.13833 0.499716,0.13476 0.995325,0.28912 1.46621,0.50642 0.442653,0.1999 0.88683,0.39636 1.329663,0.59585 0.399595,0.16997 0.797814,0.34404 1.205844,0.49311 0.270603,0.1 0.539327,0.20576 0.813602,0.2953 1.080487,0.34466 -0.985216,-0.41167 -0.80069,0.19997 -0.154239,-0.2166 -0.364173,-0.38999 -0.519422,-0.60629 -0.305909,-0.38297 -0.596072,-0.78259 -0.802624,-1.22943 -0.205621,-0.47311 -0.388628,-0.95905 -0.486556,-1.46723 -0.08003,-0.50059 -0.09817,-1.00432 0.05203,-1.49574 0.15086,-0.46147 0.371954,-0.8945 0.686279,-1.26787 0.278839,-0.32062 0.604583,-0.58779 0.962932,-0.81664 0.308703,-0.20179 0.631881,-0.38227 1.003607,-0.43263 0.731237,-0.0907 1.498254,-0.1039 2.205297,0.12064 0.41102,0.15692 0.781738,0.37517 1.083731,0.70146 0.349128,0.36582 0.65669,0.76305 0.782042,1.2639 0.117422,0.4956 0.175493,1.00161 0.170085,1.51157 -2.65e-4,0.48593 -0.02643,0.97182 -0.103979,1.45218 -0.07437,0.48797 -0.164486,0.97374 -0.289655,1.45155 -0.08964,0.31571 -0.192852,0.62727 -0.358704,0.91245 -0.110424,0.18087 -0.230219,0.35609 -0.351316,0.52994 0,0 -1.239012,-0.082 -1.239012,-0.082 z"
       inkscape:connector-curvature="0" />
    <path
       style="opacity:1;fill:#030303;fill-opacity:1;fill-rule:evenodd;stroke:none;stroke-width:0.72699994;stroke-linecap:round;stroke-linejoin:miter;stroke-miterlimit:4;stroke-dasharray:none;stroke-dashoffset:0;stroke-opacity:1"
       id="path1012"
       d="m 89.940313,257.25894 c -0.226222,0.0527 -0.450824,0.11252 -0.67541,0.17183 -0.279792,0.0782 -0.55966,0.15452 -0.831318,0.25801 -0.319598,0.13069 -0.620871,0.29873 -0.911995,0.48321 -0.396494,0.24966 -0.757346,0.54653 -1.103125,0.86126 -0.436247,0.38113 -0.754139,0.86039 -1.04036,1.35804 -0.250812,0.44181 -0.453845,0.90653 -0.632915,1.38115 -0.140044,0.3911 -0.248118,0.79217 -0.322601,1.20065 -0.06889,0.37586 -0.04183,0.72825 0.143147,1.0636 0.267481,0.38761 0.666695,0.62595 1.077146,0.83561 0.44341,0.21137 0.91086,0.36602 1.383159,0.49799 0.412512,0.11487 0.83656,0.17976 1.26292,0.21244 0.685173,0.01 -0.564086,0.005 -0.846,-0.002 -0.0585,-0.001 0.116943,-0.007 0.174837,-0.0159 0.177017,-0.0261 0.325755,-0.0882 0.48474,-0.1665 0.327509,-0.19609 0.581459,-0.48455 0.828882,-0.76994 0.261702,-0.30562 0.463901,-0.65521 0.654984,-1.00758 0.192502,-0.33938 0.325032,-0.70421 0.420555,-1.08116 0.08037,-0.38524 0.117737,-0.77711 0.127106,-1.17003 0.01331,-0.43096 -0.04692,-0.85796 -0.122283,-1.28088 0,0 1.229865,-0.0216 1.229865,-0.0216 v 0 c 0.07634,0.4311 0.138883,0.86625 0.125532,1.3055 -0.0099,0.40195 -0.04805,0.80255 -0.127915,1.19711 -0.09469,0.38714 -0.225529,0.7632 -0.421794,1.11183 -0.191897,0.36047 -0.395877,0.71808 -0.656585,1.03404 -0.250875,0.29669 -0.509312,0.593 -0.831257,0.81532 -0.684104,0.4003 -1.48114,0.29001 -2.259973,0.23346 -0.427127,-0.0437 -0.851577,-0.11382 -1.263962,-0.23612 -0.473202,-0.14086 -0.943078,-0.29886 -1.384348,-0.52304 -0.422396,-0.22856 -0.827889,-0.49266 -1.087085,-0.90977 -0.179898,-0.36556 -0.218102,-0.74278 -0.144447,-1.14479 0.07491,-0.416 0.184124,-0.82441 0.325774,-1.22288 0.181012,-0.48078 0.384325,-0.95221 0.636944,-1.40048 0.288058,-0.50789 0.604018,-1.00247 1.042964,-1.39559 0.344043,-0.32152 0.701543,-0.62759 1.098603,-0.88288 0.291383,-0.19173 0.592331,-0.36706 0.912609,-0.50686 0.269613,-0.11417 0.549097,-0.19474 0.831344,-0.27155 0.222163,-0.0661 0.449046,-0.11688 0.672508,-0.17809 0,0 1.229754,0.16628 1.229754,0.16628 z"
       inkscape:connector-curvature="0" />
    <path
       style="opacity:1;fill:#030303;fill-opacity:1;fill-rule:evenodd;stroke:none;stroke-width:0.72699994;stroke-linecap:round;stroke-linejoin:miter;stroke-miterlimit:4;stroke-dasharray:none;stroke-dashoffset:0;stroke-opacity:1"
       id="path1014"
       d="m 89.771257,257.05864 c 0.179443,-0.15634 0.351782,-0.32073 0.523701,-0.48527 0.207232,-0.21443 0.432996,-0.40821 0.667165,-0.59226 0.29287,-0.22684 0.606444,-0.42377 0.928976,-0.60506 0.41061,-0.22779 0.847392,-0.40243 1.280308,-0.58223 0.480497,-0.20348 0.975432,-0.36734 1.47564,-0.51428 0.950335,-0.30729 1.882388,-0.23556 2.878619,-0.22673 0.57432,0.0736 1.105156,0.29596 1.609836,0.56953 0.37507,0.19864 0.69059,0.46661 0.931148,0.81473 0.13322,0.22311 0.18925,0.47063 0.20828,0.72649 0.01,0.22938 -0.0621,0.44246 -0.16054,0.64576 -0.158708,0.2839 -0.394388,0.513 -0.639288,0.72257 -0.28999,0.23528 -0.63407,0.37638 -0.985451,0.49104 -0.35292,0.11147 -0.7176,0.169 -1.085001,0.20365 -0.80627,0.0487 -1.618276,0.0628 -2.423832,-0.004 -0.570055,-0.0657 -1.132009,-0.19193 -1.691081,-0.31907 -0.50926,-0.11034 -1.012841,-0.24165 -1.512777,-0.38808 0,0 1.214398,-0.15746 1.214398,-0.15746 v 0 c 0.500121,0.14263 1.003975,0.26993 1.512205,0.38062 0.559805,0.12352 1.122138,0.24998 1.694175,0.30021 0.435366,0.0268 1.382678,0.019 -0.574024,0.02 -0.550876,2.7e-4 1.116875,0.0269 0.56067,-0.0152 0.365268,-0.0283 0.728903,-0.0723 1.081355,-0.17763 0.346318,-0.10012 0.687141,-0.22685 0.979913,-0.44277 0.240104,-0.19267 0.4683,-0.4085 0.63193,-0.67169 0.0939,-0.18142 0.16726,-0.37069 0.15822,-0.57909 -0.0177,-0.23413 -0.0718,-0.4598 -0.20217,-0.65923 -0.24142,-0.32703 -0.558285,-0.57134 -0.919166,-0.75832 -0.503032,-0.25924 -1.031214,-0.46928 -1.60119,-0.51573 2.056842,-0.025 0.0303,-0.0296 -0.448882,0.19773 -0.498718,0.14283 -0.993034,0.30039 -1.47199,0.50114 -0.430472,0.17717 -0.864812,0.34915 -1.276078,0.56837 -0.320024,0.17625 -0.632261,0.36539 -0.923999,0.58624 -0.232211,0.18064 -0.461555,0.36502 -0.664398,0.57918 -0.169669,0.16734 -0.344112,0.33011 -0.519628,0.49112 0,0 -1.237044,-0.10468 -1.237044,-0.10468 z"
       inkscape:connector-curvature="0" />
    <path
       style="opacity:1;fill:#030303;fill-opacity:1;fill-rule:evenodd;stroke:none;stroke-width:0.72699994;stroke-linecap:round;stroke-linejoin:miter;stroke-miterlimit:4;stroke-dasharray:none;stroke-dashoffset:0;stroke-opacity:1"
       id="path1016"
       d="m 90.074176,258.30998 c 0.851263,-0.0974 1.695492,0.0197 2.539445,0.0995 0.705998,0.0625 1.409988,0.14553 2.112409,0.23965 0.667173,0.0724 1.321657,0.20039 1.96228,0.39878 0.575003,0.19469 1.109159,0.48063 1.61054,0.81962 0.420412,0.29351 0.738892,0.65286 0.934592,1.12585 0.14457,0.39375 0.17636,0.7979 0.0886,1.20601 -0.11153,0.41591 -0.38034,0.74211 -0.68942,1.0291 -0.40352,0.34947 -0.893592,0.55988 -1.390088,0.73924 -0.566711,0.19631 -1.162743,0.27836 -1.753447,0.36605 -0.938371,0.11768 -1.900533,0.17978 -2.840878,0.0543 -0.444752,-0.0889 -0.874483,-0.2349 -1.283656,-0.42906 -0.364455,-0.17422 -0.669226,-0.41899 -0.914288,-0.73796 -0.217385,-0.30633 -0.371277,-0.65059 -0.523542,-0.99221 -0.139091,-0.33086 -0.233458,-0.67521 -0.293314,-1.02839 -0.0514,-0.405 -0.03811,-0.8139 -0.03118,-1.22096 0,0 1.232168,0.002 1.232168,0.002 v 0 c -0.0066,0.39934 -0.02058,0.80072 0.03285,1.19776 0.06054,0.34283 0.154683,0.67721 0.292489,0.99765 0.149153,0.33255 0.30077,0.66806 0.521102,0.96085 0.248589,0.29699 0.554022,0.52118 0.90809,0.6809 0.407908,0.18048 0.833607,0.32237 1.27563,0.39098 0.56932,0.0552 0.307793,0.0211 -0.71021,0.0324 -0.675116,0.008 1.773361,-0.014 1.121129,-0.0826 0.587783,-0.0851 1.181838,-0.15946 1.748925,-0.3431 0.49026,-0.16514 0.975982,-0.36162 1.381488,-0.69125 0.301455,-0.26107 0.568227,-0.56233 0.683252,-0.95318 0.0902,-0.38192 0.05301,-0.76123 -0.08637,-1.12901 -0.197617,-0.4476 -0.520446,-0.78125 -0.925425,-1.05493 -0.500507,-0.32665 -1.03165,-0.60317 -1.603383,-0.78423 -0.640294,-0.18796 -1.294614,-0.3043 -1.95771,-0.37954 -0.702686,-0.0926 -1.407041,-0.17273 -2.113119,-0.23485 -0.563665,-0.0532 -2.256655,-0.0807 -0.01032,-0.0988 0.02932,-2.4e-4 -0.05859,-0.002 -0.08789,-0.004 0,0 -1.230783,-0.17707 -1.230783,-0.17707 z"
       inkscape:connector-curvature="0" />
  </g>
</svg>
