<?xml version="1.0" encoding="UTF-8" standalone="no"?>
<!-- Created with Inkscape (http://www.inkscape.org/) -->

<svg
   xmlns:dc="http://purl.org/dc/elements/1.1/"
   xmlns:cc="http://creativecommons.org/ns#"
   xmlns:rdf="http://www.w3.org/1999/02/22-rdf-syntax-ns#"
   xmlns:svg="http://www.w3.org/2000/svg"
   xmlns="http://www.w3.org/2000/svg"
   xmlns:sodipodi="http://sodipodi.sourceforge.net/DTD/sodipodi-0.dtd"
   xmlns:inkscape="http://www.inkscape.org/namespaces/inkscape"
   width="148mm"
   height="210mm"
   viewBox="0 0 148 210"
   version="1.1"
   id="svg8"
   inkscape:version="0.92.3 (2405546, 2018-03-11)"
   sodipodi:docname="4rd-birthday.svg">
  <defs
     id="defs2" />
  <sodipodi:namedview
     id="base"
     pagecolor="#ffffff"
     bordercolor="#666666"
     borderopacity="1.0"
     inkscape:pageopacity="0.0"
     inkscape:pageshadow="2"
     inkscape:zoom="0.84918651"
     inkscape:cx="279.68504"
     inkscape:cy="396.85039"
     inkscape:document-units="mm"
     inkscape:current-layer="layer1"
     showgrid="false"
     inkscape:window-width="1375"
     inkscape:window-height="876"
     inkscape:window-x="65"
     inkscape:window-y="24"
     inkscape:window-maximized="1"
     gridtolerance="1"
     objecttolerance="1"
     guidetolerance="1" />
  <metadata
     id="metadata5">
    <rdf:RDF>
      <cc:Work
         rdf:about="">
        <dc:format>image/svg+xml</dc:format>
        <dc:type
           rdf:resource="http://purl.org/dc/dcmitype/StillImage" />
        <dc:title />
      </cc:Work>
    </rdf:RDF>
  </metadata>
  <g
     inkscape:label="Layer 1"
     inkscape:groupmode="layer"
     id="layer1"
     transform="translate(0,-87)">
    <flowRoot
       xml:space="preserve"
       id="flowRoot936"
       style="font-style:normal;font-variant:normal;font-weight:normal;font-stretch:normal;font-size:25px;line-height:125%;font-family:'Vtks Rash';-inkscape-font-specification:'Vtks Rash';letter-spacing:0px;word-spacing:0px;fill:#000000;fill-opacity:1;stroke:none;stroke-width:1px;stroke-linecap:butt;stroke-linejoin:miter;stroke-opacity:1"><flowRegion
         id="flowRegion938"><rect
           id="rect940"
           width="583.87811"
           height="309.8559"
           x="-4.2157269"
           y="-89.493927" /></flowRegion><flowPara
         id="flowPara942" /></flowRoot>    <flowRoot
       xml:space="preserve"
       id="flowRoot903"
       style="font-style:normal;font-variant:normal;font-weight:normal;font-stretch:normal;font-size:25px;line-height:125%;font-family:'Vtks Rash';-inkscape-font-specification:'Vtks Rash';letter-spacing:0px;word-spacing:0px;fill:#000000;fill-opacity:1;stroke:none;stroke-width:1px;stroke-linecap:butt;stroke-linejoin:miter;stroke-opacity:1"><flowRegion
         id="flowRegion905"><rect
           id="rect907"
           width="11.775976"
           height="31.795135"
           x="202.54678"
           y="594.68677" /></flowRegion><flowPara
         id="flowPara909" /></flowRoot>    <flowRoot
       xml:space="preserve"
       id="flowRoot916"
       style="font-style:normal;font-variant:normal;font-weight:normal;font-stretch:normal;font-size:25px;line-height:125%;font-family:'Vtks Rash';-inkscape-font-specification:'Vtks Rash';letter-spacing:0px;word-spacing:0px;fill:#000000;fill-opacity:1;stroke:none;stroke-width:1px;stroke-linecap:butt;stroke-linejoin:miter;stroke-opacity:1"><flowRegion
         id="flowRegion918"><rect
           id="rect920"
           width="1.1229856"
           height="77.325577"
           x="164.5575"
           y="427.17969" /></flowRegion><flowPara
         id="flowPara922" /></flowRoot>    <text
       xml:space="preserve"
       style="font-style:normal;font-variant:normal;font-weight:normal;font-stretch:normal;font-size:6.61458302px;line-height:125%;font-family:'Vtks Rash';-inkscape-font-specification:'Vtks Rash';letter-spacing:0px;word-spacing:0px;fill:#000000;fill-opacity:1;stroke:none;stroke-width:0.26458332px;stroke-linecap:butt;stroke-linejoin:miter;stroke-opacity:1"
       x="32.715134"
       y="234.37389"
       id="text863"><tspan
         sodipodi:role="line"
         id="tspan861"
         x="32.715134"
         y="240.16165"
         style="stroke-width:0.26458332px" /></text>
    <flowRoot
       xml:space="preserve"
       id="flowRoot888"
       style="font-style:normal;font-variant:normal;font-weight:normal;font-stretch:normal;font-size:25px;line-height:125%;font-family:'Vtks Rash';-inkscape-font-specification:'Vtks Rash';letter-spacing:0px;word-spacing:0px;fill:#000000;fill-opacity:1;stroke:none;stroke-width:1px;stroke-linecap:butt;stroke-linejoin:miter;stroke-opacity:1"><flowRegion
         id="flowRegion890"><rect
           id="rect892"
           width="432.17831"
           height="679.47382"
           x="118.93736"
           y="55.347088" /></flowRegion><flowPara
         id="flowPara894" /></flowRoot>    <text
       xml:space="preserve"
       style="font-style:normal;font-variant:normal;font-weight:normal;font-stretch:normal;font-size:6.61458302px;line-height:125%;font-family:'Vtks Rash';-inkscape-font-specification:'Vtks Rash';letter-spacing:0px;word-spacing:0px;fill:#000000;fill-opacity:1;stroke:none;stroke-width:0.26458332px;stroke-linecap:butt;stroke-linejoin:miter;stroke-opacity:1"
       x="-41.127598"
       y="93.231453"
       id="text864"><tspan
         sodipodi:role="line"
         id="tspan862"
         x="0"
         y="0"
         style="font-style:normal;font-variant:normal;font-weight:normal;font-stretch:normal;font-size:50.79999924px;font-family:PooCorny;-inkscape-font-specification:PooCorny;stroke-width:0.26458332px"><tspan
           style="font-style:normal;font-variant:normal;font-weight:normal;font-stretch:normal;font-family:PooSmooth;-inkscape-font-specification:PooSmooth"
           id="tspan866" /></tspan></text>
    <path
       style="color:#000000;clip-rule:nonzero;display:inline;overflow:visible;visibility:visible;opacity:1;isolation:auto;mix-blend-mode:normal;color-interpolation:sRGB;color-interpolation-filters:linearRGB;solid-color:#000000;solid-opacity:1;fill:#000000;fill-opacity:1;fill-rule:evenodd;stroke:#000000;stroke-width:0.02645833;stroke-linecap:butt;stroke-linejoin:miter;stroke-miterlimit:4;stroke-dasharray:none;stroke-dashoffset:0;stroke-opacity:1;color-rendering:auto;image-rendering:auto;shape-rendering:auto;text-rendering:auto;enable-background:accumulate"
       d="m 39.298522,113.42356 -3.44795,45.51296 13.561941,0.68959 0.229865,-17.92935 15.400849,0.22987 0.459727,-9.88413 H 49.87224 v -7.58549 l 15.40085,0.45972 0.689591,-11.26331 z"
       id="path889"
       inkscape:connector-curvature="0" />
    <circle
       style="opacity:1;fill:#000000;fill-opacity:1;fill-rule:nonzero;stroke:#000000;stroke-width:0.92984819;stroke-linecap:round;stroke-linejoin:round;stroke-miterlimit:4;stroke-dasharray:none;stroke-dashoffset:0;stroke-opacity:1"
       id="path891"
       cx="92.414612"
       cy="173.15652"
       r="21.01758" />
    <circle
       style="opacity:1;fill:#fffdfd;fill-opacity:1;fill-rule:nonzero;stroke:#000000;stroke-width:0.92984819;stroke-linecap:round;stroke-linejoin:round;stroke-miterlimit:4;stroke-dasharray:none;stroke-dashoffset:0;stroke-opacity:1"
       id="path893"
       cx="92.295868"
       cy="172.3253"
       r="7.1246037" />
    <path
       style="color:#000000;clip-rule:nonzero;display:inline;overflow:visible;visibility:visible;opacity:1;isolation:auto;mix-blend-mode:normal;color-interpolation:sRGB;color-interpolation-filters:linearRGB;solid-color:#000000;solid-opacity:1;fill:#100a0a;fill-opacity:1;fill-rule:evenodd;stroke:#000000;stroke-width:0.02855186;stroke-linecap:butt;stroke-linejoin:miter;stroke-miterlimit:4;stroke-dasharray:none;stroke-dashoffset:0;stroke-opacity:1;color-rendering:auto;image-rendering:auto;shape-rendering:auto;text-rendering:auto;enable-background:accumulate"
       d="m 48.159817,190.50462 -13.14673,-0.24806 c -8.075961,58.04666 41.340762,55.78349 32.494749,1.24026 -0.119133,-0.73456 -10.666217,-0.49611 -10.666217,-0.49611 10.601374,27.45778 -23.770163,24.62375 -8.681802,-0.49609 z"
       id="path1611"
       inkscape:connector-curvature="0"
       sodipodi:nodetypes="ccscc" />
    <path
       style="color:#000000;clip-rule:nonzero;display:inline;overflow:visible;visibility:visible;opacity:1;isolation:auto;mix-blend-mode:normal;color-interpolation:sRGB;color-interpolation-filters:linearRGB;solid-color:#000000;solid-opacity:1;fill:#100a0a;fill-opacity:1;fill-rule:evenodd;stroke:#000000;stroke-width:0.02907998;stroke-linecap:butt;stroke-linejoin:miter;stroke-miterlimit:4;stroke-dasharray:none;stroke-dashoffset:0;stroke-opacity:1;color-rendering:auto;image-rendering:auto;shape-rendering:auto;text-rendering:auto;enable-background:accumulate"
       d="m 78.943171,228.13115 -4.042234,41.93819 12.126706,0.50528 -10e-7,-13.3899 10.863508,12.63198 14.65311,0.50529 -16.926869,-17.68478 c 18.594899,3.80608 28.504909,-31.28351 -16.67422,-24.50606 z"
       id="path1613"
       inkscape:connector-curvature="0"
       sodipodi:nodetypes="cccccccc" />
    <circle
       style="opacity:1;fill:#fffdfd;fill-opacity:1;fill-rule:nonzero;stroke:#000000;stroke-width:0.71659899;stroke-linecap:round;stroke-linejoin:round;stroke-miterlimit:4;stroke-dasharray:none;stroke-dashoffset:0;stroke-opacity:1"
       id="path893-3"
       cx="93.244278"
       cy="240.53905"
       r="5.4906635" />
    <circle
       style="opacity:1;fill:#000000;fill-opacity:1;fill-rule:evenodd;stroke:#000000;stroke-width:0.72699994;stroke-linecap:round;stroke-linejoin:miter;stroke-miterlimit:4;stroke-dasharray:none;stroke-dashoffset:0;stroke-opacity:1"
       id="path845"
       cx="51.253708"
       cy="254.15875"
       r="4.8293772" />
    <circle
       style="opacity:1;fill:#000000;fill-opacity:1;fill-rule:evenodd;stroke:#000000;stroke-width:0.727;stroke-linecap:round;stroke-linejoin:miter;stroke-miterlimit:4;stroke-dasharray:none;stroke-dashoffset:0;stroke-opacity:1"
       id="path845-3"
       cx="92.756149"
       cy="133.39072"
       r="4.8293772" />
    <path
       style="opacity:1;fill:#000000;fill-opacity:1;fill-rule:evenodd;stroke:#000000;stroke-width:0.727;stroke-linecap:round;stroke-linejoin:miter;stroke-miterlimit:4;stroke-dasharray:none;stroke-dashoffset:0;stroke-opacity:1"
       id="path847-6"
       d="m 91.393376,130.97009 c 0.29242,-0.20991 0.56734,-0.44117 0.83397,-0.68261 0.54616,-0.49241 1.0169,-1.05266 1.45258,-1.64276 0.57444,-0.8176 1.09249,-1.67384 1.57556,-2.54806 0.44796,-0.80857 0.81814,-1.65508 1.0939,-2.53682 0.1885,-0.69646 0.28773,-1.41287 0.39576,-2.1251 0.0934,-0.57129 0.14905,-1.14766 0.17285,-1.72582 0.004,-0.51617 -0.0788,-1.02643 -0.20802,-1.5245 -0.14921,-0.50615 -0.4585,-0.91691 -0.80865,-1.30013 -0.37398,-0.37881 -0.8098,-0.67425 -1.2869,-0.90517 -0.53849,-0.23853 -1.11973,-0.3268 -1.70285,-0.36111 0.29164,0.003 0.58409,-0.0132 0.87492,0.009 0.11447,0.009 -0.22912,0.0165 -0.34295,0.0314 -0.49686,0.0649 -0.95014,0.22166 -1.41005,0.41356 -0.69189,0.31631 -1.29342,0.78048 -1.84355,1.29933 -0.50259,0.50394 -0.92246,1.08148 -1.31135,1.67532 -0.38862,0.58511 -0.5901,1.24387 -0.71748,1.92709 -0.1189,0.75609 -0.123,1.52314 -0.11851,2.28652 2.6e-4,0.70833 0.096,1.40952 0.21071,2.10674 0.11733,0.62682 0.24296,1.25252 0.41563,1.86665 0.16791,0.5961 0.45567,1.14651 0.73405,1.69637 0.20866,0.39267 0.41678,0.78533 0.60138,1.18999 0.0647,0.152 0.14079,0.30035 0.0257,0.44103 -0.60287,0.13742 -1.2543,0.0241 -1.8698,-0.0312 -0.0491,-0.001 -0.0982,-0.002 -0.14735,-0.003 0.0921,-0.001 -0.43812,-0.003 -0.32859,-0.003 1.95407,0.007 1.06836,5.3e-4 0.6304,0.021 -0.44771,0.0129 -0.89198,0.0714 -1.33187,0.15285 -0.47616,0.0988 -0.942,0.23932 -1.40592,0.38364 -0.50102,0.15073 -0.99788,0.3143 -1.48894,0.49482 -0.53042,0.20002 -1.04353,0.44161 -1.54745,0.70033 -0.54489,0.27759 -1.00155,0.67691 -1.4257,1.11092 -0.40291,0.41597 -0.72671,0.89235 -0.99381,1.40392 -0.26858,0.50088 -0.30909,1.03102 -0.24387,1.58423 0.0924,0.58287 0.43843,1.00989 0.85468,1.40131 0.45021,0.40948 0.97199,0.70078 1.53714,0.91583 0.46791,0.26647 2.58947,0.26016 0.49013,0.21387 0.5746,-0.0665 1.13359,-0.22273 1.68577,-0.3897 0.55504,-0.17528 1.09799,-0.38727 1.63042,-0.62188 0.5129,-0.2273 0.97607,-0.54594 1.42203,-0.88258 0.37714,-0.29217 0.73896,-0.60316 1.10999,-0.90292 0.21447,-0.16592 0.42847,-0.33713 0.68319,-0.43612 1.0222,-0.25677 1.48284,-0.18688 1.4298,0.57948 -0.0474,0.40667 -0.11418,0.81086 -0.16742,1.21688 -0.0698,0.54999 -0.12076,1.10209 -0.16583,1.65458 -0.0561,0.73041 -0.0943,1.46203 -0.13151,2.1936 -0.0353,0.75239 -0.0348,1.50477 -0.006,2.25718 0.0159,0.65298 0.0969,1.28966 0.33357,1.89972 0.24985,0.58614 0.6838,1.03841 1.16797,1.43724 0.46662,0.36313 0.981,0.65405 1.52856,0.87416 0.44912,0.18875 0.91678,0.29843 1.40184,0.32579 0.0703,-5.3e-4 0.28122,-0.001 0.21092,-0.002 -1.91595,-0.0244 -0.80851,0.0196 -0.27939,-0.16473 0.35643,-0.14248 0.63968,-0.40146 0.90482,-0.67109 0.24698,-0.27639 0.46209,-0.58004 0.64955,-0.89938 0.17587,-0.3147 0.29346,-0.6573 0.39329,-1.00243 0.11007,-0.33871 0.14521,-0.68719 0.15319,-1.04091 0.002,-0.39359 -0.0678,-0.78064 -0.14628,-1.16456 -0.0906,-0.45802 -0.25927,-0.89161 -0.44645,-1.31728 -0.2156,-0.50594 -0.47061,-0.99336 -0.72458,-1.4807 -0.2707,-0.51336 -0.55168,-1.02121 -0.81598,-1.53791 -0.2407,-0.49485 -0.49014,-0.98539 -0.72967,-1.48081 -0.089,-0.25051 -0.3114,-0.51211 -0.27444,-0.79195 0.31906,-0.53956 1.25179,-0.19331 1.71221,0.10825 0.25363,0.16661 0.4718,0.37915 0.69003,0.5884 0.26898,0.25491 0.54095,0.50586 0.82632,0.74242 0.39451,0.30824 0.80914,0.58909 1.22287,0.87054 0.41581,0.27656 0.82721,0.55974 1.25893,0.81114 0.47309,0.27403 0.982164,0.4753 1.493534,0.66458 0.56562,0.20575 1.14524,0.36936 1.7261,0.52556 0.55466,0.15287 1.12213,0.22231 1.69587,0.23182 -1.86694,0.0206 -0.83738,0.0199 -0.42574,-0.0768 0.23903,-0.0561 0.46145,-0.15243 0.6857,-0.24957 0.38122,-0.17884 0.73752,-0.40529 1.0556,-0.68078 0.26069,-0.23176 0.40017,-0.5347 0.48557,-0.86587 0.0715,-0.32454 0.0102,-0.64843 -0.0804,-0.96185 -0.11724,-0.34469 -0.36857,-0.60106 -0.63374,-0.83813 -0.33293,-0.26226 -0.69093,-0.49106 -1.05264,-0.71118 -0.42328,-0.2623 -0.90147,-0.38843 -1.3824,-0.49448 -0.58717,-0.13065 -1.18514,-0.19927 -1.78419,-0.24449 -0.37486,-0.0457 -2.669354,-0.0806 -0.66509,-0.0576 0.13293,0.002 -0.26588,0.002 -0.39881,0.003 -1.156874,0.004 -2.324564,0.10577 -3.459084,-0.15613 -0.55512,-0.15222 -1.06001,-0.41905 -1.52303,-0.75583 -0.28403,-0.23185 -0.53427,-0.49976 -0.59523,-0.87077 -0.0169,-0.25208 0.091,-0.44733 0.2695,-0.61444 0.22985,-0.16452 0.50755,-0.23954 0.77602,-0.31571 0.3542,-0.10303 0.71723,-0.16067 1.08388,-0.19368 0.49769,-0.0301 0.99641,-0.039 1.4948,-0.0501 0.55673,-0.0119 1.11352,-0.0212 1.6703,-0.03 0.627214,-0.006 1.253804,-0.0382 1.879534,-0.0799 0.64737,-0.0476 1.29137,-0.13095 1.93309,-0.22719 0.61164,-0.0691 1.17228,-0.28913 1.71207,-0.57312 0.45495,-0.23988 0.86538,-0.54329 1.22038,-0.91433 0.26291,-0.28792 0.42827,-0.63201 0.53593,-1.00272 0.0769,-0.3187 0.10812,-0.64331 0.0558,-0.96749 -0.0714,-0.35941 -0.31519,-0.60357 -0.59175,-0.82221 -0.44139,-0.30554 -0.939,-0.51411 -1.42948,-0.72612 -0.48775,-0.21836 -0.99891,-0.36953 -1.51821,-0.49006 -0.47285,-0.11198 -0.9558,-0.17065 -1.43907,-0.21398 0.66945,-0.0612 -1.40074,-0.0357 -0.72244,-0.0288 1.81137,0.0184 0.9693,-0.008 0.51721,0.0644 -0.43489,0.0774 -0.83958,0.25304 -1.23635,0.44026 -0.41572,0.19242 -0.789584,0.45954 -1.159504,0.72668 -0.37292,0.26987 -0.73363,0.55585 -1.10286,0.8306 -0.45364,0.33532 -0.93861,0.62464 -1.41556,0.92484 -0.4449,0.26661 -0.87052,0.56244 -1.29188,0.86432 0,0 -1.21856,-0.11573 -1.21856,-0.11573 v 0 c 0.42076,-0.30426 0.84374,-0.60607 1.29031,-0.87192 0.47352,-0.30027 0.95816,-0.58466 1.41108,-0.9161 0.3704,-0.27342 0.7298,-0.56121 1.1025,-0.83159 0.37075,-0.27293 0.74613,-0.54649 1.16091,-0.7494 0.3996,-0.19286 0.804034,-0.38166 1.241214,-0.47328 0.86849,-0.16713 1.76272,-0.1056 2.64058,-0.0452 0.48424,0.0481 0.96744,0.11441 1.44051,0.2312 0.52008,0.12783 1.03011,0.29107 1.51907,0.51173 0.49624,0.21752 1.00036,0.43357 1.43704,0.75981 0.28831,0.24734 0.53192,0.52526 0.60091,0.91178 0.05,0.34234 0.0214,0.68385 -0.058,1.02053 -0.10873,0.38911 -0.27389,0.75329 -0.54196,1.06107 -0.35451,0.38622 -0.76585,0.70509 -1.22882,0.95368 -0.54043,0.29588 -1.09963,0.54034 -1.71841,0.61438 -0.64238,0.10078 -1.2878,0.18373 -1.93596,0.2372 -0.62487,0.0434 -1.2506,0.0791 -1.87707,0.0867 -0.55639,0.009 -1.112784,0.0179 -1.669134,0.0295 -0.49674,0.0107 -0.99362,0.0206 -1.48996,0.044 -0.36404,0.023 -0.72477,0.0725 -1.07688,0.17085 -0.26139,0.0692 -0.52496,0.14076 -0.76719,0.26366 -0.16703,0.12095 -0.27892,0.26816 -0.26581,0.48461 0.0625,0.33645 0.32457,0.57017 0.5818,0.77515 0.46081,0.32099 0.96224,0.57294 1.51072,0.70731 0.31413,0.0642 0.35995,0.0825 0.6863,0.11135 0.1252,0.0111 0.50194,0.013 0.37649,0.0208 -1.79543,0.1114 -0.3885,-0.0514 -0.0201,-6e-5 1.15949,-0.0137 2.321044,-0.0269 3.478104,0.0619 0.60163,0.0515 1.202,0.12408 1.79092,0.26143 0.48675,0.11542 0.96594,0.26092 1.39093,0.53387 0.3642,0.22627 0.7281,0.4575 1.05636,0.7345 0.27395,0.25787 0.52483,0.53927 0.63914,0.90624 0.0921,0.33502 0.15332,0.68021 0.0809,1.02602 -0.0856,0.35254 -0.22489,0.68323 -0.49167,0.93924 -0.31659,0.29154 -0.67728,0.52653 -1.06239,0.71874 -0.89431,0.40508 -1.66157,0.47387 -2.69497,0.37348 -0.57494,-0.022 -1.14308,-0.10402 -1.69781,-0.26097 -0.58205,-0.15915 -1.16271,-0.32608 -1.728574,-0.5368 -0.51415,-0.19472 -1.02477,-0.4037 -1.49848,-0.68566 -0.42982,-0.25736 -0.84343,-0.54014 -1.25934,-0.8192 -0.41558,-0.28475 -0.83354,-0.5671 -1.22719,-0.88207 -0.28561,-0.24011 -0.55896,-0.49347 -0.82973,-0.75012 -0.21641,-0.20396 -0.43569,-0.40813 -0.69143,-0.5627 -0.15088,-0.0879 -0.34395,-0.13441 -0.28517,-0.13738 1.65618,-0.0837 1.39224,0.19498 1.04755,-0.0707 5.3e-4,0.24693 0.17057,0.48195 0.25999,0.71087 0.23784,0.49483 0.48521,0.98501 0.72702,1.4779 0.26528,0.51591 0.54547,1.0239 0.81584,1.53716 0.25492,0.49004 0.51076,0.98014 0.72704,1.48889 0.18913,0.43415 0.35869,0.87674 0.45068,1.34313 0.0802,0.39296 0.14956,0.78935 0.14791,1.19204 -0.008,0.36408 -0.0406,0.72372 -0.15326,1.07264 -0.10042,0.35471 -0.21948,0.70683 -0.39463,1.03242 -0.18629,0.33035 -0.40725,0.64011 -0.65246,0.92949 -0.2676,0.28302 -0.55377,0.55639 -0.90948,0.72576 -0.7549,0.30311 -1.56458,0.24621 -2.37378,0.20084 -0.48594,-0.0463 -0.95419,-0.17213 -1.40334,-0.36516 -0.54759,-0.23599 -1.06428,-0.53672 -1.52963,-0.91156 -0.48916,-0.41941 -0.92392,-0.89448 -1.1722,-1.49938 -0.23282,-0.62469 -0.31662,-1.27389 -0.3308,-1.9396 -0.028,-0.75604 -0.0279,-1.51196 0.007,-2.26794 0.0364,-0.73269 0.0747,-1.46537 0.1265,-2.19716 0.0427,-0.55456 0.0929,-1.10857 0.1609,-1.66067 0.0512,-0.40348 0.11571,-0.80526 0.16071,-1.20939 0.006,-0.0866 0.0153,-0.15741 0.003,-0.24309 -0.007,-0.0491 -0.11048,-0.13264 -0.061,-0.13577 0.9882,-0.0625 1.55015,0.0781 1.09431,-0.0312 -0.26622,0.0425 -0.47115,0.23561 -0.68531,0.38506 -0.37427,0.29897 -0.73964,0.60856 -1.11554,0.90548 -0.44693,0.34486 -0.91162,0.67277 -1.42578,0.91079 -0.53198,0.24091 -1.07661,0.45441 -1.63152,0.63675 -0.55388,0.17358 -1.11539,0.33037 -1.69045,0.41594 -1.01343,0.0187 -1.96818,0.12654 -2.92012,-0.2497 -0.56737,-0.23231 -1.09152,-0.54157 -1.5414,-0.96325 -0.42569,-0.41805 -0.769754,-0.87873 -0.860572,-1.48582 -0.06465,-0.57567 -0.02756,-1.13264 0.245312,-1.65685 0.268,-0.52306 0.59072,-1.01243 0.99802,-1.43936 0.42481,-0.44516 0.88086,-0.85907 1.42798,-1.15071 0.50417,-0.26366 1.01791,-0.50914 1.54864,-0.71521 0.48988,-0.18479 0.98608,-0.35165 1.48775,-0.50165 0.4651,-0.14563 0.93086,-0.29047 1.40684,-0.39722 0.43905,-0.0895 0.88399,-0.1549 1.33236,-0.17064 0.76157,-0.0385 1.52561,-0.0487 2.28723,-0.0103 0.12647,0.0117 0.25293,0.0254 0.37958,0.0351 0.0352,0.003 0.14094,0.006 0.10565,0.007 -1.09473,0.0136 -1.51713,-0.0366 -1.07208,0.0136 0.13799,0.11571 -0.0204,-0.18644 -0.0282,-0.23027 -0.1792,-0.40361 -0.38517,-0.79388 -0.58978,-1.18505 -0.28014,-0.55746 -0.56817,-1.11604 -0.73515,-1.72033 -0.17059,-0.61903 -0.29736,-1.2487 -0.41308,-1.88011 -0.11427,-0.70366 -0.21017,-1.41124 -0.20901,-2.12589 -0.004,-0.77095 0.002,-1.5453 0.11849,-2.30931 0.12586,-0.69876 0.32559,-1.37437 0.71755,-1.9755 0.39017,-0.6027 0.81369,-1.18727 1.31512,-1.70337 0.55049,-0.53247 1.1553,-1.0076 1.84846,-1.34275 1.08236,-0.4753 2.09312,-0.60305 3.30119,-0.49457 0.58905,0.0494 1.17508,0.14963 1.71256,0.40854 0.47856,0.2485 0.91887,0.55736 1.29115,0.95085 0.35537,0.40175 0.66386,0.83553 0.81235,1.35918 0.12899,0.51032 0.21275,1.03238 0.20739,1.5604 -0.0244,0.58272 -0.0818,1.16366 -0.17679,1.73931 -0.11085,0.71829 -0.21313,1.44062 -0.40282,2.14335 -0.27748,0.88986 -0.64931,1.74459 -1.10023,2.56099 -0.4828,0.87893 -1.00382,1.73771 -1.57298,2.56364 -0.43152,0.59828 -0.89722,1.16745 -1.44224,1.66752 -0.26042,0.24397 -0.52717,0.48433 -0.81913,0.69003 0,0 -1.23839,-0.10877 -1.23839,-0.10877 z"
       inkscape:connector-curvature="0" />
    <path
       style="opacity:1;fill:#000000;fill-opacity:1;fill-rule:evenodd;stroke:#000000;stroke-width:0.72699994;stroke-linecap:round;stroke-linejoin:miter;stroke-miterlimit:4;stroke-dasharray:none;stroke-dashoffset:0;stroke-opacity:1"
       id="path867"
       d="m 51.765914,252.34829 c 0.134898,-0.20249 0.242411,-0.42204 0.358703,-0.63555 0.150307,-0.27681 0.276633,-0.56535 0.393838,-0.85743 0.162613,-0.44043 0.289541,-0.89255 0.409731,-1.34602 0.131662,-0.5088 0.239199,-1.02344 0.344032,-1.53831 0.113438,-0.52324 0.183841,-1.05389 0.230482,-1.58683 0.04809,-0.58229 0.06947,-1.16587 0.06437,-1.75 -0.0019,-0.61677 -0.107543,-1.21878 -0.277397,-1.80931 -0.217858,-0.65692 -0.564833,-1.25612 -0.934617,-1.83698 -0.321951,-0.52314 -0.709152,-0.97135 -1.239642,-1.28365 -0.470069,-0.34582 -2.641671,-0.31272 -0.587899,-0.29525 -0.610624,0.004 -1.208712,0.11601 -1.79071,0.29337 -0.521166,0.15538 -0.975453,0.40301 -1.344232,0.80263 -0.369088,0.45604 -0.536731,1.0128 -0.673634,1.57255 -0.158869,0.66647 -0.169304,1.348 -0.131511,2.02797 0.08502,0.85896 0.313052,1.6945 0.56022,2.51866 0.260009,0.83102 0.563822,1.64734 0.908479,2.44676 0.302249,0.68937 0.629912,1.36724 1.003178,2.02097 0.367573,0.59169 0.787517,1.1493 1.211805,1.7011 0.253926,0.30685 0.489014,0.63179 0.768273,0.91684 0.363855,0.55071 -0.858252,0.29784 -1.334587,0.19715 -0.197816,-0.0558 -0.389419,-0.12991 -0.585999,-0.18984 -0.249296,-0.0953 -0.503907,-0.17555 -0.7571,-0.25967 -0.294039,-0.10223 -0.588312,-0.20538 -0.878557,-0.31812 -0.306882,-0.11585 -0.611627,-0.23716 -0.919035,-0.35164 -0.39474,-0.15379 -0.802392,-0.26425 -1.214097,-0.36138 -0.647488,-0.13288 -1.302908,-0.22179 -1.955964,-0.32219 -0.7464,-0.12857 -1.497613,-0.21002 -2.252734,-0.26233 -0.367622,0.0225 -1.752547,-0.11352 0.04469,-0.0183 0.127328,0.007 -0.254921,0.009 -0.382069,0.0187 -0.344414,0.026 -0.392695,0.0415 -0.729221,0.0971 -0.635077,0.12159 -1.22741,0.37854 -1.781776,0.70478 -0.490998,0.29286 -0.720272,0.72941 -0.839308,1.26918 -0.06796,0.50157 0.04413,0.96315 0.286057,1.39961 0.282188,0.44422 0.706374,0.74682 1.137811,1.03162 0.555046,0.35447 1.157904,0.62454 1.758056,0.89204 0.624419,0.27828 1.286497,0.44703 1.957676,0.5639 0.408797,-0.0409 1.580232,0.21987 -0.247288,0.01 -0.106918,-0.0123 0.213532,-0.0275 0.319704,-0.0451 0.25077,-0.0416 0.376635,-0.0745 0.624136,-0.13123 0.577895,-0.14498 1.142273,-0.33742 1.697673,-0.55182 0.514945,-0.20183 1.018611,-0.43027 1.519047,-0.6653 0.340085,-0.16874 0.680371,-0.33785 1.011941,-0.52292 0.624811,-0.36696 0.47488,-0.19775 1.57992,-0.007 -0.126617,0.23092 -0.313799,0.41985 -0.487802,0.61489 -0.283541,0.29499 -0.564885,0.59156 -0.833242,0.90052 -0.342283,0.39812 -0.664432,0.81296 -0.987549,1.22662 -0.347588,0.42459 -0.656061,0.87684 -0.934122,1.34931 -0.280503,0.49581 -0.523362,1.01198 -0.742347,1.53754 -0.218389,0.49946 -0.335354,1.02821 -0.402394,1.5666 -0.06452,0.53882 -0.02439,1.07667 0.0567,1.61063 0.08244,0.5016 0.210923,0.99145 0.416542,1.45648 0.214434,0.45802 0.574611,0.79588 0.964951,1.10334 0.426974,0.32143 0.89785,0.57837 1.375302,0.81582 0.04166,0.11498 0.76881,0.15855 0.713745,0.15658 -1.615424,-0.0577 -0.944007,0.001 -0.403765,-0.19373 0.565094,-0.21197 1.078077,-0.52014 1.5479,-0.89537 0.501959,-0.4246 0.857681,-0.97031 1.152977,-1.55026 0.388925,-0.84487 0.416317,-1.77663 0.438153,-2.6896 1.61e-4,-1.02285 -0.03996,-2.0452 -0.07812,-3.06719 -0.0099,-0.60925 -0.0885,-1.22261 -0.01606,-1.8304 0.112292,-0.64283 1.083308,-0.58782 1.541574,-0.15242 0.139242,0.12982 0.224414,0.29801 0.312333,0.46378 0.158924,0.30634 0.307644,0.61793 0.468124,0.92346 0.210646,0.41409 0.462283,0.80467 0.707769,1.19841 0.283765,0.45947 0.559948,0.92388 0.855779,1.37575 0.28666,0.4328 0.570743,0.86779 0.872053,1.29062 0.298889,0.42878 0.630629,0.83061 0.98448,1.21467 0.380376,0.40065 0.793613,0.76959 1.246601,1.08589 0.20512,0.13233 0.420549,0.23409 0.6635,0.27048 0.07152,0.0107 0.288637,0.0159 0.216321,0.0165 -1.319641,0.0113 -1.291235,0.0155 -0.803608,-0.0278 0.382704,-0.0483 0.734912,-0.19754 1.068977,-0.38325 0.329671,-0.1865 0.597332,-0.44822 0.842373,-0.73275 0.269652,-0.31106 0.391019,-0.69411 0.486725,-1.08591 0.09225,-0.40602 0.100525,-0.82039 0.04269,-1.2311 -0.0802,-0.43063 -0.288047,-0.8118 -0.525619,-1.17356 -0.320164,-0.45872 -0.736849,-0.83796 -1.151467,-1.20914 -0.483959,-0.41603 -1.011266,-0.77635 -1.536446,-1.13732 -0.483105,-0.33833 -0.961913,-0.6825 -1.433925,-1.03615 -0.355864,-0.26646 -0.703773,-0.54911 -1.103495,-0.74779 -0.412057,-0.15382 -1.473856,-0.16404 0.946547,-0.0475 0.04973,0.002 0.06507,0.0761 0.103704,0.10751 0.246655,0.1961 0.527682,0.34301 0.801497,0.49684 0.365804,0.19652 0.74336,0.37045 1.125698,0.53216 0.42096,0.16628 0.862066,0.27176 1.306709,0.35087 0.490569,0.13561 2.267765,0.13112 0.131511,0.11807 0.493204,-0.0136 0.944221,-0.21404 1.37542,-0.43606 0.511636,-0.28858 0.934268,-0.69903 1.341343,-1.11625 0.424833,-0.43732 0.772107,-0.93934 1.069075,-1.46974 0.320913,-0.58104 0.513215,-1.21225 0.634645,-1.86137 0.120481,-0.63926 0.09853,-1.27449 -0.03144,-1.90798 -0.133271,-0.54406 -0.367903,-1.05132 -0.662204,-1.52528 -0.274847,-0.44998 -0.672307,-0.7779 -1.118421,-1.04605 -0.453125,-0.26303 -0.947642,-0.43666 -1.442323,-0.6021 -0.457694,-0.14488 -0.927425,-0.24095 -1.404736,-0.28812 -0.41579,-1.7e-4 -1.423533,-0.0637 0.455604,-0.002 0.08746,0.003 -0.174823,0.008 -0.262112,0.0146 -0.247107,0.0174 -0.281051,0.0247 -0.527526,0.0544 -0.58108,0.0604 -1.128525,0.23906 -1.655948,0.48268 -0.500885,0.25369 -0.987954,0.53545 -1.460796,0.8381 -0.292486,0.19081 -0.564814,0.40957 -0.833607,0.63181 0,0 -1.223721,-0.10738 -1.223721,-0.10738 v 0 c 0.269316,-0.22699 0.542647,-0.45004 0.835411,-0.64661 0.47304,-0.30933 0.964253,-0.59094 1.464527,-0.85376 0.526177,-0.25755 1.072954,-0.4539 1.658752,-0.52139 0.915596,-0.12545 1.844884,-0.12912 2.766502,-0.0696 0.478255,0.0597 0.949608,0.16137 1.407252,0.31447 0.49769,0.1707 0.992958,0.35576 1.444549,0.6303 0.449646,0.28932 0.847045,0.63774 1.122989,1.10309 0.293801,0.48929 0.52958,1.0104 0.661072,1.56818 0.128741,0.64918 0.150575,1.30033 0.02873,1.95468 -0.120369,0.66191 -0.311946,1.30624 -0.633917,1.90086 -0.295373,0.54162 -0.643446,1.0544 -1.070531,1.5021 -0.4093,0.42624 -0.833258,0.84602 -1.341491,1.15483 -0.430299,0.23583 -0.885557,0.45102 -1.380939,0.494 -0.867241,5.3e-4 -1.71667,0.0408 -2.566453,-0.13893 -0.446625,-0.089 -0.890252,-0.19912 -1.310775,-0.37743 -0.383638,-0.16633 -0.763617,-0.34259 -1.12975,-0.54499 -0.281765,-0.15816 -0.573847,-0.31194 -0.810178,-0.53555 -0.460856,-0.62621 0.97894,-0.54072 1.413264,-0.28531 0.390057,0.21956 0.740704,0.49872 1.09737,0.76761 0.47117,0.35213 0.949415,0.69452 1.431457,1.03161 0.5271,0.36468 1.055542,0.73016 1.538501,1.15305 0.419537,0.37999 0.839494,0.76932 1.158145,1.24108 0.242139,0.37931 0.45107,0.77901 0.529693,1.2274 0.05685,0.42614 0.05009,0.85554 -0.04338,1.27699 -0.09695,0.40844 -0.216715,0.8124 -0.488299,1.14323 -0.246126,0.29674 -0.512289,0.57439 -0.845412,0.7753 -0.334894,0.20026 -0.688949,0.36481 -1.076505,0.43275 -0.875588,0.12853 -1.774267,0.17977 -2.517955,-0.32128 -0.450355,-0.33002 -0.868011,-0.70223 -1.24837,-1.1114 -0.354442,-0.38946 -0.686017,-0.79725 -0.986851,-1.22992 -0.299575,-0.4256 -0.585552,-0.86075 -0.871628,-1.29548 -0.293737,-0.45396 -0.570936,-0.91838 -0.855673,-1.378 -0.248446,-0.39633 -0.501515,-0.79046 -0.71419,-1.20771 -0.158522,-0.30632 -0.308435,-0.61712 -0.471633,-0.92102 -0.08611,-0.15379 -0.174543,-0.30579 -0.312052,-0.42017 -0.366453,-0.29435 -0.06269,-0.0265 1.077651,-0.094 0.01471,-7.9e-4 -0.02175,-0.0253 -0.03649,-0.025 -0.06787,0.001 -0.09757,0.14901 -0.111963,0.18276 -0.09189,0.59852 -0.0065,1.2078 -0.0037,1.80946 0.03389,1.02443 0.07022,2.0491 0.07251,3.0742 -0.01982,0.92975 -0.04337,1.87864 -0.427263,2.74361 -0.294129,0.596 -0.649875,1.15789 -1.152922,1.60206 -0.468519,0.38959 -0.980993,0.71212 -1.551239,0.93421 -0.863906,0.35016 -1.892985,0.41759 -2.748875,0.0251 -0.479052,-0.24522 -0.95141,-0.50954 -1.376685,-0.84158 -0.39723,-0.32569 -0.758047,-0.68592 -0.971135,-1.16265 -0.20257,-0.477 -0.332097,-0.97691 -0.41503,-1.48845 -0.08089,-0.54515 -0.121902,-1.09412 -0.05696,-1.64402 0.06725,-0.54911 0.182962,-1.08958 0.403862,-1.59972 0.218885,-0.53113 0.464259,-1.05177 0.743461,-1.55405 0.276349,-0.47873 0.583234,-0.93775 0.933934,-1.36584 0.322956,-0.41538 0.646393,-0.83078 0.98619,-1.2326 0.264662,-0.31129 0.541358,-0.61149 0.827603,-0.90307 0.166772,-0.18793 0.343953,-0.36899 0.482058,-0.5799 1.880891,0.034 1.474173,-0.14513 0.888097,0.19151 -0.332343,0.19211 -0.67964,0.35676 -1.021257,0.53145 -0.501885,0.23633 -1.00579,0.46863 -1.521653,0.67323 -0.556413,0.22063 -1.122984,0.41556 -1.701969,0.56872 -1.021983,0.248 -2.075699,0.31523 -3.122301,0.17284 -0.672716,-0.12799 -1.335076,-0.30767 -1.959861,-0.59337 -0.60371,-0.27225 -1.209953,-0.54742 -1.764879,-0.91211 -0.44092,-0.29984 -0.868281,-0.62402 -1.144876,-1.0912 -0.242734,-0.46679 -0.355423,-0.95775 -0.285959,-1.4863 0.120018,-0.56594 0.341164,-1.04616 0.847614,-1.36883 0.554312,-0.34289 1.152173,-0.61032 1.791845,-0.7491 1.148009,-0.21275 2.32006,-0.167 3.482438,-0.10951 0.756126,0.056 1.507845,0.14564 2.2557,0.27187 0.656497,0.10077 1.315926,0.18867 1.965053,0.33133 0.414345,0.10192 0.823838,0.21992 1.221583,0.37579 0.306787,0.11688 0.613199,0.23468 0.919853,0.35189 0.291407,0.10825 0.583476,0.2152 0.878565,0.31299 0.253381,0.0848 0.507254,0.168 0.759095,0.25729 0.194038,0.0629 0.385662,0.13657 0.586608,0.17505 0.47857,0.0801 -0.196853,-0.038 -1.08045,0.045 -0.04362,0.004 0.06359,0.17102 -0.05058,0.0216 -0.263191,-0.29987 -0.505372,-0.61721 -0.753295,-0.9296 -0.423688,-0.55764 -0.846368,-1.11873 -1.210238,-1.71789 -0.371743,-0.65877 -0.699318,-1.34084 -1.000422,-2.0347 -0.342802,-0.80461 -0.646009,-1.6255 -0.906116,-2.46073 -0.249065,-0.8337 -0.478671,-1.67858 -0.565689,-2.54706 -0.04039,-0.69184 -0.03155,-1.38515 0.127066,-2.06402 0.13853,-0.5777 0.307123,-1.15233 0.673306,-1.63239 0.363961,-0.42755 0.814433,-0.70223 1.35242,-0.86847 0.582552,-0.1901 1.182431,-0.31658 1.797762,-0.32775 1.025224,-0.003 2.081901,-0.13526 3.018086,0.35995 0.524817,0.34069 0.915596,0.8057 1.240568,1.33926 0.371192,0.59255 0.719833,1.2034 0.937096,1.87175 0.171037,0.60142 0.277514,1.21475 0.279638,1.84224 0.0059,0.58802 -0.01603,1.1755 -0.06335,1.76173 -0.04584,0.53762 -0.11444,1.07318 -0.229074,1.60093 -0.105198,0.51711 -0.213741,1.03384 -0.343961,1.54533 -0.120173,0.45785 -0.247475,0.91404 -0.405048,1.3607 -0.115403,0.29745 -0.241808,0.5906 -0.391969,0.8724 -0.116962,0.21729 -0.229005,0.43774 -0.354616,0.64998 0,0 -1.239086,-0.0758 -1.239086,-0.0758 z"
       inkscape:connector-curvature="0" />
    <circle
       style="opacity:1;fill:#000000;fill-opacity:1;fill-rule:evenodd;stroke:#000000;stroke-width:0.727;stroke-linecap:round;stroke-linejoin:miter;stroke-miterlimit:4;stroke-dasharray:none;stroke-dashoffset:0;stroke-opacity:1"
       id="path845-7"
       cx="91.290802"
       cy="210.07121"
       r="4.8293772" />
    <circle
       style="opacity:1;fill:#000000;fill-opacity:1;fill-rule:evenodd;stroke:#000000;stroke-width:0.727;stroke-linecap:round;stroke-linejoin:miter;stroke-miterlimit:4;stroke-dasharray:none;stroke-dashoffset:0;stroke-opacity:1"
       id="path845-5"
       cx="53.590504"
       cy="175.17508"
       r="4.8293772" />
    <path
       style="opacity:1;fill:#000000;fill-opacity:1;fill-rule:evenodd;stroke:#000000;stroke-width:0.72699994;stroke-linecap:round;stroke-linejoin:miter;stroke-miterlimit:4;stroke-dasharray:none;stroke-dashoffset:0;stroke-opacity:1"
       id="path902"
       d="m 54.239915,171.67639 c 0.135565,-0.1791 0.261636,-0.36532 0.393033,-0.54756 0.191302,-0.23625 0.306904,-0.49943 0.369904,-0.79465 0.0691,-0.40928 0.05956,-0.82633 0.03906,-1.23926 -0.02714,-0.45085 -0.08305,-0.89984 -0.167161,-1.3435 -0.105614,-0.4715 -0.308809,-0.90961 -0.565629,-1.31613 -0.318567,-0.44597 -0.74072,-0.79088 -1.203802,-1.07579 -0.501446,-0.2789 -1.030636,-0.51195 -1.590259,-0.64224 -0.417692,-0.0462 -1.461453,-0.12289 0.470493,-0.0316 0.07717,0.004 -0.154025,0.0132 -0.230556,0.0238 -0.189084,0.0262 -0.251171,0.046 -0.435348,0.0905 -0.379891,0.0923 -0.730147,0.25859 -1.060386,0.46401 -0.3223,0.21391 -0.574638,0.50648 -0.80854,0.81021 -0.222608,0.29281 -0.376045,0.62604 -0.515692,0.96386 -0.122526,0.30221 -0.176062,0.62089 -0.20007,0.94401 -0.04872,0.37634 0.04898,0.72402 0.183005,1.07125 0.202768,0.46468 0.463536,0.89976 0.733758,1.3275 0.210666,0.33756 0.444111,0.66001 0.666231,0.98987 0.10295,0.15735 0.250106,0.31856 0.249285,0.51672 -0.192479,0.56802 -1.158621,0.246 -1.611976,-0.0182 -0.2819,-0.18969 -0.558713,-0.38677 -0.839989,-0.57771 -0.462949,-0.32021 -0.945533,-0.61062 -1.420196,-0.91289 -0.504396,-0.33155 -1.038669,-0.61089 -1.578194,-0.87965 -0.519557,-0.2691 -1.073444,-0.45557 -1.640914,-0.59148 0.511148,-0.10404 -1.702726,-0.11914 -1.145323,-0.11625 1.0629,0.005 1.23704,-0.0117 0.663273,0.024 -0.461963,0.0427 -0.921586,0.11652 -1.353542,0.28951 -0.255006,0.11077 -0.457399,0.28552 -0.626862,0.50181 -0.117242,0.15208 -0.222231,0.30915 -0.285512,0.49106 -0.061,0.22662 -0.04386,0.44676 0.032,0.66591 0.133819,0.28892 0.334047,0.54087 0.529175,0.79033 0.204629,0.24929 0.425164,0.48415 0.660405,0.70458 0.254331,0.25269 0.525555,0.48752 0.804418,0.71257 0.32721,0.29087 0.701194,0.5055 1.098569,0.6833 0.507645,0.20386 1.040553,0.33803 1.575022,0.44995 0.546669,0.11238 1.097722,0.19785 1.653566,0.24732 0.480285,0.0385 0.961739,0.0594 1.44213,0.0962 0.170865,0.0218 0.338389,-0.015 0.329896,0.19 -0.02808,0.0801 -0.123375,0.10142 -0.193119,0.1412 -0.118613,0.087 -0.2329,0.18035 -0.345104,0.27547 -0.161716,0.13809 -0.328073,0.27027 -0.496282,0.40031 -0.268634,0.21029 -0.551725,0.40047 -0.83376,0.59196 -0.297395,0.19627 -0.592167,0.396 -0.882182,0.60301 -0.343114,0.22341 -0.606385,0.52423 -0.840364,0.85536 -0.243293,0.3535 -0.425072,0.73876 -0.550148,1.14809 -0.0875,0.34963 -0.01225,0.67833 0.14147,0.99456 0.156683,0.27423 0.356909,0.51708 0.572828,0.74603 0.226991,0.24313 0.480422,0.45789 0.749623,0.65236 0.295579,0.2076 0.61401,0.37534 0.954325,0.49515 0.375238,0.13323 0.773438,0.16192 1.167562,0.1852 0.711747,0.006 -0.530953,0.003 -0.796327,-0.003 -0.06985,-0.002 0.13961,-0.007 0.209198,-0.0132 0.210013,-0.0189 0.404421,-0.0626 0.606351,-0.12126 0.408389,-0.1338 0.766132,-0.36237 1.095951,-0.63261 0.32344,-0.28956 0.623486,-0.60396 0.927026,-0.91398 0.295738,-0.30621 0.583893,-0.61946 0.870254,-0.93442 0.219184,-0.23728 0.429271,-0.48228 0.624758,-0.73937 0.186712,-0.49417 1.443625,-0.55784 1.37717,0.0326 -0.04136,0.28983 -0.102312,0.57609 -0.147992,0.86527 -0.07144,0.43268 -0.113186,0.86761 -0.111001,1.30607 -0.0043,0.43866 0.119142,0.81366 0.408795,1.14029 0.338944,0.34936 0.768249,0.57645 1.208714,0.77022 0.501068,0.22284 1.028462,0.37374 1.556322,0.51742 0.518094,0.14233 1.044421,0.24566 1.580184,0.28532 0.808114,0.0136 -0.453546,0.009 -0.679879,-0.003 -0.08996,-0.005 0.179766,-0.0133 0.269026,-0.0254 0.271862,-0.0368 0.526706,-0.11485 0.786175,-0.20041 0.510789,-0.1784 0.953238,-0.47675 1.356471,-0.83098 0.416893,-0.39087 0.596511,-0.90448 0.72539,-1.44519 0.108897,-0.52652 0.196469,-1.06147 0.158567,-1.59981 -0.05537,-0.44196 -0.292589,-0.80269 -0.591465,-1.11917 -0.338254,-0.32273 -0.722998,-0.59326 -1.107226,-0.85803 -0.254119,-0.17077 -0.501499,-0.34943 -0.693999,-0.58941 -0.09402,-0.11115 -0.129583,-0.2315 -0.08906,-0.37133 0.03157,-0.0509 0.03467,-0.0722 0.09275,-0.0989 0.07532,-0.0346 0.187788,-0.0376 0.268494,-0.038 0.446968,-0.002 0.89395,-5.3e-4 1.340927,-0.001 0.04457,0.002 0.08915,0.004 0.133723,0.006 0.06933,0.003 0.952338,0.0148 0.487341,0.0137 -1.036069,-0.002 -1.405586,0.003 -0.868357,-0.004 0.368974,0.007 0.712375,-0.056 1.041254,-0.22247 0.332537,-0.19046 0.602401,-0.46284 0.854795,-0.74683 0.240985,-0.27406 0.427582,-0.5858 0.582964,-0.91436 0.144174,-0.34705 0.226862,-0.71539 0.290817,-1.0845 0.05566,-0.34865 0.02815,-0.69734 -0.05882,-1.03751 -0.127969,-0.40736 -0.41574,-0.72795 -0.700157,-1.03508 -0.309679,-0.32082 -0.655066,-0.58976 -1.051443,-0.79265 -0.426456,-0.19165 -0.883918,-0.27461 -1.346256,-0.31545 -0.480227,-0.0437 -2.556547,-0.0286 -0.47095,-0.0278 -0.590939,-0.005 -1.181709,0.0102 -1.771711,0.0429 -0.537057,0.0249 -1.060625,0.14308 -1.5801,0.27283 -0.07702,0.0199 -0.154035,0.0398 -0.231052,0.0597 0,0 -1.219378,-0.16153 -1.219378,-0.16153 v 0 c 0.07726,-0.0201 0.15452,-0.0403 0.231781,-0.0604 0.521755,-0.13294 1.046152,-0.26349 1.586029,-0.29521 0.590081,-0.0381 1.181475,-0.0535 1.772779,-0.05 0.964645,-2.6e-4 1.934779,-0.0266 2.898294,0.0396 0.467524,0.0541 0.930732,0.14997 1.354854,0.36272 0.395227,0.22108 0.743961,0.50362 1.054166,0.83433 0.293026,0.3256 0.58274,0.66662 0.70679,1.09602 0.08616,0.35772 0.116284,0.7228 0.05877,1.08851 -0.06481,0.37977 -0.150593,0.75776 -0.291798,1.1172 -0.155549,0.33989 -0.341419,0.66366 -0.585293,0.94914 -0.25422,0.29603 -0.527537,0.57913 -0.858909,0.78993 -0.327438,0.19345 -0.665001,0.28695 -1.048078,0.28205 -0.731951,0.0135 -1.464072,0.0163 -2.195409,-0.0155 2.041096,-0.007 1.218927,0.01 0.763598,-0.005 -0.03764,0.0926 0.02027,0.16025 0.08388,0.23553 0.194207,0.22373 0.441031,0.38857 0.682405,0.55729 0.386094,0.27292 0.776589,0.54689 1.108993,0.88531 0.304827,0.34567 0.542439,0.73366 0.59372,1.20188 0.03498,0.55069 -0.05107,1.09753 -0.162195,1.6363 -0.130061,0.56213 -0.308861,1.10111 -0.727609,1.51982 -0.403077,0.36992 -0.846344,0.68459 -1.362006,0.87994 -0.90923,0.32412 -1.833364,0.36577 -2.808304,0.25841 -0.536315,-0.0525 -1.063717,-0.16254 -1.582682,-0.30769 -0.52974,-0.14788 -1.057672,-0.30657 -1.558742,-0.53658 -0.447651,-0.20966 -0.883761,-0.45169 -1.217957,-0.82468 -0.285181,-0.36006 -0.415731,-0.76306 -0.410733,-1.22541 -0.0021,-0.44475 0.03869,-0.88618 0.1085,-1.32549 0.04296,-0.28781 0.100753,-0.57276 0.14166,-0.86082 0.06306,-0.52351 1.684232,-0.40977 1.097384,0.0625 -0.199443,0.2589 -0.405996,0.51149 -0.630463,0.74953 -0.287626,0.31564 -0.576302,0.63022 -0.871548,0.93875 -0.305437,0.31265 -0.608777,0.6278 -0.92851,0.92598 -0.330798,0.28435 -0.68703,0.52949 -1.100164,0.68049 -0.788739,0.27286 -1.634733,0.19694 -2.459712,0.16687 -0.398553,-0.0295 -0.798521,-0.0743 -1.173893,-0.22083 -0.340524,-0.13617 -0.662704,-0.31183 -0.958985,-0.52898 -0.269547,-0.20356 -0.523782,-0.4263 -0.752454,-0.67552 -0.218093,-0.24103 -0.423029,-0.49481 -0.574505,-0.78418 -0.155536,-0.3465 -0.229389,-0.70706 -0.139698,-1.08442 0.12473,-0.42229 0.307412,-0.82034 0.553763,-1.18671 0.233735,-0.34318 0.490524,-0.66475 0.840192,-0.89809 0.290804,-0.20661 0.581652,-0.41284 0.882258,-0.60523 0.278429,-0.19262 0.563997,-0.37513 0.830617,-0.58447 0.164926,-0.13041 0.331264,-0.25895 0.491805,-0.39459 0.112536,-0.0991 0.230193,-0.19125 0.344575,-0.28827 0.04726,-0.0391 0.137134,-0.12663 0.185542,-0.0789 0.01648,0.16894 -0.188796,0.0349 -0.305911,0.0508 -0.478706,-0.0349 -0.9583,-0.0573 -1.436463,-0.0997 -0.555953,-0.0575 -1.107776,-0.1452 -1.654553,-0.26172 -0.537393,-0.12019 -1.074738,-0.2567 -1.581404,-0.47627 -0.399339,-0.18978 -0.771949,-0.42064 -1.104974,-0.71381 -0.278744,-0.22956 -0.550458,-0.46754 -0.807072,-0.72185 -0.235133,-0.22738 -0.458065,-0.46678 -0.661673,-0.72309 -0.200903,-0.26109 -0.406879,-0.52565 -0.533297,-0.83252 -0.07671,-0.24549 -0.09552,-0.49134 -0.03453,-0.74393 0.05993,-0.19794 0.161253,-0.36969 0.288269,-0.53272 0.172884,-0.23413 0.372168,-0.43536 0.638423,-0.56417 0.429147,-0.20077 0.89593,-0.27696 1.364221,-0.32996 0.966465,-0.08 1.959674,-0.0936 2.911615,0.1133 0.568577,0.14764 1.12231,0.3444 1.643558,0.61831 0.540517,0.27233 1.073438,0.55909 1.579718,0.89197 0.477028,0.30192 0.959546,0.59566 1.424639,0.91597 0.28145,0.18927 0.555479,0.39092 0.847161,0.564 0.838586,0.40494 -1.377302,-0.21065 -0.862933,0.14932 -0.02797,-0.16581 -0.149709,-0.30128 -0.238945,-0.4409 -0.222888,-0.32964 -0.450245,-0.65644 -0.660813,-0.99424 -0.271746,-0.43535 -0.532879,-0.87883 -0.735349,-1.35152 -0.137906,-0.36434 -0.238588,-0.73149 -0.189142,-1.12516 0.02418,-0.33608 0.07841,-0.66755 0.202189,-0.98314 0.142118,-0.34735 0.295291,-0.6913 0.518258,-0.99598 0.237297,-0.31456 0.489963,-0.62046 0.811935,-0.85306 0.330377,-0.21893 0.681564,-0.40119 1.067165,-0.5027 0.853257,-0.23459 1.763516,-0.23849 2.633146,-0.0827 0.559126,0.15353 1.093801,0.38639 1.593525,0.68091 0.467108,0.30426 0.895056,0.66561 1.210683,1.13084 0.257209,0.42279 0.463463,0.87542 0.569095,1.3614 0.08399,0.4493 0.139631,0.90385 0.166923,1.36022 0.02156,0.42318 0.03165,0.85023 -0.03551,1.27017 -0.06036,0.31186 -0.168888,0.59668 -0.369379,0.84724 -0.13204,0.18253 -0.262284,0.3663 -0.386755,0.55409 0,0 -1.240893,-0.0839 -1.240893,-0.0839 z"
       inkscape:connector-curvature="0" />
    <path
       style="opacity:1;fill:#000000;fill-opacity:1;fill-rule:evenodd;stroke:#000000;stroke-width:0.72699994;stroke-linecap:round;stroke-linejoin:miter;stroke-miterlimit:4;stroke-dasharray:none;stroke-dashoffset:0;stroke-opacity:1"
       id="path912"
       d="m 89.520385,205.61219 c 0.29763,5.2e-4 0.59526,5.2e-4 0.892892,2.6e-4 0.301583,0.0142 0.571055,-0.0512 0.82563,-0.20994 0.233846,-0.15963 0.419774,-0.36976 0.579069,-0.60133 0.213466,-0.33726 0.290359,-0.73343 0.36566,-1.11933 0.08131,-0.43153 0.09114,-0.86938 0.02659,-1.30295 -0.05977,-0.41229 -0.298755,-0.71819 -0.589508,-0.99777 -0.302514,-0.28812 -0.677455,-0.47084 -1.051965,-0.64506 -0.39575,-0.1791 -0.806233,-0.32206 -1.221187,-0.44915 -0.458573,-0.13179 -0.920599,-0.25382 -1.388975,-0.34541 0.49176,-0.0904 -1.231016,-0.0645 -0.671541,-0.0658 1.870334,-0.004 1.052488,-0.0136 0.614606,0.0527 -0.376148,0.0601 -0.707486,0.22329 -1.009598,0.44895 -0.325262,0.26367 -0.587205,0.58203 -0.775292,0.9547 -0.234619,0.66663 -0.08878,1.38408 0.03917,2.0583 0.145045,0.76161 0.474715,1.45367 0.87507,2.11019 0.408482,0.64402 0.949163,1.17962 1.52917,1.66763 0.443431,0.36126 0.953531,0.61981 1.446741,0.90275 0.272968,0.15351 0.334166,0.36567 0.01836,0.50137 -0.537905,0.1372 -1.096626,0.17004 -1.648618,0.20647 -0.36239,0.019 -0.72526,0.0249 -1.088015,0.0321 0,0 -1.206992,-0.18886 -1.206992,-0.18886 v 0 c 0.362096,-0.006 0.724249,-0.0118 1.08612,-0.0268 0.545547,-0.0334 1.093306,-0.0687 1.630074,-0.17768 0.304848,-0.0668 0.256231,-0.0211 -0.01733,-0.21732 -0.494578,-0.28377 -0.996828,-0.55916 -1.436656,-0.92649 -0.581684,-0.50169 -1.123894,-1.05026 -1.531427,-1.70689 -0.401185,-0.67154 -0.730514,-1.37881 -0.875757,-2.1537 -0.131308,-0.70074 -0.274852,-1.44039 -0.04852,-2.13631 0.182078,-0.39395 0.445635,-0.72769 0.775833,-1.01098 0.299997,-0.24625 0.631713,-0.43293 1.016804,-0.50942 0.820094,-0.1587 1.675254,-0.12042 2.496315,0.0171 0.46841,0.0998 0.932648,0.21959 1.391258,0.35769 0.41638,0.13278 0.828789,0.27975 1.224645,0.46614 0.380122,0.18414 0.754933,0.38388 1.056212,0.68658 0.297844,0.3052 0.532444,0.6438 0.592936,1.0772 0.06275,0.44746 0.05468,0.89889 -0.02842,1.34404 -0.07621,0.40065 -0.152964,0.81172 -0.36168,1.16816 -0.157787,0.24741 -0.345816,0.47208 -0.582504,0.64867 -0.250272,0.18773 -0.517975,0.29301 -0.836081,0.28362 -0.296026,-2e-5 -0.592053,-5e-5 -0.888079,2.6e-4 0,0 -1.22501,-0.19402 -1.22501,-0.19402 z"
       inkscape:connector-curvature="0" />
    <path
       style="opacity:1;fill:#000000;fill-opacity:1;fill-rule:evenodd;stroke:#000000;stroke-width:0.72699994;stroke-linecap:round;stroke-linejoin:miter;stroke-miterlimit:4;stroke-dasharray:none;stroke-dashoffset:0;stroke-opacity:1"
       id="path914"
       d="m 88.148944,207.59795 c -0.222748,-0.18957 -0.468104,-0.35132 -0.710639,-0.51424 -0.407654,-0.29027 -0.859277,-0.50827 -1.312564,-0.71633 -0.468267,-0.22098 -0.960617,-0.38289 -1.457764,-0.52419 -0.474996,-0.12635 -0.960758,-0.19647 -1.447215,-0.25992 -0.465241,-0.0473 -0.931858,-0.0724 -1.399292,-0.0791 -0.427257,0.007 -1.381572,-0.0375 0.552048,0.001 0.07251,0.001 -0.144901,0.007 -0.217268,0.0116 -0.199223,0.0133 -0.227158,0.0186 -0.425614,0.0409 -0.372917,0.0421 -0.722836,0.16687 -1.046548,0.35289 -0.25866,0.1578 -0.417521,0.39546 -0.528363,0.67072 -0.118128,0.30921 -0.159369,0.63 -0.145116,0.95871 0.03436,0.38763 0.156073,0.75848 0.294645,1.11964 0.132226,0.35163 0.302078,0.68491 0.497867,1.00478 0.274166,0.41916 0.668822,0.73852 1.053859,1.05095 0.491739,0.38991 1.042009,0.69127 1.602267,0.96903 0.592015,0.28695 1.216006,0.49696 1.84169,0.69609 0.53725,0.16968 1.088231,0.28404 1.642827,0.37865 -0.478523,0.0471 1.401085,0.0674 0.981379,0.064 -1.064773,-0.009 -1.26942,0.01 -0.692647,-0.0248 0.536107,-0.0399 1.067019,-0.12419 1.594231,-0.22686 0.359534,-0.0768 0.719479,-0.15334 1.07569,-0.24464 0.153836,-0.0343 0.298048,-0.0981 0.44623,-0.14935 0.415954,-0.16847 1.697091,0.001 1.066202,0.2169 -0.306109,0.10233 -0.608748,0.21461 -0.912997,0.32236 -0.417722,0.14592 -0.832803,0.29921 -1.249786,0.44719 -0.438637,0.16057 -0.875708,0.32543 -1.307854,0.50278 -0.438595,0.17652 -0.8464,0.41318 -1.229844,0.68782 -0.365707,0.26791 -0.660837,0.59996 -0.885473,0.99158 -0.205307,0.39569 -0.307833,0.81823 -0.273611,1.26202 0.07843,0.46573 0.295582,0.885 0.560292,1.27006 0.283768,0.39202 0.633555,0.72658 0.998937,1.04095 0.417362,0.36375 0.922904,0.56211 1.44676,0.71494 0.648422,0.19839 1.318244,0.27469 1.991019,0.32889 0.741846,0.0372 1.484587,0.0656 2.227408,0.0705 0.852535,-0.002 -0.149903,5.3e-4 -0.555477,-0.002 -0.102449,-5.3e-4 0.204898,-0.001 0.307345,-0.002 0.28394,-0.002 0.5676,-0.005 0.85144,-0.0132 0.453456,-0.008 0.904343,-0.0595 1.34557,-0.16381 0.306599,-0.0749 0.57,-0.23483 0.80708,-0.43791 0.17572,-0.1617 0.33251,-0.34293 0.41955,-0.56687 0.08783,-0.29486 -0.01545,-0.57278 -0.129006,-0.84363 -0.194387,-0.4007 -0.443944,-0.7705 -0.688054,-1.14176 -0.27459,-0.39747 -0.548188,-0.79564 -0.819174,-1.19558 -0.269957,-0.41865 -0.549021,-0.83127 -0.823452,-1.24698 -0.178276,-0.2723 -0.383932,-0.53366 -0.500653,-0.83996 -0.05617,-0.26721 0.151313,-0.36222 0.372989,-0.414 0.708152,-0.0777 1.433036,-0.0735 2.136807,0.0432 0.337396,0.067 0.667517,0.16237 0.997825,0.25717 0.381977,0.10465 0.77138,0.17886 1.160775,0.24965 0.455425,0.0809 0.914559,0.13861 1.372984,0.19947 0.500562,0.11338 2.215161,0.0936 0.03376,0.086 0.351568,-8e-5 0.682929,-0.0711 0.987441,-0.24626 0.29844,-0.2175 0.47567,-0.53804 0.61786,-0.87043 0.1508,-0.35048 0.2045,-0.72708 0.24224,-1.10342 0.0328,-0.41069 -0.007,-0.82159 -0.0459,-1.23026 -0.0439,-0.38792 -0.11908,-0.77154 -0.21017,-1.15091 -0.11292,-0.43874 -0.30645,-0.85004 -0.51261,-1.2514 -0.250163,-0.50989 -0.607477,-0.94837 -0.990126,-1.36306 -0.374994,-0.43066 -0.834816,-0.73159 -1.362617,-0.93711 -0.480436,-0.16188 -0.977725,-0.2587 -1.481492,-0.30649 -0.414721,-0.0383 -1.454132,-0.0431 0.439121,-0.0247 0.08588,7.9e-4 -0.171765,0.002 -0.257633,0.004 -0.270338,0.006 -0.240633,0.007 -0.508553,0.0209 -0.330234,0.0174 -0.658556,0.0567 -0.985806,0.10277 0,0 -1.217392,-0.17447 -1.217392,-0.17447 v 0 c 0.32763,-0.0511 0.656881,-0.0933 0.988075,-0.11329 0.917004,-0.0612 1.842241,-0.0702 2.7582,0.005 0.505724,0.0602 1.006676,0.16219 1.484976,0.34124 0.528225,0.22948 0.987497,0.55186 1.365837,0.99104 0.38485,0.42588 0.74185,0.87678 0.99482,1.39579 0.20817,0.41121 0.40593,0.83151 0.51821,1.28059 0.0904,0.38527 0.16658,0.77432 0.20933,1.16804 0.039,0.4166 0.0786,0.83537 0.0464,1.254 -0.0378,0.38814 -0.0908,0.77726 -0.24274,1.13999 -0.14426,0.3545 -0.32731,0.69251 -0.62156,0.94622 -0.30164,0.20526 -0.63107,0.30418 -0.9977,0.31318 -0.829283,7.9e-4 -1.651161,0.0397 -2.469972,-0.10107 -0.45929,-0.0616 -0.919192,-0.121 -1.375,-0.20541 -0.39121,-0.0735 -0.782262,-0.151 -1.165175,-0.26093 -0.328647,-0.0934 -0.658442,-0.18526 -0.995976,-0.24122 -0.151305,-0.0201 -0.1763,-0.0254 -0.328422,-0.0374 -0.05247,-0.004 -0.21023,-0.009 -0.157604,-0.01 1.952003,-0.0271 1.225692,-0.008 0.797853,-10e-5 -0.130355,0.0178 -0.401661,0.006 -0.361325,0.19614 0.121502,0.29453 0.322069,0.54791 0.492347,0.81499 0.272611,0.41558 0.547862,0.82942 0.820044,1.24527 0.273151,0.39964 0.548738,0.79761 0.821685,1.19739 0.248081,0.37734 0.49912,0.75543 0.691748,1.16505 0.122221,0.30083 0.221646,0.60882 0.13412,0.93438 -0.08179,0.24684 -0.236996,0.44862 -0.424514,0.62769 -0.235225,0.22311 -0.503377,0.40373 -0.817181,0.49709 -0.441664,0.12018 -0.897104,0.17812 -1.354688,0.18945 -1.007475,0.0372 -2.016678,0.008 -3.02442,0.0194 -0.742625,-0.01 -1.485413,-0.0344 -2.226736,-0.0797 -0.676479,-0.0593 -1.348806,-0.14904 -1.999147,-0.3539 -0.530696,-0.16839 -1.037812,-0.38823 -1.456751,-0.76586 -0.367673,-0.32443 -0.719217,-0.66939 -1.001196,-1.07306 -0.268055,-0.40686 -0.488323,-0.84696 -0.563438,-1.33369 -0.03377,-0.46746 0.06449,-0.91321 0.274886,-1.33374 0.222398,-0.41041 0.517019,-0.76056 0.890436,-1.04443 0.382802,-0.28519 0.790041,-0.53368 1.232424,-0.7168 0.431406,-0.18222 0.87049,-0.34493 1.308841,-0.50956 0.4167,-0.14593 0.829837,-0.30171 1.246823,-0.44688 0.301823,-0.10962 0.60434,-0.21718 0.906623,-0.32535 0.405964,-0.13615 1.968323,-0.0823 1.39727,0.0913 -0.151685,0.05 -0.298386,0.11334 -0.452535,0.15704 -0.358534,0.0972 -0.723175,0.16954 -1.085448,0.2511 -0.528256,0.10621 -1.059614,0.19609 -1.59694,0.2425 -0.902899,0.0655 -1.821961,0.0778 -2.719957,-0.0522 -0.55454,-0.0994 -1.104616,-0.22221 -1.641223,-0.39592 -0.627052,-0.20355 -1.251167,-0.42113 -1.842789,-0.71492 -0.563295,-0.28565 -1.11566,-0.59608 -1.607679,-0.99573 -0.392131,-0.32385 -0.791665,-0.65586 -1.063758,-1.09221 -0.196119,-0.32747 -0.364797,-0.66928 -0.498424,-1.02734 -0.13952,-0.37444 -0.262679,-0.75818 -0.296151,-1.15877 -0.01542,-0.34534 0.02384,-0.68314 0.143708,-1.00963 0.110424,-0.29818 0.268304,-0.56603 0.534755,-0.75154 0.322104,-0.20649 0.675836,-0.34926 1.056455,-0.40448 0.837475,-0.11058 1.682366,-0.0769 2.525593,-0.066 0.467932,0.0107 0.935514,0.0391 1.40058,0.0931 0.487728,0.0665 0.974394,0.14411 1.448932,0.27828 0.498028,0.14751 0.989822,0.31788 1.458876,0.54289 0.456141,0.21411 0.907269,0.4419 1.318762,0.73525 0.248598,0.16802 0.50304,0.33283 0.723975,0.53698 0,0 -1.239626,0.0976 -1.239626,0.0976 z"
       inkscape:connector-curvature="0" />
  </g>
</svg>
