<?xml version="1.0" encoding="UTF-8" standalone="no"?>
<!-- Created with Inkscape (http://www.inkscape.org/) -->

<svg
   xmlns:dc="http://purl.org/dc/elements/1.1/"
   xmlns:cc="http://creativecommons.org/ns#"
   xmlns:rdf="http://www.w3.org/1999/02/22-rdf-syntax-ns#"
   xmlns:svg="http://www.w3.org/2000/svg"
   xmlns="http://www.w3.org/2000/svg"
   xmlns:sodipodi="http://sodipodi.sourceforge.net/DTD/sodipodi-0.dtd"
   xmlns:inkscape="http://www.inkscape.org/namespaces/inkscape"
   width="148mm"
   height="210mm"
   viewBox="0 0 148 210"
   version="1.1"
   id="svg8"
   inkscape:version="0.92.3 (2405546, 2018-03-11)"
   sodipodi:docname="5th-birthday-2.svg">
  <defs
     id="defs2" />
  <sodipodi:namedview
     id="base"
     pagecolor="#ffffff"
     bordercolor="#666666"
     borderopacity="1.0"
     inkscape:pageopacity="0.0"
     inkscape:pageshadow="2"
     inkscape:zoom="0.84918651"
     inkscape:cx="279.68504"
     inkscape:cy="396.85039"
     inkscape:document-units="mm"
     inkscape:current-layer="layer1"
     showgrid="false"
     inkscape:window-width="1375"
     inkscape:window-height="876"
     inkscape:window-x="65"
     inkscape:window-y="24"
     inkscape:window-maximized="1" />
  <metadata
     id="metadata5">
    <rdf:RDF>
      <cc:Work
         rdf:about="">
        <dc:format>image/svg+xml</dc:format>
        <dc:type
           rdf:resource="http://purl.org/dc/dcmitype/StillImage" />
        <dc:title />
      </cc:Work>
    </rdf:RDF>
  </metadata>
  <g
     inkscape:label="Layer 1"
     inkscape:groupmode="layer"
     id="layer1"
     transform="translate(0,-87)">
    <text
       xml:space="preserve"
       style="font-style:normal;font-variant:normal;font-weight:normal;font-stretch:normal;font-size:6.61458302px;line-height:125%;font-family:'Vtks Rash';-inkscape-font-specification:'Vtks Rash';letter-spacing:0px;word-spacing:0px;fill:#000000;fill-opacity:1;stroke:none;stroke-width:0.26458332px;stroke-linecap:butt;stroke-linejoin:miter;stroke-opacity:1"
       x="36.250858"
       y="141.40016"
       id="text854"><tspan
         sodipodi:role="line"
         id="tspan852"
         x="36.250858"
         y="147.18793"
         style="font-style:normal;font-variant:normal;font-weight:normal;font-stretch:normal;font-size:14.11111069px;font-family:UnPilgi;-inkscape-font-specification:UnPilgi;stroke-width:0.26458332px" /></text>
    <path
       style="color:#000000;clip-rule:nonzero;display:inline;overflow:visible;visibility:visible;opacity:1;isolation:auto;mix-blend-mode:normal;color-interpolation:sRGB;color-interpolation-filters:linearRGB;solid-color:#000000;solid-opacity:1;fill:#000000;fill-opacity:1;fill-rule:evenodd;stroke:#000000;stroke-width:0.02630051;stroke-linecap:butt;stroke-linejoin:miter;stroke-miterlimit:4;stroke-dasharray:none;stroke-dashoffset:0;stroke-opacity:1;color-rendering:auto;image-rendering:auto;shape-rendering:auto;text-rendering:auto;enable-background:accumulate"
       d="m 38.4038,103.37704 2e-6,51.10286 h 15.485712 l -0.309714,-18.27315 11.149715,-0.3097 0.30971,-11.76914 H 53.5798 v -8.98172 h 18.582854 v -11.45942 z"
       id="path863"
       inkscape:connector-curvature="0"
       sodipodi:nodetypes="ccccccccccc" />
    <path
       style="color:#000000;clip-rule:nonzero;display:inline;overflow:visible;visibility:visible;opacity:1;isolation:auto;mix-blend-mode:normal;color-interpolation:sRGB;color-interpolation-filters:linearRGB;solid-color:#000000;solid-opacity:1;fill:#000000;fill-opacity:1;fill-rule:evenodd;stroke:#000000;stroke-width:0.02743089;stroke-linecap:butt;stroke-linejoin:miter;stroke-miterlimit:4;stroke-dasharray:none;stroke-dashoffset:0;stroke-opacity:1;color-rendering:auto;image-rendering:auto;shape-rendering:auto;text-rendering:auto;enable-background:accumulate"
       d="m 88.727356,142.27248 -0.259426,52.531 16.99318,-0.13223 -0.25942,-52.65819 z"
       id="path865"
       inkscape:connector-curvature="0"
       sodipodi:nodetypes="ccccc" />
    <path
       style="color:#000000;clip-rule:nonzero;display:inline;overflow:visible;visibility:visible;opacity:1;isolation:auto;mix-blend-mode:normal;color-interpolation:sRGB;color-interpolation-filters:linearRGB;solid-color:#000000;solid-opacity:1;fill:#000000;fill-opacity:1;fill-rule:evenodd;stroke:#000000;stroke-width:0.02510016;stroke-linecap:butt;stroke-linejoin:miter;stroke-miterlimit:4;stroke-dasharray:none;stroke-dashoffset:0;stroke-opacity:1;color-rendering:auto;image-rendering:auto;shape-rendering:auto;text-rendering:auto;enable-background:accumulate"
       d="m 30.038956,198.33086 13.10697,46.47312 10.298332,-0.27996 14.667322,-45.35329 H 54.068397 l -5.617269,25.47623 -5.617273,-26.3161 z"
       id="path867"
       inkscape:connector-curvature="0" />
    <path
       style="color:#000000;clip-rule:nonzero;display:inline;overflow:visible;visibility:visible;opacity:1;isolation:auto;mix-blend-mode:normal;color-interpolation:sRGB;color-interpolation-filters:linearRGB;solid-color:#000000;solid-opacity:1;fill:#000000;fill-opacity:1;fill-rule:evenodd;stroke:#000000;stroke-width:0.02966559;stroke-linecap:butt;stroke-linejoin:miter;stroke-miterlimit:4;stroke-dasharray:none;stroke-dashoffset:0;stroke-opacity:1;color-rendering:auto;image-rendering:auto;shape-rendering:auto;text-rendering:auto;enable-background:accumulate"
       d="m 117.05019,234.43885 -35.268889,-0.0693 v 46.11304 l 36.180579,0.13875 -0.70112,-11.8082 -21.855152,0.1412 0.349341,-6.63748 h 13.124061 l 0.62929,-9.92031 -13.40401,-0.2106 0.349343,-6.28813 20.596557,-0.35178 z"
       id="path835"
       inkscape:connector-curvature="0"
       sodipodi:nodetypes="ccccccccccccc" />
    <text
       xml:space="preserve"
       style="font-style:normal;font-variant:normal;font-weight:normal;font-stretch:normal;font-size:10.25490475px;line-height:125%;font-family:'Vtks Rash';-inkscape-font-specification:'Vtks Rash';letter-spacing:0px;word-spacing:0px;fill:#000000;fill-opacity:1;stroke:none;stroke-width:0.41019619px;stroke-linecap:butt;stroke-linejoin:miter;stroke-opacity:1"
       x="42.2341"
       y="268.95908"
       id="text820"><tspan
         sodipodi:role="line"
         id="tspan818"
         x="42.2341"
         y="277.93213"
         style="font-style:normal;font-variant:normal;font-weight:normal;font-stretch:normal;font-size:25.39999962px;font-family:'Abyssinica SIL';-inkscape-font-specification:'Abyssinica SIL';stroke-width:0.41019619px" /></text>
    <circle
       style="opacity:1;fill:#000000;fill-opacity:1;fill-rule:evenodd;stroke:#000000;stroke-width:0.78064513;stroke-linecap:round;stroke-linejoin:miter;stroke-miterlimit:4;stroke-dasharray:none;stroke-dashoffset:0;stroke-opacity:1"
       id="path829"
       cx="47.441399"
       cy="177.18219"
       r="5.8548627" />
    <path
       style="opacity:1;fill:#000000;fill-opacity:1;fill-rule:evenodd;stroke:#000000;stroke-width:0.78064513;stroke-linecap:round;stroke-linejoin:miter;stroke-miterlimit:4;stroke-dasharray:none;stroke-dashoffset:0;stroke-opacity:1"
       id="path833"
       d="m 46.960695,173.2658 c 0.161443,-0.30444 0.311688,-0.61415 0.453872,-0.92798 0.294287,-0.64425 0.509048,-1.31984 0.701485,-2.00019 0.197585,-0.71659 0.259668,-1.45494 0.24477,-2.19515 -0.03827,-0.74472 -0.160134,-1.48243 -0.290715,-2.21565 -0.109672,-0.68374 -0.285283,-1.35255 -0.511018,-2.00641 -0.230564,-0.65339 -0.617579,-1.15153 -1.179261,-1.54634 -0.738523,-0.4306 -1.558733,-0.6927 -2.376154,-0.9279 -0.141929,-0.0324 -0.282957,-0.0692 -0.42578,-0.0974 -0.220191,-0.0436 -0.635664,-0.1063 -0.85938,-0.12283 -0.143926,-0.0107 -0.577027,-0.0166 -0.432769,-0.0126 0.287226,0.009 0.582413,-0.0428 0.861679,0.0248 0.13915,0.0337 -0.28111,0.0546 -0.421663,0.0818 -0.817776,0.25066 -1.413702,0.82751 -1.868239,1.52978 -0.308236,0.55361 -0.40142,1.17547 -0.465404,1.79586 -0.06261,0.56152 -0.05296,1.12559 -0.0221,1.68847 0.02867,0.54181 0.06658,1.0819 0.159011,1.61685 0.103975,0.53427 0.355032,1.01798 0.630994,1.48117 0.332675,0.49587 0.728819,0.9467 1.133297,1.38474 0.377959,0.39602 0.747743,0.80057 1.154678,1.16727 0.390959,0.35979 0.805849,0.69287 1.223467,1.02098 0.374399,0.30597 0.757922,0.60024 1.117057,0.92431 0.185791,0.16682 0.378808,0.34395 0.418151,0.60027 -0.01338,0.28178 -0.250579,0.35576 -0.489877,0.39821 -1.015963,0.10233 -2.019059,0.0124 -3.014846,-0.1669 -0.866613,-0.16833 -1.722093,-0.3871 -2.575323,-0.61228 -0.968342,-0.25871 -1.926714,-0.55239 -2.900098,-0.79187 -0.15366,-0.0332 -0.306378,-0.0711 -0.46098,-0.0995 -0.324595,-0.0597 -0.575456,-0.0889 -0.904741,-0.10243 -0.146133,-0.006 -0.584744,-0.012 -0.438758,-0.003 0.875108,0.0534 1.217454,-0.0222 0.459429,0.0899 -0.735818,0.12355 -1.429282,0.38946 -2.098317,0.71105 -0.57314,0.27147 -1.047798,0.64416 -1.383603,1.18192 -0.308694,0.67021 -0.32461,1.41496 -0.32334,2.13935 0.0083,0.81558 0.136679,1.62017 0.309475,2.41499 0.193957,0.80525 0.482644,1.58085 0.841826,2.32582 0.281797,0.59648 0.698766,1.08145 1.234546,1.45915 0.511686,0.34076 1.080386,0.57753 1.656767,0.78371 0.513322,0.27819 2.741023,0.26746 0.475504,0.22919 0.593652,-0.0586 1.15517,-0.27244 1.70788,-0.48465 0.560236,-0.18858 1.043939,-0.49168 1.487303,-0.8762 0.478342,-0.45271 0.89182,-0.96717 1.302843,-1.48003 0.4292,-0.52641 0.833709,-1.07196 1.233697,-1.62064 0.287862,-0.41433 0.594763,-0.81346 0.955196,-1.16706 0.139192,-0.13073 0.290951,-0.25278 0.473245,-0.31571 1.622654,0.15389 1.465989,-0.10544 1.39953,1.14001 -0.03751,0.54257 -0.07851,1.08486 -0.113454,1.62761 -0.03207,0.64331 -0.07992,1.28548 -0.125974,1.92788 -0.05693,0.83879 -0.07994,1.67994 -0.08795,2.52053 -0.0091,0.8552 0.0099,1.71017 0.07336,2.56306 0.06581,0.77925 0.270202,1.53355 0.528418,2.26844 0.240156,0.6586 0.560228,1.28255 0.936781,1.87259 0.357388,0.53659 0.830731,0.96464 1.340958,1.3503 0.46043,0.35121 0.963236,0.63798 1.485107,0.88621 0.533427,0.3318 2.396953,0.29611 0.188667,0.26972 0.518616,-0.0172 0.971619,-0.21684 1.400393,-0.49251 0.515078,-0.33592 0.83017,-0.85955 1.132854,-1.37866 0.356554,-0.63582 0.680033,-1.28827 0.974922,-1.95466 0.272941,-0.61401 0.513574,-1.24061 0.655778,-1.89805 0.107807,-0.66626 0.01978,-1.33416 -0.07737,-1.99497 -0.109803,-0.65501 -0.244113,-1.3054 -0.405556,-1.94957 -0.145448,-0.60954 -0.341508,-1.205 -0.56041,-1.79163 -0.193991,-0.54676 -0.446803,-1.06704 -0.74228,-1.56534 -0.268924,-0.42811 -0.586507,-0.8225 -0.885734,-1.22927 -0.129547,-0.19777 -0.297307,-0.37636 -0.389863,-0.59623 -0.03201,-0.71048 1.331902,-0.19507 1.823396,-0.0149 0.328879,0.13472 0.657948,0.26892 0.983279,0.41205 0.410463,0.17433 0.824731,0.33997 1.243047,0.49451 0.605688,0.2021 1.230129,0.3403 1.853204,0.47644 0.694004,0.15317 1.394188,0.2739 2.096512,0.38139 0.810722,0.1275 1.62735,0.2039 2.447056,0.23626 -0.285956,-8.4e-4 -0.57214,0.009 -0.857867,-0.003 -0.148039,-0.006 0.296309,-0.005 0.444264,-0.0136 0.60926,-0.0319 1.197275,-0.12793 1.78928,-0.27132 0.814244,-0.22742 1.507806,-0.69322 2.094092,-1.29084 0.470411,-0.54266 0.665644,-1.15316 0.471641,-1.84599 -0.468293,-0.94119 -1.422191,-1.46233 -2.308265,-1.94876 -1.219363,-0.62115 -2.491435,-1.13076 -3.777206,-1.59576 -1.065882,-0.38123 -2.161556,-0.66693 -3.265377,-0.91309 -0.863858,-0.19499 -1.737629,-0.31983 -2.623421,-0.32021 2.193357,-0.12198 -0.236723,0.14421 -0.69963,0.27059 -0.171438,0.077 -0.584083,0.14074 -0.603693,0.39077 0.07769,0.13468 0.262344,0.18762 0.402285,0.2346 1.469755,0.12115 -1.366668,0.0786 -0.580735,0.0271 0.357782,-0.0317 0.693241,-0.1552 1.017165,-0.30314 0.462236,-0.22611 0.844392,-0.57626 1.215753,-0.92566 0.448159,-0.43022 0.850134,-0.9041 1.240261,-1.38653 0.460821,-0.55927 0.843158,-1.17329 1.190808,-1.80725 0.405855,-0.76583 0.674841,-1.5895 0.888007,-2.42641 0.189931,-0.84416 0.304579,-1.70386 0.369703,-2.5661 0.02304,-0.4642 0.01693,-0.96766 -0.322933,-1.32115 -0.357455,-0.14475 -1.54034,-0.15376 0.950377,-0.0286 0.05051,0.002 -0.09975,0.018 -0.148153,0.0328 -0.129047,0.0392 -0.191994,0.0784 -0.312896,0.14021 -0.364089,0.21017 -0.689191,0.47948 -1.016617,0.74127 -0.315551,0.24867 -0.623892,0.50639 -0.913298,0.78517 -0.336587,0.34295 -0.589467,0.75162 -0.823612,1.16795 -0.261639,0.48609 -0.500397,0.98383 -0.737052,1.48241 -0.241585,0.50353 -0.51818,0.98915 -0.795781,1.47342 -0.266185,0.49637 -0.579313,0.96428 -0.901334,1.42553 -0.279798,0.3875 -0.576923,0.76208 -0.872024,1.13793 0,0 -1.316679,-0.088 -1.316679,-0.088 v 0 c 0.294868,-0.37365 0.59136,-0.74628 0.872526,-1.13045 0.320907,-0.45755 0.635981,-0.92029 0.899939,-1.4138 0.276661,-0.48126 0.552893,-0.96353 0.795735,-1.46299 0.236679,-0.50129 0.476354,-1.00125 0.736039,-1.49114 0.235277,-0.4271 0.488292,-0.84668 0.821993,-1.20576 0.285363,-0.28797 0.597341,-0.54758 0.915335,-0.79872 0.330601,-0.26503 0.657406,-0.53792 1.016523,-0.76412 0.620643,-0.36666 1.555116,-0.57231 2.153892,-0.0963 0.312451,0.41399 0.345556,0.91966 0.30923,1.42443 -0.06855,0.8695 -0.184761,1.73634 -0.37372,2.58837 -0.212717,0.84735 -0.481971,1.68108 -0.885207,2.45938 -0.346471,0.64148 -0.725975,1.26455 -1.187747,1.83101 -0.390383,0.48751 -0.792051,0.96693 -1.238946,1.40429 -0.373683,0.35814 -0.755712,0.71966 -1.214275,0.96784 -0.324316,0.15954 -0.658196,0.29887 -1.019131,0.3497 -0.674624,0.0815 -1.395914,0.12973 -2.054832,-0.0631 -0.187116,-0.082 -0.377117,-0.18259 -0.413841,-0.40278 0.01975,-0.33647 0.349216,-0.45376 0.62885,-0.55204 1.07507,-0.32204 2.183297,-0.3423 3.303184,-0.30447 0.884739,0.0178 1.757368,0.15036 2.619607,0.34879 1.10161,0.2524 2.194925,0.54346 3.257835,0.93076 1.286419,0.4732 2.561393,0.98537 3.780056,1.61577 0.912057,0.50989 1.88258,1.06098 2.335419,2.05179 0.19084,0.73722 0.01305,1.39243 -0.477357,1.98078 -0.583509,0.62146 -1.284703,1.10945 -2.106219,1.36324 -1.300508,0.33991 -2.62323,0.37329 -3.965941,0.31442 -0.82153,-0.0394 -1.639837,-0.12059 -2.452372,-0.25003 -0.703622,-0.10996 -1.404947,-0.2339 -2.100149,-0.38929 -0.626629,-0.13933 -1.255079,-0.28068 -1.861534,-0.49402 -0.419421,-0.15815 -0.836476,-0.3229 -1.24793,-0.50087 -0.32607,-0.13946 -0.65306,-0.2774 -0.984976,-0.40243 -0.954131,-0.32309 -0.0023,0.0465 0.82718,-0.20572 0.104061,0.20362 0.251423,0.3811 0.378575,0.57009 0.299071,0.4105 0.617074,0.80853 0.881655,1.24295 0.294056,0.50691 0.546235,1.03515 0.741368,1.58856 0.217717,0.59199 0.414745,1.19197 0.560279,1.80625 0.160128,0.64868 0.294488,1.30323 0.403445,1.96252 0.09904,0.67635 0.187125,1.35986 0.07897,2.04179 -0.140636,0.66706 -0.381985,1.30276 -0.658682,1.92507 -0.296275,0.67048 -0.619603,1.32751 -0.975499,1.96862 -0.303772,0.53342 -0.616417,1.08055 -1.13073,1.43955 -0.427471,0.29558 -0.880797,0.52618 -1.409353,0.56344 -1.015693,0.008 -1.897211,0.12897 -2.805717,-0.3229 -0.5216,-0.25906 -1.024231,-0.5547 -1.484821,-0.91303 -0.51355,-0.40015 -0.986519,-0.84628 -1.342966,-1.39678 -0.375069,-0.60119 -0.696149,-1.2343 -0.935257,-1.90258 -0.258009,-0.74665 -0.461744,-1.51253 -0.527001,-2.30285 -0.06174,-0.85658 -0.08018,-1.71507 -0.07149,-2.57382 0.0071,-0.84319 0.03097,-1.68675 0.08331,-2.52839 0.04235,-0.64228 0.08892,-1.2842 0.120788,-1.92713 0.03332,-0.54227 0.07395,-1.08401 0.110104,-1.62609 0.01074,-0.21925 0.02296,-0.43996 0.0096,-0.65952 -0.0123,-0.20223 -0.04467,-0.25092 -0.04396,-0.25099 0.42345,-0.0379 0.850236,-0.01 1.275353,-0.015 -0.173205,-0.0617 -0.345803,0.12306 -0.470612,0.215 -0.36679,0.34136 -0.679764,0.72956 -0.962906,1.14297 -0.401653,0.54979 -0.806011,1.0978 -1.23562,1.62629 -0.413168,0.51837 -0.828149,1.03778 -1.30221,1.50274 -0.442647,0.40034 -0.919117,0.73016 -1.490742,0.92292 -0.556353,0.21745 -1.119541,0.43896 -1.714091,0.52437 -1.06985,0.0147 -2.077639,0.11667 -3.085808,-0.26669 -0.579464,-0.21753 -1.152152,-0.46235 -1.660919,-0.82048 -0.533811,-0.40588 -0.951972,-0.9113 -1.234204,-1.52427 -0.356107,-0.75631 -0.644411,-1.54195 -0.839004,-2.35616 -0.174556,-0.80399 -0.304708,-1.61772 -0.312679,-2.4427 -0.002,-0.74801 0.01921,-1.51287 0.319631,-2.21101 0.329973,-0.56728 0.800315,-0.96974 1.392559,-1.25703 0.671503,-0.3329 1.366824,-0.61245 2.107763,-0.74894 1.29532,-0.22301 2.656652,-0.16959 3.936028,0.127 0.971756,0.24549 1.930459,0.53814 2.899629,0.79354 0.855315,0.22291 1.713022,0.43978 2.582733,0.59997 0.32728,0.0541 0.653605,0.10362 0.984135,0.13379 0.09171,0.009 0.367563,0.0173 0.275525,0.0204 -0.28617,0.01 -1.575095,0.009 -0.858993,0.004 0.148421,-0.0108 0.425689,0.004 0.470257,-0.18379 -0.04635,-0.21891 -0.256929,-0.36287 -0.405764,-0.51226 -0.359074,-0.31902 -0.737542,-0.61459 -1.110832,-0.91663 -0.418012,-0.3317 -0.834465,-0.66648 -1.225132,-1.03044 -0.403136,-0.37414 -0.77587,-0.77895 -1.152902,-1.17906 -0.406464,-0.44672 -0.807943,-0.90378 -1.136227,-1.41222 -0.279274,-0.4791 -0.531273,-0.97889 -0.634263,-1.52909 -0.09085,-0.54018 -0.129088,-1.08515 -0.157423,-1.63191 -0.03126,-0.56981 -0.04117,-1.1409 0.02222,-1.70932 0.06681,-0.64029 0.163967,-1.28135 0.473609,-1.85655 0.455767,-0.72862 1.056829,-1.33635 1.881898,-1.63255 1.261779,-0.30231 2.621094,-0.16869 3.87236,0.13542 0.823388,0.24513 1.652619,0.51386 2.385604,0.97245 0.562781,0.42584 0.955627,0.95325 1.187274,1.62627 0.223918,0.66116 0.398871,1.33671 0.508948,2.02676 0.129909,0.7402 0.252319,1.48457 0.291523,2.23598 0.0152,0.75311 -0.04931,1.50428 -0.248262,2.23373 -0.191686,0.68573 -0.402855,1.36787 -0.692203,2.01971 -0.138693,0.31529 -0.285905,0.62617 -0.439604,0.93441 0,0 -1.333931,-0.0618 -1.333931,-0.0618 z"
       inkscape:connector-curvature="0" />
    <circle
       style="opacity:1;fill:#000000;fill-opacity:1;fill-rule:evenodd;stroke:#000000;stroke-width:0.78064513;stroke-linecap:round;stroke-linejoin:miter;stroke-miterlimit:4;stroke-dasharray:none;stroke-dashoffset:0;stroke-opacity:1"
       id="path829-3"
       cx="-1.8890555"
       cy="155.51118"
       r="5.8548627"
       transform="matrix(-0.78467974,0.61990137,0.61990137,0.78467974,0,0)" />
    <path
       style="opacity:1;fill:#000000;fill-opacity:1;fill-rule:evenodd;stroke:#000000;stroke-width:0.78064513;stroke-linecap:round;stroke-linejoin:miter;stroke-miterlimit:4;stroke-dasharray:none;stroke-dashoffset:0;stroke-opacity:1"
       id="path833-6"
       d="m 95.833313,117.48434 c -0.3154,-0.13881 -0.62529,-0.28869 -0.9314,-0.44681 -0.63029,-0.3231 -1.21761,-0.72009 -1.79036,-1.13465 -0.59926,-0.43982 -1.10567,-0.9807 -1.55285,-1.57076 -0.4316,-0.60811 -0.7933,-1.2625 -1.14536,-1.91879 -0.33779,-0.6045 -0.61459,-1.23817 -0.84279,-1.89117 -0.22412,-0.65563 -0.22923,-1.28643 -0.0332,-1.94441 0.31258,-0.79569 0.7937,-1.50981 1.28932,-2.20108 0.0913,-0.11341 0.17913,-0.22971 0.27372,-0.34037 0.14575,-0.17071 0.4329,-0.47747 0.59819,-0.62912 0.10631,-0.0976 0.4425,-0.37072 0.33178,-0.27816 -0.2198,0.18511 -0.48354,0.32745 -0.66077,0.55362 -0.0883,0.1127 0.25443,-0.13142 0.38158,-0.19721 0.79707,-0.31025 1.62228,-0.22702 2.41428,0.0423 0.58505,0.24333 1.04366,0.67353 1.47845,1.12067 0.39721,0.4018 0.73934,0.85037 1.06403,1.31121 0.31335,0.44293 0.61841,0.89023 0.87751,1.36728 0.24961,0.48368 0.35247,1.01887 0.42305,1.5534 0.0464,0.59532 0.015,1.19464 -0.0309,1.7891 -0.0511,0.54505 -0.0905,1.09172 -0.18246,1.63172 -0.0837,0.52468 -0.20282,1.04323 -0.32712,1.55958 -0.10412,0.47218 -0.22265,0.94082 -0.30356,1.41774 -0.0424,0.24607 -0.084,0.50471 0.044,0.73023 0.18519,0.2128 0.41716,0.12383 0.63125,0.009 0.86064,-0.54949 1.592,-1.24188 2.262227,-1.99987 0.57567,-0.6693 1.11134,-1.37127 1.64126,-2.07689 0.59946,-0.80328 1.16943,-1.62782 1.78478,-2.41913 0.1,-0.1213 0.19634,-0.24571 0.30004,-0.36384 0.2177,-0.24806 0.39644,-0.42648 0.64645,-0.64122 0.11095,-0.0953 0.45139,-0.3719 0.34243,-0.27434 -0.65359,0.58438 -0.96909,0.73728 -0.30478,0.35534 0.65397,-0.35919 1.36296,-0.58042 2.08729,-0.74281 0.61802,-0.14227 1.2215,-0.14407 1.81837,0.0697 0.65769,0.33454 1.13185,0.90907 1.5799,1.47827 0.49931,0.64493 0.8971,1.35604 1.25422,2.08684 0.34698,0.75209 0.60125,1.53965 0.78122,2.34687 0.14863,0.64273 0.12208,1.28176 -0.0642,1.91026 -0.19027,0.58458 -0.48974,1.12291 -0.81421,1.642 -0.23034,0.53649 -1.98502,1.90903 -0.23104,0.4746 -0.50215,0.32202 -1.07533,0.50231 -1.64057,0.67842 -0.55651,0.19932 -1.12396,0.26133 -1.71023,0.23445 -0.65598,-0.0587 -1.29934,-0.20608 -1.9398,-0.35372 -0.66311,-0.147 -1.3187,-0.32433 -1.9727,-0.50691 -0.48272,-0.14667 -0.97097,-0.26961 -1.473,-0.32364 -0.19026,-0.0163 -0.385,-0.018 -0.56705,0.0456 -1.17788,1.12664 -1.2157,0.82603 -0.39149,1.76211 0.36577,0.4025 0.73411,0.80261 1.09798,1.20683 0.42399,0.48489 0.85958,0.95916 1.29396,1.43468 0.56461,0.62291 1.1041,1.26868 1.63146,1.92332 0.5372,0.66548 1.0523,1.34813 1.53126,2.05668 0.43142,0.65225 0.73863,1.37084 0.99157,2.10756 0.21983,0.66567 0.35547,1.35368 0.42576,2.05009 0.0522,0.6426 -0.0539,1.27192 -0.21517,1.89082 -0.14358,0.56101 -0.36036,1.09772 -0.61598,1.61601 -0.21289,0.59103 -1.69729,1.71823 0.0191,0.3286 -0.4176,0.30799 -0.89683,0.43216 -1.40416,0.48165 -0.61242,0.0557 -1.18427,-0.15985 -1.74357,-0.37956 -0.67394,-0.27788 -1.33222,-0.58932 -1.97672,-0.92942 -0.5948,-0.3126 -1.17205,-0.65512 -1.69118,-1.08285 -0.49762,-0.45597 -0.842587,-1.03461 -1.175957,-1.61339 -0.31988,-0.58204 -0.61767,-1.17564 -0.89031,-1.78119 -0.26373,-0.56846 -0.47901,-1.15724 -0.67089,-1.75325 -0.18672,-0.54929 -0.31086,-1.11427 -0.38791,-1.68843 -0.0544,-0.50264 -0.0496,-1.00898 -0.067,-1.51366 -0.0209,-0.23549 -2e-5,-0.47962 -0.0637,-0.70952 -0.41532,-0.57734 -1.16604,0.67258 -1.44002,1.11863 -0.17455,0.30959 -0.34957,0.61888 -0.51613,0.93287 -0.21401,0.39124 -0.4364,0.77802 -0.66884,1.15859 -0.34999,0.53405 -0.75431,1.02959 -1.15883,1.52266 -0.44962,0.5504 -0.9242,1.07918 -1.40867,1.5989 -0.55712,0.60261 -1.15055,1.16879 -1.7737,1.70232 0.22387,-0.17792 0.45454,-0.34761 0.6713,-0.53414 0.11244,-0.0965 -0.23561,0.17976 -0.35704,0.26472 -0.49785,0.35265 -1.01878,0.64181 -1.5722,0.89628 -0.7799,0.3263 -1.61288,0.39074 -2.44338,0.28523 -0.70553,-0.1342 -1.23717,-0.49222 -1.51443,-1.15613 -0.21598,-1.02883 0.20947,-2.02909 0.60321,-2.96005 0.57176,-1.24329 1.25402,-2.43173 1.97469,-3.59366 0.60005,-0.95989 1.28269,-1.86328 1.99624,-2.74069 0.55698,-0.68852 1.16522,-1.32813 1.86005,-1.87753 -1.79669,1.26395 0.27515,-0.0336 0.71672,-0.22137 0.18226,-0.0459 0.54557,-0.25164 0.71595,-0.0676 0.0225,0.15385 -0.0896,0.30986 -0.17024,0.43347 -1.07818,1.00616 1.12113,-0.78553 0.4725,-0.33874 -0.3004,0.19692 -0.64018,0.30796 -0.98607,0.39268 -0.50287,0.10911 -1.0198,0.0713 -1.52779,0.0273 -0.61835,-0.0598 -1.22753,-0.18243 -1.83272,-0.31914 -0.70828,-0.15318 -1.38893,-0.39798 -2.05472,-0.67993 -0.7932,-0.34934 -1.51486,-0.82891 -2.20094,-1.35347 -0.67233,-0.54466 -1.29522,-1.14818 -1.88082,-1.78439 -0.30581,-0.34999 -0.61312,-0.74883 -0.56559,-1.23686 0.19076,-0.33518 1.11336,-1.07552 -0.76347,0.5667 -0.0384,0.0329 0.0895,-0.0478 0.13659,-0.0661 0.12556,-0.0492 0.19925,-0.0575 0.33244,-0.0839 0.41597,-0.0608 0.83803,-0.051 1.25723,-0.0486 0.40176,-4.8e-4 0.80347,0.0106 1.20338,0.0499 0.47671,0.0605 0.92847,0.22437 1.37028,0.40591 0.50663,0.21924 1.00253,0.4618 1.4973,0.70632 0.50171,0.24535 1.01978,0.45495 1.53781,0.66285 0.51657,0.22449 1.05233,0.39754 1.59095,0.55985 0.45976,0.13062 0.92511,0.24036 1.38966,0.35235 0,0 0.97862,-0.88527 0.97862,-0.88527 v 0 c -0.46301,-0.1104 -0.92665,-0.219 -1.38542,-0.34616 -0.53545,-0.1601 -1.06953,-0.32789 -1.58258,-0.55151 -0.51542,-0.20613 -1.03114,-0.41332 -1.53131,-0.6547 -0.49647,-0.24663 -0.99446,-0.49037 -1.50192,-0.71379 -0.44937,-0.18929 -0.908,-0.36168 -1.39245,-0.43658 -0.40243,-0.0491 -0.80816,-0.0594 -1.21337,-0.0593 -0.42371,-0.003 -0.84931,-0.0146 -1.27132,0.0306 -0.7143,0.097 -1.57504,0.51493 -1.74982,1.25963 0.0115,0.51854 0.29895,0.93586 0.64036,1.30942 0.59276,0.63981 1.22134,1.24794 1.89779,1.79937 0.69219,0.53303 1.42029,1.02034 2.21918,1.38108 0.66952,0.28858 1.35355,0.54224 2.06704,0.70048 0.60854,0.14053 1.22091,0.26773 1.84269,0.33388 0.51523,0.0494 1.03911,0.0962 1.55279,0.007 0.35338,-0.0759 0.70174,-0.17349 1.01647,-0.35736 0.57988,-0.35424 1.17576,-0.76353 1.57327,-1.3233 0.096,-0.18034 0.18273,-0.37705 0.0751,-0.5726 -0.22404,-0.2518 -0.55532,-0.13957 -0.83566,-0.0433 -1.04322,0.41373 -1.92538,1.08483 -2.78068,1.80873 -0.6832,0.56242 -1.28576,1.20738 -1.83934,1.89759 -0.70795,0.88094 -1.38543,1.78708 -1.97938,2.74989 -0.71609,1.16876 -1.39904,2.36101 -1.96451,3.61112 -0.3996,0.96548 -0.81952,1.99954 -0.56065,3.05772 0.30725,0.69679 0.85297,1.10067 1.60245,1.25837 0.84312,0.12593 1.69584,0.0742 2.49779,-0.23594 1.23119,-0.53947 2.28979,-1.33323 3.3069,-2.21177 0.62022,-0.54019 1.21199,-1.11117 1.76934,-1.71643 0.48395,-0.52246 0.95743,-1.05446 1.40662,-1.60735 0.40533,-0.49778 0.81084,-0.99827 1.15446,-1.54162 0.23108,-0.38409 0.45621,-0.7719 0.66874,-1.16661 0.16941,-0.31156 0.34048,-0.6225 0.52342,-0.92637 0.54841,-0.84499 0.0304,0.0352 -0.77659,0.35134 0.0446,0.22429 0.0389,0.45491 0.0563,0.68203 0.0198,0.5075 0.017,1.01695 0.0787,1.52185 0.0835,0.58005 0.21306,1.15087 0.40301,1.70609 0.19613,0.59948 0.41346,1.19241 0.68006,1.76464 0.27646,0.60827 0.57679,1.20517 0.89999,1.79005 0.34158,0.59209 0.69614,1.18305 1.20371,1.65112 0.523867,0.43625 1.107337,0.78546 1.710227,1.10224 0.64811,0.34246 1.30911,0.65758 1.98581,0.94003 0.56903,0.23025 1.15353,0.46577 1.77965,0.42864 0.51866,-0.0331 1.01733,-0.13312 1.45518,-0.43154 0.80195,-0.62335 1.56866,-1.07488 2.00143,-1.99264 0.2487,-0.52662 0.45984,-1.07018 0.59912,-1.63688 0.15492,-0.63234 0.2495,-1.2756 0.18793,-1.92852 -0.0784,-0.70425 -0.21889,-1.40008 -0.44553,-2.07269 -0.26039,-0.74582 -0.5753,-1.47308 -1.01402,-2.13369 -0.48258,-0.71039 -1.00025,-1.39549 -1.53941,-2.06394 -0.5282,-0.6573 -1.06996,-1.30435 -1.63273,-1.93234 -0.43135,-0.47777 -0.86585,-0.95258 -1.28942,-1.43731 -0.36229,-0.40486 -0.72998,-0.80479 -1.09442,-1.2077 -0.14431,-0.16541 -0.29078,-0.33097 -0.41669,-0.51132 -0.11571,-0.16631 -0.12047,-0.2246 -0.12106,-0.22422 -0.35577,0.23276 -0.67336,0.51922 -1.01004,0.77882 0.0977,-0.15578 0.34763,-0.1178 0.50256,-0.12302 0.49942,0.0405 0.98565,0.15108 1.46411,0.29996 0.65599,0.18242 1.31298,0.36177 1.97771,0.51015 0.64555,0.15063 1.29316,0.30096 1.95338,0.37193 0.59551,0.0397 1.17384,0.003 1.74189,-0.19992 0.57135,-0.17425 1.15059,-0.34956 1.67007,-0.65111 0.8486,-0.65166 1.70261,-1.19638 2.25604,-2.12215 0.31985,-0.52991 0.61746,-1.07702 0.79468,-1.67342 0.16726,-0.6494 0.18207,-1.30521 0.0236,-1.96116 -0.18941,-0.8142 -0.4502,-1.6094 -0.80224,-2.36892 -0.36142,-0.73909 -0.76373,-1.45829 -1.26888,-2.11057 -0.46212,-0.58819 -0.9529,-1.17522 -1.62142,-1.5368 -0.61058,-0.24058 -1.22913,-0.26481 -1.87196,-0.12311 -0.73327,0.15505 -1.45217,0.36673 -2.11818,0.71893 -1.15466,0.62798 -2.18977,1.51379 -3.00982,2.5396 -0.61034,0.79503 -1.18121,1.61896 -1.78337,2.42016 -0.53298,0.70512 -1.071557,1.40699 -1.654697,2.07182 -0.22328,0.24533 -0.44864,0.48648 -0.6893,0.71505 -0.0664,0.0639 -0.27769,0.24143 -0.20355,0.1868 0.23075,-0.16955 1.24152,-0.96934 0.67651,-0.52935 -0.12316,0.0835 -0.33155,0.26703 -0.48293,0.1473 -0.0993,-0.20054 -0.0233,-0.44401 8.4e-4,-0.6535 0.084,-0.47291 0.19776,-0.93945 0.30344,-1.40785 0.12238,-0.51941 0.24163,-1.04026 0.32256,-1.56803 0.0844,-0.54349 0.12594,-1.09219 0.17376,-1.63987 0.042,-0.6025 0.0737,-1.21002 0.0161,-1.81249 -0.0779,-0.54906 -0.18994,-1.09745 -0.4502,-1.59302 -0.26361,-0.48016 -0.57139,-0.93152 -0.8881,-1.37812 -0.32866,-0.46652 -0.67491,-0.92078 -1.07703,-1.3275 -0.44933,-0.46102 -0.92296,-0.90381 -1.5225,-1.16321 -0.80931,-0.28921 -1.65768,-0.39348 -2.48871,-0.11444 -1.17749,0.54496 -2.16129,1.49245 -2.95461,2.50674 -0.49414,0.70277 -0.97824,1.42768 -1.26912,2.24191 -0.17762,0.68301 -0.15894,1.34038 0.0765,2.01209 0.23415,0.6576 0.51564,1.29615 0.85703,1.90585 0.35691,0.66136 0.7223,1.32133 1.15734,1.93525 0.45492,0.60037 0.97119,1.14981 1.57949,1.59886 0.5755,0.41925 1.16406,0.82361 1.79518,1.15573 0.30428,0.16142 0.61251,0.31411 0.92419,0.4607 0,0 1.0084,-0.8754 1.0084,-0.8754 z"
       inkscape:connector-curvature="0" />
    <circle
       style="opacity:1;fill:#000000;fill-opacity:1;fill-rule:evenodd;stroke:#000000;stroke-width:0.78064513;stroke-linecap:round;stroke-linejoin:miter;stroke-miterlimit:4;stroke-dasharray:none;stroke-dashoffset:0;stroke-opacity:1"
       id="path829-7"
       cx="96.361786"
       cy="-215.77223"
       r="5.8548627"
       transform="scale(1,-1)" />
    <path
       style="opacity:1;fill:#000000;fill-opacity:1;fill-rule:evenodd;stroke:#000000;stroke-width:0.78064513;stroke-linecap:round;stroke-linejoin:miter;stroke-miterlimit:4;stroke-dasharray:none;stroke-dashoffset:0;stroke-opacity:1"
       id="path833-5"
       d="m 95.88108,219.68853 c 0.16145,0.30444 0.31169,0.61415 0.45388,0.92798 0.29428,0.64425 0.50904,1.31984 0.70148,2.00019 0.19759,0.71659 0.25967,1.45494 0.24477,2.19515 -0.0383,0.74472 -0.16013,1.48243 -0.29071,2.21565 -0.10968,0.68374 -0.28529,1.35255 -0.51102,2.00641 -0.23057,0.65339 -0.61758,1.15153 -1.17926,1.54634 -0.73853,0.4306 -1.55874,0.6927 -2.37616,0.9279 -0.14193,0.0324 -0.28295,0.0692 -0.42578,0.0974 -0.22019,0.0436 -0.63566,0.1063 -0.85938,0.12283 -0.14392,0.0107 -0.57702,0.0166 -0.43277,0.0126 0.28723,-0.009 0.58242,0.0428 0.86168,-0.0248 0.13915,-0.0337 -0.28111,-0.0546 -0.42166,-0.0818 -0.81778,-0.25066 -1.4137,-0.82751 -1.86824,-1.52978 -0.30824,-0.55361 -0.40142,-1.17547 -0.4654,-1.79586 -0.0626,-0.56152 -0.053,-1.12559 -0.0221,-1.68847 0.0287,-0.54181 0.0666,-1.0819 0.15901,-1.61685 0.10397,-0.53427 0.35503,-1.01798 0.63099,-1.48117 0.33268,-0.49587 0.72882,-0.9467 1.1333,-1.38474 0.37796,-0.39602 0.74774,-0.80057 1.15468,-1.16727 0.39095,-0.35979 0.80584,-0.69287 1.22346,-1.02098 0.3744,-0.30597 0.75792,-0.60023 1.11706,-0.9243 0.18579,-0.16682 0.37881,-0.34395 0.41815,-0.60027 -0.0134,-0.28178 -0.25058,-0.35576 -0.48988,-0.39821 -1.01596,-0.10233 -2.01906,-0.0124 -3.01484,0.1669 -0.86662,0.16833 -1.7221,0.3871 -2.57533,0.61228 -0.96834,0.25871 -1.92671,0.55239 -2.90009,0.79186 -0.15366,0.0332 -0.30638,0.0711 -0.46098,0.0995 -0.3246,0.0597 -0.57546,0.0889 -0.90474,0.10243 -0.14614,0.006 -0.58475,0.012 -0.43876,0.003 0.87511,-0.0534 1.21745,0.0222 0.45943,-0.0899 -0.73582,-0.12355 -1.42929,-0.38945 -2.09832,-0.71104 -0.57314,-0.27147 -1.0478,-0.64416 -1.3836,-1.18192 -0.3087,-0.67021 -0.32461,-1.41496 -0.32334,-2.13935 0.008,-0.81558 0.13668,-1.62017 0.30947,-2.41499 0.19396,-0.80525 0.48265,-1.58085 0.84183,-2.32582 0.28179,-0.59648 0.69876,-1.08145 1.23454,-1.45915 0.51169,-0.34076 1.08039,-0.57753 1.65677,-0.78371 0.51332,-0.27819 2.74102,-0.26746 0.4755,-0.22919 0.59366,0.0586 1.15517,0.27244 1.70788,0.48465 0.56024,0.18858 1.04394,0.49168 1.48731,0.8762 0.47834,0.45271 0.89182,0.96717 1.30284,1.48003 0.4292,0.52641 0.83371,1.07196 1.2337,1.62064 0.28786,0.41433 0.59476,0.81346 0.95519,1.16706 0.1392,0.13073 0.29095,0.25278 0.47325,0.31571 1.62265,-0.15389 1.46599,0.10544 1.39953,-1.14001 -0.0375,-0.54257 -0.0785,-1.08486 -0.11346,-1.62761 -0.0321,-0.64331 -0.0799,-1.28548 -0.12597,-1.92788 -0.0569,-0.83879 -0.0799,-1.67994 -0.0879,-2.52053 -0.009,-0.8552 0.01,-1.71017 0.0734,-2.56306 0.0658,-0.77925 0.2702,-1.53355 0.52842,-2.26844 0.24015,-0.6586 0.56023,-1.28255 0.93678,-1.87259 0.35739,-0.53659 0.83073,-0.96464 1.34096,-1.3503 0.46043,-0.35121 0.96323,-0.63798 1.4851,-0.88621 0.53343,-0.3318 2.39696,-0.29611 0.18867,-0.26972 0.51862,0.0172 0.97162,0.21684 1.40039,0.49251 0.51508,0.33592 0.83017,0.85955 1.13286,1.37866 0.35655,0.63582 0.68003,1.28827 0.97492,1.95466 0.27294,0.61401 0.51357,1.24061 0.65578,1.89805 0.10781,0.66626 0.0198,1.33416 -0.0774,1.99497 -0.1098,0.65501 -0.24411,1.3054 -0.40556,1.94957 -0.14545,0.60954 -0.34151,1.205 -0.56041,1.79163 -0.19399,0.54676 -0.4468,1.06704 -0.74228,1.56534 -0.26892,0.42811 -0.5865,0.8225 -0.88573,1.22927 -0.12955,0.19777 -0.29731,0.37636 -0.38986,0.59623 -0.032,0.71048 1.3319,0.19507 1.82339,0.0149 0.32888,-0.13472 0.65795,-0.26892 0.98328,-0.41205 0.41046,-0.17433 0.82473,-0.33997 1.24305,-0.49451 0.60569,-0.2021 1.23013,-0.3403 1.8532,-0.47644 0.69401,-0.15317 1.39419,-0.2739 2.09652,-0.38139 0.81072,-0.1275 1.62734,-0.2039 2.44705,-0.23626 -0.28596,8.4e-4 -0.57214,-0.009 -0.85787,0.003 -0.14804,0.006 0.29631,0.005 0.44427,0.0136 0.60926,0.0319 1.19727,0.12793 1.78928,0.27132 0.81424,0.22742 1.5078,0.69322 2.09409,1.29084 0.47041,0.54266 0.66564,1.15316 0.47164,1.84599 -0.46829,0.94119 -1.42219,1.46233 -2.30826,1.94876 -1.21937,0.62115 -2.49144,1.13076 -3.77721,1.59576 -1.06588,0.38123 -2.16156,0.66693 -3.26538,0.91309 -0.86386,0.19499 -1.73763,0.31983 -2.62342,0.32021 2.19336,0.12198 -0.23672,-0.14421 -0.69963,-0.27059 -0.17144,-0.077 -0.58408,-0.14074 -0.60369,-0.39077 0.0777,-0.13468 0.26234,-0.18762 0.40228,-0.2346 1.46976,-0.12115 -1.36667,-0.0786 -0.58073,-0.0271 0.35778,0.0317 0.69324,0.1552 1.01716,0.30314 0.46224,0.22611 0.84439,0.57626 1.21576,0.92566 0.44815,0.43021 0.85013,0.90409 1.24026,1.38652 0.46082,0.55927 0.84315,1.17329 1.1908,1.80725 0.40586,0.76583 0.67485,1.5895 0.88801,2.42641 0.18993,0.84416 0.30458,1.70386 0.3697,2.5661 0.023,0.4642 0.0169,0.96766 -0.32293,1.32115 -0.35745,0.14475 -1.54034,0.15376 0.95038,0.0286 0.0505,-0.002 -0.0998,-0.018 -0.14815,-0.0328 -0.12905,-0.0392 -0.192,-0.0784 -0.3129,-0.14021 -0.36409,-0.21017 -0.68919,-0.47948 -1.01662,-0.74127 -0.31555,-0.24867 -0.62389,-0.50639 -0.9133,-0.78517 -0.33658,-0.34295 -0.58946,-0.75162 -0.82361,-1.16795 -0.26164,-0.48609 -0.50039,-0.98383 -0.73705,-1.48241 -0.24158,-0.50353 -0.51818,-0.98915 -0.79578,-1.47342 -0.26619,-0.49637 -0.57931,-0.96428 -0.90133,-1.42553 -0.2798,-0.3875 -0.57693,-0.76208 -0.87203,-1.13793 0,0 -1.31668,0.088 -1.31668,0.088 v 0 c 0.29487,0.37365 0.59136,0.74628 0.87253,1.13045 0.32091,0.45755 0.63598,0.92029 0.89994,1.4138 0.27666,0.48126 0.55289,0.96353 0.79573,1.46299 0.23668,0.50129 0.47636,1.00125 0.73604,1.49114 0.23528,0.4271 0.48829,0.84668 0.82199,1.20576 0.28537,0.28797 0.59735,0.54758 0.91534,0.79872 0.3306,0.26503 0.65741,0.53792 1.01652,0.76412 0.62065,0.36666 1.55512,0.57231 2.1539,0.0963 0.31245,-0.41399 0.34555,-0.91966 0.30923,-1.42443 -0.0686,-0.8695 -0.18477,-1.73634 -0.37373,-2.58837 -0.21271,-0.84735 -0.48197,-1.68108 -0.8852,-2.45938 -0.34647,-0.64148 -0.72598,-1.26455 -1.18775,-1.83101 -0.39038,-0.48751 -0.79205,-0.96693 -1.23895,-1.40428 -0.37368,-0.35814 -0.75571,-0.71966 -1.21427,-0.96784 -0.32432,-0.15954 -0.6582,-0.29887 -1.01913,-0.3497 -0.67463,-0.0815 -1.39592,-0.12973 -2.05483,0.0631 -0.18712,0.082 -0.37712,0.18259 -0.41384,0.40278 0.0197,0.33647 0.34921,0.45376 0.62885,0.55204 1.07507,0.32204 2.18329,0.3423 3.30318,0.30447 0.88474,-0.0178 1.75737,-0.15036 2.61961,-0.34879 1.10161,-0.2524 2.19492,-0.54346 3.25783,-0.93076 1.28642,-0.4732 2.5614,-0.98537 3.78006,-1.61577 0.91205,-0.50989 1.88258,-1.06098 2.33542,-2.05179 0.19084,-0.73722 0.013,-1.39243 -0.47736,-1.98078 -0.58351,-0.62146 -1.2847,-1.10945 -2.10622,-1.36324 -1.30051,-0.33991 -2.62323,-0.37329 -3.96594,-0.31442 -0.82153,0.0394 -1.63984,0.12059 -2.45237,0.25003 -0.70362,0.10996 -1.40495,0.2339 -2.10015,0.38929 -0.62663,0.13933 -1.25508,0.28068 -1.86154,0.49402 -0.41942,0.15815 -0.83647,0.3229 -1.24793,0.50087 -0.32607,0.13946 -0.65306,0.2774 -0.98497,0.40243 -0.95413,0.32309 -0.002,-0.0465 0.82718,0.20572 0.10406,-0.20362 0.25142,-0.3811 0.37857,-0.57009 0.29907,-0.4105 0.61708,-0.80853 0.88166,-1.24295 0.29405,-0.50691 0.54623,-1.03515 0.74137,-1.58856 0.21771,-0.59199 0.41474,-1.19197 0.56028,-1.80625 0.16012,-0.64868 0.29448,-1.30323 0.40344,-1.96252 0.099,-0.67635 0.18713,-1.35986 0.079,-2.04179 -0.14064,-0.66706 -0.38198,-1.30276 -0.65868,-1.92507 -0.29628,-0.67048 -0.6196,-1.32751 -0.9755,-1.96862 -0.30377,-0.53342 -0.61642,-1.08055 -1.13073,-1.43955 -0.42747,-0.29558 -0.8808,-0.52618 -1.40935,-0.56344 -1.0157,-0.008 -1.89721,-0.12897 -2.80572,0.3229 -0.5216,0.25906 -1.02423,0.5547 -1.48482,0.91303 -0.51355,0.40015 -0.98652,0.84628 -1.34297,1.39678 -0.37507,0.60119 -0.69615,1.2343 -0.93525,1.90258 -0.25801,0.74665 -0.46175,1.51253 -0.52701,2.30285 -0.0617,0.85658 -0.0802,1.71507 -0.0715,2.57382 0.007,0.84319 0.031,1.68675 0.0833,2.52839 0.0423,0.64228 0.0889,1.2842 0.12079,1.92713 0.0333,0.54227 0.0739,1.08401 0.11011,1.62609 0.0107,0.21925 0.023,0.43996 0.01,0.65952 -0.0123,0.20223 -0.0447,0.25092 -0.044,0.25099 0.42345,0.0379 0.85023,0.01 1.27535,0.015 -0.17321,0.0617 -0.3458,-0.12306 -0.47061,-0.215 -0.36679,-0.34136 -0.67977,-0.72956 -0.96291,-1.14297 -0.40165,-0.54979 -0.80601,-1.0978 -1.23562,-1.62629 -0.41317,-0.51837 -0.82815,-1.03778 -1.30221,-1.50274 -0.44265,-0.40034 -0.91912,-0.73016 -1.49074,-0.92292 -0.55635,-0.21745 -1.11954,-0.43896 -1.71409,-0.52437 -1.06985,-0.0147 -2.07764,-0.11667 -3.08581,0.26669 -0.57946,0.21753 -1.15215,0.46235 -1.66092,0.82048 -0.53381,0.40588 -0.95197,0.9113 -1.2342,1.52427 -0.35611,0.75631 -0.64441,1.54195 -0.83901,2.35616 -0.17455,0.80399 -0.3047,1.61772 -0.31267,2.4427 -0.002,0.74801 0.0192,1.51287 0.31963,2.21101 0.32997,0.56728 0.80031,0.96974 1.39256,1.25703 0.6715,0.33289 1.36682,0.61244 2.10776,0.74893 1.29532,0.22301 2.65665,0.16959 3.93603,-0.127 0.97175,-0.24549 1.93046,-0.53813 2.89963,-0.79353 0.85531,-0.22291 1.71302,-0.43978 2.58273,-0.59997 0.32728,-0.0541 0.6536,-0.10362 0.98413,-0.13379 0.0917,-0.009 0.36757,-0.0173 0.27553,-0.0204 -0.28617,-0.01 -1.5751,-0.009 -0.85899,-0.004 0.14842,0.0108 0.42569,-0.004 0.47025,0.18379 -0.0464,0.21891 -0.25693,0.36287 -0.40576,0.51226 -0.35907,0.31902 -0.73754,0.61458 -1.11083,0.91662 -0.41801,0.3317 -0.83447,0.66648 -1.22513,1.03044 -0.40314,0.37414 -0.77587,0.77895 -1.15291,1.17906 -0.40646,0.44672 -0.80794,0.90378 -1.13622,1.41222 -0.27928,0.4791 -0.53128,0.97889 -0.63427,1.52909 -0.0909,0.54018 -0.12909,1.08515 -0.15742,1.63191 -0.0313,0.56981 -0.0412,1.1409 0.0222,1.70932 0.0668,0.64029 0.16397,1.28135 0.47361,1.85655 0.45577,0.72862 1.05683,1.33635 1.8819,1.63255 1.26178,0.30231 2.62109,0.16869 3.87236,-0.13542 0.82339,-0.24513 1.65262,-0.51386 2.3856,-0.97245 0.56278,-0.42584 0.95563,-0.95325 1.18727,-1.62627 0.22392,-0.66116 0.39888,-1.33671 0.50895,-2.02676 0.12991,-0.7402 0.25232,-1.48457 0.29153,-2.23598 0.0152,-0.75311 -0.0493,-1.50428 -0.24827,-2.23373 -0.19168,-0.68573 -0.40285,-1.36787 -0.6922,-2.01971 -0.13869,-0.31529 -0.2859,-0.62617 -0.4396,-0.93441 0,0 -1.33393,0.0618 -1.33393,0.0618 z"
       inkscape:connector-curvature="0" />
    <circle
       style="opacity:1;fill:#000000;fill-opacity:1;fill-rule:evenodd;stroke:#000000;stroke-width:0.64861399;stroke-linecap:round;stroke-linejoin:miter;stroke-miterlimit:4;stroke-dasharray:none;stroke-dashoffset:0;stroke-opacity:1"
       id="path829-35"
       cx="-93.486015"
       cy="-255.87735"
       r="4.864625"
       transform="rotate(-171.30839)" />
    <path
       style="opacity:1;fill:#000000;fill-opacity:1;fill-rule:evenodd;stroke:#000000;stroke-width:0.69631439;stroke-linecap:round;stroke-linejoin:miter;stroke-miterlimit:4;stroke-dasharray:none;stroke-dashoffset:0;stroke-opacity:1"
       id="path833-62"
       d="m 52.603371,268.47638 c -0.183386,0.24667 -0.357607,0.4995 -0.525277,0.75705 -0.346321,0.52838 -0.626746,1.09513 -0.888128,1.66908 -0.270807,0.60519 -0.42507,1.24785 -0.511709,1.90253 -0.06663,0.6618 -0.05863,1.32869 -0.04232,1.99279 0.0045,0.61766 0.06923,1.23103 0.180134,1.83799 0.115225,0.60719 0.389323,1.09858 0.831356,1.52241 0.593136,0.47922 1.281011,0.82088 1.970052,1.13844 0.12078,0.0477 0.240163,0.0992 0.362299,0.14324 0.188277,0.0681 0.546158,0.17939 0.741186,0.22414 0.125443,0.029 0.506543,0.0924 0.379882,0.0694 -0.252121,-0.0462 -0.519307,-0.0407 -0.756426,-0.13801 -0.11815,-0.0485 0.255228,-0.0107 0.382824,-0.0154 0.754844,-0.11078 1.358043,-0.53909 1.853483,-1.09703 0.346402,-0.44659 0.512388,-0.98235 0.652427,-1.52073 0.130891,-0.48667 0.198413,-0.98533 0.247076,-1.4858 0.04775,-0.48159 0.08713,-0.96292 0.07773,-1.44706 -0.01967,-0.48509 -0.175827,-0.94544 -0.356718,-1.39104 -0.22649,-0.48207 -0.515014,-0.93298 -0.812609,-1.37373 -0.279879,-0.40013 -0.551399,-0.80667 -0.860778,-1.18485 -0.296223,-0.36994 -0.617147,-0.71955 -0.941148,-1.06514 -0.288874,-0.32025 -0.587374,-0.63142 -0.860351,-0.96557 -0.141333,-0.17213 -0.287647,-0.35432 -0.287786,-0.58564 0.04978,-0.24664 0.268896,-0.2799 0.485614,-0.28508 0.909594,0.0467 1.781935,0.26123 2.635783,0.55354 0.741429,0.26523 1.466243,0.57344 2.188208,0.887 0.818944,0.35863 1.624384,0.74676 2.450364,1.08913 0.13101,0.05 0.260554,0.10402 0.393043,0.14989 0.278158,0.0964 0.495409,0.15599 0.783932,0.21227 0.128038,0.025 0.513965,0.0894 0.386541,0.0613 -0.764405,-0.16507 -1.076451,-0.14458 -0.392973,-0.1412 0.665446,-0.01 1.312735,-0.15075 1.945992,-0.34412 0.541946,-0.16211 1.010701,-0.42674 1.379276,-0.85564 0.362524,-0.54933 0.476943,-1.20386 0.573465,-1.84274 0.102609,-0.72024 0.09787,-1.44698 0.05265,-2.17108 -0.06248,-0.73616 -0.212476,-1.45894 -0.428762,-2.16422 -0.168068,-0.56392 -0.470351,-1.04773 -0.891854,-1.45298 -0.405239,-0.36942 -0.874762,-0.65485 -1.355183,-0.91434 -0.415114,-0.31448 -2.380791,-0.60529 -0.388374,-0.26617 -0.531341,-0.0283 -1.055271,0.0845 -1.571216,0.19712 -0.519395,0.0907 -0.986745,0.29281 -1.429502,0.57209 -0.482791,0.3347 -0.916711,0.73258 -1.348252,1.12938 -0.449392,0.40629 -0.879594,0.8328 -1.306235,1.26268 -0.309664,0.32651 -0.634066,0.63707 -0.999534,0.90027 -0.140351,0.0965 -0.290612,0.18367 -0.459828,0.21458 -1.41,-0.35441 -1.306818,-0.10467 -1.080343,-1.19382 0.106216,-0.47335 0.215451,-0.94598 0.319428,-1.41983 0.114992,-0.56289 0.243735,-1.12266 0.370935,-1.68288 0.163258,-0.73192 0.296928,-1.47047 0.417289,-2.21056 0.12334,-0.75284 0.221815,-1.50925 0.280798,-2.26983 0.04701,-0.69596 -0.03154,-1.38859 -0.160155,-2.07137 -0.12298,-0.61308 -0.321093,-1.20638 -0.573578,-1.77739 -0.242793,-0.5213 -0.602455,-0.96253 -1.000354,-1.37136 -0.358635,-0.37173 -0.763319,-0.69236 -1.190009,-0.98157 -0.425615,-0.36446 -2.073552,-0.58418 -0.129999,-0.26324 -0.459598,-0.0547 -0.885932,0.0602 -1.301153,0.2455 -0.499439,0.22675 -0.847845,0.64598 -1.184702,1.06289 -0.400089,0.51257 -0.773254,1.04426 -1.12309,1.59207 -0.323423,0.50461 -0.620057,1.02466 -0.834059,1.58518 -0.18486,0.57293 -0.197279,1.1737 -0.20069,1.76945 0.0085,0.59235 0.03928,1.18392 0.09481,1.77366 0.04609,0.55706 0.138693,1.10852 0.252633,1.65527 0.09735,0.50824 0.250132,1.00107 0.443496,1.48026 0.179414,0.41373 0.406276,0.80429 0.615284,1.20328 0.08757,0.19183 0.211413,0.37192 0.263387,0.57826 -0.06754,0.63077 -1.200672,-0.008 -1.609754,-0.23262 -0.271824,-0.16311 -0.543885,-0.32579 -0.811446,-0.49585 -0.338419,-0.20904 -0.681365,-0.41093 -1.029376,-0.60358 -0.506811,-0.25984 -1.03877,-0.46586 -1.569804,-0.66989 -0.591281,-0.22859 -1.192379,-0.42942 -1.797151,-0.61886 -0.697651,-0.22171 -1.407398,-0.39915 -2.125795,-0.53817 0.252024,0.0393 0.50561,0.0697 0.756083,0.11776 0.129718,0.0252 -0.261915,-0.0358 -0.393555,-0.0479 -0.541499,-0.054 -1.072915,-0.0486 -1.614232,-0.002 -0.748598,0.0907 -1.422915,0.40799 -2.020416,0.8559 -0.487922,0.41508 -0.742354,0.92705 -0.664683,1.56409 0.286043,0.893 1.056878,1.48108 1.772587,2.02942 0.991424,0.71204 2.044357,1.33285 3.115381,1.91617 0.888434,0.47981 1.816012,0.8794 2.756104,1.24523 0.735405,0.28838 1.489009,0.51622 2.269986,0.63596 -1.95039,-0.18809 0.228164,-0.0952 0.653359,-0.14429 0.161544,-0.0448 0.533972,-0.0453 0.584966,-0.26318 -0.05035,-0.12922 -0.206028,-0.20078 -0.323084,-0.26108 -1.279597,-0.30493 1.215624,0.11492 0.515701,0.0544 -0.319734,-0.0203 -0.632173,0.0434 -0.937725,0.13017 -0.438046,0.13707 -0.822202,0.39431 -1.196738,0.65232 -0.453145,0.31893 -0.871453,0.68259 -1.280468,1.05537 -0.481703,0.431 -0.901586,0.92087 -1.293572,1.43299 -0.461083,0.62056 -0.809279,1.31055 -1.110042,2.01974 -0.281254,0.71873 -0.498222,1.46129 -0.671866,2.21278 -0.08288,0.40619 -0.145363,0.85093 0.106657,1.20843 0.295669,0.1758 1.33744,0.34319 -0.841838,-0.10284 -0.04422,-0.009 0.09039,-0.002 0.135045,-0.009 0.119074,-0.0172 0.179848,-0.0432 0.29479,-0.0815 0.349357,-0.13624 0.67231,-0.32987 0.996298,-0.51658 0.311751,-0.17672 0.618362,-0.3624 0.911117,-0.56919 0.343005,-0.25703 0.621062,-0.58328 0.883633,-0.91882 0.296215,-0.39332 0.573827,-0.80001 0.849696,-1.20772 0.280885,-0.41141 0.590225,-0.80232 0.900268,-1.19189 0.30161,-0.40179 0.640774,-0.77216 0.986882,-1.13544 0.298938,-0.30397 0.611413,-0.59419 0.922274,-0.88581 0,0 1.149096,0.25505 1.149096,0.25505 v 0 c -0.31036,0.28973 -0.622013,0.5783 -0.921708,0.87914 -0.344627,0.36019 -0.68481,0.72573 -0.984071,1.12529 -0.308811,0.38705 -0.617379,0.77505 -0.898823,1.18271 -0.276256,0.41009 -0.554974,0.81862 -0.84998,1.21557 -0.265019,0.34487 -0.544667,0.68072 -0.887302,0.95235 -0.290429,0.21545 -0.600502,0.4023 -0.914738,0.58088 -0.327223,0.18912 -0.652162,0.38569 -0.999295,0.53672 -0.596663,0.23965 -1.448335,0.29502 -1.912131,-0.20542 -0.219693,-0.40714 -0.180723,-0.85747 -0.08066,-1.29764 0.177647,-0.75742 0.396953,-1.50608 0.678412,-2.23188 0.301773,-0.71844 0.65156,-1.41728 1.112016,-2.04918 0.39196,-0.51891 0.810565,-1.01714 1.294076,-1.45435 0.409925,-0.37725 0.828709,-0.74581 1.281702,-1.07122 0.377762,-0.26541 0.763337,-0.53267 1.20112,-0.68969 0.307463,-0.0969 0.620635,-0.17481 0.945732,-0.17096 0.60582,0.0191 1.248306,0.0738 1.803306,0.33257 0.153938,0.0975 0.307904,0.21183 0.310605,0.41093 -0.06277,0.29401 -0.369079,0.35303 -0.628886,0.40199 -0.991331,0.13904 -1.971218,0.008 -2.953556,-0.17678 -0.7777,-0.13496 -1.529257,-0.36945 -2.262771,-0.66064 -0.937301,-0.37104 -1.86208,-0.77504 -2.747071,-1.25981 -1.070492,-0.59063 -2.125638,-1.21408 -3.115198,-1.93418 -0.735456,-0.57253 -1.516914,-1.18926 -1.782644,-2.12393 -0.0689,-0.67575 0.176196,-1.22951 0.687892,-1.68216 0.598265,-0.46931 1.282305,-0.80508 2.040871,-0.91812 1.192512,-0.12441 2.363296,0.0245 3.539269,0.25734 0.719062,0.14544 1.429637,0.32738 2.128628,0.55102 0.605577,0.19184 1.207255,0.39561 1.79929,0.62633 0.533736,0.20733 1.068807,0.41666 1.574779,0.68651 0.3485,0.19599 0.694021,0.39747 1.032824,0.60985 0.268707,0.16691 0.538431,0.33261 0.814239,0.48759 0.797735,0.4135 0.0083,-0.0407 -0.757079,0.0699 -0.0643,-0.19356 -0.170318,-0.36991 -0.256957,-0.55369 -0.208368,-0.40227 -0.43511,-0.79609 -0.609843,-1.21479 -0.19095,-0.4866 -0.342101,-0.98635 -0.43956,-1.50062 -0.112174,-0.55132 -0.205026,-1.1069 -0.250549,-1.66813 -0.05375,-0.59355 -0.08399,-1.1888 -0.0912,-1.7848 0.0039,-0.60971 0.0183,-1.22425 0.20559,-1.81095 0.213916,-0.56921 0.512408,-1.09719 0.840262,-1.6086 0.35161,-0.55124 0.72526,-1.087 1.12548,-1.60431 0.339745,-0.42939 0.689162,-0.86966 1.191038,-1.11688 0.416754,-0.203 0.847549,-0.34522 1.318615,-0.30683 0.896702,0.12948 1.690211,0.142 2.430359,0.6629 0.424991,0.29872 0.828326,0.62715 1.186142,1.00519 0.398875,0.42204 0.755773,0.87915 0.995858,1.4126 0.249674,0.58064 0.447442,1.18215 0.568194,1.80362 0.126852,0.69312 0.203256,1.39589 0.154267,2.10152 -0.06102,0.7636 -0.160478,1.52305 -0.283893,2.27906 -0.119916,0.7425 -0.254665,1.48309 -0.414263,2.21812 -0.123917,0.56061 -0.2515,1.12034 -0.366262,1.68293 -0.10247,0.47364 -0.211316,0.94583 -0.316263,1.41893 -0.039,0.19187 -0.07955,0.38483 -0.09739,0.58022 -0.01642,0.17997 0.0056,0.22727 0.0049,0.22722 -0.378479,-0.0236 -0.750977,-0.10606 -1.126545,-0.15863 0.144398,0.0778 0.321493,-0.0619 0.443933,-0.12615 0.369421,-0.25154 0.697707,-0.55165 1.003086,-0.87799 0.428255,-0.43063 0.858659,-0.85933 1.308693,-1.26739 0.434173,-0.40138 0.870086,-0.80342 1.350753,-1.14949 0.444257,-0.29333 0.908832,-0.51991 1.438834,-0.61283 0.519863,-0.11674 1.046301,-0.23615 1.582045,-0.2313 0.945296,0.13126 1.847635,0.17721 2.684901,0.65108 0.481608,0.26991 0.953564,0.56297 1.353888,0.94731 0.415967,0.42984 0.716544,0.93185 0.882775,1.51036 0.212045,0.71487 0.360354,1.44645 0.422184,2.19058 0.04554,0.73245 0.05062,1.46748 -0.05356,2.19596 -0.09902,0.65981 -0.22086,1.33136 -0.579854,1.90643 -0.36741,0.4557 -0.836374,0.74718 -1.397298,0.92066 -0.636956,0.20301 -1.287721,0.35577 -1.959428,0.37625 -1.172181,0.022 -2.365307,-0.20857 -3.453393,-0.64252 -0.823737,-0.34744 -1.629607,-0.73471 -2.449728,-1.09054 -0.72411,-0.31184 -1.451143,-0.61867 -2.1964,-0.87714 -0.281272,-0.0919 -0.562335,-0.17948 -0.849708,-0.25062 -0.07973,-0.0198 -0.321755,-0.0648 -0.240197,-0.0551 0.253622,0.03 1.389944,0.20488 0.757886,0.1126 -0.132327,-0.0107 -0.374856,-0.0606 -0.439411,0.0987 0.01136,0.19927 0.177629,0.35459 0.288726,0.50637 0.273603,0.32969 0.56747,0.64132 0.855899,0.95795 0.323863,0.34881 0.645935,0.70013 0.94134,1.0737 0.305025,0.38424 0.579111,0.79141 0.85762,1.19502 0.298178,0.44868 0.590568,0.90579 0.811491,1.39835 0.181666,0.46009 0.336494,0.93473 0.353142,1.43374 0.0073,0.48853 -0.03245,0.9742 -0.08116,1.46012 -0.04924,0.50663 -0.11748,1.01152 -0.249992,1.50416 -0.145215,0.55557 -0.317288,1.1077 -0.667842,1.57314 -0.500076,0.58102 -1.111966,1.03585 -1.879379,1.1858 -1.153296,0.0965 -2.333835,-0.20456 -3.396121,-0.64136 -0.692966,-0.32712 -1.387901,-0.67584 -1.97238,-1.17899 -0.438821,-0.45134 -0.714115,-0.96933 -0.827647,-1.59398 -0.108317,-0.61314 -0.17152,-1.23238 -0.175566,-1.85564 -0.01477,-0.67017 -0.02237,-1.34301 0.04435,-2.01083 0.0881,-0.66608 0.246241,-1.31973 0.519987,-1.93609 0.261445,-0.57879 0.539586,-1.15179 0.882574,-1.68753 0.164789,-0.25931 0.336494,-0.51358 0.513563,-0.76464 0,0 1.167844,0.23424 1.167844,0.23424 z"
       inkscape:connector-curvature="0" />
  </g>
</svg>
