<?xml version="1.0" encoding="UTF-8" standalone="no"?>
<!-- Created with Inkscape (http://www.inkscape.org/) -->

<svg
   width="148mm"
   height="210mm"
   viewBox="0 0 148 210"
   version="1.1"
   id="svg8"
   inkscape:version="1.1 (ce6663b3b7, 2021-05-25)"
   sodipodi:docname="6th-birthday-2.svg"
   xmlns:inkscape="http://www.inkscape.org/namespaces/inkscape"
   xmlns:sodipodi="http://sodipodi.sourceforge.net/DTD/sodipodi-0.dtd"
   xmlns="http://www.w3.org/2000/svg"
   xmlns:svg="http://www.w3.org/2000/svg"
   xmlns:rdf="http://www.w3.org/1999/02/22-rdf-syntax-ns#"
   xmlns:cc="http://creativecommons.org/ns#"
   xmlns:dc="http://purl.org/dc/elements/1.1/">
  <defs
     id="defs2" />
  <sodipodi:namedview
     id="base"
     pagecolor="#ffffff"
     bordercolor="#666666"
     borderopacity="1.0"
     inkscape:pageopacity="0.0"
     inkscape:pageshadow="2"
     inkscape:zoom="0.84918651"
     inkscape:cx="44.15991"
     inkscape:cy="396.85039"
     inkscape:document-units="mm"
     inkscape:current-layer="layer1"
     showgrid="true"
     inkscape:window-width="1375"
     inkscape:window-height="876"
     inkscape:window-x="65"
     inkscape:window-y="24"
     inkscape:window-maximized="1"
     gridtolerance="1"
     objecttolerance="1"
     guidetolerance="1"
     inkscape:pagecheckerboard="0">
    <inkscape:grid
       type="xygrid"
       id="grid829"
       units="mm"
       spacingx="37"
       spacingy="42" />
  </sodipodi:namedview>
  <metadata
     id="metadata5">
    <rdf:RDF>
      <cc:Work
         rdf:about="">
        <dc:format>image/svg+xml</dc:format>
        <dc:type
           rdf:resource="http://purl.org/dc/dcmitype/StillImage" />
        <dc:title />
      </cc:Work>
    </rdf:RDF>
  </metadata>
  <g
     inkscape:label="Layer 1"
     inkscape:groupmode="layer"
     id="layer1"
     transform="translate(0,-87)">
    <flowRoot
       xml:space="preserve"
       id="flowRoot936"
       style="font-style:normal;font-variant:normal;font-weight:normal;font-stretch:normal;font-size:25px;line-height:125%;font-family:'Vtks Rash';-inkscape-font-specification:'Vtks Rash';letter-spacing:0px;word-spacing:0px;fill:#000000;fill-opacity:1;stroke:none;stroke-width:1px;stroke-linecap:butt;stroke-linejoin:miter;stroke-opacity:1"><flowRegion
         id="flowRegion938"><rect
           id="rect940"
           width="583.87811"
           height="309.8559"
           x="-4.2157269"
           y="-89.493927" /></flowRegion><flowPara
         id="flowPara942" /></flowRoot>
    <flowRoot
       xml:space="preserve"
       id="flowRoot903"
       style="font-style:normal;font-variant:normal;font-weight:normal;font-stretch:normal;font-size:25px;line-height:125%;font-family:'Vtks Rash';-inkscape-font-specification:'Vtks Rash';letter-spacing:0px;word-spacing:0px;fill:#000000;fill-opacity:1;stroke:none;stroke-width:1px;stroke-linecap:butt;stroke-linejoin:miter;stroke-opacity:1"><flowRegion
         id="flowRegion905"><rect
           id="rect907"
           width="11.775976"
           height="31.795135"
           x="202.54678"
           y="594.68677" /></flowRegion><flowPara
         id="flowPara909" /></flowRoot>
    <flowRoot
       xml:space="preserve"
       id="flowRoot916"
       style="font-style:normal;font-variant:normal;font-weight:normal;font-stretch:normal;font-size:25px;line-height:125%;font-family:'Vtks Rash';-inkscape-font-specification:'Vtks Rash';letter-spacing:0px;word-spacing:0px;fill:#000000;fill-opacity:1;stroke:none;stroke-width:1px;stroke-linecap:butt;stroke-linejoin:miter;stroke-opacity:1"><flowRegion
         id="flowRegion918"><rect
           id="rect920"
           width="1.1229856"
           height="77.325577"
           x="164.5575"
           y="427.17969" /></flowRegion><flowPara
         id="flowPara922" /></flowRoot>
    <text
       xml:space="preserve"
       style="font-style:normal;font-variant:normal;font-weight:normal;font-stretch:normal;font-size:6.61458px;line-height:125%;font-family:'Vtks Rash';-inkscape-font-specification:'Vtks Rash';letter-spacing:0px;word-spacing:0px;fill:#000000;fill-opacity:1;stroke:none;stroke-width:0.264583px;stroke-linecap:butt;stroke-linejoin:miter;stroke-opacity:1"
       x="2.1221902"
       y="213.18694"
       id="text884" />
    <path
       style="color:#000000;clip-rule:nonzero;display:inline;overflow:visible;visibility:visible;opacity:1;isolation:auto;mix-blend-mode:normal;color-interpolation:sRGB;color-interpolation-filters:linearRGB;solid-color:#000000;solid-opacity:1;fill:#000000;fill-opacity:1;fill-rule:evenodd;stroke:#000000;stroke-width:0.11533277;stroke-linecap:butt;stroke-linejoin:miter;stroke-miterlimit:4;stroke-dasharray:none;stroke-dashoffset:0;stroke-opacity:1;color-rendering:auto;image-rendering:auto;shape-rendering:auto;text-rendering:auto;enable-background:accumulate"
       d="m 38.543148,166.73116 2.351723,-7.50136 c 20.665424,7.76924 21.281507,-3.89101 13.174659,-9.99731 -15.758936,-11.87007 -22.15968,-34.87167 15.501173,-26.64771 l -5.095214,9.50319 c -21.201557,-6.12682 -8.83122,4.15979 3.55882,16.17859 11.90843,11.5516 -6.954972,27.3459 -29.491161,18.4646 z"
       id="path1054"
       inkscape:connector-curvature="0"
       sodipodi:nodetypes="ccsccsc" />
    <path
       style="color:#000000;clip-rule:nonzero;display:inline;overflow:visible;visibility:visible;opacity:1;isolation:auto;mix-blend-mode:normal;color-interpolation:sRGB;color-interpolation-filters:linearRGB;solid-color:#000000;solid-opacity:1;fill:#000000;fill-opacity:1;fill-rule:evenodd;stroke:#000000;stroke-width:0.0191493;stroke-linecap:butt;stroke-linejoin:miter;stroke-miterlimit:4;stroke-dasharray:none;stroke-dashoffset:0;stroke-opacity:1;color-rendering:auto;image-rendering:auto;shape-rendering:auto;text-rendering:auto;enable-background:accumulate"
       d="m 87.046917,167.26489 11.119956,-0.46653 3.683777,46.36171 -9.91794,1.18278 z"
       id="path882"
       inkscape:connector-curvature="0"
       sodipodi:nodetypes="ccccc" />
    <path
       style="color:#000000;clip-rule:nonzero;display:inline;overflow:visible;visibility:visible;opacity:1;isolation:auto;mix-blend-mode:normal;color-interpolation:sRGB;color-interpolation-filters:linearRGB;solid-color:#000000;solid-opacity:1;fill:#000000;fill-opacity:1;fill-rule:evenodd;stroke:#000000;stroke-width:0.02027486;stroke-linecap:butt;stroke-linejoin:miter;stroke-miterlimit:4;stroke-dasharray:none;stroke-dashoffset:0;stroke-opacity:1;color-rendering:auto;image-rendering:auto;shape-rendering:auto;text-rendering:auto;enable-background:accumulate"
       d="m 33.586042,251.34826 5.360469,8.29752 13.432911,-15.71444 9.458035,20.56344 7.843933,-8.48874 -12.135289,-20.04979 15.392893,-19.39076 -10.731181,-3.92424 -8.132964,15.40025 -9.070135,-16.23039 -10.361472,0.64652 13.420353,22.06021 z"
       id="path923"
       inkscape:connector-curvature="0"
       sodipodi:nodetypes="ccccccccccccc" />
    <path
       style="opacity:1;fill:#151515;fill-opacity:1;fill-rule:evenodd;stroke:#000000;stroke-width:0.81461954;stroke-linecap:round;stroke-linejoin:miter;stroke-miterlimit:4;stroke-dasharray:none;stroke-dashoffset:0;stroke-opacity:1"
       id="path839"
       d="m 96.490543,144.33949 c 0.28188,-0.081 0.55984,-0.17575 0.83563,-0.27531 0.39787,-0.14111 0.78235,-0.31381 1.15646,-0.50839 0.46087,-0.22777 0.88885,-0.50951 1.29985,-0.81619 0.614247,-0.4577 1.075807,-1.07031 1.526937,-1.67962 0.57211,-0.78694 1.10856,-1.59854 1.62487,-2.42269 0.61699,-0.95335 1.16303,-1.94862 1.68928,-2.95372 0.54796,-1.05083 1.02894,-2.13317 1.47214,-3.23137 0.44897,-1.11896 0.79018,-2.27565 1.12227,-3.43309 0.29349,-1.01513 0.5121,-2.04848 0.61649,-3.09975 0.0521,-0.84368 -0.0418,-1.68446 -0.19682,-2.51255 -0.12811,-0.65359 -0.30782,-1.28669 -0.64446,-1.86402 -0.3245,-0.48806 -0.76165,-0.87454 -1.26437,-1.17038 0.0565,-0.16941 -1.21655,-0.2154 -1.08247,-0.21569 1.35474,-0.003 1.39188,-0.0116 0.79522,0.0244 -0.5496,0.05 -1.08734,0.17695 -1.61295,0.34062 -0.5115,0.15305 -0.99686,0.36912 -1.45449,0.64181 -0.54128,0.33395 -0.9301,0.82959 -1.28474,1.34528 -0.42486,0.64336 -0.7884,1.32363 -1.135437,2.01093 -0.35641,0.70051 -0.64106,1.43316 -0.90759,2.17129 -0.28301,0.79112 -0.50633,1.60094 -0.7139,2.41436 -0.21552,0.88489 -0.34939,1.78541 -0.47061,2.68696 -0.11463,0.86704 -0.21676,1.73543 -0.29313,2.60666 -0.0712,0.84188 -0.12445,1.6851 -0.17468,2.52845 -0.0623,0.90465 -0.0901,1.81059 -0.10725,2.71703 -0.0161,0.71096 0.0101,1.42642 -0.11169,2.12973 -0.11956,0.69676 -1.15826,0.72694 -1.687093,0.20918 -0.148388,-0.20167 -0.234414,-0.44068 -0.347018,-0.66296 -0.21423,-0.40875 -0.392809,-0.83459 -0.58573,-1.25345 -0.261568,-0.55646 -0.540865,-1.10431 -0.815087,-1.65464 -0.307413,-0.6068 -0.68285,-1.17415 -1.066651,-1.73463 -0.412057,-0.59974 -0.844488,-1.18448 -1.296183,-1.75499 -0.47465,-0.63651 -1.031012,-1.1938 -1.652948,-1.68536 -0.763851,-0.58753 -1.569773,-1.11864 -2.37855,-1.64213 -0.78604,-0.5065 -1.601037,-0.96577 -2.422222,-1.41261 -0.732898,-0.43885 -1.530885,-0.62485 -2.371426,-0.69881 -0.44883,0.0475 -1.849568,-0.15696 0.225291,-0.002 0.1189,0.009 -0.237806,0.0193 -0.355888,0.0357 -0.305481,0.0426 -0.37746,0.0707 -0.673551,0.14826 -0.585404,0.16506 -1.104007,0.4765 -1.592775,0.82881 -0.374399,0.26477 -0.696442,0.57199 -0.911225,0.97767 -0.173949,0.37495 -0.145615,0.7482 -0.04981,1.13701 0.17038,0.49512 0.454337,0.94182 0.732122,1.38276 0.301587,0.45778 0.634414,0.89349 0.987998,1.31227 0.363109,0.43399 0.754567,0.84194 1.155667,1.24081 0.408897,0.40352 0.823102,0.80137 1.246044,1.1902 0.468997,0.42312 0.983083,0.79246 1.500793,1.15321 0.54525,0.38925 1.104235,0.75801 1.669291,1.11779 0.641602,0.40898 1.293566,0.80067 1.952892,1.18045 0.554407,0.33536 1.159963,0.60102 1.643276,1.03906 0.280469,0.32052 0.224375,0.61452 -0.10287,0.85822 -0.608917,0.28213 -1.305687,0.28997 -1.964978,0.32893 -0.877687,0.0371 -1.755113,0.0793 -2.63131,0.1429 -0.81787,0.0583 -1.626665,0.18993 -2.427976,0.35935 -0.733139,0.13902 -1.435338,0.36956 -2.096282,0.71336 -0.64784,0.36341 -1.196161,0.85791 -1.691393,1.40464 -0.517872,0.58382 -0.920331,1.25068 -1.272867,1.94274 -0.335857,0.66873 -0.615123,1.35948 -0.770954,2.09169 -0.09651,0.5602 -0.06701,1.12605 0.02881,1.68316 0.06711,0.40564 0.204621,0.78733 0.432867,1.12926 0.213831,0.30658 0.510996,0.51539 0.841148,0.68039 0.371458,0.1922 0.779882,0.241 1.190243,0.27282 0.300267,0.007 1.859036,0.0398 -0.925131,-2.9e-4 -0.07431,-0.001 0.148618,-0.004 0.222832,-0.008 0.226909,-0.0124 0.451768,-0.0389 0.676928,-0.0683 0.435936,-0.0587 0.865324,-0.1518 1.29102,-0.26075 0.510871,-0.14333 1.026528,-0.26862 1.53921,-0.40518 0.562242,-0.14894 1.12405,-0.29654 1.673367,-0.48821 0.534545,-0.19361 1.042685,-0.45073 1.548139,-0.70868 0.500237,-0.25565 0.965626,-0.56951 1.418498,-0.89971 0.487553,-0.35769 0.91167,-0.78971 1.327427,-1.22574 0.374628,-0.39213 0.719135,-0.81335 1.14498,-1.1523 0.630493,-0.37718 1.507784,-0.38924 2.179059,-0.0929 0.303724,0.19111 0.444351,0.53656 0.581357,0.85223 0.258783,0.651 0.413549,1.33601 0.564966,2.01786 0.167813,0.80446 0.343716,1.60716 0.518626,2.4101 0.185764,0.8326 0.409352,1.65639 0.64644,2.47575 0.220451,0.76644 0.468995,1.52512 0.748269,2.27222 0.311923,0.79341 0.760027,1.52286 1.205808,2.24663 0.44542,0.72953 0.93079,1.4308 1.5321,2.0406 0.61381,0.56834 1.32902,1.01073 2.04794,1.43276 0.624117,0.41116 1.317437,0.63033 2.047887,0.75256 0.45496,0.0311 1.75799,0.16532 -0.35722,0.0445 -0.1062,-0.006 0.2123,-0.0163 0.3175,-0.0319 0.2689,-0.04 0.34318,-0.0718 0.60202,-0.14855 0.52682,-0.17464 0.98907,-0.47269 1.3873,-0.85366 0.36284,-0.34973 0.43645,-0.74543 0.37461,-1.22628 -0.11498,-0.59558 -0.32237,-1.1686 -0.53925,-1.7336 -0.25878,-0.66279 -0.5727,-1.30288 -0.90334,-1.93255 -0.37644,-0.71733 -0.79539,-1.41146 -1.23382,-2.09254 -0.44643,-0.69522 -0.94138,-1.3571 -1.438397,-2.01666 -0.45346,-0.60152 -0.92292,-1.19091 -1.37359,-1.79449 -0.29665,-0.40596 -0.54881,-0.83774 -0.70759,-1.31502 -0.0852,-0.25208 -0.0911,-0.49264 0.0153,-0.73607 0.3563,-0.51959 1.71216,-0.22204 1.92847,-0.22057 0.402177,0.068 0.790227,0.19834 1.178667,0.31927 0.48863,0.15361 0.97893,0.3017 1.47026,0.4466 0.57878,0.17462 1.17,0.29637 1.76497,0.40013 -0.84485,0.0942 2.27459,0.10924 1.36935,0.12282 -1.92413,0.0289 -1.02076,-0.004 -0.62248,-0.0212 0.74096,-0.0351 1.46285,-0.18631 2.16599,-0.41487 0.76464,-0.26983 1.41134,-0.75086 2.01904,-1.27325 0.69467,-0.63938 1.31097,-1.35615 1.90398,-2.0884 0.50965,-0.62932 0.98628,-1.28414 1.41607,-1.97007 0.32027,-0.51093 0.62123,-1.03606 0.73788,-1.63209 0.0284,-0.40913 -0.16154,-0.75228 -0.41763,-1.05545 -0.3391,-0.33324 -0.81115,-0.43927 -1.25951,-0.54504 -0.63021,-0.12629 -1.2727,-0.16882 -1.91245,-0.21721 -0.6787,-0.047 -1.35735,-0.0974 -2.03745,-0.11791 -0.4289,0.003 -2.98921,-0.0606 -0.73907,-0.02 0.14749,0.002 -0.29501,0.003 -0.44252,0.006 -0.85559,0.0167 -1.70965,0.0797 -2.55535,0.21014 -0.77695,0.14477 -1.52395,0.408 -2.27682,0.64167 -0.70831,0.21457 -1.41684,0.42871 -2.130187,0.6261 0,0 -1.36477,-0.17816 -1.36477,-0.17816 v 0 c 0.7143,-0.19467 1.42306,-0.40829 2.131997,-0.62147 0.75637,-0.23266 1.50452,-0.49922 2.28078,-0.6605 0.84631,-0.14255 1.70264,-0.20702 2.56049,-0.22964 1.29835,-0.0195 2.59718,-0.0146 3.89532,0.0164 0.68087,0.0261 1.36064,0.0739 2.04016,0.12345 0.64265,0.0505 1.28863,0.0971 1.91897,0.23933 0.4679,0.12098 0.94523,0.25721 1.27447,0.63417 0.26421,0.34645 0.45353,0.72699 0.41702,1.17494 -0.1177,0.61351 -0.41499,1.15759 -0.74784,1.68213 -0.43101,0.69209 -0.91002,1.35241 -1.42349,1.98624 -0.59545,0.73795 -1.21422,1.45961 -1.90446,2.11208 -0.60675,0.53801 -1.25481,1.0343 -2.02035,1.32741 -0.70296,0.24333 -1.42541,0.40827 -2.17076,0.45206 -1.15742,0.0686 -2.3258,0.0684 -3.47224,-0.11817 -0.59665,-0.10845 -1.18863,-0.23856 -1.76924,-0.41506 -0.49236,-0.14599 -0.983887,-0.29451 -1.473977,-0.44791 -0.38667,-0.11906 -0.77583,-0.24736 -1.18053,-0.28702 2.790687,-0.0208 1.17319,-0.15594 0.84052,0.0768 -0.1144,0.20429 -0.0948,0.40886 -0.021,0.62793 0.15786,0.46161 0.40564,0.87926 0.69454,1.27206 0.450327,0.60263 0.916487,1.19333 1.369007,1.79433 0.49742,0.66279 0.99226,1.3282 1.43851,2.02687 0.43819,0.68594 0.8592,1.38341 1.23711,2.10448 0.33098,0.63561 0.64827,1.28004 0.90811,1.94833 0.21929,0.57575 0.42839,1.1597 0.54363,1.76636 0.0644,0.51599 9.6e-4,0.96448 -0.37771,1.35243 -0.39626,0.40382 -0.86378,0.72186 -1.39828,0.91812 -1.05828,0.35549 -2.19595,0.30583 -3.29403,0.15306 -0.732867,-0.14118 -1.423137,-0.38843 -2.050337,-0.80159 -0.72247,-0.43137 -1.44085,-0.88411 -2.05021,-1.46915 -0.596264,-0.62487 -1.08425,-1.33389 -1.532298,-2.07066 -0.448035,-0.7324 -0.899879,-1.46969 -1.210591,-2.27295 -0.278238,-0.75085 -0.526819,-1.51264 -0.746494,-2.2826 -0.236274,-0.8226 -0.460515,-1.6491 -0.64627,-2.48468 -0.176234,-0.80251 -0.352202,-1.60506 -0.520153,-2.40937 -0.152227,-0.6735 -0.30755,-1.35113 -0.575974,-1.99002 -0.132572,-0.28722 -0.266429,-0.61279 -0.57981,-0.74071 -0.0746,-0.0207 -0.305263,-0.0436 -0.227839,-0.0454 2.38778,-0.055 1.274289,-0.12653 0.811624,0.0962 -0.441094,0.31498 -0.778818,0.73953 -1.150878,1.12898 -0.417413,0.4419 -0.840227,0.88306 -1.327341,1.25025 -0.453699,0.33646 -0.918677,0.65869 -1.420136,0.92161 -0.506724,0.26246 -1.017231,0.52198 -1.550662,0.72678 -0.548588,0.19984 -1.110342,0.3523 -1.675352,0.49891 -0.51042,0.13974 -1.025865,0.26048 -1.534359,0.40723 -0.42689,0.11207 -0.855809,0.21559 -1.293716,0.2761 -0.897479,0.1376 -1.810314,0.13906 -2.716333,0.084 -0.417477,-0.0427 -0.82723,-0.1211 -1.198542,-0.32765 -0.335531,-0.19004 -0.63637,-0.42326 -0.848124,-0.75101 -0.222748,-0.36423 -0.363943,-0.76238 -0.429808,-1.18486 -0.09363,-0.57471 -0.122663,-1.15753 -0.02329,-1.73456 0.157067,-0.7441 0.437465,-1.44656 0.776813,-2.12695 0.352641,-0.70335 0.753954,-1.38251 1.273595,-1.9784 0.494453,-0.56266 1.044926,-1.07021 1.694613,-1.45257 0.658447,-0.36378 1.36218,-0.61026 2.102833,-0.75126 0.802449,-0.17668 1.612948,-0.31462 2.433116,-0.37774 0.875891,-0.0677 1.753432,-0.11047 2.631202,-0.14549 0.64936,-0.0347 1.319996,-0.047 1.9399,-0.26187 0.309685,-0.15754 0.363065,-0.33858 0.103758,-0.60159 -0.491351,-0.41348 -1.08248,-0.68217 -1.629096,-1.01348 -0.660293,-0.38238 -1.313545,-0.77632 -1.957196,-1.18605 -0.565875,-0.36106 -1.12333,-0.73454 -1.670256,-1.12368 -0.52025,-0.36593 -1.03681,-0.74067 -1.505954,-1.1712 -0.423037,-0.39048 -0.836442,-0.79098 -1.245712,-1.19577 -0.402055,-0.40282 -0.794038,-0.81513 -1.157963,-1.25295 -0.353549,-0.4256 -0.688599,-0.86643 -0.989064,-1.33123 -0.282534,-0.45464 -0.572857,-0.91447 -0.737909,-1.42692 -0.09955,-0.42031 -0.125464,-0.82738 0.04984,-1.2349 0.213332,-0.42963 0.526949,-0.76371 0.920556,-1.04115 0.490368,-0.36702 1.013647,-0.69369 1.603163,-0.878 1.146701,-0.33547 2.343715,-0.26883 3.52832,-0.20495 0.84401,0.0926 1.64096,0.31252 2.375142,0.75385 0.820678,0.45041 1.6351,0.91313 2.420344,1.42321 0.8106,0.52775 1.619187,1.06179 2.383428,1.65523 0.622842,0.50413 1.179701,1.07305 1.659512,1.71606 0.452346,0.57364 0.884947,1.16188 1.297972,1.7644 0.386025,0.56622 0.762291,1.14029 1.070892,1.75316 0.275539,0.55126 0.553747,1.10126 0.816497,1.65874 0.19367,0.41839 0.37796,0.84153 0.59562,1.24836 0.10344,0.20691 0.18087,0.44034 0.34726,0.60629 0.42748,0.29558 0.0344,0.006 -1.2507,0.0602 -0.0185,8.8e-4 0.0221,0.0341 0.0401,0.0383 0.073,0.0174 0.10974,-0.19708 0.12183,-0.21248 0.14379,-0.69243 0.10924,-1.40338 0.12988,-2.10638 0.0168,-0.90823 0.0415,-1.81614 0.10441,-2.72259 0.0501,-0.84461 0.10186,-1.68924 0.17372,-2.53233 0.0773,-0.87333 0.18094,-1.74372 0.29621,-2.61286 0.12179,-0.90661 0.25515,-1.81225 0.46907,-2.70275 0.20757,-0.81759 0.42927,-1.63204 0.71212,-2.42755 0.26677,-0.74333 0.55002,-1.48205 0.90706,-2.18785 0.34787,-0.69251 0.71302,-1.37728 1.13466,-2.02858 0.354157,-0.53177 0.742247,-1.04694 1.283647,-1.40408 0.45559,-0.28743 0.94079,-0.51763 1.45785,-0.6746 0.52656,-0.17511 1.06638,-0.30816 1.6186,-0.37295 0.99906,-0.0878 2.09973,-0.19513 3.02702,0.25671 0.50418,0.32447 0.94816,0.72753 1.26792,1.23931 0.3307,0.5956 0.51385,1.24261 0.64105,1.91007 0.15235,0.84136 0.24512,1.69482 0.19,2.55098 -0.10665,1.05953 -0.32713,2.10103 -0.6242,3.12401 -0.33383,1.16158 -0.67591,2.32261 -1.12304,3.44703 -0.44296,1.10282 -0.92383,2.18964 -1.47284,3.24472 -0.52575,1.00771 -1.06787,2.00778 -1.68375,2.96437 -0.51465,0.82777 -1.05202,1.64133 -1.62078,2.43332 -0.45159,0.61854 -0.90967,1.24486 -1.51998,1.71973 -0.40878,0.31538 -0.83396,0.60879 -1.298087,0.83874 -0.37271,0.20158 -0.75533,0.38373 -1.15498,0.52664 -0.27256,0.10565 -0.55085,0.19537 -0.8281,0.28756 0,0 -1.38561,-0.17954 -1.38561,-0.17954 z"
       inkscape:connector-curvature="0" />
    <path
       style="opacity:1;fill:#151515;fill-opacity:1;fill-rule:evenodd;stroke:#000000;stroke-width:0.74802244;stroke-linecap:round;stroke-linejoin:miter;stroke-miterlimit:4;stroke-dasharray:none;stroke-dashoffset:0;stroke-opacity:1"
       id="path841"
       d="m 58.585479,190.077 c 0.28306,-0.0347 0.540327,-0.16734 0.791482,-0.29721 0.468534,-0.24861 0.900426,-0.55979 1.310737,-0.89789 0.600338,-0.52554 1.075639,-1.17397 1.532914,-1.82804 0.563118,-0.79395 0.987375,-1.66925 1.319472,-2.58659 0.334907,-1.04058 0.524904,-2.12269 0.705446,-3.20044 0.162713,-0.96068 0.271041,-1.92995 0.293366,-2.90474 -0.0085,-0.86673 -0.10868,-1.72903 -0.233652,-2.58514 -0.09377,-0.6715 -0.242347,-1.33349 -0.447679,-1.97808 -0.142941,-0.44621 -0.407343,-0.76582 -0.794348,-1.00315 -0.301895,-0.17259 -0.641926,-0.22665 -0.98162,-0.25366 2.079089,0.0101 0.982772,-0.11626 0.56414,0.17501 -0.165116,0.11484 -0.200925,0.17718 -0.335895,0.33309 -0.404762,0.55137 -0.647861,1.19928 -0.880562,1.84039 -0.264814,0.78031 -0.50314,1.56976 -0.728023,2.36301 -0.233083,0.83259 -0.424171,1.67653 -0.603296,2.52275 -0.18406,0.87193 -0.332189,1.7511 -0.474449,2.631 -0.13327,0.79873 -0.244044,1.60072 -0.344777,2.40432 -0.06893,0.50165 -0.111097,1.00663 -0.178896,1.50842 -0.102623,0.59922 -0.14925,0.31871 -1.343035,0.0649 -0.03719,-0.008 -0.06753,-0.45209 -0.07166,-0.48959 -0.04023,-0.49083 -0.07584,-0.98146 -0.13172,-1.47082 -0.08873,-0.72241 -0.238751,-1.43497 -0.410625,-2.14082 -0.175167,-0.71464 -0.440334,-1.40079 -0.740296,-2.06886 -0.31563,-0.72669 -0.775759,-1.36647 -1.273201,-1.97117 -0.500039,-0.60682 -1.077139,-1.13521 -1.71109,-1.58961 -0.600305,-0.40952 -1.253703,-0.72571 -1.913643,-1.01915 -0.576712,-0.26342 -1.17922,-0.45267 -1.802267,-0.55401 -0.857224,-0.0311 0.441237,-0.0174 0.661403,-0.006 0.09383,0.006 -0.187598,0.0137 -0.280685,0.0269 -0.277224,0.0393 -0.530122,0.12304 -0.790371,0.22426 -0.493936,0.21745 -0.840936,0.59525 -1.075767,1.08139 -0.197794,0.50931 -0.226871,1.05766 -0.224197,1.59925 0.01824,0.57152 0.139643,1.12647 0.289119,1.67458 0.178012,0.63219 0.422751,1.24025 0.696573,1.83431 0.334402,0.67869 0.745965,1.31331 1.157065,1.94484 0.466413,0.71642 1.015117,1.3687 1.590763,1.99391 0.81567,0.85929 1.726862,1.61364 2.638606,2.36152 0.878968,0.71764 1.772887,1.41566 2.650371,2.13519 0.01874,-0.0234 0.960554,0.81039 0.585819,0.84185 -0.469999,0.0394 -0.943143,-0.001 -1.414714,-0.002 -0.944911,-0.32164 -1.865798,-0.71497 -2.789425,-1.0952 -1.616015,-0.67264 -3.233172,-1.34202 -4.861205,-1.98359 -1.652639,-0.6621 -3.327745,-1.25591 -5.033922,-1.75466 -1.349719,-0.39197 -2.721996,-0.6878 -4.110913,-0.88578 -0.198354,-0.0227 -0.39634,-0.0491 -0.595058,-0.0681 -0.399972,-0.0382 -0.720371,-0.0534 -1.120558,-0.0689 -0.175776,-0.006 -0.702954,-0.003 -0.527468,-0.0159 0.238914,-0.0168 0.48027,-0.0232 0.718425,0.002 0.155934,0.0169 -0.313196,0.0161 -0.469793,0.0243 -0.806585,0.0681 -1.513027,0.42627 -2.151191,0.91521 -0.538787,0.45349 -0.929634,1.04804 -1.292105,1.65038 -0.305536,0.48055 -0.488539,1.00219 -0.560127,1.56772 -0.04503,0.44253 0.07746,0.82918 0.337665,1.17679 0.400233,0.44807 0.935007,0.71626 1.466284,0.96307 0.77938,0.34527 1.599344,0.57513 2.418707,0.79533 0.929168,0.24594 1.868508,0.44538 2.813825,0.61299 1.039143,0.16278 2.089138,0.23838 3.136454,0.32313 0.987928,0.0781 1.978214,0.10297 2.968691,0.10711 -0.256838,-0.002 -0.513918,0.006 -0.770513,-0.006 -0.145646,-0.006 0.291514,-0.006 0.437258,-0.009 0.544363,-0.0133 1.087485,-0.0416 1.631056,-0.0735 0.685191,-0.0334 1.368269,-0.0933 2.04913,-0.17789 0.528593,-0.0679 1.055051,-0.15114 1.584231,-0.21409 0.701745,-0.0527 1.43045,-0.13514 2.119486,0.0327 0.180967,0.045 0.315025,0.12524 0.292863,0.32953 -0.1026,0.21405 -0.342484,0.32403 -0.537192,0.43672 -0.263112,0.14528 -0.529208,0.28489 -0.7879,0.43836 -0.313065,0.19546 -0.600167,0.4297 -0.879437,0.67199 -0.388609,0.34569 -0.730183,0.74153 -1.069919,1.13626 -0.412757,0.48717 -0.803372,0.99332 -1.177317,1.51222 -0.383698,0.52871 -0.750231,1.06988 -1.093999,1.62667 -0.333502,0.55846 -0.590966,1.15802 -0.796707,1.77652 -0.234502,0.72939 -0.260679,1.49222 -0.240229,2.25228 0.02024,0.83097 0.196466,1.63857 0.442235,2.42654 0.234342,0.75907 0.665312,1.40578 1.162923,2.00585 0.428478,0.50309 0.932525,0.91744 1.506825,1.22952 0.08252,0.0346 0.163515,0.0736 0.247539,0.10431 0.159982,0.0585 0.314938,0.0985 0.483396,0.12087 0.08006,0.0101 0.32228,0.0175 0.241548,0.0182 -1.251624,0.0101 -1.277295,0.026 -0.741625,-0.0457 0.576557,-0.12451 1.068391,-0.4511 1.529397,-0.81182 0.562578,-0.45427 1.04428,-0.99585 1.484714,-1.5716 0.503473,-0.68523 0.937304,-1.41994 1.350075,-2.165 0.455874,-0.78 0.770279,-1.61496 0.973351,-2.49686 0.183226,-0.94242 0.270612,-1.90076 0.340403,-2.85793 0.05946,-0.96555 0.05532,-1.9333 0.05331,-2.90027 -0.007,-0.70488 0.01158,-1.40968 0.03348,-2.11414 0.03152,-0.39134 0.0267,-0.79196 0.123631,-1.17412 0.198908,-0.6016 1.193071,-0.50368 1.586902,-0.0679 0.161896,0.18176 0.274328,0.40156 0.386105,0.61748 0.214212,0.43742 0.386392,0.89469 0.570849,1.3457 0.299622,0.73252 0.521063,1.49489 0.760125,2.24947 0.340747,1.05253 0.651577,2.1148 0.967096,3.17546 0.347718,1.13029 0.683592,2.26444 1.038189,3.39251 0.276019,0.86699 0.539242,1.74282 0.956527,2.55136 0.108545,0.1639 0.22724,0.34299 0.418394,0.41461 0.07754,0.0291 0.330051,0.0115 0.247525,0.008 -0.376161,-0.0101 -0.752555,-0.0101 -1.128833,-0.015 0.226567,-0.0604 0.430409,-0.18147 0.628962,-0.3049 0.249029,-0.16208 0.46941,-0.36462 0.678939,-0.57612 0.282619,-0.28656 0.48186,-0.63974 0.670199,-0.99472 0.283595,-0.5455 0.372155,-1.15841 0.444407,-1.76373 0.07649,-0.76994 0.107758,-1.54438 0.124353,-2.31792 0.0092,-0.80879 -0.04728,-1.61496 -0.152952,-2.41586 -0.112744,-0.85109 -0.411133,-1.65353 -0.735456,-2.43942 -0.273554,-0.63086 -0.598152,-1.23622 -0.892546,-1.8567 -0.10741,-0.24253 -0.220056,-0.50252 -0.132512,-0.76778 0.290072,-0.51032 1.377169,-0.19977 1.624535,-0.19775 0.225225,0.0401 0.434018,0.13425 0.641038,0.22984 0.259726,0.13226 0.516623,0.27142 0.767391,0.42075 0.278002,0.16813 0.557925,0.33285 0.837752,0.49796 0.362437,0.21643 0.749563,0.38257 1.140965,0.53477 0.585332,0.20713 1.206861,0.26291 1.819521,0.32126 -1.017049,0.0622 2.031069,0.039 0.992976,0.0457 -1.862862,0.0122 -0.660773,-0.0101 -0.248705,-0.0566 0.652713,-0.0882 1.224191,-0.40217 1.766264,-0.766 0.512036,-0.34023 0.907731,-0.7952 1.229629,-1.32038 0.245097,-0.42233 0.324371,-0.87284 0.247803,-1.35259 -0.124111,-0.47764 -0.387052,-0.89455 -0.641486,-1.30798 -0.249153,-0.40935 -0.544696,-0.78201 -0.865859,-1.13336 -0.31256,-0.30202 -0.662097,-0.55712 -1.037828,-0.7688 -0.429557,-0.22799 -0.895337,-0.37112 -1.361463,-0.49671 -0.425848,-0.10576 -0.85472,-0.19767 -1.279539,-0.30779 -0.242112,-0.0696 -0.482769,-0.14922 -0.735455,-0.15656 -0.585756,-0.003 0.657805,-2.9e-4 0.986672,0.004 0.04752,5.6e-4 -0.09496,0.004 -0.142405,0.007 -0.152463,0.009 -0.303052,0.0268 -0.454491,0.0469 -0.319524,0.0393 -0.63615,0.0974 -0.950357,0.16804 -0.334611,0.075 -0.660746,0.18132 -0.977641,0.31366 -0.34695,0.15273 -0.66269,0.36638 -0.975795,0.58014 -0.309545,0.21104 -0.61014,0.43535 -0.914034,0.65471 -0.352186,0.25523 -0.756298,0.38709 -1.172035,0.48313 -0.448467,0.0923 -0.905767,0.11616 -1.361354,0.14121 -0.275719,0.014 -0.138119,0.007 -0.412802,0.0204 0,0 -1.239781,-0.19535 -1.239781,-0.19535 v 0 c 0.274901,-0.0126 0.137124,-0.006 0.413326,-0.0195 0.454354,-0.0232 0.910195,-0.0415 1.35937,-0.12095 0.409173,-0.0842 0.810996,-0.19206 1.163458,-0.43234 0.305801,-0.21766 0.604696,-0.44554 0.914525,-0.6573 0.315769,-0.21788 0.631982,-0.43854 0.977704,-0.60451 0.316043,-0.14189 0.641985,-0.25759 0.978973,-0.33575 0.313433,-0.079 0.631326,-0.13891 0.951622,-0.18 0.69529,-0.10195 1.398789,-0.12089 2.10171,-0.0658 0.249952,0.0338 0.490429,0.11242 0.733708,0.17823 0.42436,0.10744 0.852342,0.19914 1.27566,0.311 0.469353,0.13524 0.93872,0.2847 1.367065,0.52838 0.377058,0.22585 0.73177,0.49066 1.041003,0.80833 0.320521,0.36015 0.6147,0.74193 0.865225,1.1573 0.261053,0.42862 0.527428,0.863 0.645784,1.35971 0.07564,0.50918 -7.01e-4,0.99173 -0.254065,1.44363 -0.322769,0.54189 -0.716107,1.01932 -1.236437,1.37489 -0.543803,0.37724 -1.1158,0.71368 -1.773825,0.82512 -1.062974,0.14424 -2.141859,0.0887 -3.208901,0.0138 -0.618122,-0.0632 -1.24423,-0.12936 -1.829969,-0.35501 -0.39423,-0.15882 -0.783799,-0.33136 -1.148642,-0.5537 -0.280151,-0.16488 -0.559128,-0.33174 -0.838959,-0.49714 -0.251814,-0.14315 -0.504284,-0.28646 -0.767516,-0.40666 -0.205297,-0.0871 -0.412869,-0.17112 -0.636694,-0.19038 2.596185,-0.029 1.168671,-0.17295 0.88549,0.0616 -0.119296,0.20012 0.05565,0.47116 0.11862,0.65695 0.291411,0.62271 0.612809,1.23059 0.882937,1.86374 0.325116,0.79722 0.621916,1.61155 0.736258,2.47299 0.106006,0.80751 0.163809,1.62027 0.155539,2.43568 -0.01628,0.7777 -0.05032,1.55603 -0.12443,2.33035 -0.07116,0.6198 -0.154738,1.24884 -0.435133,1.81193 -0.189604,0.3652 -0.388405,0.73098 -0.669752,1.03188 -0.208938,0.22057 -0.430146,0.43057 -0.677807,0.60525 -0.200507,0.13589 -0.410376,0.25715 -0.634065,0.34873 -0.989847,0.029 -1.536985,0.31525 -2.030557,-0.5212 -0.401492,-0.82157 -0.667529,-1.70033 -0.942,-2.57292 -0.351851,-1.12939 -0.687237,-2.26412 -1.036707,-3.39428 -0.317021,-1.06001 -0.628891,-2.12184 -0.973879,-3.17275 -0.241871,-0.7516 -0.46853,-1.51018 -0.772554,-2.23867 -0.183927,-0.44815 -0.35773,-0.90212 -0.579806,-1.3324 -0.111164,-0.20457 -0.220979,-0.41398 -0.386497,-0.57895 -0.369743,-0.33297 -0.06842,-0.0318 1.098797,-0.0877 0.01079,-5.5e-4 -0.262358,-0.0415 -0.168719,0.0888 -0.111939,0.36744 -0.09472,0.76329 -0.133372,1.14273 -0.02554,0.70291 -0.05118,1.40612 -0.04493,2.10966 -0.0011,0.97012 0.0017,1.94093 -0.05576,2.90974 -0.06943,0.96372 -0.158061,1.9283 -0.33976,2.87763 -0.201682,0.89385 -0.511425,1.74243 -0.972234,2.5332 -0.413504,0.75036 -0.847738,1.49043 -1.349196,2.18335 -0.438086,0.58682 -0.919495,1.1378 -1.481863,1.60386 -0.46262,0.37582 -0.954421,0.7172 -1.532349,0.87585 -0.902657,0.18021 -1.876741,0.17169 -2.71134,-0.24123 -0.571825,-0.33401 -1.076624,-0.76254 -1.504693,-1.27709 -0.499241,-0.61726 -0.929005,-1.28227 -1.163738,-2.05569 -0.245468,-0.80012 -0.421233,-1.61971 -0.442561,-2.46198 -0.02192,-0.77463 0.0031,-1.55234 0.236095,-2.29742 0.204592,-0.62862 0.462563,-1.23799 0.796746,-1.80674 0.342533,-0.56098 0.711124,-1.10425 1.095655,-1.63586 0.373261,-0.52239 0.763554,-1.03176 1.17466,-1.52354 0.340735,-0.39866 0.681817,-0.79953 1.066656,-1.15477 0.279769,-0.24823 0.566373,-0.48869 0.877887,-0.69459 0.25628,-0.15884 0.522314,-0.2995 0.787128,-0.4427 0.18044,-0.0983 0.357006,-0.2048 0.524197,-0.32543 -0.05083,-0.0576 -0.167724,-0.11811 -0.277326,-0.12554 -1.424222,-0.22144 1.793587,-0.0301 0.369349,-0.0238 -0.531507,0.0599 -1.060142,0.14053 -1.590277,0.21186 -0.68271,0.0876 -1.367434,0.15385 -2.055035,0.18534 -1.247825,0.0747 -2.496816,0.12042 -3.747373,0.0945 -0.989475,-0.007 -1.978691,-0.0366 -2.965405,-0.11706 -1.049137,-0.086 -2.101165,-0.16293 -3.141071,-0.33443 -0.946364,-0.17135 -1.886712,-0.37497 -2.816915,-0.62344 -0.823655,-0.2246 -1.647797,-0.46017 -2.428439,-0.81639 -0.542928,-0.26112 -1.088877,-0.54756 -1.4815,-1.02693 -0.260574,-0.38315 -0.386517,-0.80273 -0.338382,-1.27429 0.07325,-0.58298 0.253827,-1.12489 0.56801,-1.62149 0.366553,-0.61485 0.760525,-1.2226 1.297665,-1.69694 0.637838,-0.51134 1.350336,-0.89629 2.167499,-0.98941 1.474404,-0.0969 2.963344,-0.0428 4.429902,0.13811 1.385403,0.20745 2.754462,0.50844 4.100752,0.90466 1.702762,0.50535 3.374214,1.10579 5.025595,1.76664 1.6326,0.64435 3.255379,1.31387 4.878412,1.98305 0.929717,0.37824 1.85602,0.78875 2.821551,1.06008 -1.535038,0.0641 -0.667784,0.29863 -1.648175,-0.54268 -0.871403,-0.72211 -1.761905,-1.41938 -2.637455,-2.13617 -0.916348,-0.75309 -1.832287,-1.51256 -2.651402,-2.37817 -0.578866,-0.63179 -1.130528,-1.29058 -1.598182,-2.01472 -0.413442,-0.63706 -0.827094,-1.27753 -1.160415,-1.96353 -0.275042,-0.60135 -0.522492,-1.21606 -0.700806,-1.85565 -0.15146,-0.55937 -0.273687,-1.12583 -0.29127,-1.70877 -0.0021,-0.56061 0.02879,-1.12705 0.224737,-1.65703 0.232282,-0.51394 0.577467,-0.92662 1.084047,-1.1762 0.914124,-0.39586 1.899693,-0.39861 2.886826,-0.27215 0.622734,0.11936 1.2254,0.31623 1.802765,0.58522 0.661218,0.30155 1.31678,0.62361 1.914662,1.04533 0.631858,0.4697 1.210789,1.00616 1.71129,1.6222 0.499218,0.61667 0.960609,1.26782 1.277946,2.00499 0.300277,0.67622 0.565839,1.37017 0.741416,2.09248 0.171935,0.71136 0.320946,1.42938 0.413419,2.15662 0.05893,0.48937 0.100083,0.97995 0.141956,1.47103 0.01381,0.11629 0.02308,0.21089 0.04396,0.32542 0.0084,0.0465 0.07492,0.12867 0.02979,0.13873 -1.59585,0.35567 -1.279372,0.48846 -1.172777,-0.0433 0.0763,-0.50035 0.119125,-1.00522 0.191818,-1.50612 0.103938,-0.8049 0.216058,-1.60839 0.350318,-2.40868 0.143284,-0.88173 0.289953,-1.76321 0.474161,-2.63716 0.178745,-0.84916 0.370153,-1.69584 0.602284,-2.53158 0.224995,-0.79607 0.463577,-1.58821 0.726325,-2.37212 0.233718,-0.65413 0.478213,-1.31268 0.874354,-1.88505 0.622679,-0.79672 1.197069,-0.68418 2.262976,-0.60728 0.346872,0.0437 0.688656,0.11737 0.987552,0.31401 0.387155,0.27204 0.64954,0.62808 0.792958,1.09184 0.201622,0.65248 0.349182,1.32098 0.441401,1.99918 0.123133,0.86356 0.221146,1.73307 0.229176,2.60682 -0.02246,0.98116 -0.13274,1.95656 -0.297484,2.92334 -0.183238,1.08484 -0.375993,2.17354 -0.706052,3.2233 -0.328539,0.92886 -0.751407,1.81583 -1.315936,2.62063 -0.457176,0.66305 -0.932297,1.32 -1.52691,1.8625 -0.407072,0.34785 -0.837954,0.66651 -1.305543,0.92453 -0.249957,0.13959 -0.50614,0.27864 -0.786149,0.34234 0,0 -1.252564,-0.18471 -1.252564,-0.18471 z"
       inkscape:connector-curvature="0" />
    <path
       style="opacity:1;fill:#151515;fill-opacity:1;fill-rule:evenodd;stroke:#000000;stroke-width:0.91611207;stroke-linecap:round;stroke-linejoin:miter;stroke-miterlimit:4;stroke-dasharray:none;stroke-dashoffset:0;stroke-opacity:1"
       id="path845"
       d="m 93.632242,237.28953 c 0.430469,-0.10385 0.823294,-0.31613 1.202442,-0.53756 0.913979,-0.5889 1.630029,-1.42163 2.325459,-2.24361 0.88593,-1.06773 1.69396,-2.19549 2.44979,-3.35748 0.713607,-1.09562 1.268797,-2.27489 1.696497,-3.50686 0.31678,-0.99597 0.51399,-2.02215 0.66884,-3.05369 0.14207,-0.83809 0.17085,-1.68536 0.15984,-2.53313 3.7e-4,-0.7342 -0.0952,-1.44943 -0.34385,-2.14047 -0.25658,-0.6002 -0.61167,-1.1302 -1.19962,-1.43571 0.50593,-0.16518 -1.550617,-0.12284 -1.011287,-0.11692 1.324287,0.0143 1.729487,-0.0313 1.051917,0.0316 -0.53502,0.0618 -0.867807,0.42904 -1.177877,0.83107 -0.38584,0.54372 -0.67589,1.14751 -0.95799,1.74911 -0.33586,0.70998 -0.58692,1.45402 -0.81526,2.20388 -0.24368,0.82349 -0.44754,1.65782 -0.64124,2.49415 -0.20488,0.89039 -0.39618,1.78326 -0.56323,2.6815 -0.16012,0.96579 -0.27981,1.93765 -0.39651,2.9094 -0.0992,0.88073 -0.20631,1.7608 -0.28818,2.64332 -0.0464,0.58087 -0.11037,1.16114 -0.11357,1.74434 0.0477,0.66713 0.79886,0.41076 -1.465776,0.16271 -0.08153,-0.009 0.02496,-0.16173 0.03203,-0.24319 0.03885,-0.46023 -0.007,-0.91807 -0.08025,-1.37216 -0.111006,-0.68683 -0.283812,-1.36097 -0.45373,-2.03497 -0.206086,-0.84143 -0.475252,-1.66416 -0.760075,-2.48178 -0.454375,-1.28203 -0.969602,-2.54096 -1.51903,-3.78505 -0.557527,-1.25783 -1.177992,-2.48597 -1.870059,-3.67529 -0.602286,-0.99089 -1.326751,-1.90018 -2.116518,-2.74769 -0.639566,-0.67255 -1.38731,-1.22361 -2.159009,-1.73404 -0.319398,-0.18507 -0.638245,-0.39019 -0.992591,-0.50536 -0.474385,-0.15418 -1.951896,-0.10744 0.730239,-0.0373 -0.567959,0.16671 -0.664313,0.70187 -0.727225,1.21803 -0.03821,0.75055 0.08455,1.49645 0.204291,2.23475 0.154434,0.87621 0.36539,1.74165 0.596438,2.60057 0.235521,0.89283 0.512887,1.77337 0.800074,2.65072 0.276004,0.83859 0.586936,1.663 0.940488,2.47195 0.363872,0.79226 0.77189,1.56101 1.267954,2.2787 0.596395,0.79187 1.411068,1.36401 2.2273,1.90848 0.826198,0.52524 1.668597,1.02411 2.496681,1.54636 0.61996,0.4085 1.291606,0.75728 1.810881,1.29547 0.277574,0.40749 0.06521,0.72689 -0.276552,0.99054 -0.341982,0.22648 -0.719845,0.38377 -1.110041,0.50521 -0.478704,0.14208 -0.976033,0.20281 -1.470547,0.26065 -1.314853,0.096 -2.636526,0.0508 -3.953466,0.0113 -1.001165,-0.0476 -2.001755,-0.10632 -3.002625,-0.15968 1.648668,-0.0369 -3.138785,-0.0507 -1.523184,-0.0325 2.226713,0.0253 0.426345,0.0313 -0.02881,0.0556 -0.956096,0.0464 -1.908147,0.14165 -2.853459,0.29039 -0.885969,0.14435 -1.750707,0.38655 -2.607369,0.64953 -0.791429,0.24055 -1.552244,0.56059 -2.270354,0.96908 -0.672992,0.38592 -1.12947,0.95986 -1.438797,1.65756 -0.299025,0.7454 -0.11489,1.48716 0.136373,2.21395 0.283002,0.77941 0.71036,1.49016 1.210675,2.14802 0.553477,0.68991 1.334088,1.05892 2.14824,1.35101 0.821831,0.26009 1.662206,0.44876 2.516302,0.56255 0.493919,0.009 2.04661,0.13527 -0.26459,0.0329 -0.142408,-0.007 0.28488,-0.0125 0.426977,-0.0239 0.389371,-0.031 0.449354,-0.0482 0.834429,-0.10924 0.871945,-0.13376 1.684646,-0.453 2.478869,-0.82214 0.801029,-0.38323 1.58224,-0.80608 2.34573,-1.25872 0.785723,-0.4583 1.446301,-1.07349 2.052255,-1.74329 0.600883,-0.70638 1.143828,-1.45918 1.692983,-2.20555 0.416854,-0.56371 0.821796,-1.13599 1.23323,-1.70361 0.231522,-0.30999 0.460112,-0.62362 0.724605,-0.90688 0.940129,-0.73343 1.730141,-0.39524 1.921469,0.4954 0.08192,0.42488 0.123649,0.8557 0.161365,1.28624 0.06692,0.64293 0.134624,1.28569 0.191743,1.92957 0.0643,0.7658 0.113943,1.53252 0.183552,2.29788 0.07783,0.84692 0.176468,1.69183 0.281974,2.53569 0.08923,0.96536 0.377234,1.88238 0.710637,2.78686 0.392843,1.07431 0.981453,2.05243 1.586333,3.01748 0.5976,0.94081 1.25848,1.83962 1.94958,2.71378 0.62647,0.80521 1.383337,1.48336 2.178137,2.1172 0.71374,0.58027 1.5025,1.04673 2.34198,1.41894 0.31055,0.107 0.41099,0.16287 0.73607,0.19378 0.1157,0.0113 0.46477,0.009 0.34868,0.002 -1.89447,-0.0926 -1.26131,0.0506 -0.58406,-0.29874 0.673,-0.43008 1.00722,-1.09179 1.23922,-1.82787 0.22672,-0.93427 0.28799,-1.89592 0.32541,-2.85306 0.069,-0.98447 -0.11136,-1.90771 -0.50843,-2.80386 -0.53746,-1.01617 -1.30426,-1.88696 -2.05569,-2.74948 -0.72999,-0.8082 -1.48226,-1.59586 -2.21874,-2.39814 -0.667427,-0.72889 -1.324937,-1.46707 -1.960117,-2.22411 -0.54373,-0.65571 -1.0751,-1.32194 -1.48482,-2.07033 -0.22278,-0.42885 -0.33412,-0.89048 -0.33927,-1.37094 0.0185,-0.51508 0.35953,-0.64162 0.82182,-0.67311 1.32341,-0.13907 2.46941,0.11781 3.711967,0.44267 0.79467,0.2011 1.55191,0.50509 2.28187,0.87318 0.76398,0.40509 1.50305,0.85446 2.24956,1.2902 0.6582,0.40578 1.32062,0.80557 2.02791,1.1206 0.64966,0.27415 1.3436,0.40759 2.03574,0.52295 0.52082,-0.007 1.86502,0.26677 -0.47955,0.0309 -0.12537,-0.0125 0.24984,-0.0341 0.37308,-0.0599 0.30508,-0.0644 0.47994,-0.13049 0.77619,-0.22739 0.72859,-0.24897 1.41806,-0.57604 2.05515,-1.00648 0.47758,-0.33061 0.88324,-0.74322 1.23342,-1.20315 0.2713,-0.37909 0.48351,-0.77183 0.49114,-1.24334 -0.0311,-0.50509 -0.23862,-0.95865 -0.52432,-1.36813 -0.36263,-0.46868 -0.8018,-0.87194 -1.2604,-1.24514 -0.51546,-0.44883 -1.14687,-0.66697 -1.78662,-0.87148 -0.89703,-0.25876 -1.79965,-0.4968 -2.70592,-0.72106 -0.90984,-0.23798 -1.83607,-0.39752 -2.76648,-0.52884 -0.94251,-0.13906 -1.89452,-0.18322 -2.84515,-0.22539 -0.49341,-0.0541 -3.999167,-0.0599 -1.18184,-0.0463 -0.79453,0.007 -1.580317,0.12411 -2.359397,0.26943 -0.47403,0.0876 -0.94168,0.20479 -1.40913,0.32136 0,0 -1.53792,-0.20429 -1.53792,-0.20429 v 0 c 0.46886,-0.11793 0.93734,-0.23938 1.41258,-0.32965 0.78065,-0.15384 1.56897,-0.27957 2.36636,-0.29589 1.411337,-0.004 2.823957,-0.0254 4.233987,0.0516 0.95206,0.0445 1.90495,0.0967 2.84828,0.24012 0.93121,0.13638 1.85708,0.30553 2.76804,0.54434 0.90835,0.22716 1.81402,0.46537 2.71181,0.73135 0.65078,0.2156 1.2812,0.46575 1.80026,0.92883 0.46054,0.38886 0.90777,0.80105 1.26493,1.28911 0.28946,0.44308 0.50179,0.92681 0.5305,1.46238 -0.008,0.50558 -0.20659,0.92956 -0.49661,1.34044 -0.3515,0.47659 -0.75862,0.90734 -1.24352,1.25273 -0.63719,0.44829 -1.32748,0.79034 -2.06395,1.04872 -1.20558,0.42093 -2.47296,0.49996 -3.74151,0.28109 -0.69583,-0.12347 -1.39143,-0.27176 -2.03932,-0.56291 -0.70226,-0.32967 -1.36434,-0.73251 -2.02573,-1.13638 -0.74403,-0.43562 -1.48137,-0.88424 -2.24815,-1.27957 -0.73113,-0.35497 -1.48878,-0.64575 -2.279517,-0.84147 -0.60254,-0.15523 -3.44585,-0.60314 -0.63982,-0.40598 -0.37965,-0.009 -0.77376,-0.0401 -0.79691,0.43279 0.002,0.45476 0.11378,0.89012 0.32621,1.2944 0.40908,0.73664 0.93564,1.39382 1.473347,2.04085 0.6355,0.75399 1.29188,1.49028 1.95782,2.21765 0.73579,0.80296 1.48834,1.59054 2.21401,2.40269 0.75743,0.87575 1.53075,1.75998 2.06273,2.79543 0.39771,0.91952 0.58294,1.86667 0.51221,2.87299 -0.0381,0.9703 -0.10249,1.94396 -0.32327,2.89281 -0.23061,0.77083 -0.56457,1.46507 -1.24055,1.94631 -1.06561,0.63122 -2.44869,0.5338 -3.57991,0.11415 -0.83805,-0.38957 -1.625257,-0.87081 -2.340577,-1.45792 -0.79634,-0.64523 -1.55157,-1.33765 -2.17915,-2.1521 -0.68928,-0.8804 -1.34906,-1.78457 -1.945586,-2.73054 -0.60856,-0.97476 -1.197874,-1.96458 -1.592695,-3.04881 -0.335961,-0.91585 -0.626602,-1.84472 -0.716491,-2.82162 -0.106342,-0.84563 -0.207873,-1.69211 -0.285606,-2.54088 -0.06974,-0.76545 -0.120439,-1.53224 -0.186725,-2.29798 -0.05906,-0.64384 -0.126818,-1.28676 -0.197758,-1.9294 -0.03995,-0.42374 -0.08356,-0.84801 -0.16781,-1.26572 -0.02321,-0.0974 -0.04069,-0.19128 -0.08003,-0.28387 -0.0149,-0.0351 -0.09242,-0.0969 -0.0544,-0.1005 3.082001,-0.29656 1.775054,-0.13436 1.338046,-0.0241 -0.27802,0.26454 -0.498368,0.58162 -0.733656,0.88288 -0.416024,0.56677 -0.824757,1.13877 -1.243231,1.70376 -0.55325,0.74919 -1.100511,1.50422 -1.697562,2.21971 -0.604315,0.68483 -1.263428,1.3178 -2.052863,1.79015 -0.763775,0.45904 -1.54731,0.88469 -2.349476,1.27355 -0.795235,0.3792 -1.604949,0.72037 -2.481383,0.8643 -1.337436,0.23905 -2.707754,0.22817 -4.058848,0.10442 -0.854847,-0.12692 -1.698426,-0.32036 -2.518173,-0.59597 -0.826662,-0.31829 -1.609076,-0.72031 -2.159718,-1.4385 -0.499403,-0.67631 -0.929498,-1.40157 -1.212345,-2.19639 -0.257008,-0.76332 -0.4406,-1.54493 -0.139289,-2.32741 0.306985,-0.72632 0.76088,-1.34053 1.448151,-1.75531 0.716668,-0.42512 1.479855,-0.7562 2.276828,-1.00338 0.857858,-0.26941 1.724494,-0.51676 2.611739,-0.67087 0.946734,-0.15717 1.900849,-0.25838 2.859716,-0.30584 1.53099,-0.0875 3.065881,-0.0891 4.597874,-0.0235 1.000964,0.0538 2.001639,0.11415 3.003203,0.15581 0.490157,0.014 2.209005,0.0204 -0.162136,0.0304 -0.450007,0.002 0.471754,9.9e-4 0.743946,-0.0101 0.102904,-0.003 0.205565,-0.0134 0.308348,-0.0202 0.490539,-0.0538 0.984433,-0.10789 1.462455,-0.23434 0.385637,-0.10789 0.757011,-0.24832 1.101928,-0.455 0.289857,-0.18395 0.547799,-0.38375 0.280254,-0.72044 -0.528706,-0.51118 -1.185295,-0.85896 -1.795613,-1.26208 -0.82784,-0.52184 -1.670447,-1.0199 -2.492204,-1.55134 -0.825532,-0.55931 -1.644401,-1.15143 -2.237679,-1.96604 -0.494371,-0.72901 -0.904428,-1.50676 -1.269428,-2.30781 -0.353374,-0.81382 -0.663477,-1.64337 -0.939507,-2.48655 -0.287553,-0.88001 -0.564064,-1.7636 -0.800178,-2.65898 -0.231575,-0.86429 -0.444511,-1.7347 -0.600594,-2.61601 -0.1226,-0.75246 -0.245809,-1.5125 -0.210419,-2.27748 0.06339,-0.56743 0.16602,-1.14942 0.737295,-1.41672 1.592913,-0.0444 2.117185,-0.21929 3.344523,0.60855 0.771835,0.52249 1.518257,1.08599 2.154814,1.77083 0.78657,0.86101 1.511422,1.77945 2.110083,2.78186 0.688916,1.19623 1.307917,2.43001 1.866745,3.69207 0.550751,1.24872 1.066377,2.51239 1.528941,3.79646 0.291788,0.82148 0.571013,1.64735 0.776032,2.4954 0.17055,0.67846 0.340982,1.3576 0.456642,2.04804 0.0767,0.46621 0.12665,0.9361 0.0914,1.40913 -0.0742,1.07757 -1.800191,0.92222 -1.692227,0.0666 0.01137,-0.58752 0.07624,-1.17185 0.126683,-1.75695 0.08534,-0.88367 0.19465,-1.76492 0.293936,-2.64713 0.117457,-0.97493 0.238887,-1.94973 0.39727,-2.91906 0.165289,-0.9006 0.353852,-1.79605 0.559146,-2.68844 0.194122,-0.83961 0.398692,-1.6771 0.641252,-2.50432 0.22713,-0.757 0.47602,-1.50881 0.81193,-2.226 0.28315,-0.61093 0.57497,-1.22282 0.95376,-1.78174 0.31117,-0.42275 0.64535,-0.84536 1.18889,-0.95706 0.972577,-0.12784 2.101887,-0.20015 3.048757,0.14913 0.57734,0.36512 0.94708,0.91768 1.20187,1.54551 0.24522,0.70906 0.34485,1.44034 0.34225,2.1909 0.009,0.8561 -0.0206,1.71183 -0.16547,2.5579 -0.15804,1.04099 -0.35843,2.07639 -0.67838,3.08162 -0.43058,1.24359 -0.98701,2.4354 -1.70347,3.54347 -0.7565,1.16749 -1.565767,2.30024 -2.449437,3.37618 -0.69361,0.83333 -1.40784,1.67584 -2.30806,2.2959 -0.37705,0.23527 -0.76628,0.45253 -1.191941,0.58858 0,0 -1.554139,-0.2095 -1.554139,-0.2095 z"
       inkscape:connector-curvature="0" />
    <circle
       style="fill:#000000;fill-opacity:1;stroke-width:0.264583"
       id="path937"
       cx="94.298454"
       cy="145.82025"
       r="4.6363511" />
    <circle
       style="fill:#000000;fill-opacity:1;stroke-width:0.264583"
       id="path937-4"
       cx="57.658882"
       cy="189.51057"
       r="4.6363511" />
    <circle
       style="fill:#000000;fill-opacity:1;stroke-width:0.264583"
       id="path937-5"
       cx="94.578773"
       cy="236.18492"
       r="4.6363511" />
  </g>
</svg>
