<?xml version="1.0" encoding="UTF-8" standalone="no"?>
<!-- Created with Inkscape (http://www.inkscape.org/) -->

<svg
   width="148mm"
   height="210mm"
   viewBox="0 0 148 210"
   version="1.1"
   id="svg8"
   inkscape:version="1.1 (ce6663b3b7, 2021-05-25)"
   sodipodi:docname="7th-birthday-4.svg"
   xmlns:inkscape="http://www.inkscape.org/namespaces/inkscape"
   xmlns:sodipodi="http://sodipodi.sourceforge.net/DTD/sodipodi-0.dtd"
   xmlns="http://www.w3.org/2000/svg"
   xmlns:svg="http://www.w3.org/2000/svg"
   xmlns:rdf="http://www.w3.org/1999/02/22-rdf-syntax-ns#"
   xmlns:cc="http://creativecommons.org/ns#"
   xmlns:dc="http://purl.org/dc/elements/1.1/">
  <defs
     id="defs2" />
  <sodipodi:namedview
     id="base"
     pagecolor="#ffffff"
     bordercolor="#666666"
     borderopacity="1.0"
     inkscape:pageopacity="0.0"
     inkscape:pageshadow="2"
     inkscape:zoom="0.42459326"
     inkscape:cx="-201.36919"
     inkscape:cy="617.06114"
     inkscape:document-units="mm"
     inkscape:current-layer="layer1"
     showgrid="true"
     inkscape:window-width="1375"
     inkscape:window-height="876"
     inkscape:window-x="65"
     inkscape:window-y="24"
     inkscape:window-maximized="1"
     inkscape:pagecheckerboard="0">
    <inkscape:grid
       type="xygrid"
       id="grid841"
       units="mm"
       spacingy="42"
       spacingx="37"
       visible="false"
       enabled="false" />
  </sodipodi:namedview>
  <metadata
     id="metadata5">
    <rdf:RDF>
      <cc:Work
         rdf:about="">
        <dc:format>image/svg+xml</dc:format>
        <dc:type
           rdf:resource="http://purl.org/dc/dcmitype/StillImage" />
        <dc:title />
      </cc:Work>
    </rdf:RDF>
  </metadata>
  <g
     inkscape:label="Layer 1"
     inkscape:groupmode="layer"
     id="layer1"
     transform="translate(0,-87)">
    <text
       xml:space="preserve"
       style="font-style:normal;font-variant:normal;font-weight:normal;font-stretch:normal;font-size:6.61458px;line-height:125%;font-family:'Vtks Rash';-inkscape-font-specification:'Vtks Rash';letter-spacing:0px;word-spacing:0px;fill:#000000;fill-opacity:1;stroke:none;stroke-width:0.264583px;stroke-linecap:butt;stroke-linejoin:miter;stroke-opacity:1"
       x="36.250858"
       y="141.40016"
       id="text854" />
    <path
       style="color:#000000;clip-rule:nonzero;display:inline;overflow:visible;visibility:visible;opacity:1;isolation:auto;mix-blend-mode:normal;color-interpolation:sRGB;color-interpolation-filters:linearRGB;solid-color:#000000;solid-opacity:1;fill:#000000;fill-opacity:1;fill-rule:evenodd;stroke:#000000;stroke-width:0.0140503;stroke-linecap:butt;stroke-linejoin:miter;stroke-miterlimit:4;stroke-dasharray:none;stroke-dashoffset:0;stroke-opacity:1;color-rendering:auto;image-rendering:auto;shape-rendering:auto;text-rendering:auto;enable-background:accumulate"
       d="m 54.773466,159.76065 0.230892,5.03195 -12.450631,1.00153 0.113226,7.92174 10.338789,-0.78546 0.180111,5.34826 -10.288011,0.46917 -0.545037,8.22815 13.584383,0.0435 1.139142,6.92237 -23.49339,0.13639 3.35412,-33.19279 z"
       id="path845"
       inkscape:connector-curvature="0"
       sodipodi:nodetypes="ccccccccccccc" />
    <path
       style="color:#000000;clip-rule:nonzero;display:inline;overflow:visible;visibility:visible;opacity:1;isolation:auto;mix-blend-mode:normal;color-interpolation:sRGB;color-interpolation-filters:linearRGB;solid-color:#000000;solid-opacity:1;fill:#000000;fill-opacity:1;fill-rule:evenodd;stroke:#000000;stroke-width:0.08563151;stroke-linecap:butt;stroke-linejoin:miter;stroke-miterlimit:4;stroke-dasharray:none;stroke-dashoffset:0;stroke-opacity:1;color-rendering:auto;image-rendering:auto;shape-rendering:auto;text-rendering:auto;enable-background:accumulate"
       d="m 11.981396,185.86743 1.263839,-6.09476 c 14.6273,5.04734 14.495055,-2.87898 8.610737,-7.29148 -11.438546,-8.57748 -16.9533471,-26.52059 9.419952,-22.04233 l -3.060762,7.8371 c -14.91866,-3.71173 -5.893404,3.79199 3.228226,12.67225 8.767061,8.53507 -3.491003,20.74854 -19.461992,14.91922 z"
       id="path1054"
       inkscape:connector-curvature="0"
       sodipodi:nodetypes="ccsccsc" />
    <path
       style="color:#000000;clip-rule:nonzero;display:inline;overflow:visible;visibility:visible;opacity:1;isolation:auto;mix-blend-mode:normal;color-interpolation:sRGB;color-interpolation-filters:linearRGB;solid-color:#000000;solid-opacity:1;fill:#000000;fill-opacity:1;fill-rule:evenodd;stroke:#000000;stroke-width:0.01273957;stroke-linecap:butt;stroke-linejoin:miter;stroke-miterlimit:4;stroke-dasharray:none;stroke-dashoffset:0;stroke-opacity:1;color-rendering:auto;image-rendering:auto;shape-rendering:auto;text-rendering:auto;enable-background:accumulate"
       d="m 55.444664,164.7926 11.841355,-1.59186 c 1.726152,4.31875 1.224178,7.17947 4.643182,13.51077 2.653709,-6.17833 1.612212,-6.17316 4.279187,-13.89607 l 10.995428,-0.51777 C 82.569403,172.76113 79.177141,182.32671 73.066761,193.27595 65.7984,184.3882 59.453098,170.741 55.444664,164.7926 Z"
       id="path850"
       inkscape:connector-curvature="0"
       sodipodi:nodetypes="ccccccc" />
    <path
       style="color:#000000;clip-rule:nonzero;display:inline;overflow:visible;visibility:visible;opacity:1;isolation:auto;mix-blend-mode:normal;color-interpolation:sRGB;color-interpolation-filters:linearRGB;solid-color:#000000;solid-opacity:1;fill:#000000;fill-opacity:1;fill-rule:evenodd;stroke:#000000;stroke-width:0.01489158;stroke-linecap:butt;stroke-linejoin:miter;stroke-miterlimit:4;stroke-dasharray:none;stroke-dashoffset:0;stroke-opacity:1;color-rendering:auto;image-rendering:auto;shape-rendering:auto;text-rendering:auto;enable-background:accumulate"
       d="m 108.72459,160.86613 0.41359,4.87018 -14.401524,1.20892 0.361039,7.67188 11.960085,-0.95913 0.36392,5.17756 -11.91045,0.65175 0.235415,6.83575 14.339685,-0.10981 0.74331,8.23957 -23.744899,-1.25405 0.999667,-30.90108 z"
       id="path845-3"
       inkscape:connector-curvature="0"
       sodipodi:nodetypes="ccccccccccccc" />
    <path
       style="color:#000000;clip-rule:nonzero;display:inline;overflow:visible;visibility:visible;opacity:1;isolation:auto;mix-blend-mode:normal;color-interpolation:sRGB;color-interpolation-filters:linearRGB;solid-color:#000000;solid-opacity:1;fill:#000000;fill-opacity:1;fill-rule:evenodd;stroke:#000000;stroke-width:0.08849312;stroke-linecap:butt;stroke-linejoin:miter;stroke-miterlimit:4;stroke-dasharray:none;stroke-dashoffset:0;stroke-opacity:1;color-rendering:auto;image-rendering:auto;shape-rendering:auto;text-rendering:auto;enable-background:accumulate"
       d="m 111.65836,153.83191 -0.6914,32.38132 8.0614,-0.36999 -0.41436,-15.7576 7.97414,16.88375 8.48383,-0.48444 0.95038,-32.59746 -9.19583,0.88695 -0.69231,17.12821 -5.71956,-18.3074 z"
       id="path1050"
       inkscape:connector-curvature="0"
       sodipodi:nodetypes="ccccccccccc" />
    <ellipse
       style="opacity:1;fill:#000000;fill-opacity:1;fill-rule:evenodd;stroke:#000000;stroke-width:0.9695701;stroke-linecap:round;stroke-linejoin:miter;stroke-miterlimit:4;stroke-dasharray:none;stroke-dashoffset:0;stroke-opacity:1"
       id="path859"
       cx="43.709778"
       cy="229.20544"
       rx="4.8418775"
       ry="4.7161798" />
    <circle
       style="opacity:1;fill:#000000;fill-opacity:1;fill-rule:evenodd;stroke:#000000;stroke-width:0.727;stroke-linecap:round;stroke-linejoin:miter;stroke-miterlimit:4;stroke-dasharray:none;stroke-dashoffset:0;stroke-opacity:1"
       id="path859-3"
       cx="103.24351"
       cy="139.77721"
       r="3.583086" />
    <circle
       style="opacity:1;fill:#010000;fill-opacity:1;fill-rule:evenodd;stroke:#000000;stroke-width:0.727;stroke-linecap:round;stroke-linejoin:miter;stroke-miterlimit:4;stroke-dasharray:none;stroke-dashoffset:0;stroke-opacity:1"
       id="path859-6"
       cx="44.044716"
       cy="130.74161"
       r="3.583086" />
    <circle
       style="opacity:1;fill:#080000;fill-opacity:1;fill-rule:evenodd;stroke:#000000;stroke-width:0.86594862;stroke-linecap:round;stroke-linejoin:miter;stroke-miterlimit:4;stroke-dasharray:none;stroke-dashoffset:0;stroke-opacity:1"
       id="path859-7"
       cx="91.511276"
       cy="255.43225"
       r="4.2679071" />
    <circle
       style="opacity:1;fill:#000000;fill-opacity:1;fill-rule:evenodd;stroke:#000000;stroke-width:0.86594862;stroke-linecap:round;stroke-linejoin:miter;stroke-miterlimit:4;stroke-dasharray:none;stroke-dashoffset:0;stroke-opacity:1"
       id="path859-5"
       cx="115.57256"
       cy="210.68309"
       r="4.2679071" />
    <path
       style="opacity:1;fill:#010000;fill-opacity:1;fill-rule:evenodd;stroke:#000000;stroke-width:0.72699994;stroke-linecap:round;stroke-linejoin:miter;stroke-miterlimit:4;stroke-dasharray:none;stroke-dashoffset:0;stroke-opacity:1"
       id="path905"
       d="m 42.57742,127.52237 c 0.451075,-0.17023 0.865953,-0.42936 1.284394,-0.66685 0.624771,-0.34465 1.206595,-0.75685 1.768829,-1.19433 0.546566,-0.42687 1.0511,-0.90133 1.525498,-1.40623 0.378812,-0.38432 0.620461,-0.814 0.654534,-1.35375 -0.02943,-0.48336 -0.321974,-0.85356 -0.62371,-1.20684 -0.313611,-0.35155 -0.661223,-0.66828 -1.026536,-0.96463 -0.313878,-0.24997 -0.656603,-0.45998 -1.011706,-0.64542 -0.317061,-0.17032 -0.646731,-0.25467 -1.003813,-0.26687 2.155687,-0.0927 0.448328,0.0455 -0.05474,0.15604 -0.41552,0.10214 -0.821857,0.23681 -1.207056,0.42325 -0.349231,0.1604 -0.579038,0.42377 -0.747149,0.76073 -0.163972,0.36469 -0.141295,0.7555 -0.08392,1.14078 0.09106,0.49136 0.251444,0.96563 0.411149,1.4379 0.171193,0.49721 0.369051,0.98434 0.570468,1.46985 0.187404,0.45452 0.390409,0.90239 0.591389,1.35101 0.131976,0.28213 0.262988,0.57208 0.467563,0.81006 0.59417,0.19832 -0.884634,0.48573 -1.150389,-0.10798 -0.116957,-0.17463 -0.270201,-0.32248 -0.416616,-0.47243 -0.227298,-0.25872 -0.504248,-0.45941 -0.783463,-0.65715 -0.397306,-0.29168 -0.844815,-0.49935 -1.289915,-0.70553 -0.454771,-0.21571 -0.923825,-0.38622 -1.423313,-0.45346 -0.767405,-0.0193 0.48482,-0.009 0.727078,-0.002 0.0807,0.002 -0.161341,0.008 -0.241758,0.0149 -0.242202,0.0216 -0.477171,0.0683 -0.714301,0.12002 -0.466151,0.10698 -0.902877,0.30115 -1.329481,0.51239 -0.424249,0.21699 -0.828818,0.46995 -1.228553,0.72865 -0.299003,0.19618 -0.591111,0.40993 -0.796062,0.70675 -0.149469,0.27449 -0.06658,0.55817 0.0397,0.83151 0.147664,0.31834 0.348459,0.60911 0.566086,0.88314 0.234553,0.28189 0.510292,0.52478 0.818132,0.72292 0.336656,0.21288 0.716724,0.33118 1.096359,0.44021 0.400375,0.10223 0.810879,0.15512 1.222446,0.18399 0.426755,0.007 1.360583,0.0105 -0.568015,0.003 -0.07227,-2.6e-4 0.144531,-0.001 0.216797,-0.002 0.142732,-0.002 0.277199,-0.004 0.419846,-0.006 0.529815,0.0904 1.921534,-0.54234 1.82639,0.17224 -0.249942,0.14631 -0.559576,0.19691 -0.840042,0.26794 -0.42859,0.0978 -0.856506,0.19863 -1.285716,0.2937 -0.438984,0.0954 -0.872786,0.20858 -1.281949,0.39586 -0.443539,0.24463 -0.774043,0.63634 -1.101066,1.01381 -0.344691,0.40341 -0.61773,0.85544 -0.848939,1.33108 -0.200562,0.45224 -0.355188,0.92356 -0.445622,1.40987 -0.07237,0.4341 -0.04187,0.86567 0.0699,1.28883 0.110025,0.37652 0.308819,0.71068 0.554557,1.01293 0.234775,0.27394 0.554066,0.43099 0.876567,0.57624 0.355817,0.14281 0.727847,0.2343 1.105744,0.29393 -0.570214,0.0518 1.168125,0.0365 0.586126,0.0358 -1.910469,-0.002 -1.0595,0.0104 -0.61845,-0.0397 0.421722,-0.057 0.827891,-0.18632 1.224211,-0.33714 0.425299,-0.17291 0.792993,-0.44658 1.140293,-0.74135 0.360413,-0.31452 0.670875,-0.67855 0.954223,-1.06244 0.312962,-0.42813 0.560607,-0.89747 0.80746,-1.36529 0.204579,-0.38881 0.402336,-0.78136 0.617556,-1.16444 0.11257,-0.20938 0.240813,-0.40928 0.373801,-0.60607 0.295074,-0.46935 1.290166,-0.43246 1.469657,0.10831 0.05291,0.21458 0.0956,0.43125 0.150175,0.64552 0.08068,0.32051 0.169249,0.63886 0.267057,0.95455 0.111596,0.37514 0.27341,0.72978 0.462955,1.07122 0.25268,0.41945 0.559191,0.80244 0.862422,1.18573 0.291233,0.38001 0.614532,0.73225 0.951109,1.07199 0.287962,0.29457 0.623625,0.51928 0.987689,0.7067 -0.263509,0.11462 0.949455,0.14119 0.670378,0.13577 -1.060516,-0.0206 -1.401834,0.0489 -0.874866,-0.0417 0.363971,-0.0897 0.701939,-0.25811 1.023919,-0.44632 0.345228,-0.21713 0.627353,-0.49868 0.843282,-0.84281 0.17883,-0.32727 0.257469,-0.69309 0.330229,-1.05521 0.06039,-0.32511 0.08074,-0.65484 0.05989,-0.98448 -0.03185,-0.3141 -0.124703,-0.61736 -0.232539,-0.91269 -0.115054,-0.32209 -0.307526,-0.56359 -0.583973,-0.7586 -0.486219,-0.26619 -1.00656,-0.46136 -1.528678,-0.64381 -0.376883,-0.19155 -1.011028,-0.18584 -1.260252,-0.57029 0.09797,-0.4102 0.779782,-0.3455 1.114898,-0.36663 0.986692,-0.0283 1.974231,-0.014 2.961212,-0.005 0.82233,0.006 -0.45038,0.002 -0.675543,-8e-4 -0.08537,-0.001 0.170741,-0.003 0.256067,-0.006 0.243303,-0.008 0.485275,-0.0273 0.727572,-0.0499 0.453321,-0.0448 0.895771,-0.14653 1.329629,-0.28221 0.349182,-0.12195 0.700072,-0.25679 0.975837,-0.50904 0.262517,-0.30433 0.22039,-0.67743 0.171243,-1.04847 -0.07337,-0.46211 -0.229195,-0.90271 -0.442238,-1.31759 -0.236791,-0.43393 -0.571838,-0.79641 -0.929026,-1.13299 -0.372642,-0.37314 -0.811604,-0.61758 -1.309018,-0.77746 -0.444878,-0.12171 -0.905192,-0.17029 -1.363731,-0.20545 -0.499205,-0.0517 -2.222267,-0.0408 -0.05413,-0.0317 -0.40645,0.004 -0.807278,0.0597 -1.20286,0.14934 -0.442915,0.10248 -0.866335,0.26224 -1.270129,0.46919 -0.287814,0.17355 -0.146069,0.0825 -0.425146,0.27328 0,0 -1.223185,-0.11794 -1.223185,-0.11794 v 0 c 0.279916,-0.19956 0.137891,-0.10348 0.426019,-0.28832 0.402469,-0.22015 0.825175,-0.39076 1.271612,-0.50084 0.396404,-0.0962 0.796157,-0.16917 1.205825,-0.17418 0.829127,-0.004 1.661983,-0.0337 2.489502,0.0386 0.460605,0.0408 0.923506,0.0964 1.366226,0.23586 0.498623,0.18144 0.937334,0.45174 1.313434,0.83055 0.360587,0.35049 0.698637,0.726 0.93395,1.17471 0.211944,0.4299 0.36958,0.88342 0.44301,1.35873 0.05398,0.40779 0.09032,0.81273 -0.170161,1.16196 -0.266732,0.28567 -0.622483,0.43381 -0.985081,0.56656 -0.435316,0.1433 -0.877999,0.25704 -1.334796,0.30752 -0.908971,0.0994 -1.823929,0.0795 -2.737422,0.0671 -0.193257,-0.002 -0.368517,-0.003 -0.561988,-0.004 -0.09813,-5.3e-4 -0.392523,-0.001 -0.294391,-0.001 1.858944,-0.006 0.726778,-0.002 0.320839,0.005 -0.365662,0.0191 -0.729631,0.0584 -1.090957,0.0987 0.322858,0.30452 0.85557,0.31183 1.238819,0.50278 0.528262,0.1887 1.060844,0.38549 1.540515,0.68042 0.277202,0.22235 0.474142,0.49111 0.591296,0.82984 0.108477,0.3073 0.202605,0.62177 0.233022,0.94771 0.02019,0.34033 5.29e-4,0.68071 -0.06135,1.01645 -0.07516,0.37572 -0.156496,0.75436 -0.333155,1.09793 -0.213815,0.36464 -0.495927,0.66424 -0.847575,0.90173 -0.321026,0.20307 -0.664974,0.37294 -1.027821,0.48772 -0.72172,0.18292 -1.559042,0.18897 -2.244373,-0.12832 -0.364924,-0.20052 -0.698582,-0.44315 -0.988499,-0.7443 -0.336495,-0.34433 -0.657376,-0.70306 -0.950479,-1.08549 -0.306263,-0.38876 -0.614921,-0.77823 -0.865907,-1.20602 -0.190087,-0.35031 -0.353801,-0.71296 -0.466934,-1.09607 -0.09768,-0.31798 -0.186714,-0.63847 -0.270108,-0.96049 -0.05398,-0.20995 -0.09464,-0.423 -0.153136,-0.63163 -0.335306,-0.76055 1.581926,-0.36759 1.008439,-0.0789 -0.133877,0.19382 -0.267203,0.38816 -0.379397,0.59573 -0.220202,0.37986 -0.418632,0.77179 -0.623361,1.16008 -0.249203,0.47216 -0.49607,0.94749 -0.807111,1.38296 -0.282425,0.39381 -0.595051,0.76573 -0.956001,1.09067 -0.348718,0.30565 -0.71682,0.59145 -1.142645,0.78299 -0.396873,0.15989 -0.804566,0.29626 -1.227765,0.36709 -0.795964,0.11555 -1.611116,0.0955 -2.408298,-0.001 -0.380005,-0.0717 -0.756036,-0.16811 -1.110425,-0.32614 -0.331171,-0.159 -0.649845,-0.34002 -0.881697,-0.63375 -0.245581,-0.32141 -0.446432,-0.67152 -0.555136,-1.06421 -0.110365,-0.44138 -0.142671,-0.89064 -0.0686,-1.3422 0.0907,-0.49728 0.24729,-0.97887 0.44881,-1.44248 0.231169,-0.48624 0.504087,-0.94912 0.851067,-1.36318 0.331337,-0.38856 0.665784,-0.7893 1.102338,-1.06407 0.405104,-0.20866 0.842735,-0.32554 1.286193,-0.4247 0.428503,-0.0932 0.85457,-0.19675 1.282893,-0.29067 0.273659,-0.0666 0.546068,-0.15719 0.822,-0.20407 0.0084,0.0346 0.02609,0.0682 0.02521,0.10385 -2.32e-4,0.01 -0.03757,0.007 -0.02794,0.007 2.170597,0.009 1.117241,-0.0111 0.633831,0.007 -0.834546,0.0127 -1.670161,0.0316 -2.504194,-0.004 -0.413486,-0.0382 -0.826318,-0.094 -1.226402,-0.20909 -0.3845,-0.11686 -0.765852,-0.25055 -1.101548,-0.4775 -0.307162,-0.21592 -0.588272,-0.4664 -0.822055,-0.76169 -0.219458,-0.28657 -0.425315,-0.58773 -0.568833,-0.92043 -0.113379,-0.31158 -0.190778,-0.63253 -0.03945,-0.94678 0.195813,-0.32166 0.493943,-0.55149 0.804439,-0.75822 0.401778,-0.26136 0.808027,-0.51734 1.231816,-0.74185 0.42791,-0.21868 0.865108,-0.42299 1.332968,-0.54175 0.871786,-0.21006 1.768956,-0.24187 2.665108,-0.14146 0.498801,0.0898 0.969846,0.269 1.426435,0.48785 0.448953,0.21126 0.896199,0.43026 1.29617,0.72745 0.283347,0.20329 0.556696,0.41799 0.790297,0.67885 0.155234,0.16016 0.322554,0.31951 0.42287,0.52144 0.211133,0.60387 -1.016695,0.66802 -1.32606,0.23795 -0.192479,-0.25719 -0.329009,-0.55032 -0.460695,-0.84199 -0.200131,-0.44982 -0.402177,-0.89894 -0.589237,-1.35441 -0.202166,-0.48801 -0.399175,-0.97829 -0.57081,-1.47806 -0.162046,-0.47927 -0.322723,-0.96114 -0.41402,-1.45995 -0.05967,-0.40896 -0.08279,-0.82419 0.08176,-1.2141 0.166807,-0.35903 0.391227,-0.661 0.755307,-0.84128 0.384407,-0.20053 0.792308,-0.34196 1.211542,-0.45227 0.82549,-0.20114 1.634829,-0.2384 2.494688,-0.17621 0.359383,0.0344 0.693753,0.14349 1.01052,0.31902 0.355217,0.1946 0.698233,0.4122 1.011762,0.66966 0.365929,0.30363 0.713602,0.62874 1.026554,0.98751 0.315508,0.38236 0.604705,0.78574 0.62756,1.30028 -0.03492,0.56675 -0.264274,1.03079 -0.663387,1.43813 -0.476078,0.51112 -0.982157,0.99197 -1.531435,1.42466 -0.561425,0.44284 -1.140915,0.86353 -1.766517,1.21249 -0.41932,0.24052 -0.836597,0.48809 -1.272122,0.6981 0,0 -1.230109,-0.15988 -1.230109,-0.15988 z"
       inkscape:connector-curvature="0" />
    <path
       style="opacity:1;fill:#000000;fill-opacity:1;fill-rule:evenodd;stroke:#000000;stroke-width:0.9695701;stroke-linecap:round;stroke-linejoin:miter;stroke-miterlimit:4;stroke-dasharray:none;stroke-dashoffset:0;stroke-opacity:1"
       id="path907"
       d="m 42.726359,224.77025 c 0.302993,-0.323 0.494594,-0.72582 0.684243,-1.11756 0.384168,-0.84826 0.671829,-1.73388 0.950191,-2.61922 0.330849,-0.90541 0.470577,-1.84265 0.5109,-2.79779 0.01473,-0.82679 -0.03487,-1.65409 -0.310202,-2.4399 -0.355912,-0.7634 -1.02578,-1.29161 -1.704972,-1.77373 -0.766603,-0.50404 -1.615516,-0.86806 -2.467137,-1.21096 -0.864534,-0.36822 -1.781659,-0.50225 -2.715775,-0.54346 2.450731,-0.0198 0.900644,-0.004 0.368877,0.076 -0.368905,0.0569 -0.71832,0.16308 -1.071194,0.27828 -0.60672,0.20223 -1.13242,0.54512 -1.605387,0.9596 -0.418695,0.40791 -0.719587,0.90516 -0.952686,1.4311 -0.201885,0.4967 -0.261541,1.02824 -0.301755,1.55642 -0.03622,0.57957 0.04659,1.15506 0.178796,1.71854 0.15926,0.65373 0.397468,1.28487 0.679921,1.89669 0.328481,0.69059 0.729444,1.34476 1.184103,1.9628 0.481405,0.65511 1.064942,1.22779 1.669295,1.77418 0.583747,0.52974 1.229427,0.98127 1.904305,1.39233 0.587515,0.36558 1.178483,0.72591 1.753934,1.10937 0.231781,0.18162 0.712985,0.4287 0.420349,0.74082 -1.325899,0.17317 -1.881358,-0.0123 -2.936264,-0.43293 -0.547079,-0.23884 -1.089162,-0.48719 -1.643385,-0.70995 -0.548506,-0.23068 -1.122197,-0.3863 -1.699599,-0.52966 -0.577581,-0.11611 -1.159397,-0.21613 -1.745832,-0.27815 -0.591266,-0.0688 -1.185494,-0.087 -1.780192,-0.0981 2.603358,0.004 1.313806,-0.0419 0.744846,0.0624 -0.305267,0.056 -0.58594,0.16213 -0.872765,0.27439 -0.53835,0.20782 -1.000138,0.53133 -1.415575,0.91818 -0.372556,0.38649 -0.660958,0.8344 -0.884607,1.31545 -0.225037,0.48162 -0.190714,0.94626 0.01509,1.42303 0.303935,0.56774 0.773715,1.02278 1.215607,1.48815 0.449945,0.47354 0.991481,0.8417 1.550445,1.18079 0.53728,0.30275 1.099864,0.55672 1.686523,0.7532 0.09257,0.029 0.183828,0.0623 0.277724,0.0871 0.190372,0.0499 0.380764,0.0815 0.577747,0.0925 0.101695,0.004 0.407351,0.003 0.305546,0.001 -1.396504,-0.0398 -1.760465,0.057 -0.985814,-0.0959 0.761093,-0.225 1.441444,-0.64137 2.111515,-1.04837 0.50361,-0.31234 0.98786,-0.65254 1.476413,-0.98639 0.263816,-0.18114 0.525295,-0.36563 0.790457,-0.5449 0.0986,-0.0687 0.211455,-0.1225 0.30274,-0.19526 2.040054,0.14375 1.763419,0.18116 0.979039,1.00388 -0.423014,0.42426 -0.858642,0.83666 -1.294764,1.24814 -0.50109,0.47025 -0.994526,0.94644 -1.436027,1.47082 -0.469039,0.58521 -0.84429,1.23172 -1.188207,1.89202 -0.350481,0.69087 -0.637605,1.40706 -0.880291,2.13969 -0.219532,0.65054 -0.247769,1.31383 -0.182795,1.98876 0.07105,0.6197 0.256711,1.21339 0.512527,1.78234 0.225455,0.49904 0.614675,0.86896 1.05523,1.18987 0.462777,0.3143 1.003888,0.4808 1.541813,0.62658 0.523498,0.13689 1.061099,0.18568 1.601199,0.192 -2.639001,-0.014 -1.411032,0.0569 -0.844407,-0.0775 0.297362,-0.0705 0.565007,-0.20133 0.836516,-0.33432 0.578932,-0.28484 1.106726,-0.64423 1.591384,-1.06191 0.538115,-0.45753 0.911045,-1.03515 1.222967,-1.6527 0.335136,-0.69959 0.598968,-1.42743 0.83315,-2.16395 0.203852,-0.66658 0.395993,-1.33635 0.560959,-2.01307 0.124792,-0.53986 0.246867,-1.0803 0.36953,-1.6206 0.102013,-0.39048 0.160228,-0.78931 0.237143,-1.18461 0.09897,-0.82604 1.544267,-0.6321 2.023106,-0.0596 0.234623,0.30067 0.434624,0.62586 0.637879,0.94714 0.278621,0.41438 0.464951,0.86951 0.622034,1.33801 0.209229,0.72551 0.381185,1.46063 0.573815,2.19042 0.194227,0.72414 0.4351,1.43284 0.754578,2.1136 0.263146,0.55465 0.687291,1.00056 1.140452,1.41254 0.389536,0.34275 0.840417,0.56673 1.348153,0.68177 -0.45357,0.0982 1.23659,0.0528 0.719936,0.0482 -2.452892,-0.0228 -1.569815,0.0436 -0.943582,-0.0851 0.483856,-0.12701 0.912698,-0.38268 1.311794,-0.67057 0.46481,-0.35813 0.828975,-0.81627 1.173218,-1.28137 0.338464,-0.46389 0.621956,-0.96182 0.88149,-1.4708 0.238048,-0.43347 0.278168,-0.88996 0.25856,-1.37014 -0.02702,-0.48568 -0.162022,-0.94098 -0.397949,-1.36696 -0.353288,-0.5241 -0.811047,-0.96895 -1.266586,-1.40776 -0.505644,-0.46158 -1.02117,-0.91339 -1.573005,-1.32218 -0.586992,-0.41224 -1.224827,-0.74707 -1.858638,-1.08432 -0.551947,-0.2975 -1.111166,-0.58143 -1.673253,-0.86018 -0.456535,-0.21205 -0.912493,-0.42429 -1.343351,-0.68311 -0.209784,-0.13031 -0.442125,-0.25396 -0.593114,-0.45202 -0.08047,-0.15057 -0.04142,-0.29807 0.103079,-0.38863 0.276683,-0.10089 0.572509,-0.14762 0.860713,-0.20844 0.496241,-0.1052 0.997063,-0.18745 1.499136,-0.26094 0.578068,-0.075 1.15467,-0.15984 1.729262,-0.25704 0.675153,-0.10366 1.33368,-0.27952 1.988572,-0.46606 0.672928,-0.19667 1.329878,-0.43979 1.986583,-0.68184 0.557647,-0.18666 1.054728,-0.46471 1.480825,-0.85982 0.352194,-0.34229 0.605984,-0.74974 0.78421,-1.19892 0.133509,-0.35009 0.148211,-0.7031 0.0373,-1.05837 -0.154672,-0.35891 -0.415058,-0.65513 -0.699009,-0.92298 -0.295925,-0.29779 -0.654158,-0.4869 -1.057526,-0.60411 -0.649711,-0.16351 -2.767268,-0.10863 0.06554,-0.10631 -0.619038,-0.004 -1.231948,0.0727 -1.843016,0.15901 -0.584101,0.0855 -1.158464,0.21909 -1.726581,0.3746 -0.520332,0.15476 -1.03589,0.32366 -1.527533,0.55151 -0.642409,0.29095 -1.039721,0.83629 -1.415457,1.39706 0,0 -1.651754,-0.0917 -1.651754,-0.0917 v 0 c 0.374469,-0.57994 0.766898,-1.16353 1.411858,-1.48476 0.488432,-0.2479 1.008517,-0.41736 1.532068,-0.58109 0.569829,-0.16086 1.144795,-0.30333 1.731129,-0.39559 0.612256,-0.0891 1.225041,-0.17945 1.84579,-0.1825 1.054377,7e-4 2.190698,-0.10509 3.234331,0.15773 0.406625,0.14852 0.765751,0.36889 1.065662,0.6787 0.291938,0.29406 0.559727,0.61655 0.705845,1.0054 0.106891,0.39033 0.100946,0.77833 -0.04108,1.1621 -0.178914,0.47153 -0.432421,0.90284 -0.79164,1.26852 -0.423328,0.42199 -0.915625,0.7325 -1.491474,0.92676 -0.659117,0.24306 -1.317437,0.48952 -1.990689,0.69367 -0.654853,0.18883 -1.310799,0.37884 -1.986688,0.48401 -0.573324,0.10344 -1.150105,0.18856 -1.728207,0.26242 -0.500107,0.0697 -0.998947,0.14897 -1.493359,0.25081 -0.282566,0.0591 -0.564254,0.12163 -0.847018,0.17951 -0.0733,0.0131 -0.183708,-0.0149 -0.09593,0.0811 0.17142,0.1609 0.377821,0.28078 0.579701,0.4013 0.432253,0.24859 0.886026,0.45637 1.335994,0.67234 0.561052,0.28028 1.118263,0.5675 1.669747,0.86535 0.637102,0.34202 1.276989,0.68446 1.861284,1.10923 0.550021,0.41871 1.070425,0.87283 1.575155,1.34235 0.463811,0.45077 0.92961,0.91062 1.274952,1.4571 0.234953,0.45138 0.375138,0.93061 0.401828,1.43869 0.02027,0.50548 -0.01892,0.99165 -0.262236,1.45088 -0.260615,0.51747 -0.547324,1.02304 -0.885612,1.49675 -0.346437,0.4781 -0.713021,0.94895 -1.173848,1.32938 -0.398354,0.30946 -0.83407,0.57587 -1.318294,0.73878 -0.999527,0.25799 -2.070295,0.20154 -3.082332,0.0326 -0.510523,-0.14957 -0.965026,-0.40405 -1.354066,-0.76273 -0.457278,-0.43246 -0.878113,-0.90151 -1.13943,-1.47533 -0.315282,-0.69163 -0.557788,-1.40882 -0.752623,-2.14144 -0.191364,-0.72664 -0.361755,-1.45904 -0.579684,-2.17872 -0.160368,-0.45622 -0.353487,-0.89644 -0.627949,-1.30022 -0.199988,-0.31422 -0.395553,-0.6344 -0.63857,-0.9193 -0.558599,-0.5623 1.861443,-0.63764 1.319194,-0.026 -0.08625,0.39501 -0.138938,0.79664 -0.244406,1.18786 -0.124465,0.54102 -0.249206,1.082 -0.374368,1.62289 -0.166899,0.68023 -0.361347,1.35324 -0.565789,2.02365 -0.236088,0.744 -0.49987,1.4797 -0.833745,2.18831 -0.311366,0.63627 -0.679499,1.23775 -1.223399,1.71499 -0.48225,0.43404 -1.009666,0.80873 -1.594566,1.1031 -1.092027,0.5729 -1.958907,0.59547 -3.291041,0.48521 -0.542958,-0.0218 -1.082607,-0.0829 -1.605831,-0.2331 -0.546354,-0.15955 -1.09039,-0.34807 -1.549801,-0.6876 -0.445648,-0.34982 -0.833762,-0.74918 -1.058542,-1.27157 -0.254468,-0.58672 -0.440319,-1.19773 -0.511079,-1.83329 -0.06458,-0.69651 -0.03763,-1.38196 0.185866,-2.05397 0.244725,-0.74046 0.532384,-1.46461 0.882805,-2.16452 0.343745,-0.67142 0.72093,-1.32751 1.187621,-1.9266 0.437352,-0.5348 0.930818,-1.01731 1.436581,-1.4908 0.434827,-0.40748 0.863193,-0.82175 1.28613,-1.24087 0.906055,-0.92828 0.269763,-0.77098 2.348332,-0.63403 -0.08732,-0.0283 -0.202479,0.0467 -0.297688,0.10807 -0.272976,0.17029 -0.531345,0.36238 -0.79849,0.54099 -0.495138,0.33219 -0.981865,0.67631 -1.487834,0.99299 -0.676022,0.41535 -1.36078,0.83385 -2.114783,1.10249 -1.117404,0.27841 -2.373184,0.25403 -3.472255,-0.10332 -0.586359,-0.21263 -1.153187,-0.47213 -1.688573,-0.78885 -0.562432,-0.35186 -1.102781,-0.73751 -1.553603,-1.22288 -0.453463,-0.47833 -0.92771,-0.95418 -1.22228,-1.5467 -0.205907,-0.51877 -0.25072,-1.03064 -0.01682,-1.55305 0.225144,-0.50079 0.516825,-0.96538 0.889755,-1.37644 0.416071,-0.40614 0.875224,-0.7561 1.423691,-0.97961 1.133932,-0.47164 2.134329,-0.50125 3.423424,-0.39652 0.595753,0.0138 1.190865,0.0416 1.782717,0.1133 0.58721,0.0731 1.172374,0.16825 1.748917,0.29997 0.579493,0.14864 1.152201,0.31899 1.702667,0.55242 0.552134,0.22673 1.092306,0.47922 1.643517,0.70808 0.762045,0.29559 2.536918,0.62123 -0.378664,0.39991 0.323354,0.2872 -0.352746,-0.39425 -0.414328,-0.35857 -0.573621,-0.38098 -1.161979,-0.74007 -1.746861,-1.1043 -0.676138,-0.42091 -1.320294,-0.88631 -1.905831,-1.42278 -0.60614,-0.55728 -1.189664,-1.14145 -1.671929,-1.80659 -0.454072,-0.63034 -0.858978,-1.29353 -1.188508,-1.99446 -0.283046,-0.62288 -0.524358,-1.26394 -0.683231,-1.92848 -0.13343,-0.57957 -0.220332,-1.17078 -0.183431,-1.76647 0.0409,-0.54557 0.103216,-1.09412 0.304091,-1.60944 0.233718,-0.54768 0.540447,-1.06383 0.95847,-1.49952 0.471718,-0.4371 1.000534,-0.80375 1.616039,-1.02556 1.304007,-0.45739 2.579299,-0.49145 3.983327,-0.39817 0.938901,0.0592 1.857088,0.22196 2.722742,0.59787 0.856069,0.35215 1.70917,0.72633 2.472235,1.24958 0.69524,0.5096 1.370331,1.07092 1.714912,1.87203 0.268438,0.80745 0.32471,1.65226 0.306651,2.49833 -0.04119,0.96868 -0.180963,1.92022 -0.515777,2.83875 -0.279024,0.89123 -0.564788,1.78288 -0.938845,2.64152 -0.187562,0.40466 -0.376531,0.82216 -0.670057,1.16631 0,0 -1.673183,-0.11857 -1.673183,-0.11857 z"
       inkscape:connector-curvature="0" />
    <path
       style="opacity:1;fill:#000000;fill-opacity:1;fill-rule:evenodd;stroke:#000000;stroke-width:0.72699994;stroke-linecap:round;stroke-linejoin:miter;stroke-miterlimit:4;stroke-dasharray:none;stroke-dashoffset:0;stroke-opacity:1"
       id="path909"
       d="m 101.44587,137.49695 c 0.2036,-0.0611 0.35912,-0.18346 0.50454,-0.33401 0.29659,-0.36355 0.38775,-0.82877 0.48876,-1.27466 0.10975,-0.54793 0.18191,-1.10225 0.22383,-1.65925 0.0348,-0.48601 -0.0667,-0.93824 -0.31047,-1.3567 -0.27205,-0.38503 -0.64833,-0.66708 -1.04487,-0.91213 -0.47618,-0.27131 -0.989,-0.46276 -1.517728,-0.60117 -0.0907,-0.0189 -0.18078,-0.0413 -0.27218,-0.0566 -0.16596,-0.0278 -0.36879,-0.0456 -0.53708,-0.0526 -0.086,-0.004 -0.34424,-0.005 -0.25818,-0.004 1.05516,0.0109 1.282618,-0.0204 0.72532,0.0347 -0.44743,0.0553 -0.85058,0.24616 -1.2311,0.47749 -0.31124,0.20211 -0.59797,0.43972 -0.85142,0.7105 -0.25132,0.26668 -0.26955,0.54654 -0.18253,0.88562 0.16443,0.45068 0.46922,0.82458 0.78914,1.17406 0.38851,0.40223 0.82342,0.75546 1.25812,1.10584 0.41459,0.3304 0.834568,0.65394 1.256528,0.97486 0.71488,0.57727 1.25231,0.39015 -0.689458,0.47527 -0.30682,-0.2062 -0.62119,-0.40148 -0.93025,-0.60461 -0.55594,-0.36516 -1.09932,-0.74803 -1.65884,-1.10784 -0.59049,-0.39421 -1.21754,-0.71374 -1.89791,-0.91608 -0.4564,-0.18895 -2.76474,-0.18534 -0.56901,-0.16742 -0.48097,0.003 -0.921,0.13305 -1.32585,0.38667 -0.34644,0.24969 -0.57458,0.60784 -0.7757,0.97656 -0.19462,0.35847 -0.25002,0.75088 -0.25814,1.15233 -0.002,0.43597 0.13435,0.84788 0.29319,1.24799 0.19981,0.45408 0.4937,0.85764 0.79423,1.24928 0.31916,0.42764 0.74624,0.71651 1.21585,0.9538 0.48677,0.2346 0.98643,0.434 1.50949,0.56978 0.48816,0.17728 2.35738,0.15991 0.23845,0.15164 0.45408,-0.005 0.90601,-0.0566 1.35705,-0.10511 0.31092,-0.03 0.61956,-0.0797 0.93068,-0.1073 0.57049,-0.0307 1.16566,-0.1351 1.713348,0.0478 0.12079,0.0714 0.1228,0.20323 0.10136,0.32695 -0.0449,0.19355 -0.18791,0.31807 -0.33781,0.43549 -0.277538,0.19969 -0.585838,0.34868 -0.894968,0.49186 -0.33837,0.14097 -0.67248,0.28825 -0.99271,0.46704 -0.35534,0.19929 -0.54152,0.53614 -0.70013,0.89566 -0.18547,0.40514 -0.18961,0.82311 -0.13772,1.25591 0.0578,0.45134 0.20411,0.86508 0.46362,1.23736 0.33798,0.41005 0.77964,0.71091 1.22781,0.98741 0.49067,0.30209 1.015948,0.5366 1.558408,0.72739 0.44128,0.15666 0.9011,0.22242 1.36561,0.25412 0.69171,0.008 -0.56471,0.003 -0.84699,-0.002 -0.0562,-0.001 0.11222,-0.006 0.16805,-0.0122 0.15069,-0.0163 0.29009,-0.0537 0.4337,-0.10008 0.23997,-0.091 0.44533,-0.24066 0.61565,-0.43046 0.15696,-0.18465 0.26503,-0.39792 0.35239,-0.62205 0.0975,-0.28191 0.0982,-0.58236 0.10469,-0.87703 -0.001,-0.34496 -0.0381,-0.68875 -0.0891,-1.02955 -0.0574,-0.37529 -0.1389,-0.74652 -0.21454,-1.11847 -0.059,-0.29221 -0.12181,-0.58648 -0.10877,-0.88586 0.0111,-0.15902 0.0373,-0.3145 0.13815,-0.44143 0.86119,-0.657 1.4209,0.0397 1.85577,0.53944 0.27512,0.32594 0.58019,0.62535 0.88998,0.918 0.30028,0.2899 0.63614,0.53922 0.98127,0.7726 0.29537,0.20923 0.60675,0.38768 0.93794,0.53274 0.34335,0.14254 0.70393,0.20465 1.07323,0.21765 0.0613,7.9e-4 0.24518,0.003 0.18389,0.002 -1.91366,-0.0145 -0.88685,0.0282 -0.34756,-0.17886 0.33474,-0.13415 0.61161,-0.34327 0.83982,-0.61931 0.24183,-0.36781 0.29782,-0.80908 0.3454,-1.23688 0.0443,-0.52063 0.0226,-1.04273 -0.011,-1.56309 -0.0422,-0.50895 -0.17071,-1.00022 -0.38207,-1.46385 -0.23883,-0.47215 -0.57771,-0.8799 -0.96108,-1.24056 -0.57963,-0.53639 -1.89711,-0.39069 0.0512,-0.37006 -0.24605,0.022 -0.49953,0.0608 -0.70993,0.19811 -0.0799,0.0682 -0.0587,0.11098 0.0401,0.0914 -1.968,0.0616 -1.06952,0.0267 -0.55917,-0.22643 0.25624,-0.12542 0.49682,-0.27691 0.72566,-0.44661 0.2619,-0.20984 0.50317,-0.44384 0.72831,-0.69231 0.23487,-0.27519 0.4529,-0.56975 0.53241,-0.92723 -0.0127,-0.50577 -0.41094,-0.9144 -0.71669,-1.28455 -0.38243,-0.44793 -0.80148,-0.86268 -1.27426,-1.21425 -0.36573,-0.24957 -0.78271,-0.39034 -1.20869,-0.49552 0.35454,-0.0792 -0.98546,-0.0439 -0.57522,-0.0374 1.75933,0.0278 1.16889,-0.0338 0.69721,0.0769 -0.32529,0.0849 -0.61072,0.25578 -0.8767,0.45596 -0.29189,0.21151 -0.51262,0.48812 -0.71119,0.78477 -0.24757,0.37825 -0.40116,0.80068 -0.5263,1.23191 -0.074,0.27261 -0.11307,0.55251 -0.15487,0.83127 0,0 -1.22646,-0.0181 -1.22646,-0.0181 v 0 c 0.0419,-0.28394 0.081,-0.56894 0.15346,-0.84722 0.12374,-0.44317 0.27588,-0.87778 0.52281,-1.26956 0.19921,-0.30822 0.4162,-0.6022 0.71276,-0.82516 0.26658,-0.21463 0.55316,-0.40202 0.88267,-0.50564 0.74927,-0.21709 1.56061,-0.16306 2.32371,-0.0391 0.42979,0.11976 0.84821,0.27583 1.21018,0.54421 0.46872,0.36649 0.89,0.78753 1.27288,1.24302 0.32885,0.40482 0.73113,0.84276 0.72862,1.39394 -0.0749,0.38035 -0.2892,0.69643 -0.53564,0.99109 -0.22294,0.25832 -0.46873,0.49513 -0.72852,0.71639 -0.22744,0.17881 -0.46742,0.33857 -0.72589,0.4696 -0.656,0.3364 -0.9846,0.34466 -1.90411,0.24541 -0.1193,-0.0949 -0.13584,-0.23131 -0.0434,-0.35555 0.191,-0.19022 0.46885,-0.23772 0.72619,-0.27479 0.96489,-0.008 1.68029,-0.19292 2.39341,0.4569 0.38416,0.37866 0.72711,0.79967 0.96422,1.2877 0.2094,0.47959 0.3417,0.98427 0.38285,1.50748 0.034,0.52745 0.0541,1.05645 0.0118,1.58426 -0.0474,0.45011 -0.10847,0.90976 -0.34384,1.30596 -0.22532,0.29852 -0.49986,0.53065 -0.84521,0.68253 -0.72425,0.31475 -1.48503,0.29043 -2.28133,0.21712 -0.37282,-0.0299 -0.73692,-0.10764 -1.07957,-0.26259 -0.33058,-0.1549 -0.64123,-0.34385 -0.93952,-0.55445 -0.34494,-0.24073 -0.67941,-0.49748 -0.98047,-0.79227 -0.31029,-0.29719 -0.61641,-0.59978 -0.89333,-0.92883 -0.58446,-0.65929 -0.81224,-0.42977 0.65817,-0.50623 0.0159,-8e-4 -0.0306,-0.009 -0.0459,-0.013 -0.12701,0.0474 -0.11828,0.22676 -0.13726,0.33857 -0.0165,0.28874 0.0482,0.57307 0.10318,0.85504 0.0754,0.37425 0.15711,0.74761 0.21534,1.125 0.0508,0.34781 0.0892,0.69829 0.0897,1.05023 -0.006,0.30861 -0.007,0.62245 -0.10263,0.91937 -0.0879,0.23734 -0.19463,0.46462 -0.3543,0.6635 -0.1679,0.21287 -0.37684,0.37974 -0.62339,0.49536 -0.69713,0.27472 -1.46309,0.17791 -2.20071,0.14672 -0.46564,-0.0407 -0.924708,-0.12527 -1.364938,-0.28762 -0.54306,-0.20163 -1.06931,-0.44468 -1.56076,-0.75345 -0.45526,-0.29006 -0.90406,-0.605 -1.23554,-1.03829 -0.25716,-0.39441 -0.40749,-0.82717 -0.46616,-1.29584 -0.0524,-0.45309 -0.0504,-0.89445 0.13744,-1.32066 0.16075,-0.37839 0.34499,-0.7471 0.70457,-0.9746 0.3178,-0.18722 0.64968,-0.34406 0.99332,-0.47834 0.30512,-0.13806 0.6109,-0.27824 0.88888,-0.46705 0.13287,-0.0912 0.27271,-0.18374 0.32741,-0.34305 0.0187,-0.0884 0.007,-0.12699 -0.0907,-0.14302 -0.92859,-0.21138 1.690268,-0.007 0.74293,-0.0243 -0.31345,0.0214 -0.62354,0.0696 -0.93594,0.10277 -0.45264,0.0497 -0.90599,0.1027 -1.36137,0.1172 -0.90626,-5.3e-4 -1.79311,0.0572 -2.67143,-0.18342 -0.52258,-0.14877 -1.02474,-0.35418 -1.51128,-0.5962 -0.47413,-0.25536 -0.90109,-0.56698 -1.22206,-1.0074 -0.30361,-0.40236 -0.60036,-0.81633 -0.79769,-1.28317 -0.1613,-0.41634 -0.29883,-0.8445 -0.29615,-1.29641 0.008,-0.41978 0.0633,-0.8326 0.26016,-1.2105 0.2034,-0.38574 0.43636,-0.76049 0.78083,-1.03713 0.40192,-0.28061 0.84337,-0.44101 1.33844,-0.45415 1.00763,-0.005 2.01524,-0.0695 2.99604,0.20126 0.67836,0.22163 1.30521,0.55293 1.89869,0.9492 0.56046,0.3619 1.10574,0.746 1.666328,1.10765 0.31445,0.2027 0.63612,0.39527 0.94115,0.61191 -1.310678,0.22088 -0.96876,0.34902 -1.767888,-0.24782 -0.42141,-0.32207 -0.84122,-0.64635 -1.25467,-0.9786 -0.43718,-0.35519 -0.87473,-0.71351 -1.261,-1.12494 -0.32691,-0.36831 -0.63737,-0.76109 -0.79671,-1.23409 -0.0896,-0.37251 -0.0801,-0.70374 0.1838,-1.00655 0.25131,-0.2849 0.54362,-0.52971 0.85717,-0.74396 0.38174,-0.24572 0.78713,-0.45482 1.23987,-0.53158 0.91254,-0.11923 1.873778,-0.10619 2.775408,0.0974 0.53123,0.15318 1.04959,0.35034 1.52466,0.63718 0.40327,0.26339 0.78574,0.56288 1.05066,0.9726 0.24035,0.44489 0.34634,0.92093 0.30934,1.42884 -0.0429,0.56288 -0.11658,1.12281 -0.22512,1.67699 -0.10294,0.46505 -0.1957,0.94617 -0.48311,1.33869 -0.14412,0.16813 -0.29279,0.31668 -0.50464,0.3943 0,0 -1.23234,-0.15135 -1.23234,-0.15135 z"
       inkscape:connector-curvature="0" />
    <path
       style="opacity:1;fill:#000000;fill-opacity:1;fill-rule:evenodd;stroke:#000000;stroke-width:0.86594856;stroke-linecap:round;stroke-linejoin:miter;stroke-miterlimit:4;stroke-dasharray:none;stroke-dashoffset:0;stroke-opacity:1"
       id="path911"
       d="m 114.84734,207.9889 c 0.0598,-0.34146 0.0309,-0.68901 0.003,-1.03208 -0.0487,-0.55936 -0.13893,-1.11422 -0.24006,-1.66618 -0.11531,-0.61367 -0.25844,-1.22151 -0.41056,-1.82691 -0.15443,-0.58735 -0.32148,-1.17046 -0.53563,-1.73897 -0.19159,-0.57984 -0.46571,-1.09679 -0.90872,-1.51872 -0.55619,-0.48176 -1.2272,-0.7821 -1.92571,-0.99071 -0.46448,-0.0279 -1.89733,-0.26476 0.26625,-0.0598 0.13226,0.0125 -0.26486,0.0229 -0.39642,0.0415 -0.34458,0.0486 -0.42605,0.0789 -0.76125,0.16415 -0.7185,0.21162 -1.34194,0.6251 -1.93606,1.06813 -0.46535,0.33723 -0.70299,0.79242 -0.85629,1.32941 -0.11218,0.4234 -0.12309,0.85627 -0.0531,1.2864 0.0817,0.44829 0.26943,0.83229 0.56909,1.17186 0.43469,0.44754 0.96521,0.78501 1.50263,1.09469 0.61808,0.33871 1.26247,0.62481 1.88944,0.9463 0.56958,0.29493 1.13687,0.59436 1.69843,0.9043 0.32319,0.17929 0.64316,0.36303 0.91345,0.61742 0.0402,0.0577 0.0752,0.0846 0.0685,0.16019 -0.0418,0.46984 -1.53433,0.19541 -1.75327,0.1966 -0.32393,-0.029 -0.64411,-0.0941 -0.96222,-0.16027 -0.50217,-0.0992 -1.00042,-0.21619 -1.50607,-0.2967 -0.62223,-0.10209 -1.2538,-0.10941 -1.88259,-0.12145 2.48118,-0.0483 0.0916,0.0309 -0.48204,0.091 -0.5572,0.0666 -1.09401,0.21865 -1.5932,0.47355 -0.43771,0.25877 -0.78002,0.63061 -1.04561,1.05937 -0.26547,0.53256 -0.13237,1.08772 0.0417,1.62514 0.20845,0.59967 0.52338,1.15034 0.87396,1.67645 0.34242,0.51704 0.76593,0.95693 1.25692,1.33196 0.59625,0.42213 1.27513,0.68762 1.96359,0.91549 0.75972,0.24508 1.54658,0.35704 2.34232,0.36767 -2.47949,0.13865 0.1812,-0.14318 0.70537,-0.27098 0.54131,-0.14564 1.05958,-0.36252 1.56019,-0.61239 0.83522,-0.49515 0.53544,-0.33552 1.97842,-0.11423 -0.15199,0.20857 -0.33549,0.39152 -0.50948,0.58147 -0.23068,0.25296 -0.44032,0.52183 -0.63435,0.80351 -0.24867,0.35758 -0.44422,0.7452 -0.61276,1.14557 -0.17949,0.41719 -0.27663,0.86036 -0.3405,1.30802 -0.0759,0.47158 -0.0629,0.93566 0.0847,1.38995 0.17627,0.49802 0.53486,0.8477 0.95255,1.14916 0.45638,0.29854 0.95459,0.51885 1.47443,0.67864 0.50029,0.13858 1.01992,0.16186 1.53577,0.17185 -2.37568,0.0888 -0.67677,0.0139 -0.0282,-0.31282 0.44867,-0.24866 0.76182,-0.6441 1.03919,-1.06426 0.25572,-0.38978 0.43875,-0.81461 0.58389,-1.25563 0.13461,-0.44603 0.17962,-0.91038 0.19714,-1.37385 0.007,-0.47297 -0.0536,-0.94164 -0.12737,-1.40755 -0.0878,-0.47798 -0.29333,-0.91749 -0.51084,-1.34778 -0.18308,-0.35838 -0.3748,-0.71154 -0.54797,-1.07481 -0.0794,-0.18306 -0.16733,-0.3596 -0.16962,-0.56225 0.23555,-0.81354 1.55515,-0.21674 2.08709,0.1257 0.31405,0.22231 0.62065,0.45521 0.92122,0.69541 0.3056,0.24153 0.62769,0.46071 0.94509,0.68617 0.31515,0.19805 0.64061,0.38146 0.98655,0.51968 0.37087,0.14807 0.7632,0.20382 1.1598,0.21171 -2.52706,0.11637 -0.81726,-0.0292 -0.22031,-0.18202 0.40062,-0.0913 0.74868,-0.27943 1.0601,-0.54235 0.31501,-0.2974 0.53638,-0.67346 0.72252,-1.06057 0.19424,-0.41822 0.29682,-0.86724 0.35336,-1.32258 0.0569,-0.40955 0.0291,-0.81635 -0.0661,-1.21681 -0.0867,-0.35283 -0.26842,-0.63535 -0.54788,-0.86249 -0.32503,-0.23039 -0.70022,-0.36866 -1.07846,-0.48371 -0.41322,-0.12339 -0.84041,-0.18999 -1.26923,-0.2274 0.7942,-0.0212 -1.48397,-0.014 -0.71553,-0.01 2.2848,0.0124 1.24101,9.6e-4 0.7234,0.0287 -0.46898,0.0285 -0.93384,0.0947 -1.39723,0.16958 -0.40883,0.0615 -0.81487,0.13563 -1.2179,0.22753 -0.23935,0.0607 -0.48737,0.10187 -0.7136,0.20463 0.0598,-0.16037 0.37795,-0.0725 0.53397,-0.07 0.73212,0.004 -0.73522,10e-4 -1.10279,-0.002 -0.061,-6.2e-4 0.12191,-0.004 0.18282,-0.009 0.17754,-0.01 0.35487,-0.0223 0.53219,-0.0346 0.34585,-0.009 0.65662,-0.10353 0.95544,-0.27221 0.34285,-0.20656 0.64236,-0.47111 0.92903,-0.74809 0.33144,-0.33628 0.634,-0.6988 0.90547,-1.08478 0.31673,-0.44332 0.50064,-0.95427 0.65523,-1.47153 0.15179,-0.4711 0.15205,-0.90573 -0.0534,-1.3545 -0.30218,-0.47763 -0.74958,-0.84353 -1.1816,-1.19978 -0.45626,-0.36534 -0.95511,-0.67496 -1.48236,-0.92606 -0.45402,-0.2167 -0.93363,-0.37122 -1.4221,-0.48777 -0.41327,-0.0978 -0.83673,-0.13753 -1.26062,-0.13836 2.15895,-0.0281 0.98821,-0.11399 0.25877,0.46283 -0.47092,0.41318 -0.80362,0.94448 -1.10838,1.48469 -0.3646,0.70757 -0.57126,1.48124 -0.76613,2.24898 -0.12223,0.52103 -0.0628,0.26175 -0.17837,0.77784 0,0 -1.45726,-0.0322 -1.45726,-0.0322 v 0 c 0.11661,-0.5183 0.0568,-0.25767 0.17947,-0.78184 0.19708,-0.77907 0.40496,-1.56392 0.7632,-2.28706 0.30583,-0.55563 0.6401,-1.10121 1.10651,-1.53899 0.81428,-0.70884 1.4796,-0.63307 2.65544,-0.56149 0.42586,0.0161 0.85016,0.0634 1.26345,0.17172 0.48867,0.13023 0.96897,0.29203 1.42232,0.51881 0.52653,0.26757 1.02829,0.58419 1.48436,0.96081 0.44284,0.37316 0.90281,0.75569 1.18978,1.26749 0.20166,0.48396 0.21387,0.9543 0.0528,1.45715 -0.15653,0.53092 -0.34004,1.05827 -0.65711,1.51777 -0.26876,0.39675 -0.573,0.76623 -0.90425,1.11278 -0.28695,0.28711 -0.587,0.56206 -0.92997,0.78196 -0.29714,0.1942 -0.60335,0.32645 -0.96356,0.34182 -0.84014,0.0606 -1.68068,0.0992 -2.52439,0.0517 -0.21939,-0.01 -0.60303,0.0251 -0.55166,-0.29656 0.19029,-0.18082 0.49017,-0.18633 0.72896,-0.26123 0.40437,-0.0949 0.81021,-0.17908 1.22183,-0.23678 0.46491,-0.0762 0.92994,-0.15022 1.40031,-0.18481 0.96413,-0.0562 1.93224,-0.0623 2.89658,-0.0123 0.43146,0.0499 0.86112,0.12191 1.27488,0.25791 0.38531,0.13138 0.7689,0.28211 1.08685,0.54375 0.27729,0.26457 0.46442,0.57681 0.55166,0.95372 0.0935,0.41783 0.12247,0.84181 0.0638,1.26798 -0.0565,0.47041 -0.15996,0.93474 -0.35476,1.36904 -0.18524,0.40611 -0.41338,0.79722 -0.7246,1.1208 -0.31006,0.28518 -0.65333,0.50719 -1.06761,0.61051 -0.90243,0.24241 -1.71285,0.31422 -2.69091,0.21297 -0.40159,-0.0274 -0.79713,-0.10142 -1.16813,-0.26375 -0.34455,-0.15541 -0.67677,-0.33818 -0.98931,-0.55123 -0.31884,-0.22633 -0.64071,-0.44873 -0.94583,-0.6936 -0.30069,-0.23437 -0.6011,-0.47021 -0.92084,-0.67843 -0.10042,-0.0593 -0.18481,-0.11387 -0.29188,-0.15981 -0.0436,-0.0187 -0.1813,-0.0435 -0.13406,-0.0473 2.02088,-0.16215 1.64773,0.0535 1.28454,-0.0691 -2.2e-4,0.1786 0.0993,0.33537 0.16129,0.49801 0.17024,0.3625 0.3627,0.71341 0.54114,1.0719 0.22044,0.44511 0.42765,0.89948 0.51341,1.39284 0.0748,0.47529 0.13468,0.95361 0.12721,1.43592 -0.017,0.47698 -0.0628,0.95452 -0.19735,1.41457 -0.14544,0.45365 -0.32717,0.89179 -0.58629,1.29404 -0.2808,0.43892 -0.59556,0.85871 -1.04593,1.13766 -0.90468,0.51486 -1.82771,0.42658 -2.88062,0.38064 -0.51937,-0.0174 -1.04148,-0.0565 -1.54029,-0.21373 -0.52214,-0.17803 -1.02595,-0.40854 -1.47917,-0.72659 -0.42701,-0.33061 -0.78475,-0.71779 -0.96025,-1.2406 -0.1437,-0.47685 -0.16561,-0.9621 -0.0859,-1.45487 0.0634,-0.45987 0.15975,-0.91598 0.34055,-1.34569 0.16964,-0.4094 0.36238,-0.80802 0.61266,-1.17538 0.19419,-0.28806 0.39945,-0.56584 0.63194,-0.82472 0.16928,-0.18542 0.34365,-0.36629 0.50437,-0.55914 2.12961,0.0952 1.74144,-0.14009 0.95705,0.36276 -0.50464,0.25758 -1.02528,0.48544 -1.57057,0.64347 -1.18109,0.31115 -2.36774,0.36889 -3.59471,0.30252 -0.79917,-0.0298 -1.5888,-0.15453 -2.34889,-0.41099 -0.69497,-0.23976 -1.37869,-0.52185 -1.97294,-0.96407 -0.49155,-0.39343 -0.9173,-0.84967 -1.26185,-1.37918 -0.35171,-0.53985 -0.66703,-1.10417 -0.87528,-1.71662 -0.18069,-0.57866 -0.30934,-1.17296 -0.0444,-1.7492 0.26286,-0.45471 0.61138,-0.84731 1.05265,-1.13802 0.49704,-0.28079 1.03688,-0.44918 1.60303,-0.52811 1.1177,-0.14226 2.25098,-0.10531 3.37414,-0.10431 0.63171,0.0143 1.26561,0.0313 1.88945,0.14188 0.50608,0.0888 1.00721,0.20218 1.51149,0.30054 0.31865,0.0609 0.63969,0.12811 0.96532,0.13097 -0.4526,0.003 -0.90521,0.006 -1.35781,0.01 0.0893,0.001 0.10997,0.002 0.17115,0.0591 0.0226,0.0209 -0.16285,-0.23277 -0.0591,-0.071 -0.27294,-0.23453 -0.58748,-0.40892 -0.90004,-0.58476 -0.55965,-0.30799 -1.12325,-0.60873 -1.69168,-0.90024 -0.63035,-0.31887 -1.27708,-0.60571 -1.89188,-0.95464 -0.54407,-0.32344 -1.08179,-0.67401 -1.51247,-1.14384 -0.29896,-0.36966 -0.49423,-0.77969 -0.57523,-1.25163 -0.0689,-0.45147 -0.0608,-0.90503 0.0551,-1.34953 0.15577,-0.56419 0.38875,-1.05899 0.86926,-1.42399 0.59714,-0.45683 1.22521,-0.88447 1.94498,-1.12375 1.22258,-0.34324 2.53834,-0.40258 3.7837,-0.13958 0.70575,0.23306 1.38422,0.55103 1.93672,1.05967 0.43616,0.4513 0.7183,0.98559 0.9142,1.58163 0.21243,0.57455 0.38065,1.16273 0.5354,1.75528 0.15235,0.60852 0.29475,1.21973 0.41079,1.83633 0.1022,0.55685 0.19475,1.11633 0.24501,1.68061 0.0303,0.35497 0.0615,0.71428 0.007,1.06863 0,0 -1.47848,-0.0244 -1.47848,-0.0244 z"
       inkscape:connector-curvature="0" />
    <path
       style="opacity:1;fill:#080000;fill-opacity:1;fill-rule:evenodd;stroke:#000000;stroke-width:0.86594856;stroke-linecap:round;stroke-linejoin:miter;stroke-miterlimit:4;stroke-dasharray:none;stroke-dashoffset:0;stroke-opacity:1"
       id="path913"
       d="m 92.329717,254.56767 c 0.30198,-0.25066 0.49015,-0.60759 0.68494,-0.94136 0.39692,-0.70521 0.76294,-1.42742 1.11851,-2.15419 0.36192,-0.73392 0.63432,-1.50172 0.78616,-2.30529 0.11899,-0.72441 0.083,-1.45932 -0.0269,-2.18162 -0.11589,-0.67798 -0.42136,-1.29204 -0.76014,-1.88254 -0.29921,-0.51013 -0.66228,-0.96169 -1.13266,-1.32048 -0.38295,-0.2962 -0.82028,-0.40925 -1.29341,-0.44236 -0.53829,-0.0211 -0.80194,-0.0289 1.01151,-0.004 0.0749,9.3e-4 -0.14981,0.003 -0.22452,0.01 -0.2361,0.0166 -0.46458,0.0594 -0.69569,0.10808 -0.50344,0.0973 -0.9245,0.32009 -1.29709,0.6658 -0.3867,0.4389 -0.5736,1.00419 -0.74669,1.55282 -0.18702,0.57521 -0.26064,1.176 -0.31667,1.77549 -0.0513,0.59114 -0.003,1.18334 0.0604,1.77122 0.0533,0.53045 0.12106,1.05541 0.27012,1.56788 0.2558,0.68201 0.60497,1.3243 0.93861,1.97038 0.13875,0.31273 0.33844,0.606 0.44831,0.93156 0.0122,0.75342 -1.39813,0.27159 -1.7964,-0.14692 -0.15569,-0.14648 -0.31468,-0.28926 -0.47874,-0.42625 -0.24256,-0.18805 -0.49808,-0.35775 -0.7584,-0.51994 -0.36015,-0.20834 -0.70815,-0.43697 -1.07098,-0.64067 -0.45674,-0.26003 -0.91319,-0.52025 -1.37794,-0.76577 -0.493604,-0.27082 -1.019322,-0.4641 -1.568555,-0.58238 -0.505767,-0.0808 -1.606924,-0.0965 0.738218,-0.0426 0.07317,0.001 -0.146297,0.009 -0.218933,0.0168 -0.178229,0.0222 -0.240777,0.0442 -0.413305,0.089 -0.394332,0.11435 -0.742731,0.32521 -1.060145,0.58058 -0.345773,0.29536 -0.552408,0.69011 -0.713807,1.10699 -0.175813,0.47497 -0.169883,0.956 -0.06484,1.44369 0.148941,0.54701 0.478397,1.00128 0.847122,1.42051 0.426287,0.47547 0.918675,0.88562 1.441401,1.25015 0.466126,0.30364 0.981892,0.51769 1.512794,0.67738 0.45083,0.12963 0.91577,0.19875 1.38036,0.25624 0.23367,0.0473 0.55974,-0.0348 0.54115,0.26697 -0.16089,0.16434 -0.47929,0.17118 -0.69795,0.21866 -0.47023,0.0958 -0.93214,0.22482 -1.39282,0.358 -0.454039,0.12878 -0.892618,0.30094 -1.319428,0.5011 -0.402851,0.17494 -0.74293,0.44158 -1.052169,0.74828 -0.283504,0.28836 -0.505554,0.6087 -0.585877,1.00766 -0.02934,0.44963 0.08114,0.89271 0.204313,1.32151 0.132464,0.48977 0.42844,0.88235 0.772252,1.24315 0.353664,0.35579 0.776099,0.60576 1.239974,0.78667 0.456835,0.15875 0.940955,0.19046 1.419985,0.21284 0.80674,-0.002 -0.52609,0.002 -0.98028,-0.003 -0.07544,-9.4e-4 0.15088,-0.004 0.22618,-0.01 0.23034,-0.0151 0.45336,-0.0528 0.67936,-0.0978 0.46914,-0.1 0.90796,-0.28827 1.32653,-0.51795 0.406,-0.22569 0.74686,-0.53416 1.05579,-0.87688 0.33155,-0.39099 0.56913,-0.84707 0.77692,-1.31254 0.19634,-0.47594 0.36718,-0.96106 0.59543,-1.42309 0.18178,-0.31991 0.32763,-0.6711 0.59007,-0.93528 0.59965,-0.41606 1.5987,-0.40998 1.9931,0.21086 0.22573,0.43987 0.38406,0.91025 0.56105,1.3709 0.20975,0.58291 0.48746,1.13324 0.79071,1.6719 0.28251,0.49901 0.59064,0.95705 1.11158,1.21834 0.62006,0.18987 1.27579,0.19106 1.91842,0.19646 0.97411,-6.3e-4 -0.54298,9.4e-4 -0.80577,-0.007 -0.10575,-0.003 0.21141,-0.009 0.31683,-0.0169 0.31331,-0.0256 0.6143,-0.0843 0.91968,-0.15582 0.57757,-0.14482 1.06679,-0.45828 1.50879,-0.84633 0.38626,-0.35222 0.69622,-0.77395 0.980783,-1.20952 0.21094,-0.34816 0.40598,-0.71919 0.41015,-1.13366 -0.0796,-0.43038 -0.44818,-0.68598 -0.777193,-0.93256 -0.48306,-0.35689 -1.04141,-0.58177 -1.60025,-0.78891 -0.58081,-0.21703 -1.17503,-0.38796 -1.77775,-0.53094 -0.4668,-0.10885 -0.93971,-0.19786 -1.38881,-0.36884 -0.16556,-0.0755 -0.36928,-0.15114 -0.42477,-0.34054 -0.0141,-0.17202 0.0902,-0.25088 0.23717,-0.30336 0.22038,-0.0385 0.44593,-0.0375 0.66903,-0.0436 0.29595,0.002 0.58889,-0.0334 0.87822,-0.0929 0.29534,-0.0619 0.57091,-0.18307 0.8362,-0.32353 0.31469,-0.16518 0.60196,-0.37306 0.86968,-0.60551 0.30809,-0.27593 0.52851,-0.62364 0.72295,-0.98428 0.17761,-0.34984 0.29066,-0.72445 0.33754,-1.11311 0.0186,-0.40631 -0.12847,-0.77965 -0.31992,-1.12923 -0.29894,-0.46901 -0.78696,-0.71238 -1.27652,-0.93664 -0.67965,-0.30423 -1.39029,-0.52425 -2.10344,-0.73323 -0.64374,-0.19314 -1.29871,-0.31408 -1.96972,-0.33972 0.38279,0.004 0.76672,-0.0149 1.14836,0.015 0.0965,0.007 -0.1926,0.0254 -0.28551,0.0525 -0.45367,0.1323 -0.70611,0.47683 -0.96265,0.84707 -0.40606,0.68408 -0.60442,1.45953 -0.80112,2.22285 0,0 -1.44813,-0.0362 -1.44813,-0.0362 v 0 c 0.19722,-0.7783 0.396,-1.56771 0.79343,-2.27278 0.83053,-1.27605 1.36557,-1.08786 3.00218,-1.04989 0.67116,0.0438 1.32686,0.17886 1.97059,0.37438 0.71575,0.21346 1.42774,0.44276 2.10762,0.75538 0.50822,0.24745 1.001293,0.52383 1.293253,1.02943 0.19646,0.37973 0.34278,0.78343 0.32276,1.21814 -0.0458,0.40681 -0.16052,0.79922 -0.34012,1.16804 -0.1974,0.37476 -0.416083,0.74046 -0.725723,1.03524 -0.2635,0.24663 -0.55221,0.46594 -0.8701,0.63863 -0.26378,0.15526 -0.54242,0.28925 -0.84043,0.36445 -0.28767,0.0759 -0.5837,0.12185 -0.88176,0.12296 -0.22049,0.004 -0.44094,0.0111 -0.66129,0.0206 -0.0711,9.4e-4 -0.16653,0.006 -0.22239,0.0395 0.11852,0.10242 0.25988,0.16796 0.40729,0.22029 0.44938,0.15283 0.91562,0.2439 1.37658,0.35431 0.6036,0.14876 1.19797,0.32896 1.77981,0.54891 0.564923,0.21699 1.124683,0.45961 1.607743,0.83151 0.36089,0.28467 0.72789,0.58344 0.78944,1.06836 -0.006,0.44297 -0.19072,0.84121 -0.41711,1.21628 -0.28765,0.44631 -0.59789,0.88136 -0.98602,1.2473 -0.44027,0.41061 -0.933213,0.74863 -1.518373,0.91747 -1.08705,0.28994 -2.20311,0.24774 -3.32556,0.21283 -0.64999,-0.0119 -1.321,-0.0172 -1.93123,-0.26795 -0.50755,-0.31126 -0.83066,-0.78308 -1.11605,-1.29905 -0.30343,-0.54592 -0.57874,-1.10481 -0.79274,-1.6927 -0.17352,-0.44993 -0.32611,-0.9142 -0.56981,-1.33222 -0.13576,-0.16059 -0.24733,-0.17213 -0.24682,-0.17214 2.68648,-0.0995 1.64743,-0.0942 1.19754,-0.003 -0.29373,0.20823 -0.41002,0.58167 -0.59516,0.87664 -0.23468,0.45671 -0.40294,0.94075 -0.59718,1.41536 -0.20805,0.47941 -0.44777,0.9485 -0.77642,1.35798 -0.30981,0.35761 -0.64978,0.68413 -1.06075,0.92539 -0.41853,0.24424 -0.85822,0.4473 -1.33137,0.56203 -0.92819,0.21712 -1.88128,0.17153 -2.832029,0.1336 -0.484184,-0.0304 -0.97185,-0.0797 -1.426293,-0.2621 -0.466585,-0.20487 -0.892155,-0.47676 -1.244861,-0.84941 -0.348391,-0.38385 -0.642333,-0.80372 -0.777359,-1.31227 -0.126899,-0.45162 -0.237071,-0.917 -0.206488,-1.38955 0.07617,-0.42904 0.288912,-0.78051 0.590488,-1.09434 0.308949,-0.32201 0.646657,-0.61357 1.057873,-0.79866 0.426525,-0.21077 0.866921,-0.3899 1.323495,-0.52539 0.460628,-0.133 0.920107,-0.27135 1.390454,-0.36693 0.1929,-0.0456 0.49034,-0.15831 0.67561,-0.11197 0.0338,0.24113 -0.33752,0.0138 -0.51615,0.0353 -0.465666,-0.0632 -0.930932,-0.14219 -1.380435,-0.28254 -0.532712,-0.177 -1.050742,-0.40237 -1.514212,-0.72323 -0.522459,-0.37945 -1.018082,-0.79827 -1.444525,-1.28519 -0.375387,-0.44353 -0.708237,-0.92257 -0.853611,-1.49429 -0.105172,-0.51489 -0.113919,-1.02449 0.0637,-1.52725 0.163041,-0.43817 0.369034,-0.858 0.71665,-1.18167 0.315253,-0.27691 0.667763,-0.5046 1.067008,-0.64205 0.901568,-0.28223 1.881599,-0.23781 2.805348,-0.0699 0.549517,0.13759 1.075037,0.34549 1.571227,0.62042 0.46532,0.24886 0.92417,0.50928 1.38306,0.76977 0.36121,0.21023 0.71487,0.43311 1.07415,0.64664 0.26338,0.16762 0.5235,0.34169 0.76454,0.54064 0.16362,0.1422 0.3278,0.28397 0.48162,0.43692 0.57291,0.52957 0.32906,0.1042 -1.15672,0.31359 -0.1153,-0.31533 -0.28631,-0.60925 -0.42884,-0.91214 -0.33402,-0.6559 -0.68574,-1.30706 -0.94216,-1.99831 -0.15043,-0.52105 -0.21956,-1.05424 -0.27144,-1.59355 -0.0631,-0.5977 -0.11005,-1.19968 -0.0592,-1.80046 0.0566,-0.60941 0.12993,-1.22078 0.31756,-1.80615 0.17615,-0.57053 0.37065,-1.1536 0.74805,-1.62602 0.37038,-0.37298 0.7816,-0.63551 1.30381,-0.74552 0.92069,-0.22467 1.872,-0.21356 2.81709,-0.13136 0.48092,0.0611 0.91961,0.21487 1.30028,0.52639 0.46454,0.38537 0.83232,0.8524 1.13221,1.37662 0.34139,0.60846 0.64576,1.24111 0.76067,1.93626 0.10875,0.73879 0.14413,1.48971 0.0242,2.2303 -0.15175,0.81689 -0.42421,1.59795 -0.79086,2.34433 -0.35488,0.72887 -0.72074,1.45272 -1.10911,2.16439 -0.19642,0.34835 -0.38639,0.71498 -0.67497,0.99742 0,0 -1.47245,-0.13229 -1.47245,-0.13229 z"
       inkscape:connector-curvature="0" />
  </g>
</svg>
