<?xml version="1.0" encoding="UTF-8" standalone="no"?>
<!-- Created with Inkscape (http://www.inkscape.org/) -->

<svg
   xmlns:dc="http://purl.org/dc/elements/1.1/"
   xmlns:cc="http://creativecommons.org/ns#"
   xmlns:rdf="http://www.w3.org/1999/02/22-rdf-syntax-ns#"
   xmlns:svg="http://www.w3.org/2000/svg"
   xmlns="http://www.w3.org/2000/svg"
   xmlns:sodipodi="http://sodipodi.sourceforge.net/DTD/sodipodi-0.dtd"
   xmlns:inkscape="http://www.inkscape.org/namespaces/inkscape"
   width="148mm"
   height="210mm"
   viewBox="0 0 148 210"
   version="1.1"
   id="svg8"
   inkscape:version="0.92.5 (2060ec1f9f, 2020-04-08)"
   sodipodi:docname="9th-birthday.svg">
  <defs
     id="defs2">
    <filter
       inkscape:label="People"
       inkscape:menu="Overlays"
       inkscape:menu-tooltip="Colorized blotches, like a crowd of people"
       style="color-interpolation-filters:sRGB"
       id="filter877">
      <feTurbulence
         result="result7"
         type="fractalNoise"
         numOctaves="3"
         baseFrequency="0.2 0.09"
         id="feTurbulence863" />
      <feColorMatrix
         result="result5"
         values="1 0 0 0 0 0 1 0 0 0 0 0 1 0 0 0 0 0 5.5 -2 "
         id="feColorMatrix865" />
      <feComposite
         result="result6"
         in="SourceGraphic"
         operator="in"
         in2="result7"
         id="feComposite867" />
      <feDisplacementMap
         in="result5"
         xChannelSelector="R"
         yChannelSelector="A"
         scale="9"
         result="result4"
         in2="result6"
         id="feDisplacementMap869" />
      <feComposite
         result="result2"
         operator="in"
         in2="result4"
         in="SourceGraphic"
         id="feComposite871" />
      <feComposite
         in="result2"
         operator="in"
         in2="SourceGraphic"
         result="result91"
         id="feComposite873" />
      <feBlend
         mode="multiply"
         in2="result91"
         id="feBlend875" />
    </filter>
  </defs>
  <sodipodi:namedview
     id="base"
     pagecolor="#ffffff"
     bordercolor="#666666"
     borderopacity="1.0"
     inkscape:pageopacity="0.0"
     inkscape:pageshadow="2"
     inkscape:zoom="0.88572421"
     inkscape:cx="79.28406"
     inkscape:cy="396.85039"
     inkscape:document-units="mm"
     inkscape:current-layer="layer1"
     showgrid="false"
     inkscape:window-width="1375"
     inkscape:window-height="876"
     inkscape:window-x="65"
     inkscape:window-y="24"
     inkscape:window-maximized="1" />
  <metadata
     id="metadata5">
    <rdf:RDF>
      <cc:Work
         rdf:about="">
        <dc:format>image/svg+xml</dc:format>
        <dc:type
           rdf:resource="http://purl.org/dc/dcmitype/StillImage" />
        <dc:title></dc:title>
      </cc:Work>
    </rdf:RDF>
  </metadata>
  <g
     inkscape:label="Layer 1"
     inkscape:groupmode="layer"
     id="layer1"
     transform="translate(0,-87)">
    <text
       xml:space="preserve"
       style="font-style:normal;font-variant:normal;font-weight:normal;font-stretch:normal;font-size:6.61458302px;line-height:125%;font-family:'Vtks Rash';-inkscape-font-specification:'Vtks Rash';letter-spacing:0px;word-spacing:0px;fill:#000000;fill-opacity:1;stroke:none;stroke-width:0.26458332px;stroke-linecap:butt;stroke-linejoin:miter;stroke-opacity:1"
       x="36.250858"
       y="141.40016"
       id="text854"><tspan
         sodipodi:role="line"
         id="tspan852"
         x="36.250858"
         y="147.18793"
         style="font-style:normal;font-variant:normal;font-weight:normal;font-stretch:normal;font-size:14.11111069px;font-family:UnPilgi;-inkscape-font-specification:UnPilgi;stroke-width:0.26458332px" /></text>
    <path
       style="fill:#020000;fill-opacity:1;stroke:none;stroke-width:0.34229085px;stroke-linecap:butt;stroke-linejoin:miter;stroke-opacity:1"
       d="m 89.492442,150.48039 c 0,3.64049 -2.00834,40.04545 -2.00834,40.04545 h 12.451685 v -39.64095 z"
       id="path840"
       inkscape:connector-curvature="0" />
    <path
       style="fill:#020000;fill-opacity:1;stroke:#000000;stroke-width:0.33043125px;stroke-linecap:butt;stroke-linejoin:miter;stroke-opacity:1"
       d="m 79.381845,233.58292 v 39.89553 l 24.594615,0.18334 0.38911,-9.69086 -15.953729,-0.38912 v -6.22583 l 13.619059,-0.38912 -0.38914,-7.47356 -12.451673,0.38913 -0.389123,-6.34321 15.953756,-0.11742 v -10.30839 z"
       id="path836-7"
       inkscape:connector-curvature="0"
       sodipodi:nodetypes="ccccccccccccc" />
    <path
       style="fill:#020000;fill-opacity:1;stroke:#000000;stroke-width:0.33043125px;stroke-linecap:butt;stroke-linejoin:miter;stroke-opacity:1"
       d="m 42.417752,150.79627 10.234354,0.38912 -0.389113,-22.56869 7.782302,22.17957 14.302758,-0.55788 v -39.89553 l -10.800722,0.37456 0.389116,22.56866 -10.895225,-22.17956 h -10.23436 z"
       id="path939"
       inkscape:connector-curvature="0"
       sodipodi:nodetypes="ccccccccccc" />
    <circle
       style="fill:#000000;fill-opacity:1;stroke:none;stroke-width:0.3958931;stroke-miterlimit:4;stroke-dasharray:none;stroke-opacity:1"
       id="path844-3-5-3"
       cx="-248.05316"
       cy="71.93792"
       r="5.2530537"
       transform="rotate(-87.08951)" />
    <path
       style="fill:#000000;fill-opacity:1;stroke:none;stroke-width:0.2934854;stroke-miterlimit:4;stroke-dasharray:none;stroke-opacity:1"
       id="path862"
       d="m 55.815425,254.69835 c -0.507128,-0.0987 -1.021475,-0.12653 -1.53632,-0.14787 -0.558042,-0.045 -1.107364,0.023 -1.652694,0.13352 -0.504037,0.0837 -0.981397,0.26251 -1.44739,0.46683 -0.542473,0.20411 -1.008697,0.54893 -1.4668,0.89602 -0.548639,0.4456 -1.096409,0.89428 -1.625424,1.36336 -0.560948,0.50767 -1.066921,1.07542 -1.554665,1.65299 -0.380372,0.43656 -0.649031,0.89475 -0.654329,1.47908 0.04064,0.70337 0.392154,1.33531 0.743547,1.92945 0.52757,0.72312 1.114887,1.40264 1.753656,2.02922 0.701818,0.71223 1.466751,1.35634 2.238976,1.98974 0.616264,0.50254 1.251968,0.98043 1.968308,1.33008 0.414253,0.17969 0.847726,0.28668 1.299527,0.26495 0.435045,-0.0539 0.81457,-0.27523 1.172339,-0.5147 0.49798,-0.37119 0.966194,-0.7795 1.414537,-1.20877 0.464692,-0.44662 0.891017,-0.93093 1.295648,-1.43197 0.334503,-0.39377 0.571655,-0.83412 0.753681,-1.31394 0.166339,-0.52727 0.143139,-1.08456 0.135442,-1.63027 0.0048,-0.58215 -0.05769,-1.1606 -0.114035,-1.73908 -0.07818,-0.54061 -0.168368,-1.07927 -0.241992,-1.62054 -0.04646,-0.4909 -0.14545,-0.97352 -0.230927,-1.45846 -0.08042,-0.43069 -0.137404,-0.86496 -0.194056,-1.29921 -0.0731,-0.37971 -0.09212,-0.70343 0.163322,-1.01512 0.421943,-0.25942 0.813497,-0.0243 1.191291,0.19911 0.656232,0.38862 1.327657,0.75053 1.990166,1.12834 0.874856,0.48881 1.737349,0.99982 2.598508,1.51236 0.800744,0.45988 1.589399,0.93981 2.380142,1.41651 0.593597,0.36925 1.212707,0.68394 1.855351,0.95678 0.412789,0.17356 0.839349,0.31267 1.290356,0.28353 0.439411,-0.026 0.845274,-0.20179 1.239294,-0.38471 0.379746,-0.16815 0.712721,-0.39719 0.989086,-0.70513 0.22977,-0.26472 0.341708,-0.59178 0.444077,-0.92057 0.116832,-0.32066 0.149044,-0.64931 0.133742,-0.98717 -4.59e-4,-0.35144 -0.06978,-0.68965 -0.168929,-1.0246 -0.08997,-0.36711 -0.200281,-0.7229 -0.379667,-1.0562 -0.227181,-0.38501 -0.587598,-0.67887 -0.911002,-0.98276 -0.477874,-0.44516 -1.063941,-0.74559 -1.644487,-1.03274 -0.627619,-0.28811 -1.251975,-0.58323 -1.877334,-0.87634 -0.52283,-0.2461 -1.069382,-0.43493 -1.617698,-0.61466 -0.51206,-0.14482 -0.947336,-0.31247 -1.22635,-0.78276 -0.137687,-0.46843 0.07217,-0.90809 0.264063,-1.32764 0.173054,-0.37016 0.385206,-0.72151 0.603511,-1.06654 0.198858,-0.32769 0.368704,-0.67268 0.511528,-1.02818 0.124214,-0.34388 0.259045,-0.68889 0.327207,-1.04916 0.05789,-0.31164 0.05189,-0.62816 0.0065,-0.94069 -0.0771,-0.34139 -0.239639,-0.64954 -0.403533,-0.95536 -0.210537,-0.34815 -0.478544,-0.65474 -0.769,-0.9377 -0.288948,-0.27358 -0.621829,-0.47862 -0.981945,-0.64252 -0.282034,-0.14135 -0.541775,-0.23327 -0.853862,-0.20572 -0.364163,0.10214 -0.712486,0.25011 -1.058941,0.39977 -0.374339,0.15044 -0.744779,0.30687 -1.085891,0.52391 -0.368441,0.21635 -0.685549,0.50712 -1.002141,0.79133 -0.292499,0.25021 -0.526242,0.55503 -0.752508,0.86371 -0.2,0.30668 -0.413466,0.60641 -0.680773,0.85773 -0.236048,0.22638 -0.498977,0.34118 -0.823535,0.35821 -0.283149,-0.0117 -0.534906,-0.11898 -0.775835,-0.25956 -0.235357,-0.17011 -0.458843,-0.36319 -0.66517,-0.56813 -0.197209,-0.19014 -0.364201,-0.40931 -0.557207,-0.60306 -0.183098,-0.22808 -0.421296,-0.39687 -0.640402,-0.58639 -0.258273,-0.206 -0.50146,-0.4308 -0.765832,-0.629 -0.263468,-0.202 -0.534327,-0.38782 -0.824314,-0.54929 -0.332346,-0.148 -0.69372,-0.15296 -1.04739,-0.097 -0.488487,0.0851 -0.963867,0.22641 -1.421762,0.41508 -0.490629,0.20943 -0.911824,0.53155 -1.331246,0.85453 -0.380425,0.25834 -0.599627,0.60665 -0.795035,1.00999 -0.20639,0.4149 -0.230125,0.87451 -0.260302,1.32789 -0.01054,0.5195 0.01807,1.03864 0.115623,1.54926 0.09522,0.44613 0.223291,0.89115 0.422659,1.30252 0.178801,0.34526 0.391357,0.67422 0.623583,0.98601 0.211315,0.28115 0.417919,0.5634 0.683936,0.79549 0.362093,0.31817 0.79111,0.50911 1.240063,0.66858 0.74913,0.24878 1.540098,0.3435 2.322701,0.4187 0.966598,0.0736 1.935104,0.11951 2.903204,0.16877 0.635885,0.0436 1.275744,0.0356 1.907224,0.12562 0.544341,0.0807 0.430237,0.85052 -0.114191,0.76981 v 0 c -0.605123,-0.0943 -1.222959,-0.0674 -1.832551,-0.11819 -0.979962,-0.0499 -1.960317,-0.0962 -2.938713,-0.17144 -0.846426,-0.0826 -1.700881,-0.18739 -2.510068,-0.46062 -0.541469,-0.19526 -1.058303,-0.43402 -1.494248,-0.81916 -0.302891,-0.27215 -0.553427,-0.5866 -0.793137,-0.91493 -0.259717,-0.35347 -0.501537,-0.72265 -0.700448,-1.11404 -0.222712,-0.475 -0.380598,-0.97988 -0.484981,-1.49398 -0.105885,-0.57549 -0.144702,-1.15921 -0.127155,-1.74438 0.03626,-0.55407 0.08332,-1.11133 0.337064,-1.61657 0.248291,-0.50791 0.548392,-0.95596 1.020059,-1.28604 0.474491,-0.36511 0.955414,-0.72357 1.511149,-0.95808 0.518782,-0.21112 1.0559,-0.37309 1.609293,-0.46562 0.524846,-0.0667 1.05038,-0.0531 1.533869,0.18822 0.320888,0.17942 0.622286,0.38424 0.914098,0.60785 0.277628,0.21087 0.537286,0.44392 0.808123,0.66335 0.232568,0.20484 0.489448,0.38402 0.685064,0.62847 0.1894,0.19556 0.359758,0.40869 0.553973,0.59979 0.15574,0.16111 0.334487,0.30243 0.506423,0.44482 0.112302,0.0665 0.221985,0.12523 0.349251,0.15316 0.140975,-0.002 0.220629,-0.0429 0.330919,-0.155 0.237835,-0.2062 0.397464,-0.48996 0.578429,-0.74368 0.258307,-0.35196 0.52814,-0.69696 0.860786,-0.98311 0.349977,-0.31288 0.700858,-0.63179 1.107343,-0.8706 0.376989,-0.23449 0.778326,-0.41732 1.191249,-0.57947 0.42482,-0.18359 0.853843,-0.37075 1.30991,-0.46145 0.446532,-0.0291 0.837548,0.0727 1.236352,0.27461 0.440234,0.20365 0.849308,0.45692 1.201898,0.79392 0.344973,0.33983 0.66494,0.70632 0.910303,1.12612 0.207332,0.38722 0.404976,0.78203 0.488631,1.21736 0.05195,0.39875 0.0633,0.80135 -0.01442,1.19827 -0.08402,0.40684 -0.221465,0.80037 -0.368803,1.18835 -0.161615,0.39841 -0.350749,0.78607 -0.575561,1.15296 -0.199691,0.31534 -0.394753,0.63601 -0.553385,0.97411 -0.101124,0.22082 -0.202383,0.44712 -0.26395,0.68035 0.07215,0.1742 0.520752,0.28461 0.76104,0.36676 0.578229,0.18968 1.154209,0.38982 1.705496,0.6495 0.630446,0.29551 1.259932,0.59289 1.892521,0.88365 0.648815,0.32192 1.299495,0.6632 1.831941,1.16295 0.385766,0.36255 0.804696,0.71703 1.065331,1.18476 0.199964,0.38146 0.339044,0.7823 0.438895,1.2013 0.116169,0.39597 0.196631,0.79754 0.2,1.21215 0.01669,0.42724 -0.02483,0.84661 -0.168794,1.25245 -0.137526,0.43616 -0.30143,0.86361 -0.610492,1.21089 -0.350212,0.38241 -0.763484,0.67802 -1.239446,0.88878 -0.48627,0.2228 -0.987427,0.42864 -1.528831,0.45533 -0.56963,0.0201 -1.109435,-0.11482 -1.630932,-0.34465 -0.676071,-0.28739 -1.327997,-0.6186 -1.952821,-1.00654 -0.78951,-0.47593 -1.57692,-0.95514 -2.376406,-1.41427 -0.856982,-0.51013 -1.715327,-1.01867 -2.585997,-1.50509 -0.666939,-0.38034 -1.342884,-0.74459 -2.003335,-1.13604 -0.111822,-0.0673 -0.167836,-0.10557 -0.27779,-0.15887 -0.04626,-0.0224 -0.160354,-0.005 -0.14426,-0.0543 0.02152,-0.0656 0.213634,0.0428 0.179241,-0.10308 0.09632,-0.21108 -0.0321,0.25508 0.05869,0.36353 0.0552,0.42278 0.110363,0.84557 0.188818,1.26485 0.08707,0.49497 0.187645,0.98777 0.235643,1.48869 0.07482,0.55102 0.168107,1.09917 0.245391,1.64983 0.05858,0.5999 0.122118,1.19991 0.117614,1.80359 0.0089,0.6446 0.02409,1.29988 -0.186491,1.91887 -0.213123,0.55503 -0.489772,1.06844 -0.875372,1.52542 -0.425772,0.52676 -0.874343,1.03583 -1.363182,1.50536 -0.482275,0.46053 -0.98485,0.89996 -1.522615,1.29512 -0.480963,0.31593 -0.990276,0.59323 -1.574998,0.64364 -0.581027,0.0149 -1.139201,-0.10266 -1.670147,-0.34443 -0.767798,-0.38027 -1.457927,-0.88256 -2.11832,-1.42664 -0.790242,-0.64825 -1.572535,-1.30797 -2.291012,-2.03651 -0.685482,-0.67535 -1.320564,-1.40432 -1.878592,-2.18914 -0.425428,-0.72471 -0.827329,-1.49269 -0.850768,-2.3518 0.03971,-0.76122 0.328129,-1.38325 0.837711,-1.95411 0.512427,-0.60571 1.043416,-1.20126 1.632993,-1.73318 0.544391,-0.48185 1.10689,-0.94415 1.671853,-1.40139 0.507199,-0.38348 1.026739,-0.76026 1.625433,-0.9888 0.516934,-0.2243 1.046166,-0.42252 1.604257,-0.51625 0.606668,-0.12236 1.218767,-0.19562 1.839147,-0.14821 0.559976,0.0233 1.119591,0.0563 1.670761,0.16525 0.537504,0.11794 0.370725,0.87808 -0.16681,0.76015 z"
       inkscape:connector-curvature="0" />
    <circle
       style="fill:#000000;fill-opacity:1;stroke:none;stroke-width:0.3958931;stroke-miterlimit:4;stroke-dasharray:none;stroke-opacity:1"
       id="path844-3-5-3-7"
       cx="-213.48903"
       cy="-89.131294"
       r="5.2530537"
       transform="rotate(-136.82814)" />
    <path
       style="fill:#000000;fill-opacity:1;stroke:none;stroke-width:0.2934854;stroke-miterlimit:4;stroke-dasharray:none;stroke-opacity:1"
       id="path889"
       d="m 92.873975,215.30891 c -0.208269,0.37807 -0.375077,0.7836 -0.53509,1.18494 -0.23765,0.59503 -0.455747,1.20168 -0.579701,1.83135 -0.12562,0.55787 -0.0509,1.1195 0.03489,1.67665 0.132976,0.74411 0.396882,1.45998 0.642108,2.17343 0.206603,0.59058 0.431366,1.17079 0.814957,1.66907 0.315287,0.39083 0.705151,0.71081 1.13558,0.96625 0.346555,0.20913 0.722973,0.35391 1.101045,0.49383 0.266223,0.096 0.53341,0.10287 0.809918,0.0626 0.297232,-0.0406 0.571383,-0.15801 0.839625,-0.28599 0.288145,-0.1268 0.54424,-0.29735 0.757431,-0.5286 0.236999,-0.31006 0.294263,-0.70933 0.343288,-1.08656 0.08019,-0.51655 0.07654,-1.01991 0.0039,-1.5354 -0.09477,-0.55394 -0.265664,-1.08722 -0.469624,-1.60949 -0.201331,-0.57109 -0.435297,-1.12988 -0.665306,-1.68982 -0.203622,-0.50994 -0.439683,-1.00569 -0.667961,-1.50481 -0.221794,-0.45193 -0.420456,-0.914 -0.630092,-1.37149 -0.190357,-0.38637 -0.424427,-0.75028 -0.442027,-1.18791 0.0811,-0.11039 0.130424,-0.25314 0.242806,-0.33122 0.36448,-0.25317 0.945327,0.26542 1.199757,0.45057 0.618988,0.47347 1.252908,0.92653 1.898062,1.36347 0.615135,0.37421 1.22453,0.76156 1.862429,1.09632 0.44789,0.22727 0.9201,0.40412 1.40231,0.54291 0.33872,0.0788 0.68736,0.12353 1.03306,0.0723 0.24392,-0.0403 0.48261,-0.10171 0.69399,-0.23203 0.22246,-0.13202 0.38176,-0.33196 0.5478,-0.52527 0.17354,-0.24654 0.32662,-0.50439 0.46418,-0.77227 0.13257,-0.32356 0.2098,-0.66887 0.25425,-1.01491 0.0374,-0.37652 -0.13975,-0.70572 -0.31002,-1.02797 -0.35631,-0.49059 -0.91656,-0.77092 -1.44868,-1.03058 -0.75074,-0.33685 -1.52687,-0.61205 -2.31269,-0.85428 -0.69357,-0.18011 -1.390001,-0.35493 -2.07098,-0.57913 -0.65398,-0.20569 -0.823418,-0.68946 -0.708863,-1.32063 0.15543,-0.60614 0.579024,-1.07407 0.974149,-1.53882 0.507597,-0.52531 1.093504,-0.96479 1.627274,-1.46181 0.44198,-0.39894 0.81459,-0.86243 1.18912,-1.32282 0.33549,-0.46907 0.64418,-0.96138 0.91603,-1.47024 0.27834,-0.46864 0.44921,-0.98119 0.6067,-1.49924 0.13005,-0.48691 0.23123,-0.97679 0.27498,-1.47876 0.0563,-0.37864 0.0454,-0.76034 -0.11508,-1.11148 -0.13913,-0.33097 -0.38442,-0.46952 -0.72234,-0.53701 -0.67191,-0.0633 -1.28741,0.2065 -1.89097,0.46388 -0.85578,0.41435 -1.647556,0.94845 -2.432728,1.48151 -0.71623,0.49055 -1.3976,1.03141 -2.033081,1.62271 -0.440608,0.39747 -0.81359,0.85741 -1.180296,1.32149 -0.357739,0.43622 -0.719159,0.76755 -1.303613,0.58094 -0.4797,-0.30379 -0.653484,-0.87253 -0.821868,-1.38562 -0.107786,-0.43327 -0.239056,-0.8511 -0.446674,-1.24674 -0.177977,-0.3397 -0.378774,-0.66185 -0.631499,-0.95018 -0.250966,-0.32068 -0.598277,-0.52454 -0.937048,-0.73899 -0.37099,-0.23717 -0.755088,-0.46137 -1.154352,-0.64794 -0.380883,-0.17419 -0.781827,-0.25028 -1.198312,-0.25498 -0.381183,0.001 -0.736942,0.11156 -1.091099,0.23872 -0.238132,0.15393 -0.394578,0.3785 -0.533932,0.61931 -0.18243,0.27255 -0.303532,0.55368 -0.378435,0.87036 -0.0423,0.55361 0.03267,1.10559 0.102575,1.65354 0.09581,0.7297 0.305446,1.43488 0.517529,2.13729 0.221366,0.75018 0.552404,1.45634 0.928912,2.13932 0.382862,0.65429 0.835303,1.26315 1.241688,1.90302 0.201357,0.34279 0.42211,0.6724 0.643384,1.00234 0.197998,0.26785 0.200679,0.50853 0.04855,0.79537 -0.243013,0.18013 -0.470679,0.1812 -0.754463,0.13878 -0.222224,-0.0475 -0.436702,-0.13018 -0.661348,-0.16687 -0.3244,-0.0465 -0.65092,-0.0679 -0.974578,-0.12107 -0.361435,-0.0657 -0.728012,-0.0369 -1.092766,-0.0428 -0.385972,-0.0135 -0.760841,0.0822 -1.138444,0.14398 -0.372513,0.029 -0.716764,0.14357 -1.052958,0.29864 -0.344368,0.18984 -0.652535,0.43666 -0.961196,0.67832 -0.278083,0.18724 -0.441935,0.46124 -0.59501,0.74992 -0.152463,0.28792 -0.252581,0.60088 -0.331794,0.91596 -0.01901,0.1277 -0.115987,0.32581 -0.01172,0.43802 0.06717,0.10661 0.154415,0.1726 0.260782,0.22975 0.184915,0.0695 0.386702,0.10609 0.582487,0.13337 0.236504,0.0296 0.471824,0.0561 0.710047,0.0674 0.248976,0.0388 0.49937,0.0228 0.749256,0.0135 0.275362,-0.009 0.551804,-0.022 0.82317,-0.0729 0.32056,-0.0749 0.623818,-0.20042 0.945927,-0.27234 0.367814,-0.0816 0.741341,-0.13325 1.113854,-0.18782 0.326209,-0.0363 0.641626,-0.11729 0.951472,-0.22254 0.345462,-0.12184 0.683582,-0.2599 1.020153,-0.40447 0.394577,-0.1606 0.771243,-0.35948 1.145304,-0.56217 0.05663,-0.0327 0.113515,-0.0655 0.170115,-0.0981 0.476901,-0.2746 0.864774,0.40074 0.388316,0.67438 v 0 c -0.06262,0.036 -0.125229,0.072 -0.187754,0.10792 -0.394824,0.21387 -0.792695,0.42305 -1.208882,0.59299 -0.355433,0.15266 -0.713054,0.29711 -1.077561,0.42646 -0.354626,0.11977 -0.71597,0.21248 -1.088756,0.25554 -0.355095,0.0516 -0.711127,0.10066 -1.061679,0.17841 -0.33178,0.0685 -0.638711,0.21713 -0.972522,0.2776 -0.307997,0.0541 -0.619717,0.0764 -0.932089,0.0846 -0.271873,0.009 -0.544775,0.0279 -0.815503,-0.0135 -0.264713,-0.0134 -0.526784,-0.0424 -0.789675,-0.0754 -0.270728,-0.0429 -0.54786,-0.0889 -0.79996,-0.2 -0.257502,-0.13364 -0.466982,-0.31663 -0.61494,-0.56951 -0.158229,-0.32231 -0.156784,-0.64983 -0.05429,-0.99196 0.09542,-0.37535 0.217018,-0.74723 0.399107,-1.0903 0.204208,-0.38342 0.43988,-0.74371 0.802408,-0.99754 0.356436,-0.27902 0.713692,-0.56265 1.116523,-0.77292 0.399941,-0.18248 0.811624,-0.32069 1.252765,-0.35943 0.423386,-0.0678 0.843673,-0.1721 1.276419,-0.15392 0.402855,0.007 0.80786,-0.0228 1.206864,0.0531 0.327315,0.0553 0.65881,0.0709 0.986554,0.12302 0.221027,0.0427 0.436885,0.10622 0.653629,0.1654 0.1801,0.0445 0.318464,-0.0664 0.02031,0.13547 -0.0647,0.15794 0.0078,0.33214 -0.09255,0.13082 -0.224893,-0.33536 -0.449121,-0.67053 -0.654072,-1.01868 -0.414962,-0.65362 -0.878742,-1.27457 -1.26655,-1.94498 -0.401672,-0.73126 -0.755466,-1.48709 -0.992114,-2.28968 -0.224306,-0.74375 -0.444018,-1.49102 -0.544475,-2.26368 -0.08149,-0.64023 -0.169372,-1.28832 -0.08734,-1.93341 0.09451,-0.3899 0.24218,-0.74496 0.463272,-1.08141 0.234604,-0.3985 0.517411,-0.75275 0.943414,-0.95939 0.443094,-0.15847 0.892632,-0.28587 1.3684,-0.28424 0.525757,0.0135 1.035514,0.10661 1.51593,0.32941 0.426796,0.20376 0.8412,0.43823 1.238563,0.69438 0.401491,0.25447 0.807849,0.50762 1.107216,0.88534 0.291178,0.33628 0.529869,0.70674 0.734832,1.10181 0.224905,0.43467 0.381598,0.88954 0.496454,1.36537 0.101018,0.31345 0.209505,0.63381 0.389787,0.91174 -0.324517,0.25737 0.396946,-0.25986 0.385087,-0.34872 0.39144,-0.49536 0.791589,-0.98463 1.2615,-1.4092 0.665578,-0.61683 1.375874,-1.18448 2.125533,-1.69632 0.826894,-0.56115 1.661336,-1.1227 2.565238,-1.55376 0.75866,-0.3218 1.53394,-0.62799 2.3749,-0.50501 0.57252,0.14777 1.02206,0.42656 1.25969,0.99113 0.19236,0.47597 0.25497,0.97241 0.17363,1.48301 -0.0494,0.55516 -0.15952,1.09807 -0.30544,1.63612 -0.17205,0.56736 -0.36375,1.12745 -0.66574,1.64154 -0.29712,0.55128 -0.6289,1.08737 -0.99795,1.59325 -0.39734,0.48841 -0.79441,0.97859 -1.26316,1.4019 -0.51259,0.47539 -1.06816,0.90254 -1.564238,1.39596 -0.307528,0.36152 -0.654344,0.72037 -0.802693,1.18168 -0.05937,0.28257 -0.155183,0.31395 0.188977,0.43466 0.675419,0.22447 1.368544,0.39243 2.056244,0.57442 0.8243,0.25488 1.63859,0.54394 2.42565,0.8991 0.68096,0.33546 1.37412,0.71069 1.79521,1.36763 0.24453,0.46848 0.45818,0.95029 0.39226,1.49293 -0.0597,0.43333 -0.1543,0.8661 -0.33337,1.26727 -0.1655,0.32165 -0.35002,0.63277 -0.56585,0.92371 -0.2215,0.25761 -0.4446,0.51501 -0.74229,0.68833 -0.30616,0.17647 -0.63746,0.28345 -0.98789,0.33355 -0.45376,0.0554 -0.90757,0.0181 -1.35089,-0.0962 -0.53272,-0.15413 -1.05448,-0.34961 -1.54908,-0.60178 -0.662495,-0.3498 -1.298211,-0.74877 -1.936335,-1.14062 -0.652653,-0.44209 -1.294148,-0.90014 -1.920362,-1.37914 -0.676682,-0.49495 -0.505657,-0.12015 -0.208555,-0.67901 -0.07615,-0.24622 0.305719,0.76542 0.374452,0.79497 0.209363,0.45776 0.408298,0.91973 0.630236,1.37175 0.232495,0.50837 0.472683,1.01347 0.680119,1.53283 0.231727,0.56437 0.467646,1.12748 0.670578,1.70303 0.22497,0.57899 0.413192,1.17088 0.515316,1.78514 0.08032,0.58517 0.08461,1.16093 -0.0039,1.74663 -0.07576,0.5417 -0.183236,1.09173 -0.550763,1.51866 -0.28592,0.2929 -0.60903,0.53135 -0.986788,0.69478 -0.341571,0.1621 -0.693008,0.304 -1.070767,0.35463 -0.402843,0.0508 -0.798775,0.0379 -1.184344,-0.10434 -0.422878,-0.15727 -0.843179,-0.32224 -1.230973,-0.55612 -0.51244,-0.31133 -0.980814,-0.6903 -1.354564,-1.16296 -0.426991,-0.56964 -0.703773,-1.21322 -0.930852,-1.88638 -0.260353,-0.75768 -0.538135,-1.51828 -0.675511,-2.30948 -0.09724,-0.64671 -0.17428,-1.29965 -0.02838,-1.9464 0.137179,-0.67547 0.361824,-1.32904 0.620199,-1.96747 0.195615,-0.48775 0.386988,-0.99735 0.690416,-1.42825 0.376484,-0.40133 0.944026,0.1311 0.567542,0.53246 z"
       inkscape:connector-curvature="0" />
    <circle
       style="fill:#000000;fill-opacity:1;stroke:none;stroke-width:0.3958931;stroke-miterlimit:4;stroke-dasharray:none;stroke-opacity:1"
       id="path844-3-5-3-5"
       cx="55.954533"
       cy="-149.58316"
       r="5.2530537"
       transform="rotate(124.19871)" />
    <path
       style="fill:#000000;fill-opacity:1;stroke:none;stroke-width:0.2934854;stroke-miterlimit:4;stroke-dasharray:none;stroke-opacity:1"
       id="path897"
       d="m 95.878526,132.48294 c 0.09945,0.25487 0.217044,0.50402 0.333824,0.75198 0.268203,0.26199 0.568572,0.48668 0.866989,0.7125 0.352308,0.25866 0.726735,0.50014 1.129227,0.67274 0.470276,0.19009 0.94232,0.37494 1.428152,0.52127 0.388762,0.14208 0.773622,0.21053 1.185352,0.19568 0.5006,-0.0134 0.99391,-0.0822 1.48447,-0.1782 0.55229,-0.15103 1.09041,-0.36323 1.59064,-0.64205 0.40066,-0.22429 0.58107,-0.60324 0.7301,-1.01826 0.15667,-0.41426 0.2568,-0.8379 0.30968,-1.2763 0.0746,-0.38598 -1e-4,-0.73875 -0.11209,-1.10601 -0.1626,-0.50363 -0.51783,-0.89792 -0.89536,-1.25402 -0.54828,-0.5196 -1.21368,-0.882 -1.87705,-1.2308 -0.5864,-0.31319 -1.16899,-0.62351 -1.83077,-0.72542 -0.629219,-0.0405 -1.255341,0.0802 -1.870971,0.19699 -0.541339,0.0944 -1.06578,0.25917 -1.5793,0.45159 -0.505319,0.18727 -1.016521,0.35834 -1.521358,0.54685 -0.498654,0.17948 -0.576291,0.38953 -0.433292,-0.57584 0.0013,-0.0149 0.250615,-0.0632 0.403637,-0.0957 0.589777,-0.11795 1.17781,-0.23676 1.757629,-0.39762 0.492262,-0.18815 0.928131,-0.49165 1.328411,-0.82948 0.391779,-0.36585 0.770306,-0.75066 1.104638,-1.17017 0.283536,-0.33847 0.490386,-0.72103 0.661046,-1.12548 0.16633,-0.36024 0.27504,-0.73568 0.32193,-1.12916 0.0587,-0.38453 0.0362,-0.77268 0.0134,-1.15866 -0.0352,-0.40782 -0.1673,-0.7972 -0.29758,-1.18241 -0.125105,-0.367 -0.389922,-0.65776 -0.635031,-0.9497 -0.245409,-0.30921 -0.581733,-0.49669 -0.932375,-0.6607 -0.348352,-0.17768 -0.724327,-0.23986 -1.111316,-0.22914 -0.432081,0.0387 -0.854152,0.11168 -1.270326,0.23262 -0.404913,0.14075 -0.690976,0.43694 -0.972352,0.74553 -0.433787,0.47643 -0.821492,0.98757 -1.158909,1.53599 -0.348807,0.59102 -0.692434,1.18447 -0.993219,1.80146 -0.256942,0.47703 -0.408012,0.99514 -0.553158,1.51375 -0.126792,0.43743 -0.248038,0.87564 -0.429205,1.29405 -0.25922,0.62828 -0.689947,0.68888 -1.213439,0.2697 -0.41827,-0.38007 -0.755725,-0.84053 -1.061758,-1.31304 -0.246331,-0.3729 -0.445384,-0.79597 -0.804307,-1.07465 -0.441689,-0.27427 -0.91212,-0.49865 -1.374623,-0.73508 -0.408611,-0.211 -0.857225,-0.30312 -1.308064,-0.37201 -0.440817,-0.0504 -0.879264,-0.001 -1.315875,0.0585 -0.411097,0.0593 -0.801261,0.18753 -1.141959,0.42733 -0.322941,0.28163 -0.302674,0.79131 -0.326808,1.19015 -0.02395,0.58031 0.02056,1.16172 0.07758,1.739 0.05858,0.52436 0.224606,1.02639 0.434515,1.50771 0.213983,0.5228 0.61822,0.92585 1.004493,1.32525 0.414729,0.4129 0.931985,0.68963 1.4407,0.96701 0.464964,0.22721 0.909438,0.45752 1.215236,0.88544 0.251539,0.4364 0.0289,0.81545 -0.326964,1.0878 -0.215676,0.11704 -0.416122,0.25321 -0.607259,0.40643 -0.278683,0.23188 -0.511672,0.51099 -0.746731,0.78522 -0.283042,0.3548 -0.494684,0.75438 -0.702706,1.15533 -0.177834,0.42949 -0.271847,0.8835 -0.370599,1.33545 -0.08943,0.41972 -0.11091,0.8385 -0.08878,1.26537 0.02382,0.40582 0.123147,0.77742 0.336455,1.12266 0.161262,0.238 0.37604,0.44587 0.661191,0.51379 0.379542,0.0557 0.762872,-0.0187 1.131336,-0.10792 0.360354,-0.0807 0.679964,-0.26722 0.956172,-0.50758 0.302049,-0.25947 0.552078,-0.56064 0.757353,-0.90039 0.254221,-0.4482 0.498289,-0.90205 0.748384,-1.35256 0.233419,-0.39447 0.412711,-0.81639 0.565591,-1.24739 0.122365,-0.33727 0.215141,-0.68423 0.355511,-1.01459 0.302738,-0.65001 0.472214,-0.39034 0.898542,0.041 0.0147,0.20261 -0.03606,0.40121 -0.06001,0.6014 -0.02278,0.23951 -0.0647,0.47481 -0.129004,0.70654 -0.03697,0.24876 -0.0962,0.49238 -0.129005,0.74172 -0.05559,0.31755 -0.11065,0.63457 -0.163242,0.95273 -0.05897,0.34858 -0.04426,0.70241 -0.0216,1.05356 0.05102,0.43157 0.187793,0.84015 0.382172,1.22636 0.243534,0.49792 0.595883,0.91966 0.998297,1.29548 0.324881,0.30393 0.685039,0.54856 1.13243,0.59504 0.464417,-0.006 0.918186,-0.14765 1.348341,-0.31381 0.51197,-0.20625 0.954206,-0.53928 1.418206,-0.83053 0.403208,-0.2369 0.766999,-0.5303 1.087142,-0.86989 0.232963,-0.2452 0.330153,-0.54176 0.423841,-0.85694 0.117809,-0.31397 0.136269,-0.64705 0.165454,-0.97729 0.0591,-0.31889 0.04765,-0.631 -0.01601,-0.9464 -0.04843,-0.32203 -0.120542,-0.64171 -0.262135,-0.93611 -0.178707,-0.33207 -0.408729,-0.63123 -0.64384,-0.92451 -0.25581,-0.31301 -0.589139,-0.55108 -0.908358,-0.79496 -0.240383,-0.18139 -0.119762,-0.0904 -0.362815,-0.27188 -0.441336,-0.32871 0.02356,-0.95284 0.464835,-0.62415 v 0 c 0.248442,0.18508 0.125229,0.0921 0.370495,0.27774 0.369349,0.28231 0.750193,0.56159 1.043168,0.92671 0.274216,0.34249 0.540726,0.69351 0.742942,1.08467 0.159454,0.35405 0.266458,0.726 0.319101,1.11153 0.0755,0.38732 0.09646,0.77471 0.02773,1.16594 -0.03371,0.38219 -0.06223,0.76731 -0.194913,1.13127 -0.129005,0.43083 -0.288432,0.83714 -0.604851,1.1698 -0.367072,0.38537 -0.779002,0.72332 -1.238745,0.99399 -0.507154,0.31708 -0.990811,0.6792 -1.553044,0.89776 -0.551296,0.20961 -1.131883,0.38218 -1.727622,0.35873 -0.610098,-0.0898 -1.120168,-0.37103 -1.564863,-0.79996 -0.466539,-0.44177 -0.878339,-0.93389 -1.16172,-1.51555 -0.237038,-0.48093 -0.407036,-0.98841 -0.462126,-1.5248 -0.0246,-0.40966 -0.03957,-0.82223 0.03072,-1.22863 0.05129,-0.31005 0.104532,-0.61927 0.159635,-0.92863 0.03853,-0.28571 0.10206,-0.56643 0.15154,-0.8503 0.05559,-0.19229 0.08501,-0.38876 0.105183,-0.58779 0.01913,-0.1586 0.06053,-0.31573 0.0552,-0.47477 0.144808,0.0972 0.276898,0.21679 0.434451,0.29158 0.04426,0.021 0.166612,-0.0676 0.183978,-0.10935 0.0026,-0.009 0.01172,-0.0384 0.0092,-0.0285 -0.01172,0.0252 -0.02109,0.0515 -0.03215,0.0769 -0.134993,0.31497 -0.218045,0.64875 -0.33799,0.96972 -0.167602,0.47138 -0.364506,0.93267 -0.618611,1.36482 -0.255549,0.46025 -0.504263,0.9243 -0.76532,1.38142 -0.252034,0.4068 -0.550112,0.77463 -0.916207,1.08595 -0.374712,0.31459 -0.797954,0.56452 -1.280635,0.6723 -0.504173,0.11846 -1.025686,0.20757 -1.539844,0.0948 -0.464404,-0.1567 -0.837281,-0.43651 -1.100407,-0.85771 -0.269986,-0.45966 -0.419272,-0.94874 -0.446193,-1.48386 -0.02421,-0.49531 0.0026,-0.98384 0.105834,-1.47047 0.113384,-0.51818 0.22432,-1.03896 0.439723,-1.52697 0.235216,-0.45437 0.479232,-0.90496 0.803136,-1.3041 0.266757,-0.31109 0.533229,-0.62562 0.851393,-0.88638 0.202385,-0.1615 0.411526,-0.3129 0.641912,-0.4326 0.264766,-0.13632 0.103227,0.0981 0.129396,-0.0246 -0.173512,-0.34187 -0.645689,-0.43102 -0.938612,-0.6308 -0.578399,-0.31497 -1.16073,-0.63661 -1.628414,-1.1096 -0.450866,-0.46715 -0.910272,-0.94552 -1.158856,-1.55658 -0.239707,-0.55629 -0.429921,-1.13526 -0.494891,-1.74062 -0.06092,-0.61892 -0.107527,-1.24229 -0.07993,-1.86442 0.04283,-0.65613 0.09815,-1.36266 0.668976,-1.7868 0.448055,-0.29317 0.936724,-0.48422 1.470889,-0.55275 0.511345,-0.0699 1.025763,-0.12068 1.541275,-0.0563 0.531757,0.084 1.060794,0.1975 1.542486,0.44803 0.514326,0.26287 1.041163,0.50846 1.520967,0.83214 0.402167,0.35266 0.688945,0.7885 0.957969,1.24906 0.262291,0.40976 0.554693,0.80846 0.911429,1.14145 0.205536,0.2 -0.328604,0.4595 -0.0039,0.0134 0.168565,-0.38489 0.273916,-0.79116 0.393392,-1.19332 0.157878,-0.56375 0.325871,-1.12591 0.60312,-1.64516 0.312528,-0.63993 0.667831,-1.25636 1.03049,-1.86913 0.364819,-0.5889 0.780081,-1.14062 1.247219,-1.65293 0.380024,-0.41281 0.782933,-0.7911 1.329817,-0.96736 0.482108,-0.13899 0.972275,-0.22431 1.473024,-0.26318 0.5058,-0.005 0.999663,0.0717 1.455905,0.30293 0.451972,0.21316 0.879576,0.46909 1.197614,0.86476 0.3075,0.36669 0.62406,0.73824 0.77611,1.20075 0.15228,0.45093 0.30089,0.90787 0.33719,1.38566 0.0255,0.43387 0.0469,0.87002 -0.0182,1.30214 -0.0609,0.4633 -0.18038,0.91021 -0.37752,1.33545 -0.19974,0.46952 -0.44238,0.91461 -0.77044,1.30877 -0.369034,0.45726 -0.778517,0.8828 -1.211744,1.27959 -0.487823,0.4064 -1.016639,0.77127 -1.620448,0.98298 -0.595115,0.16477 -1.198273,0.28834 -1.803607,0.40886 -0.03176,0.006 -0.594437,0.13176 -0.611491,0.11143 -0.662232,-0.79115 -0.249314,-0.74458 0.207267,-0.9302 0.504877,-0.18815 1.015779,-0.35958 1.521046,-0.54671 0.555255,-0.20684 1.121769,-0.38507 1.70673,-0.48718 0.704436,-0.13338 1.421356,-0.26624 2.140897,-0.20052 0.74403,0.12614 1.4104,0.44117 2.06844,0.805 0.72663,0.383 1.45174,0.78564 2.05091,1.35686 0.47164,0.45368 0.90457,0.9544 1.1031,1.59156 0.14142,0.46944 0.22649,0.93496 0.13989,1.42569 -0.061,0.4978 -0.17461,0.98042 -0.35179,1.45088 -0.22001,0.58764 -0.51549,1.11708 -1.08465,1.43133 -0.57332,0.31322 -1.18332,0.56217 -1.817,0.72427 -0.53184,0.10371 -1.06699,0.17764 -1.60953,0.1923 -0.49536,0.0136 -0.966798,-0.0593 -1.434496,-0.2285 -0.516006,-0.15604 -1.018213,-0.35095 -1.517349,-0.55426 -0.454875,-0.20458 -0.886436,-0.46427 -1.285114,-0.76433 -0.395736,-0.29973 -0.814891,-0.58976 -1.101669,-1.0025 -0.127833,-0.27367 -0.25784,-0.54798 -0.36534,-0.82993 -0.17855,-0.52052 0.557611,-0.773 0.736108,-0.25249 z"
       inkscape:connector-curvature="0" />
    <circle
       style="fill:#000000;fill-opacity:1;stroke:none;stroke-width:0.3958931;stroke-miterlimit:4;stroke-dasharray:none;stroke-opacity:1"
       id="path844-3-5-3-7-3"
       cx="-47.549511"
       cy="174.32887"
       r="5.2530541"
       transform="matrix(-0.99737305,0.07243612,0.07243612,0.99737305,0,0)" />
    <path
       style="fill:#000000;fill-opacity:1;stroke:none;stroke-width:0.2934854;stroke-miterlimit:4;stroke-dasharray:none;stroke-opacity:1"
       id="path889-6"
       d="m 61.289532,165.97408 c 0.07616,-0.42487 0.201888,-0.84497 0.330054,-1.25757 0.189954,-0.61191 0.402505,-1.22052 0.702556,-1.78779 0.253632,-0.51254 0.665344,-0.9018 1.082687,-1.28072 0.571789,-0.49442 1.227494,-0.88445 1.867186,-1.28441 0.532345,-0.32876 1.072269,-0.63806 1.683993,-0.7837 0.491028,-0.10508 0.995367,-0.10831 1.490613,-0.0358 0.400921,0.0557 0.784502,0.18022 1.166384,0.30934 0.267332,0.093 0.479202,0.25588 0.668634,0.46131 0.205567,0.21849 0.34443,0.4825 0.472306,0.75082 0.14403,0.27992 0.235658,0.57363 0.255684,0.88753 -0.01107,0.39011 -0.217926,0.73638 -0.41733,1.06031 -0.262875,0.45184 -0.582486,0.84071 -0.962868,1.196 -0.422342,0.37075 -0.890881,0.67744 -1.378138,0.95482 -0.515976,0.31697 -1.049532,0.60381 -1.580753,0.89407 -0.479256,0.26799 -0.974787,0.50455 -1.466341,0.74862 -0.456866,0.21151 -0.902103,0.44541 -1.353029,0.6689 -0.391138,0.18035 -0.80208,0.31572 -1.09127,0.64466 -0.0065,0.13696 -0.05831,0.27869 -0.01983,0.41021 0.123785,0.42617 0.901565,0.38893 1.215839,0.40522 0.779004,0.0219 1.556723,0.0689 2.333075,0.13563 0.713527,0.0965 1.430854,0.17922 2.137213,0.32073 0.491081,0.10545 0.969283,0.26533 1.431259,0.4611 0.312776,0.15206 0.611886,0.33669 0.848228,0.59415 0.164187,0.18484 0.311008,0.38275 0.393131,0.61716 0.08964,0.24273 0.08761,0.49827 0.0949,0.753 -0.02044,0.3008 -0.06382,0.59748 -0.125581,0.89223 -0.10066,0.33487 -0.258118,0.65175 -0.441409,0.9486 -0.207919,0.31613 -0.552817,0.46037 -0.888033,0.60352 -0.585677,0.15684 -1.197451,0.022 -1.774349,-0.11131 -0.795212,-0.2115 -1.571619,-0.48576 -2.334675,-0.79223 -0.652255,-0.29679 -1.303412,-0.59934 -1.973647,-0.85385 -0.637598,-0.2519 -1.073832,0.0171 -1.382162,0.57976 -0.26089,0.56878 -0.226308,1.19903 -0.21193,1.80886 0.06366,0.72772 0.242211,1.43803 0.343998,2.16024 0.09225,0.58822 0.08997,1.18289 0.09111,1.7764 -0.03467,0.57565 -0.104752,1.15249 -0.213898,1.71901 -0.07873,0.53935 -0.268711,1.04512 -0.472502,1.54678 -0.205528,0.46015 -0.435283,0.90448 -0.717315,1.32204 -0.194616,0.32965 -0.443442,0.61932 -0.789235,0.79103 -0.316435,0.16961 -0.594284,0.12276 -0.899313,-0.0374 -0.561896,-0.37386 -0.870234,-0.971 -1.177158,-1.55093 -0.404056,-0.86069 -0.682961,-1.77414 -0.957403,-2.6826 -0.247634,-0.83205 -0.436526,-1.68123 -0.558007,-2.54074 -0.09209,-0.58619 -0.09232,-1.17836 -0.08506,-1.76978 -0.0034,-0.56415 -0.07551,-1.04909 -0.647104,-1.27207 -0.563992,-0.0659 -1.057049,0.26653 -1.510886,0.55912 -0.356569,0.26875 -0.721552,0.51079 -1.131957,0.68747 -0.352138,0.15187 -0.710947,0.27575 -1.088842,0.34065 -0.396856,0.0911 -0.795062,0.0308 -1.193299,-0.0158 -0.43753,-0.0493 -0.877091,-0.11677 -1.304781,-0.22327 -0.405586,-0.10444 -0.764993,-0.29779 -1.091563,-0.5563 -0.295102,-0.24125 -0.502331,-0.55063 -0.697411,-0.8724 -0.08816,-0.26949 -0.06829,-0.54249 -0.02495,-0.81731 0.0299,-0.32661 0.112733,-0.6213 0.253894,-0.91451 0.315762,-0.45664 0.721412,-0.83841 1.120734,-1.2201 0.533862,-0.50659 1.14067,-0.92252 1.747648,-1.33473 0.644279,-0.4435 1.346064,-0.78374 2.068569,-1.07734 0.709366,-0.2673 1.444226,-0.45553 2.162795,-0.69682 0.372253,-0.13958 0.751281,-0.25671 1.13093,-0.37374 0.322454,-0.0834 0.476047,-0.26876 0.538461,-0.58737 -0.0754,-0.29294 -0.251575,-0.43713 -0.498809,-0.58279 -0.202585,-0.10297 -0.421252,-0.17378 -0.618922,-0.28667 -0.281235,-0.16825 -0.548519,-0.35697 -0.833364,-0.51956 -0.322129,-0.17658 -0.588996,-0.42951 -0.875929,-0.65475 -0.308054,-0.2329 -0.539427,-0.54281 -0.793873,-0.82858 -0.270796,-0.25744 -0.466568,-0.56273 -0.630077,-0.89493 -0.148052,-0.36429 -0.232091,-0.75008 -0.319753,-1.13216 -0.09819,-0.32054 -0.05298,-0.6366 0.0098,-0.95723 0.06285,-0.31966 0.182002,-0.62591 0.318832,-0.92056 0.06559,-0.11117 0.114919,-0.32618 0.266165,-0.3481 0.119332,-0.0405 0.228638,-0.0368 0.347256,-0.0144 0.187715,0.0617 0.367177,0.16115 0.536517,0.26314 0.202407,0.12588 0.401992,0.25338 0.594121,0.39461 0.21796,0.12654 0.402318,0.2967 0.590337,0.46161 0.208207,0.18046 0.414673,0.36471 0.593713,0.57483 0.201963,0.25994 0.358497,0.54845 0.563481,0.80711 0.234522,0.29484 0.492069,0.57026 0.747128,0.8472 0.230586,0.23357 0.424724,0.495 0.599152,0.77191 0.191638,0.31221 0.367483,0.63227 0.537958,0.95651 0.205493,0.37313 0.372897,0.76483 0.535934,1.15781 0.02346,0.061 0.04694,0.12237 0.07045,0.18327 0.197662,0.5136 0.924045,0.23366 0.726289,-0.27949 v 0 c -0.02604,-0.0673 -0.0521,-0.1348 -0.0779,-0.20205 -0.172116,-0.41472 -0.349549,-0.82773 -0.56592,-1.22178 -0.180049,-0.34235 -0.366958,-0.67975 -0.568719,-1.00973 -0.200106,-0.31634 -0.422539,-0.6158 -0.685029,-0.88398 -0.243115,-0.26394 -0.489159,-0.52588 -0.71254,-0.80701 -0.214603,-0.26218 -0.359539,-0.57082 -0.580851,-0.82796 -0.205407,-0.23571 -0.433216,-0.44968 -0.6708,-0.65266 -0.205543,-0.17817 -0.405778,-0.36454 -0.642058,-0.50299 -0.213696,-0.15676 -0.435991,-0.29871 -0.66099,-0.43858 -0.237452,-0.13695 -0.481698,-0.27578 -0.747441,-0.34823 -0.284227,-0.0584 -0.562159,-0.0481 -0.836299,0.0553 -0.325877,0.1508 -0.530945,0.40617 -0.666661,0.73654 -0.162105,0.35176 -0.301786,0.71719 -0.376323,1.09839 -0.08264,0.42647 -0.126414,0.85473 -0.0045,1.28019 0.101261,0.44119 0.200287,0.88647 0.380872,1.30345 0.195843,0.39356 0.428696,0.76015 0.747035,1.06797 0.286257,0.31924 0.547129,0.66488 0.894819,0.92316 0.317822,0.2477 0.6132,0.52647 0.97115,0.7185 0.289157,0.16305 0.55651,0.35967 0.843989,0.52548 0.19857,0.10609 0.406305,0.19248 0.611981,0.28291 0.167946,0.0788 0.205677,0.25203 0.101092,-0.0925 0.04948,-0.16337 0.215231,-0.25308 0.01041,-0.15996 -0.385841,0.11898 -0.771062,0.23825 -1.149493,0.3797 -0.733887,0.2466 -1.485161,0.43706 -2.208532,0.71378 -0.772459,0.31528 -1.523167,0.67977 -2.212313,1.15438 -0.642509,0.43662 -1.283673,0.87889 -1.848156,1.41599 -0.466455,0.44607 -0.942673,0.89429 -1.285102,1.44712 -0.172099,0.36237 -0.280833,0.73125 -0.3209,1.13188 -0.06858,0.4573 -0.07189,0.91056 0.129005,1.33931 0.244476,0.40209 0.51356,0.78408 0.884218,1.08233 0.416598,0.321 0.871615,0.56914 1.385184,0.69846 0.459792,0.11078 0.929472,0.1891 1.399464,0.24025 0.472155,0.055 0.947224,0.11417 1.41762,0.009 0.437952,-0.0779 0.856635,-0.21548 1.264621,-0.39342 0.448369,-0.1961 0.856486,-0.45086 1.245287,-0.74826 0.275741,-0.18001 0.5618,-0.36054 0.876836,-0.46297 -0.0901,-0.4043 0.144833,0.45178 0.07964,0.51335 -0.0077,0.6313 -0.0048,1.26339 0.09296,1.88908 0.128797,0.89827 0.323289,1.78647 0.583487,2.65613 0.289175,0.95656 0.583965,1.91819 1.014864,2.82215 0.386876,0.72765 0.796437,1.45364 1.527277,1.88753 0.537843,0.2456 1.062643,0.31205 1.602697,0.023 0.449095,-0.24871 0.810277,-0.59502 1.068523,-1.04295 0.311015,-0.46254 0.567374,-0.9536 0.792735,-1.46345 0.223534,-0.54915 0.427193,-1.105 0.516148,-1.69457 0.116247,-0.61535 0.195892,-1.24075 0.227688,-1.86613 -0.0012,-0.62961 -0.0012,-1.26045 -0.09882,-1.88446 -0.09898,-0.69206 -0.261704,-1.3737 -0.336475,-2.06938 -0.01133,-0.47448 -0.05491,-0.97162 0.120296,-1.42345 0.131738,-0.2569 0.07771,-0.34146 0.420457,-0.21872 0.666099,0.25082 1.310363,0.55666 1.959215,0.84823 0.800908,0.32096 1.615572,0.60897 2.450669,0.82856 0.740279,0.16804 1.515031,0.31291 2.255799,0.0675 0.484937,-0.21003 0.95426,-0.44988 1.244653,-0.91296 0.226418,-0.3743 0.425394,-0.77006 0.538821,-1.19448 0.07387,-0.35412 0.126363,-0.712 0.1419,-1.07392 -0.0098,-0.33957 -0.02118,-0.68004 -0.143361,-1.00213 -0.126766,-0.32984 -0.31683,-0.62155 -0.557567,-0.88106 -0.31729,-0.32911 -0.693846,-0.58532 -1.110103,-0.77577 -0.510941,-0.21562 -1.039378,-0.39229 -1.582446,-0.50766 -0.734923,-0.14528 -1.480038,-0.23554 -2.222503,-0.33284 -0.785383,-0.0674 -1.572191,-0.11533 -2.360282,-0.13746 -0.837365,-0.0416 -0.468536,-0.22498 -0.589524,0.39624 -0.214207,0.14335 0.719421,-0.4022 0.791417,-0.38188 0.450844,-0.22385 0.896266,-0.45755 1.35326,-0.66902 0.500676,-0.2486 1.005293,-0.48981 1.493429,-0.76275 0.535321,-0.2926 1.073171,-0.58159 1.593165,-0.901 0.539308,-0.3082 1.058169,-0.64957 1.52423,-1.06253 0.430797,-0.4041 0.796607,-0.84875 1.0968,-1.35933 0.282151,-0.46859 0.544935,-0.96358 0.52817,-1.52666 -0.03776,-0.40758 -0.138667,-0.79627 -0.329268,-1.16106 -0.163313,-0.34099 -0.347047,-0.67248 -0.608676,-0.94964 -0.281262,-0.29282 -0.596697,-0.53239 -0.985985,-0.66444 -0.427543,-0.14402 -0.857979,-0.28042 -1.306581,-0.34258 -0.594126,-0.0807 -1.196625,-0.0811 -1.784593,0.0508 -0.69038,0.17374 -1.310598,0.49954 -1.910828,0.87956 -0.679292,0.42478 -1.373987,0.84084 -1.978809,1.36908 -0.48259,0.44132 -0.95362,0.90005 -1.247998,1.49392 -0.31867,0.61117 -0.555601,1.26039 -0.756803,1.91907 -0.155126,0.5021 -0.327194,1.01851 -0.362729,1.54433 0.03985,0.54884 0.816038,0.49246 0.77618,-0.0564 z"
       inkscape:connector-curvature="0" />
    <path
       style="fill:#020000;fill-opacity:1;stroke:#000000;stroke-width:0.33043125px;stroke-linecap:butt;stroke-linejoin:miter;stroke-opacity:1"
       d="m 42.629586,233.45194 10.234359,0.38914 -0.389113,-22.5687 7.782302,22.17956 14.302759,-0.55787 v -39.89554 l -10.800724,0.37456 0.389119,22.56866 L 53.253061,193.7622 H 43.018702 Z"
       id="path939-6"
       inkscape:connector-curvature="0"
       sodipodi:nodetypes="ccccccccccc" />
  </g>
</svg>
